<svg id="Capa_2" data-name="Capa 2" xmlns="http://www.w3.org/2000/svg" viewBox="0 0 90.7 90.7"><defs><style>.cls-1{fill:#fff;}</style></defs><path class="cls-1" d="M18.7,8.8H21V9.8l-2.5.4Zm1.8.3,1,.4-1.1,2.1-1.3-.5ZM20.6,7l1,1.9-1.2.7L19.2,7.9Zm-.2,2.6,1.2-.7,1.2,1.8-1.4.9Zm1.1-.1-1-.4,1.1-2.2,1.3.5Zm1.8.3H20.9V8.7l2.5-.3Z" transform="translate(0 0)"/><path class="cls-1" d="M31.2,2.1,35,1.3a5,5,0,0,1,2.4-.1,2.6,2.6,0,0,1,1.7.9,3.9,3.9,0,0,1,1,1.9h0A5.4,5.4,0,0,1,40,6.2a3.6,3.6,0,0,1-1.2,1.6,6.3,6.3,0,0,1-2.2.9l-3.8.9Zm4.6,5a2.8,2.8,0,0,0,1.1-.5,1.4,1.4,0,0,0,.5-.8,2.4,2.4,0,0,0,0-1.2h0a1.6,1.6,0,0,0-.5-1,1.1,1.1,0,0,0-.8-.5,2,2,0,0,0-1.1,0l-.8.2L35,7.2Z" transform="translate(0 0)"/><path class="cls-1" d="M41.2.2,47.6,0V1.8H43.9V3.1h3.5V4.7H44V6h3.8V7.6l-6.4.2Z" transform="translate(0 0)"/><path class="cls-1" d="M50.2,7.7a2.9,2.9,0,0,1-1.2-1,1.4,1.4,0,0,1-.3-1.3h0l2.4.4h0a.5.5,0,0,0,.2.4l.5.3.7.2a.9.9,0,0,0,.7,0h.4c.2-.1.2-.2.2-.3h0a.4.4,0,0,0-.2-.5l-1-.4L51.7,5a3.8,3.8,0,0,1-1.9-1,2,2,0,0,1-.6-1.6h0a1.9,1.9,0,0,1,.7-1.2A2.6,2.6,0,0,1,51.4.5h1.9a5.2,5.2,0,0,1,2,.6,2.2,2.2,0,0,1,1.1,1,1.5,1.5,0,0,1,.3,1.3h0l-2.4-.4h0a.5.5,0,0,0-.2-.4l-.4-.3-.6-.2c-.3,0-.5-.1-.6,0h-.4c-.1.1-.2.2-.2.3h0c0,.2,0,.4.2.5l1,.4.9.2a5.3,5.3,0,0,1,2,1.1,1.8,1.8,0,0,1,.5,1.6h0a1.9,1.9,0,0,1-.7,1.2,2.1,2.1,0,0,1-1.4.7H52.2A5.9,5.9,0,0,1,50.2,7.7Z" transform="translate(0 0)"/><path class="cls-1" d="M59,1.7l2.6.9L59.7,8.2l3.4,1.1L62.5,11,56.6,9Z" transform="translate(0 0)"/><path class="cls-1" d="M66.3,4.5l2.4,1.2-3.4,6.9-2.4-1.2Z" transform="translate(0 0)"/><path class="cls-1" d="M66.8,11.6l5.9-1.1h0L69.4,8l1.1-1.4,5.7,4.3L75.4,12l-5.8,1.2h0L73,15.7l-1.1,1.4L66,12.8Z" transform="translate(0 0)"/><path class="cls-1" d="M79.8,14.5l1.6,2L80,17.7l-.6-.7-5.5,2.3-1.8-2.2ZM76,17l2.8,3.5L78,21.9l-3.6-4.3Zm3.5,0,1.3-1.1,1.1,1.3L78,24.4l-1.8-2.2Z" transform="translate(0 0)"/><path class="cls-1" d="M84.8,21.4l1.7,3.8a5.6,5.6,0,0,1,.6,2,4,4,0,0,1-.3,1.5,2,2,0,0,1-1.1.9h0a2.2,2.2,0,0,1-1.4.2l-1.2-.6L81.3,32l-1.2-2.8,1.6-2.4h0l-.4-.7-2.2,1.1L78,24.6Zm-1.6,5a2.2,2.2,0,0,0,.6.7h.8a.7.7,0,0,0,.4-.6,1,1,0,0,0-.1-.9l-.5-1-1.6.8Z" transform="translate(0 0)"/><path class="cls-1" d="M89.7,35.8l.4,2.5-1.8.3v-.9l-5.9-1-.4-2.8Zm-1.5,1.9,1.8-.2.2,1.6-7,4.1-.4-2.8Zm-2.9-1.8.6,4.4-1.5.8-.8-5.6Z" transform="translate(0 0)"/><path class="cls-1" d="M84.7,45v2.5a1.6,1.6,0,0,0,.2,1,.6.6,0,0,0,.6.3h.4l.3-.5a1.5,1.5,0,0,0,.1-.7V45h1.4v2.4a2,2,0,0,0,.2.9.7.7,0,0,0,.6.3h0a.5.5,0,0,0,.5-.3c.2-.2.2-.5.3-.8V45h1.5v3.2a7.6,7.6,0,0,1-.3,1.6,2.6,2.6,0,0,1-.7,1,1.8,1.8,0,0,1-1,.4h0c-.3-.1-.6-.1-.8-.3a1.8,1.8,0,0,1-.5-.7,1.7,1.7,0,0,1-.3-1H87a5,5,0,0,1-.2,1.2,2.7,2.7,0,0,1-.7.8,1.1,1.1,0,0,1-.8.3h-.1a2.1,2.1,0,0,1-1.1-.4,2.4,2.4,0,0,1-.7-1.2,4.7,4.7,0,0,1-.3-1.7V44.9Zm6-1.3v2.7H83.2V43.6Z" transform="translate(0 0)"/><path class="cls-1" d="M87.6,57.4l1.7.5-.4,1.6-8,1.1.7-2.8Zm2.2-1.2-.7,2.5-1.7-.5.2-.8-5.1-3.2.7-2.8Zm-4.2-1.7-1.1,4.4-1.7.2,1.4-5.5Z" transform="translate(0 0)"/><path class="cls-1" d="M80.4,61.7a3.1,3.1,0,0,1,1.4-.7,3.4,3.4,0,0,1,1.6.4h0l-1.2,2.3h0l-.5-.2-.5.2-.3.4a.6.6,0,0,0-.1.7c0,.2.2.4.5.5l4.3,2.4-1.3,2.4L80,67.7a2.5,2.5,0,0,1-1.4-1.8,5.1,5.1,0,0,1,.6-2.7A9.8,9.8,0,0,1,80.4,61.7Z" transform="translate(0 0)"/><path class="cls-1" d="M76.3,68.9a3.9,3.9,0,0,1,2.1-.3,4.7,4.7,0,0,1,1.9,1.1h0a3.4,3.4,0,0,1,1.1,1.8,3,3,0,0,1-.1,2.1A5.1,5.1,0,0,1,80,75.8a5.5,5.5,0,0,1-2,1.5,2.8,2.8,0,0,1-2,.2,3.2,3.2,0,0,1-1.9-1h0a3.6,3.6,0,0,1-1.2-1.8,3.8,3.8,0,0,1,.1-2.1,6.5,6.5,0,0,1,3.3-3.7Zm-1.2,3.7a3.8,3.8,0,0,0,.1,1l.7.9h0a2.7,2.7,0,0,0,1,.6,1.7,1.7,0,0,0,1,0,1.6,1.6,0,0,0,.8-.6,2,2,0,0,0,.5-.9,1.8,1.8,0,0,0-.1-1,2.8,2.8,0,0,0-.7-.9h0a2.1,2.1,0,0,0-1-.6h-.9l-.9.6A1.9,1.9,0,0,0,75.1,72.6Z" transform="translate(0 0)"/><path class="cls-1" d="M67.4,80.9h2.4V82l-2.4.3Zm1.8.3,1,.4-1.1,2.1-1.3-.4Zm1.1-.1-1.1.7L67.9,80l1.4-.9Zm-.1,2.6-1-1.9,1.1-.7,1.2,1.7Zm0-2.1-1-.4,1.1-2.1,1.3.5Zm1.9.3H69.7V80.8l2.4-.3Z" transform="translate(0 0)"/><path class="cls-1" d="M62.1,87.8l-3.8,1a6.9,6.9,0,0,1-2.4.2,3,3,0,0,1-1.7-.8,4,4,0,0,1-1.1-1.9h0a3.7,3.7,0,0,1,0-2.1,3.2,3.2,0,0,1,1.1-1.7,5.7,5.7,0,0,1,2.2-1.1l3.7-1ZM57.2,83c-.5.2-.8.3-1,.6a1,1,0,0,0-.5.8,1.7,1.7,0,0,0,.1,1.2h0a1.9,1.9,0,0,0,.5,1,1.2,1.2,0,0,0,.8.4h1.1l.8-.3-1-3.9Z" transform="translate(0 0)"/><path class="cls-1" d="M52.2,90.2l-6.4.5V89l3.7-.4V87.4l-3.5.3V86.1l3.5-.3V84.6l-3.8.3V83.1l6.4-.5Z" transform="translate(0 0)"/><path class="cls-1" d="M42.8,83.1a3.4,3.4,0,0,1,1.3,1,1.8,1.8,0,0,1,.4,1.3h0L42,85.3h0a.8.8,0,0,0-.2-.4l-.5-.3H39.9l-.4.2c-.1.1-.2.2-.2.3h0a.5.5,0,0,0,.3.5l1,.3.9.2a6.2,6.2,0,0,1,2,1,2,2,0,0,1,.6,1.5h0a2.6,2.6,0,0,1-.6,1.3,3.1,3.1,0,0,1-1.4.7,6.5,6.5,0,0,1-2,.2,9.7,9.7,0,0,1-2-.5,3.8,3.8,0,0,1-1.2-.9,1.9,1.9,0,0,1-.3-1.3h0L39,88h0c0,.1.1.2.2.3l.4.3.7.2h.6l.4-.2c.1,0,.1-.1.1-.3h0l-.2-.4-1-.3-.9-.3a4.1,4.1,0,0,1-2.1-.9,2,2,0,0,1-.6-1.5h0a2.6,2.6,0,0,1,.6-1.3,3.2,3.2,0,0,1,1.4-.8,5.4,5.4,0,0,1,2.2-.1Z" transform="translate(0 0)"/><path class="cls-1" d="M34.4,89.7l-2.6-.8,1.6-5.6-3.5-1,.5-1.7,6,1.7Z" transform="translate(0 0)"/><path class="cls-1" d="M26.9,87.3l-2.4-1,2.9-7.1,2.5,1.1Z" transform="translate(0 0)"/><path class="cls-1" d="M26,80.3l-5.7,1.5h-.1L23.6,84l-.9,1.5-6-3.8.7-1.2,5.7-1.6h.1l-3.6-2.3.9-1.5,6.2,4Z" transform="translate(0 0)"/><path class="cls-1" d="M13,75.8,11.7,77l-1.1-1.2L14,68.4l1.9,2Zm-.1,2.5-1.7-1.9,1.3-1.2.6.6,5.4-2.7,1.9,2.1Zm3.6-2.8-3.1-3.2.8-1.5L18,74.9Z" transform="translate(0 0)"/><path class="cls-1" d="M7.4,71.8l-2-3.7a5.6,5.6,0,0,1-.7-1.9,2.4,2.4,0,0,1,.2-1.5,2.6,2.6,0,0,1,1-1.1h0a2.2,2.2,0,0,1,1.4-.2,2.1,2.1,0,0,1,1.2.5L10.1,61l1.5,2.7-1.5,2.4h0l.4.7,2.2-1.2L14,68.1Zm1.2-5.1A2.2,2.2,0,0,0,8,66a.8.8,0,0,0-.8.1h0a.7.7,0,0,0-.4.6,1,1,0,0,0,.2.9l.5,1,1.6-.9Z" transform="translate(0 0)"/><path class="cls-1" d="M2.9,55.7l-1.7.4L.8,54.4l6.8-4.5.5,2.8Zm-1.4,2L1,55.2l1.7-.3.2.8,6,.7.6,2.8ZM6,57.4l-.9-4.5,1.4-.8,1.1,5.5Z" transform="translate(0 0)"/><path class="cls-1" d="M6.1,48.2V45.7a2,2,0,0,0-.2-.9.7.7,0,0,0-.6-.4h0l-.5.2a.8.8,0,0,0-.2.5,1.5,1.5,0,0,0-.1.7v2.5H3.2V46a1.2,1.2,0,0,0-.3-.9.6.6,0,0,0-.6-.3h0a.5.5,0,0,0-.5.3,2,2,0,0,0-.2.9v2.4H.1V45.3a4.4,4.4,0,0,1,.2-1.7,1.7,1.7,0,0,1,.6-1,1.3,1.3,0,0,1,1-.4h0a1.1,1.1,0,0,1,.8.2l.6.7a9.4,9.4,0,0,1,.3.9h0a3.6,3.6,0,0,1,.2-1.1,3.5,3.5,0,0,1,.6-.9,1.6,1.6,0,0,1,.9-.3h0a1.7,1.7,0,0,1,1.2.3,3.1,3.1,0,0,1,.8,1.1,4.7,4.7,0,0,1,.3,1.7v3.4ZM.2,49.8V47.1l7.5-.3v2.7Z" transform="translate(0 0)"/><path class="cls-1" d="M.4,37.4l.5-2.6,1.7.4V36l5.3,2.9-.5,2.8ZM2.5,36,.7,35.7,1,34l7.9-1.6-.5,2.8Zm2.2,2.7.8-4.4L7.1,34l-.9,5.6Z" transform="translate(0 0)"/><path class="cls-1" d="M9.4,31.2A2.9,2.9,0,0,1,8,32a2.6,2.6,0,0,1-1.5-.2H6.4l1.1-2.4H8l.4-.2c.2-.1.3-.2.3-.4a.8.8,0,0,0,.1-.8,1,1,0,0,0-.5-.4l-4.5-2,1.1-2.5,4.5,2a2,2,0,0,1,1.4,1.7,4.5,4.5,0,0,1-.3,2.7A5,5,0,0,1,9.4,31.2Z" transform="translate(0 0)"/><path class="cls-1" d="M13,23.8a5.2,5.2,0,0,1-2.1.4A3.7,3.7,0,0,1,9,23.3H8.9a3.6,3.6,0,0,1-1.2-1.8,3.7,3.7,0,0,1-.1-2.1,7.6,7.6,0,0,1,1.1-2.2,7.3,7.3,0,0,1,1.9-1.7,5.2,5.2,0,0,1,2.1-.4,3.7,3.7,0,0,1,1.9.9h.1a3.6,3.6,0,0,1,1.2,1.8,3,3,0,0,1,.1,2.1,6,6,0,0,1-1.2,2.2A5.7,5.7,0,0,1,13,23.8Zm.9-3.8a2.9,2.9,0,0,0-.2-.9,2.2,2.2,0,0,0-.7-.9h0a3,3,0,0,0-1.1-.6H11a1.6,1.6,0,0,0-.8.6,1.3,1.3,0,0,0-.4,1,1.4,1.4,0,0,0,.1.9,3.1,3.1,0,0,0,.7.9h0a3,3,0,0,0,1.1.6h.9a1.6,1.6,0,0,0,.8-.6A2.4,2.4,0,0,0,13.9,20Z" transform="translate(0 0)"/></svg>