<?xml version="1.0" encoding="UTF-8"?><svg id="Layer_2" xmlns="http://www.w3.org/2000/svg" viewBox="0 0 527.42 359.79"><defs><style>.cls-1{fill:none;stroke:#fff;stroke-miterlimit:10;stroke-width:2px;}</style></defs><g id="Layer_1-2"><path class="cls-1" d="M125.35,352.53c-23.95-4.17-43.88-9.65-59.79-16.45-15.92-6.79-28.35-14.52-37.31-23.17-8.96-8.65-15.53-17.61-19.7-26.88-4.17-9.27-6.56-18.38-7.18-27.34-.61-8.96-.46-16.99,.46-24.1H203.44c0,3.71,.38,7.73,1.16,12.05,.77,4.33,2.78,8.34,6.03,12.05,3.24,3.71,8.26,6.8,15.06,9.27,6.79,2.48,16.22,3.71,28.27,3.71,11.12,0,20.16-.77,27.11-2.32,6.95-1.54,12.35-3.48,16.22-5.79,3.86-2.32,6.49-4.94,7.88-7.88,1.39-2.93,2.09-5.79,2.09-8.57,0-3.4-.62-6.49-1.85-9.27-1.24-2.78-4.1-5.25-8.57-7.41-4.48-2.16-10.89-3.94-19.23-5.33-8.34-1.39-19.46-2.55-33.37-3.48l-57.01-3.24c-31.83-1.86-57.86-5.95-78.09-12.28-20.24-6.33-36.23-14.29-47.97-23.87-11.75-9.57-19.86-20.39-24.33-32.44-4.48-12.05-6.72-24.72-6.72-38,0-3.4,.3-7.26,.93-11.59,.62-4.32,1.23-8.03,1.85-11.12,3.4-15.14,10.04-28.27,19.93-39.39,9.88-11.12,23.94-20.23,42.18-27.34,18.23-7.1,40.94-12.43,68.13-15.99,27.19-3.55,59.94-5.33,98.25-5.33h57.47c32.75,0,60.79,1.62,84.12,4.87,23.33,3.24,42.79,7.73,58.4,13.44,15.6,5.72,27.88,12.28,36.85,19.7,8.96,7.41,15.6,15.22,19.93,23.4,4.32,8.19,6.87,16.53,7.65,25.03,.77,8.5,.85,16.61,.23,24.33h-197.9c0-3.08-.46-6.26-1.39-9.5s-3.01-6.26-6.26-9.04-8.11-5.02-14.6-6.72c-6.49-1.69-15.29-2.55-26.42-2.55-20.09,0-33.68,1.47-40.78,4.4-7.11,2.94-10.66,7.49-10.66,13.67,0,3.09,.85,5.79,2.55,8.11,1.69,2.32,4.87,4.33,9.5,6.03,4.64,1.7,11.04,3.17,19.23,4.4,8.18,1.24,18.92,2.17,32.21,2.78l56.54,2.78c31.52,1.55,58,4.56,79.48,9.04,21.47,4.48,38.85,10.66,52.14,18.54,13.28,7.88,22.78,17.54,28.5,28.97,5.71,11.44,8.57,25.03,8.57,40.78,0,9.58-.46,17.61-1.39,24.1-2.17,15.45-7.11,29.89-14.83,43.33-7.73,13.44-20.62,25.19-38.7,35.22-18.07,10.04-42.33,18-72.76,23.87-30.44,5.87-69.45,8.81-117.02,8.81h-59.32c-34.3,0-63.42-2.09-87.36-6.26Z"/></g></svg>