<?xml version="1.0" encoding="UTF-8"?><svg id="Layer_2" xmlns="http://www.w3.org/2000/svg" viewBox="0 0 548.59 346.81"><defs><style>.cls-1{fill:none;stroke:#fff;stroke-miterlimit:10;stroke-width:2px;}</style></defs><g id="Layer_1-2"><path class="cls-1" d="M173.12,345.81H1.17L55.86,1H427.09c17.3,0,33.29,1.47,47.97,4.4,14.67,2.94,27.41,7.57,38.23,13.9,10.81,6.34,19.23,14.68,25.26,25.03,6.02,10.35,9.04,22.94,9.04,37.77,0,13.9-2.71,26.19-8.11,36.85-5.41,10.66-12.51,19.86-21.32,27.58-8.81,7.73-18.7,13.9-29.66,18.54-10.97,4.63-22.17,7.88-33.6,9.73,23.17,6.18,40.86,17.08,53.07,32.67,12.2,15.6,16.45,34.69,12.74,57.24l-7.41,46.34c-1.55,8.65-2.09,15.45-1.62,20.39,.46,4.95,1.31,8.81,2.55,11.59l-.46,2.78h-177.51c-.93-2.16-.93-6.64,0-13.44l6.49-38.93c3.09-18.23,.39-32.44-8.11-42.64-8.5-10.2-24.79-15.29-48.89-15.29h-95.01l-17.61,110.3Zm159.89-207.17c6.79,0,12.35-.77,16.68-2.32,4.32-1.54,7.72-3.48,10.2-5.79,2.47-2.32,4.17-4.94,5.1-7.88,.93-2.93,1.39-5.79,1.39-8.57,0-5.56-2.09-10.12-6.26-13.67-4.17-3.55-11.67-5.33-22.48-5.33h-124.67l-6.95,43.56h126.99Z"/></g></svg>