<?xml version="1.0" encoding="UTF-8"?><svg id="Layer_2" xmlns="http://www.w3.org/2000/svg" viewBox="0 0 538.82 360.72"><defs><style>.cls-1{fill:none;stroke:#fff;stroke-miterlimit:10;stroke-width:2px;}</style></defs><g id="Layer_1-2"><path class="cls-1" d="M249.88,359.72c-34.3,0-64.19-2.01-89.68-6.02-25.49-4.01-47.5-9.65-66.04-16.92-18.54-7.26-33.76-15.83-45.65-25.72-11.9-9.88-21.4-20.62-28.5-32.21-7.11-11.59-12.05-23.87-14.83-36.84-2.78-12.98-4.17-26.11-4.17-39.39,0-8.03,.3-15.6,.93-22.71,.62-7.1,1.23-12.82,1.85-17.15,1.86-10.81,4.64-22.4,8.34-34.76,3.71-12.35,9.42-24.48,17.15-36.38,7.72-11.89,17.99-23.33,30.82-34.3,12.82-10.96,29.04-20.62,48.66-28.97,19.62-8.34,43.33-14.98,71.14-19.93,27.81-4.94,60.55-7.41,98.25-7.41h15.76c38.62,0,71.52,2.55,98.72,7.65,27.18,5.1,49.97,11.82,68.36,20.16,18.38,8.34,32.91,17.77,43.56,28.27,10.66,10.51,18.54,21.09,23.64,31.75,5.1,10.66,8.11,21.02,9.04,31.05,.93,10.04,.77,18.62-.46,25.72l-1.39,8.81h-173.33c0-1.86-.77-5.17-2.32-9.97-1.55-4.79-5.1-9.65-10.66-14.6-5.56-4.94-13.83-9.34-24.79-13.21-10.97-3.86-25.88-5.79-44.72-5.79s-35.38,2.01-47.74,6.02c-12.36,4.02-22.09,9.04-29.2,15.06-7.11,6.02-12.21,12.44-15.29,19.23-3.09,6.8-5.26,13.14-6.49,19-1.55,7.73-2.32,14.68-2.32,20.86,0,7.73,1.23,15.06,3.71,22.01,2.47,6.95,6.87,13.14,13.21,18.54,6.33,5.41,14.83,9.66,25.49,12.74,10.66,3.09,24.17,4.64,40.55,4.64,19.47,0,35.06-2.09,46.81-6.26,11.74-4.17,20.86-8.96,27.34-14.37,6.49-5.4,10.96-10.66,13.44-15.76,2.47-5.1,4.01-8.73,4.63-10.89h174.26l-.93,6.02c-1.24,7.73-3.17,16.84-5.79,27.35-2.63,10.51-7.18,21.4-13.67,32.67-6.49,11.28-15.45,22.41-26.88,33.37-11.44,10.97-26.65,20.78-45.65,29.43-19,8.65-42.33,15.69-69.98,21.09-27.66,5.4-60.79,8.11-99.41,8.11h-15.76Z"/></g></svg>