<svg xmlns="http://www.w3.org/2000/svg" viewBox="0 0 677.25 677.25"><g id="Layer_2" data-name="Layer 2"><g id="Layer_1-2" data-name="Layer 1"><polygon points="220.54 446.68 225.36 446.68 222.98 439.41 222.92 439.41 220.54 446.68"/><path d="M158.11,445.34a3.58,3.58,0,0,0,2.56-.85,3.11,3.11,0,0,0,.91-2.38v0a3.12,3.12,0,0,0-.91-2.39,3.62,3.62,0,0,0-2.56-.84h-2.77v6.49Z"/><path d="M182.89,373.83c.11,19.26,25.44,19.14,25.56,0C208.33,354.45,183,354.45,182.89,373.83Z"/><path d="M108.59,439.46a5,5,0,0,0-5.29,0,4.76,4.76,0,0,0-1.74,2.14,8.05,8.05,0,0,0-.61,3.29v0a8.08,8.08,0,0,0,.61,3.29,4.89,4.89,0,0,0,1.73,2.15,4.66,4.66,0,0,0,2.65.76,4.61,4.61,0,0,0,2.67-.77,4.87,4.87,0,0,0,1.72-2.15,8.07,8.07,0,0,0,.61-3.28v0a8.29,8.29,0,0,0-.61-3.29A4.89,4.89,0,0,0,108.59,439.46Z"/><polygon points="384.39 446.68 389.21 446.68 386.83 439.41 386.77 439.41 384.39 446.68"/><polygon points="438.71 446.68 443.53 446.68 441.15 439.41 441.09 439.41 438.71 446.68"/><path d="M107.34,257.93h-6.07v8.67h6.07C112.92,266.6,113.28,257.93,107.34,257.93Z"/><path d="M109.36,285.63h-8.09v10.46h8.09c4.16,0,5.94-2.61,5.94-5.23S113.64,285.63,109.36,285.63Z"/><path d="M338.62,0C151.61,0,0,151.61,0,338.62S151.61,677.25,338.62,677.25,677.25,525.64,677.25,338.62,525.64,0,338.62,0Zm-94,235.69h27.11l22.83,32.69-2-17.47V235.69h32.22v83.23H297.67L274.6,286.1l2.5,18.43v14.39H244.64ZM239,272.19H208c-4.16-13.9-24.73-12.24-24.73,5.24s21,19,24.85,4.75H239c-4.87,52.68-87.75,51.6-88-4.75C151.25,220.94,233.65,219.4,239,272.19ZM68.81,235.69h52.55a22.11,22.11,0,0,1,21.88,22.83c-.12,6.66-3.68,12.84-10.22,15.1,9.87,3.81,15.1,10.22,14.5,21.16-.59,14.27-11.77,24.14-26.39,24.14H68.81ZM85,453.45h-3V446H73.63v7.41H70.57V436.37h3.06v7.1h8.31v-7.1h3ZM114,444.91a10.41,10.41,0,0,1-1,4.7,7.22,7.22,0,0,1-2.8,3.06,9.22,9.22,0,0,1-8.62,0,7.18,7.18,0,0,1-2.81-3.06,10.41,10.41,0,0,1-1-4.7v0a10.23,10.23,0,0,1,1-4.69,7.22,7.22,0,0,1,2.81-3.05,9.1,9.1,0,0,1,8.6,0,7.16,7.16,0,0,1,2.81,3.05,10.36,10.36,0,0,1,1,4.69Zm25.53,3.63a4.78,4.78,0,0,1-.8,2.75,5.16,5.16,0,0,1-2.3,1.82,9.17,9.17,0,0,1-3.58.63,9,9,0,0,1-3.43-.59,5.32,5.32,0,0,1-2.31-1.69,4.69,4.69,0,0,1-1-2.63v-.18h2.91l0,.15a2.31,2.31,0,0,0,.64,1.26,3.21,3.21,0,0,0,1.34.82,5.62,5.62,0,0,0,1.9.29,5.29,5.29,0,0,0,1.87-.29,2.73,2.73,0,0,0,1.21-.85,2,2,0,0,0,.42-1.28h0a1.81,1.81,0,0,0-.71-1.52,6.16,6.16,0,0,0-2.38-.91l-1.83-.38a7.65,7.65,0,0,1-3.77-1.71,4.08,4.08,0,0,1-1.25-3.1h0a4.47,4.47,0,0,1,.82-2.64,5.28,5.28,0,0,1,2.25-1.77,8,8,0,0,1,3.26-.63,8.21,8.21,0,0,1,3.26.61,5.35,5.35,0,0,1,2.19,1.72,4.73,4.73,0,0,1,.89,2.56v.2h-2.91l0-.15a2.44,2.44,0,0,0-.55-1.28,2.93,2.93,0,0,0-1.19-.81,4.64,4.64,0,0,0-1.69-.28,4.49,4.49,0,0,0-1.72.29,2.54,2.54,0,0,0-1.13.81,2,2,0,0,0-.39,1.21h0a1.76,1.76,0,0,0,.72,1.46,5.61,5.61,0,0,0,2.27.88l1.84.38a8.06,8.06,0,0,1,3.89,1.7,4.1,4.1,0,0,1,1.22,3.14Zm-31.52-30.48c-20.8,0-39.12-9.63-39.24-30.67h32.34c0,4,3.69,5.11,7.38,5.11s6.66-.95,6.66-4.05c0-2.73-2-4-8-4.64-18.19-1.53-37.93-4.63-37.93-26.75,0-17,18.19-27,38.76-27,21.52,0,38.17,9.16,38.65,28.3H115.19c-.12-2.61-3.33-3.92-6.54-3.92-2.86,0-6.54,1.19-6.54,4.64,0,2.85,2.26,4.16,5.11,4.39,17.48,1.44,40.78,3.45,40.78,26C148,411.52,126.72,418.06,108.05,418.06Zm56.63,24a5.88,5.88,0,0,1-.74,3,5.19,5.19,0,0,1-2,2,6.29,6.29,0,0,1-3,.71h-3.52v5.65h-3.06V436.37h6.58a6.18,6.18,0,0,1,3,.71,5.07,5.07,0,0,1,2,2,6,6,0,0,1,.74,3Zm15.7,11.35h-3V436.37h3Zm25.76-14.52H201v14.52h-3V438.93h-5.11v-2.56h13.26Zm21.43,14.52L226.13,449h-6.36l-1.44,4.42h-3.2l6.11-17.08h3.43l6.1,17.08ZM150.78,374c.24-58.26,89.89-58.15,90.13,0C240.67,431.38,151,432,150.78,374Zm103,79.5H243V436.37h3v14.51h7.74Zm15.69,0h-3.06V436.37h3.06Zm25.75-14.52h-5.1v14.52h-3V438.93H282v-2.56h13.25Zm20.36,7.78v6.74h-3v-6.74l-6-10.34h3.34l4.13,7.43h.08l4.13-7.43h3.34ZM302.9,379.06h30.92c-4.87,52.68-87.75,51.6-88-4.75.24-56.48,82.64-58,88-5.24h-31c-4.17-13.9-24.74-12.24-24.74,5.24S299.1,393.33,302.9,379.06Zm63.83,74.39H364V441.29h-.1L359,453.45H356.9L352,441.29h-.09v12.16h-2.75V436.37h3.53l5.23,13.05H358l5.24-13.05h3.52Zm24.7,0L390,449h-6.36l-1.44,4.42H379l6.11-17.08h3.44l6.09,17.08ZM397.24,356H384.76v36.38h12.48V415.8H337.91V392.38h13.91V356H337.91V332.57h59.33Zm4.44-23.43h66.7v24.49H434v5.59h33.05v23.19H434v5.47h34.36V415.8h-66.7ZM421,453.45h-2.72l-8.35-12h-.07v12h-3V436.37h2.75l8.33,12H418v-12h3Zm24.7,0L444.3,449h-6.36l-1.44,4.42h-3.2l6.11-17.08h3.43l6.1,17.08Zm29.7-7.13a8.21,8.21,0,0,1-.89,4,6,6,0,0,1-2.55,2.55,9.32,9.32,0,0,1-8.31-.18,7.16,7.16,0,0,1-2.8-3.08,10.71,10.71,0,0,1-1-4.75h0a10.39,10.39,0,0,1,1-4.68,7.1,7.1,0,0,1,2.79-3,9.1,9.1,0,0,1,7.81-.34,6.59,6.59,0,0,1,3.77,4.76l.05.2h-3.09l-.05-.13a4.29,4.29,0,0,0-1.56-2.14,4.52,4.52,0,0,0-2.66-.77,4.7,4.7,0,0,0-2.64.72,4.54,4.54,0,0,0-1.69,2.09,8.16,8.16,0,0,0-.6,3.29h0a8.63,8.63,0,0,0,.61,3.37,4.84,4.84,0,0,0,1.74,2.16,4.7,4.7,0,0,0,2.66.76,5,5,0,0,0,2.28-.5,3.76,3.76,0,0,0,1.55-1.4,4,4,0,0,0,.59-2.1v-.26h-4.12v-2.37h7.1Zm24-7.39h-8v4.61H499V446h-7.56v4.88h8v2.57H488.35V436.37h11.06Zm30.68,14.52h-2.74V441.29h-.1l-4.92,12.16h-2.07l-4.93-12.16h-.09v12.16h-2.75V436.37H516l5.23,13.05h.08l5.24-13.05h3.52Zm10.14-94.84H522.51V415.8H490.05V358.61H472.34v-26h67.89Zm14.35,80.32h-8v4.61h7.56V446h-7.56v4.88h8v2.57H543.52V436.37h11.06Zm27.25,14.52h-2.72l-8.35-12h-.07v12h-3V436.37h2.75l8.33,12h.06v-12h3Zm25.77-14.52h-5.1v14.52h-3V438.93h-5.11v-2.56H607.6Zm1.16-52.14v29H576.3v-29l-33.18-52.31v-1.91h35.67l8.33,13.32,5.47,13.31,5.47-13.31,8.32-13.32h35.67v1.91Z"/></g></g></svg>