<?xml version="1.0" encoding="UTF-8"?><svg id="Layer_2" xmlns="http://www.w3.org/2000/svg" viewBox="0 0 849.89 138.49"><g id="Layer_1-2"><g><path d="M849.81,68.51c.69,15.35-3.56,29.05-12.09,41.38-8.25,11.93-19.49,20.01-33.25,24.56-15.46,5.11-31.09,5.38-46.62,.72-16.92-5.07-29.94-15.26-38.75-30.79-6.6-11.63-9.22-24.15-8.89-37.31,.5-20.11,7.77-37.38,23.13-50.67,8.45-7.31,18.35-12.06,29.38-14.46,10.65-2.32,21.37-2.65,31.95-.6,21.32,4.14,37.8,15.39,47.85,35.03,5.18,10.12,7.92,20.9,7.29,32.13Zm-109.1,.45c.96,5.03,1.5,10.19,2.97,15.07,5.91,19.64,24.34,30.23,44.68,26.08,14.64-2.99,24.07-12.41,28.5-26.66,3.41-11,3.05-21.96-1.47-32.59-6.21-14.58-17.35-22.54-33.19-23.54-11.27-.71-21.14,2.86-29.11,10.95-8.31,8.43-11.73,18.87-12.38,30.7Z"/><path d="M392.96,69c0-21.06,.03-42.12-.05-63.18,0-2.33,.58-3.18,3.02-3.23,15.81-.3,31.61-1.02,47.42-1.05,13.65-.03,27.01,2.02,39.43,8.26,16.45,8.27,26.15,21.72,30.43,39.42,2.24,9.25,2.47,18.68,1.6,27.98-1.57,16.73-7.95,31.46-21.06,42.58-8.25,6.99-17.92,11.19-28.42,13.74-14.6,3.55-29.43,2.47-44.2,2.52-8.23,.02-16.47-.39-24.7-.37-2.69,0-3.53-.71-3.51-3.49,.11-21.06,.06-42.12,.06-63.18h-.01Zm30.9-.17c0,12.82,0,25.65,0,38.47,0,1.24-.25,2.47,1.76,2.49,6.99,.07,13.98,.56,20.96,.36,6.41-.18,12.65-1.65,18.41-4.7,9.46-5,15.1-12.83,17.67-23.16,2.53-10.16,2.58-20.34-.59-30.21-4.41-13.74-14.47-21.63-28.57-23.37-8.85-1.1-17.92-.47-26.88-.71-2.15-.06-2.82,.63-2.81,2.85,.11,12.66,.05,25.32,.05,37.97Z"/><path d="M238.69,68.76c0-21.07,.05-42.14-.06-63.21-.01-2.77,.82-3.27,3.5-3.48,4.43-.34,7.35,1.37,10.38,4.39,14.07,14,28.38,27.77,42.59,41.64,9.8,9.56,19.58,19.15,29.37,28.72,.46,.44,.98,.81,1.48,1.22,.16-.67,.47-1.35,.47-2.02,.02-22.4,.01-44.8,0-67.2,0-5.94-.02-5.95,5.88-5.96,6.83,0,13.66,.14,20.48-.06,2.61-.08,3.01,.93,3.01,3.18-.04,30.39-.01,60.79,0,91.18,0,11.99-.06,23.98,.03,35.97,.02,2.3-.75,2.9-3,3.07-4.49,.34-7.84-.86-11.19-4.23-12.81-12.91-25.99-25.45-39.06-38.1-10.86-10.52-21.75-21-32.64-31.49-.28-.27-.64-.48-.96-.72-.15,.43-.42,.86-.43,1.3-.05,1.83-.03,3.66-.03,5.5,0,21.4-.03,42.8,.08,64.2,.01,2.44-.85,2.93-3.01,2.9-7.99-.1-15.99-.13-23.98-.02-2.38,.03-2.96-.87-2.96-3.08,.06-21.23,.04-42.47,.04-63.7h.02Z"/><path d="M.07,69C.07,48.19,.13,27.37,0,6.55-.02,3.62,.88,2.94,3.66,2.91c15.98-.15,31.96-.97,47.92-.6,11.22,.26,22.17,2.97,30.9,10.79,9.17,8.22,11.55,18.65,8.63,30.41-1.76,7.08-5.94,12.54-11.77,16.77-1.42,1.03-1.7,1.54,.11,2.49,10.02,5.28,15.55,13.61,17.54,24.8,1.6,8.99,.25,17.53-3.36,25.48-4.12,9.05-11.65,14.99-20.99,18.5-7,2.63-14.24,3.91-21.7,3.92-15.99,.02-31.97-.01-47.96,.09-2.4,.02-2.94-.9-2.94-3.09,.06-21.15,.04-42.3,.04-63.45Zm27.94,25.99h-.02c0,5.33-.06,10.66,.07,15.98,.02,.75,.98,2.12,1.49,2.11,8.55-.12,17.15,.02,25.64-.8,8.02-.77,13.29-5.97,14.12-13.82,1.03-9.73-2.69-19.9-14.83-21.31-7.89-.92-15.94-.48-23.91-.74-1.98-.07-2.63,.65-2.59,2.59,.09,5.33,.03,10.66,.03,15.99Zm.02-55.25c0,4.74,.05,9.49-.03,14.23-.03,1.79,.56,2.53,2.43,2.5,5.49-.07,10.99,.22,16.47-.05,6.69-.33,13.07-1.97,16.26-8.68,4.59-9.67,2.42-22.27-11.8-24.2-6.93-.94-14.07-.28-21.11-.39-1.7-.03-2.29,.62-2.25,2.36,.11,4.74,.04,9.48,.03,14.23Z"/><path d="M122.4,69.25c0-21.15,.03-42.29-.05-63.44,0-2.28,.61-3,2.92-3,25.39,.07,50.78,.07,76.17,.02,1.63,0,2.19,.4,2.17,2.07-.06,6.33-.05,12.65,.05,18.98,.04,2.15-.93,2.69-2.88,2.68-14.9-.05-29.8,.02-44.7-.12-2.69-.03-3.41,.81-3.37,3.4,.12,7.91,.09,15.82-.05,23.72-.04,2.48,1.38,2.39,3.05,2.39,13.57-.03,27.14-.04,40.71-.06,3.43,0,3.5,.08,3.51,3.49,0,5.58-.08,11.16,.06,16.73,.06,2.21-.66,2.85-2.84,2.84-13.57-.09-27.14-.05-40.71-.06q-3.7,0-3.7,3.82c0,8.41,.02,16.82,0,25.23,0,3.91-.02,3.9,3.78,3.9,15.4-.01,30.8-.02,46.2-.03q4.11,0,4.1,4.09c0,5.49-.1,10.99,.04,16.48,.06,2.33-.58,3.2-3.06,3.19-26.22-.08-52.44-.08-78.67-.02-2.24,0-2.78-.73-2.77-2.88,.08-21.15,.05-42.29,.05-63.44h-.02Z"/><path d="M650.41,2.87c17.82,0,35.63,.04,53.45-.04,2.13,0,2.92,.44,2.88,2.73-.13,7.41-.09,14.82-.01,22.23,.02,1.82-.48,2.41-2.39,2.39-11.74-.09-23.48,0-35.22-.08-2.26-.02-2.93,.63-2.93,2.95,.08,33.14,.02,66.28,.1,99.42,0,2.44-.7,3.13-3.1,3.09-8.57-.13-17.15-.15-25.73,0-2.59,.04-3.25-.85-3.25-3.31,.06-33.06,0-66.11,.09-99.17,0-2.49-.72-3.01-3.07-2.98-11.41,.12-22.81,0-34.22,.09-2.14,.02-2.93-.56-2.89-2.81,.12-7.24,.12-14.49,0-21.73-.04-2.22,.65-2.82,2.83-2.81,17.82,.08,35.63,.05,53.45,.05Z"/><path d="M542.23,69.02c0-20.99,.03-41.98-.04-62.96,0-2.41,.25-3.38,3.17-3.28,8.65,.29,17.32,.16,25.98,.04,2.24-.03,3.08,.57,3.08,2.93-.05,42.14-.06,84.28,0,126.42,0,2.58-.72,3.45-3.4,3.4-8.49-.16-16.99-.14-25.48,.01-2.61,.05-3.39-.69-3.38-3.35,.1-21.07,.06-42.14,.06-63.21h.01Z"/></g></g></svg>