<?xml version="1.0" encoding="UTF-8"?><svg id="Layer_2" xmlns="http://www.w3.org/2000/svg" viewBox="0 0 1528.69 344.47"><g id="Layer_1-2"><g id="Group_8" transform="translate(66.627 0.221)"><path id="Path_38" d="M97.39,150.56c-4.53,3.95-10.39,6.01-16.4,5.76-8.29,.28-16.19-3.54-21.14-10.2-10.43-16.52-10.43-37.56,0-54.08,4.94-6.66,12.85-10.47,21.14-10.19,5.72-.21,11.3,1.74,15.65,5.46,4.33,3.97,7.33,9.19,8.58,14.93h53.19c-2.76-19.12-10.93-34.09-24.53-44.92-13.6-10.83-31.23-16.25-52.89-16.25-14.89-.37-29.64,2.87-43,9.46-11.86,6.06-21.64,15.53-28.08,27.19C3.11,90.42-.3,104.67,.02,119.08c-.34,14.37,3.07,28.57,9.9,41.22,6.49,11.62,16.26,21.07,28.08,27.19,13.33,6.68,28.09,9.98,43,9.6,21.86,0,39.59-5.51,53.19-16.54s21.77-26.29,24.53-45.8h-53.21c-.83,6.04-3.69,11.61-8.1,15.82Z"/><path id="Path_39" d="M286.93,50.68c-27.85-12.82-59.91-12.82-87.76,0-12.14,6.05-22.22,15.56-28.96,27.33-13.61,25.69-13.61,56.45,0,82.15,6.74,11.77,16.81,21.28,28.96,27.33,27.85,12.8,59.91,12.8,87.76,0,12.14-6.05,22.22-15.56,28.96-27.33,13.6-25.69,13.6-56.45,0-82.15-6.74-11.77-16.82-21.28-28.96-27.33Zm-21.12,95.45c-11.2,12.57-30.47,13.68-43.04,2.47-.87-.78-1.7-1.6-2.47-2.47-11.02-16.34-11.02-37.74,0-54.08,11.22-12.57,30.5-13.66,43.07-2.44,.86,.77,1.67,1.58,2.44,2.44,11.04,16.34,11.04,37.74,0,54.08Z"/><path id="Path_40" d="M420.35,41.07c-9.14-.26-18.22,1.51-26.6,5.17-7.35,3.49-13.81,8.6-18.91,14.93l-3.84-18.32h-44.91V195.34h51.13V116.43c0-11.24,2.41-19.8,7.23-25.7,5.07-6.02,12.68-9.31,20.54-8.87,8.86,0,15.26,2.86,19.2,8.57,3.95,5.71,5.92,14.38,5.91,26.01v78.89h51.13V113.77c0-26.6-5.76-45.36-17.29-56.29-11.78-11.04-27.46-16.95-43.6-16.41Z"/><path id="Path_41" d="M630.87,57.48c-11.77-11.04-27.46-16.94-43.59-16.41-9.14-.26-18.22,1.51-26.6,5.17-7.35,3.49-13.81,8.6-18.91,14.93l-3.84-18.32h-44.93V195.34h51.13V116.43c0-11.24,2.41-19.8,7.23-25.7,5.07-6.02,12.69-9.31,20.55-8.87,8.86,0,15.26,2.86,19.2,8.57,3.95,5.71,5.92,14.38,5.91,26.01v78.89h51.12V113.77c0-26.6-5.76-45.36-17.28-56.29Z"/><path id="Path_42" d="M807.72,131.2c1.05-5.45,1.55-11,1.48-16.56,.27-13.57-3.31-26.94-10.34-38.55-6.95-11.18-16.94-20.15-28.8-25.85-13.33-6.34-27.96-9.48-42.71-9.18-14.42-.32-28.7,2.99-41.52,9.61-11.72,6.21-21.38,15.71-27.78,27.33-6.84,12.81-10.24,27.17-9.89,41.68-.36,14.36,3.16,28.55,10.19,41.07,6.95,11.76,17.3,21.14,29.69,26.89,14.55,6.63,30.42,9.86,46.4,9.45,12.54,.25,24.99-2.21,36.49-7.23,9.87-4.31,18.5-11.02,25.12-19.51,6.08-7.87,10-17.18,11.38-27.03h-50.24c-2.96,11.22-11.72,16.84-26.3,16.84-17.14,0-26.99-9.46-29.55-28.37v-.59l106.38-.02Zm-96.78-48.02c5.5-4.06,12.23-6.1,19.06-5.76,6.82-.27,13.54,1.76,19.07,5.76,5.2,4.14,8.64,10.11,9.61,16.69h-56.72c.75-6.51,3.97-12.48,8.99-16.69Z"/><path id="Path_43" d="M906.58,150.56c-4.53,3.95-10.39,6.01-16.4,5.76-8.29,.28-16.19-3.54-21.14-10.2-10.42-16.52-10.42-37.56,0-54.08,4.95-6.66,12.85-10.47,21.14-10.19,5.72-.21,11.31,1.74,15.65,5.46,4.33,3.97,7.33,9.19,8.57,14.93h53.19c-2.75-19.12-10.93-34.09-24.53-44.92-13.6-10.83-31.23-16.25-52.89-16.25-14.89-.37-29.64,2.87-43,9.46-11.86,6.06-21.64,15.53-28.08,27.19-6.81,12.7-10.22,26.95-9.9,41.37-.34,14.37,3.08,28.57,9.9,41.22,6.49,11.62,16.26,21.07,28.08,27.19,13.33,6.68,28.09,9.98,43,9.6,21.86,0,39.59-5.51,53.18-16.54,13.6-11.03,21.77-26.29,24.53-45.8h-53.2c-.84,6.04-3.7,11.62-8.12,15.82Z"/><path id="Path_44" d="M1492.14,157.96c-6.7,.06-13.36-1-19.71-3.13,1.72,8.29,2.54,16.74,2.44,25.2v6.11c0,19.76-3.46,34.88-10.39,45.37-9.22,15.36-29.14,20.33-44.5,11.11-4.56-2.74-8.37-6.55-11.11-11.11-6.93-10.49-10.39-25.61-10.39-45.37v-6.1c0-19.56,3.46-34.64,10.39-45.24,5.74-9.91,16.35-15.98,27.8-15.88,1.53,0,3.06,.11,4.58,.31-.71-3.6-1.06-7.25-1.05-10.91-.29-12.04,3.89-23.77,11.74-32.9-5.06-.74-10.16-1.11-15.27-1.11-16.77-.31-33.31,3.97-47.82,12.38-14.17,8.47-25.5,20.97-32.55,35.9-.97,1.97-1.88,3.98-2.72,6.03-5.86-9.69-14.14-17.68-24.03-23.19-11.66-6.36-24.77-9.57-38.04-9.33-8.77-.04-17.46,1.74-25.52,5.2-7.62,3.15-14.37,8.07-19.71,14.36l-3.37,3.98v-2.45c0-16.91,3.06-29.59,9.17-38.04,6.04-8.42,15.94-13.19,26.29-12.68,7.12-.23,14.15,1.68,20.17,5.5,5.65,3.88,9.59,9.79,11,16.5h52.86c-1.29-12.58-5.99-24.57-13.6-34.67-7.38-9.64-17.11-17.22-28.26-22.01-11.87-5.08-24.67-7.63-37.59-7.49-28.51,0-50.97,9.58-67.38,28.73-16.4,19.15-24.6,46.86-24.6,83.11,0,3.23,.12,6.37,.28,9.48-1.31-1.14-2.65-2.27-4.11-3.33-14.16-10.29-34.17-15.43-60.05-15.42-24.44,0-43.9,6.11-58.36,18.34-2.77,2.37-5.33,4.99-7.65,7.81l-4.27,.06c-6.42,1.25-12.64-2.95-13.88-9.37-.29-1.49-.29-3.03,0-4.52v-54.06h44.29l2.12-42.25h-46.38V0h-51.15V42.85h-23.93v42.25h23.93v64.43c0,14.97,3.99,26.34,11.97,34.13,7.98,7.79,19.26,11.68,33.84,11.67h61.36c.02-7.69,3.3-15.02,9.02-20.17,5.92-5.01,13.49-7.62,21.23-7.34,6.51-.31,12.93,1.63,18.18,5.5,4.73,4,7.28,10.01,6.87,16.2,.27,6.74-2.67,13.2-7.93,17.42-5.3,4.28-12.84,6.42-22.62,6.42h-19.85v42.17h22.93c10.39,0,18.28,1.98,23.68,5.95,5.33,3.83,8.38,10.09,8.1,16.65,.35,7.14-2.64,14.03-8.1,18.65-5.75,4.6-12.96,6.98-20.32,6.72-9.36,.39-18.5-2.96-25.38-9.32-6.74-6.75-10.39-15.98-10.09-25.51h-53.46c0,23.63,7.69,42.16,23.08,55.61s36.31,20.17,62.79,20.16c15.57,.34,31.07-2.25,45.68-7.64,11.79-4.25,22.16-11.71,29.95-21.53,7.06-9.36,10.78-20.82,10.55-32.54,0-26.9-15.89-44.21-47.67-51.95,11.61-2.6,22.32-8.24,31.02-16.35,4.14-4.02,7.29-8.94,9.2-14.38,1.88,3.38,3.96,6.64,6.24,9.76,7.7,10.4,17.89,18.69,29.64,24.13,12.58,5.66,26.25,8.48,40.03,8.25,14.91,.3,29.69-2.78,43.25-9.01,8.49-4.01,16.1-9.67,22.38-16.65,1.78,9.38,4.79,18.48,8.96,27.07,7.04,14.93,18.36,27.42,32.52,35.91,29.75,16.49,65.89,16.49,95.64,0,14.17-8.48,25.49-20.98,32.55-35.92,8.1-17.39,12.07-36.43,11.59-55.61v-9.78c.06-10.26-.96-20.49-3.04-30.53-9.7,7.05-21.48,10.67-33.47,10.29Zm-189.62,34.1c-10.86,11.65-29.1,12.28-40.75,1.42-.49-.46-.97-.93-1.42-1.42-11-13.53-11-32.91,0-46.44,5.42-6.08,13.26-9.44,21.4-9.17,8.03-.24,15.73,3.19,20.92,9.32,5.51,6.52,8.4,14.85,8.1,23.37,.28,8.41-2.67,16.61-8.25,22.91Z"/><path id="Path_45" d="M1492.14,142.33c9.74,.5,19.29-2.83,26.6-9.29,.71-.67,1.25-1.46,1.88-2.17,5.44-6.23,8.31-14.3,8.04-22.56,.41-9.28-3.2-18.29-9.91-24.72-7.32-6.45-16.86-9.78-26.6-9.29-7.64-.23-15.19,1.77-21.72,5.75-15.75,11.38-19.29,33.37-7.92,49.12,.98,1.36,2.06,2.65,3.23,3.86,7.24,6.43,16.72,9.77,26.4,9.3Zm-8.87-45.58c2.06-2.81,5.38-4.41,8.87-4.27,.28,0,.51,.06,.78,.08,3.26,.03,6.33,1.58,8.29,4.2,1.29,1.8,2.19,3.86,2.62,6.03,.42,1.82,.63,3.68,.63,5.54,.22,4.12-.91,8.19-3.23,11.59-2.13,2.84-5.52,4.44-9.07,4.27-3.48,.13-6.8-1.47-8.87-4.27-4.31-7.12-4.31-16.04,0-23.16h-.02Z"/></g></g></svg>