<?xml version="1.0" encoding="UTF-8"?><svg id="Layer_2" xmlns="http://www.w3.org/2000/svg" viewBox="0 0 2263.13 471.81"><g id="Layer_1-2"><g><path d="M892.77,200.16c.51-2.61-.17-5.48-2.03-8.5-1.73-2.82-4.04-5.59-6.87-8.22-2.74-2.53-5.71-4.9-8.8-7.03-3.11-2.14-5.55-3.7-7.44-4.78-.85-.48-1.87-.43-2.55,.14-13.75,11.38-27.25,23.28-40.09,35.35-12.69,11.95-25.66,23.74-38.56,35.07-.28,.26-.48,.58-.55,.94-.16,.2-.61,.75-1.87,1.89-1.58,1.43-3.36,2.81-5.35,4.07-1.87,1.21-3.7,2-5.45,2.36-.71,.16-1.04,.1-1.19-.03l-.33-2.44c2.27-6.81,4.4-13.74,6.3-20.61,1.94-7,4.09-13.99,6.39-20.82,.03-.13,.06-.26,.09-.4,.77-7.62-2.19-14.02-8.97-19.12-2.27-1.39-4.2-2.53-5.79-3.39-1.8-.99-3.92-1.65-6.29-1.97-.13,0-.26-.01-.38-.01l-8.96,.33c-1.55-.21-2.68-.14-3.48,.26-.16,.09-.31,.18-.43,.3l-94.32,85.15-32.64-54.26c2.43-1.69,4.51-3.53,6.22-5.49,1.83-2.11,4.17-4.27,6.85-6.34,4.06-2.63,7.89-5.41,11.41-8.27,3.36-2.73,7.11-5.63,11-8.54,6.37-3.82,11.65-7.29,15.71-10.32,.11-.11,.23-.23,.34-.36,1.65-2.1,3.72-4.37,6.17-6.74,2.81-2.71,4.4-6.3,4.74-10.69,0-.13,0-.26-.01-.37-.13-.89-.64-1.72-1.56-2.63-.03-.23-.1-.45-.2-.65-4.64-9.03-10.97-9.99-15.48-9.24-5.69,.96-11.51,3.07-17.36,6.26-1.99,1.22-3.76,2.64-5.27,4.23-1.28,1.33-2.8,2.55-4.48,3.6-2.68,1.58-5.27,3.43-7.69,5.55-2.34,2.06-4.94,4.4-7.64,6.86-7.29,5.24-14.36,10.63-21.03,16.02-6.64,5.36-13.09,10.91-19.12,16.45-4.64,4.07-9.2,8.02-13.64,11.91-2.21,1.92-4.37,3.87-6.46,5.86l58.78-173.42c-.14-3.25-.27-6.12-.4-9.37-.89-1.9-2.19-3.99-3.89-6.29-2.11-2.84-3.99-5.11-5.68-6.84-3.25-1.24-6.05-2.29-9.3-3.51-1.42,.26-2.77,.79-4.06,1.62-1.53,.99-2.95,2.06-4.24,3.19-1.19,1.83-2.31,3.58-3.51,5.41-9.03,27.18-10.23,23.57-18.86,49.11l-14.04,36.63c-8.22,24.06-16.58,48.23-24.91,72.03-.43,.06-.81,.17-1.15,.34-.14,.07-.28,.17-.4,.28l-75.56,69.02c2.38-8,4.81-16.11,7.29-24.31,3.12-10.36,6.47-20.93,10.05-31.63,.5-2.5,.88-5.14,1.16-7.83,.3-2.94-.16-5.96-1.49-9.28-.92-1.63-1.65-3.09-2.14-4.38l-2.81-4.34c-1.97-3.7-5.39-8.08-8.47-12.35-.68-1.31-1.79-2.45-3.29-3.45-1.31-.87-2.61-1.63-3.87-2.31-.17-.07-.33-.13-.5-.18-6.41-1.63-11.78-.54-16.01,3.25l-7.99,5.46c-1.92,1.66-3.83,3.14-5.71,4.37-2.03,1.35-4.13,2.97-6.22,4.78-4.84,3.97-9.78,8.2-14.66,12.6l-14.55,13.07c-6.46,6.06-13.06,12.08-19.61,17.85-4.92,4.34-9.78,8.83-14.5,13.38l6.43-32.95c0-.16,.01-.31,.03-.48-.16-1.68-1.19-4.13-3.28-7.76-2.26-3.93-4.95-5.86-8.03-5.75-2.03,.07-4.44,1.01-7.31,2.81,.01-.03-.01-.04-.1,.01-.16,.07-.28,.16-.41,.27l-.16,.16c-1.28,.84-2.61,1.82-4.07,2.99-2.77,2.27-5.82,5.44-8.35,7.98l-71.61,63.38c.3-1.05,.57-2.1,.79-3.14,.74-3.35,1.84-6.56,3.41-9.81l4.19-13.58c1.41-4.57,2.64-9.18,3.65-13.57,.82-2.8,1.66-5.69,2.47-8.64,.81-2.94,1.62-5.79,2.46-8.57,.01-.08,.03-.17,.04-.26,.72-5.51,4.78-19.68-1.22-24.92-5.54-4.83-10.57-8.6-14.96-11.23-.75-.44-1.69-.37-2.28,.2-11.78,11.04-30.44,30.88-42.52,42.08-11.98,11.08-23.77,22.07-35.38,32.94-.65,.28-1.52,.95-3.09,2.43-1.43,1.35-2.99,2.64-4.64,3.85-1.53,1.14-3.11,1.96-4.68,2.47-.51,.17-.72,.13-.74,.14-.03-.03-.09-.13-.17-.33l-.23-2.48c1.89-6.42,3.79-12.76,5.71-19.03,1.9-6.3,10.36-36.39,12.6-43.27,2.2-6.98-.01-13.27-6.56-18.69-.11-.11-.26-.18-.38-.26-1.89-.94-3.59-1.8-5.11-2.6-1.58-.82-3.15-1.56-4.68-2.2-.28-.04-.54-.1-.81-.14l-10.79,.4c-.77,.03-1.43,.54-1.65,1.28l-5.79,19.61c-1.29,5.49-9.13,34.32-10.74,39.47-1.63,5.18-3.63,10.77-5.99,16.62-.03,.1-.06,.18-.09,.28-.74,3.31-1.67,6.51-2.81,9.55-1.21,3.24-2.03,6.84-2.36,10.46-.55,2.07-1.08,4.24-1.59,6.47-.51,2.24-1.05,4.36-1.59,6.47-.61,2.89,.18,6.12,2.36,9.59,1.96,3.11,4.3,6.24,6.97,9.3,2.67,3.08,5.44,5.92,8.23,8.44,2.82,2.55,5.27,4.56,7.1,5.78,2,1.72,4.37,2.43,7.07,2.14,2.27-.23,4.64-.74,7.04-1.53,2.43-.78,4.75-1.85,6.91-3.17,2.21-1.33,3.85-2.57,4.98-3.78l57.68-63.48c-1.21,3.94-2.36,7.73-3.45,11.41-1.25,4.13-2.54,8.6-3.89,13.43-1.86,3.93-3.31,8.42-4.31,13.31-1.04,5.01-1.32,9.91-.88,14.55l.41,4.13c.18,1.99,.77,3.63,1.73,4.91,.55,1.45,1.46,3.22,2.78,5.41,1.36,2.31,2.94,4.56,4.67,6.66,1.76,2.16,3.65,3.99,5.56,5.42,1.94,1.46,3.96,2.26,6.02,2.37,.23,.01,.47,.01,.7,0,.16,0,.3-.01,.44-.06,1.18-.3,3.32-1.29,9.52-6.27,4.41-3.55,9.61-8.08,15.44-13.48,5.79-5.35,11.99-11.17,18.62-17.43,6.64-6.24,13.01-12.25,19.16-17.98,2.17-2.03,4.19-3.93,6.13-5.76-.77,2.63-1.5,5.36-2.23,8.23-1.33,5.26-2.51,10.09-3.56,14.48-1.32,5.55-1.36,7.56-.84,8.74,.27,.8,.97,1.65,2.46,3.07,1.32,1.26,2.71,2.5,4.13,3.66,1.43,1.19,2.87,2.37,4.31,3.55,1.43,1.21,2.37,1.97,2.91,2.41,2.51,1.75,5.42,3.48,8.64,5.17,3.31,1.75,6,2.67,8.16,2.7l1.99,.82c.23,.1,.45,.16,.7,.17,.65,.03,1.26-.26,1.63-.81,2.58-3.89,4.94-7.37,7.08-10.37,2.11-3.02,4.2-6.2,6.09-9.35,5.51-7.73,11.27-15.28,17.12-22.42,5.82-7.11,12.19-14.14,19.06-21.01,5.27-6.33,11.14-12.93,17.47-19.61,6.24-6.6,12.92-12.86,19.95-18.75,.07-.07,.54-.52,2.94-2.26,1.7-1.23,3.65-2.51,5.75-3.79,2.2-1.32,4.1-2.4,5.83-3.29,.14-.07,.27-.14,.4-.2-.11,.87-.33,2.13-.7,3.92-.85,4.19-2.16,8.74-3.85,13.57-1.75,4.97-3.42,9.75-5,14.36-2.13,6.15-2.91,7.21-3.04,7.35-.17,.18-.3,.4-.38,.62-4.92,13.74-10.32,27.7-16.02,41.51-.18,.44-.2,.94-.01,1.38,1.62,3.97,4.02,8.57,7.1,13.67,3.11,5.12,6.41,8.87,9.86,11.11,1.05,1.48,2.55,2.92,4.47,4.31,2.27,1.65,4.83,2.47,7.59,2.4,.16-.01,.31-.04,.47-.06,1.12-.3,3.34-1.25,9.58-6.13,4.44-3.48,9.58-7.89,15.7-13.51,5.96-5.46,12.38-11.3,19.22-17.5,6.83-6.19,13.4-12.28,19.53-18.14,3.95-3.75,7.56-7.17,10.93-10.32-3.29,10.29-6.53,20.59-9.64,30.88-1.9,5.48-1.97,10.28-.18,14.25,1.85,4.09,5.9,7.08,12.09,8.91,5.27,2.74,10.63,4.26,15.95,4.53,.84,.04,1.67,.04,2.51,.03h.58c.82-.04,1.52-.54,1.75-1.28l1.62-5.07c3.36-3.92,6.57-7.66,9.61-11.24,3.11-3.65,6.07-7.56,8.64-11.45,6.36-7.04,13.21-14.53,20.38-22.25,6.37-6.84,12.76-13.64,19.16-20.35l33.03,54.5c1.36,4.06,3.93,8.67,7.62,13.72,4.16,5.69,8.88,8.1,14.05,7.18,1.48-.1,4.03-.94,10.28-5.78,4.58-3.55,10.05-8.09,16.25-13.51,6.06-5.29,12.74-11.43,19.88-18.22,6.73-6.41,13.55-12.82,20.34-19.03,4.58-4.19,8.77-8.12,12.56-11.79-.43,1.8-.98,3.55-1.69,5.22-1.42,3.36-2.33,6.94-2.7,10.62-1.29,2.64-2.09,5.34-2.38,8-.27,2.57-.5,4.77-.62,6.33-.67,2.73,.2,5.89,2.57,9.42,2.09,3.14,4.75,6.39,7.93,9.68,3.14,3.25,6.5,6.37,10.02,9.25,3.59,2.97,6.47,5.12,8.6,6.43,2.27,1.76,4.95,2.63,7.96,2.55,2.72-.06,5.41-.62,7.98-1.69,2.43-.99,4.75-2.21,6.94-3.6,2.26-1.45,3.93-2.74,5.12-3.97l63.58-66.45c-.84,4.06-1.84,7.88-3.01,11.41-1.43,4.31-2.84,9.14-4.23,14.36-2.63,5.31-4.1,11.57-4.41,18.61-4.94,15.13-9.74,29.9-14.38,44.32-4.66,14.45-9.78,29.07-15.26,43.54-8.94,28.5-5.79,17.67-14.87,45.56-9.15,28.13-.23-.81-9.62,27.35-1.5,5.68-1.26,10.57,.67,14.58,1.99,4.09,6.26,7.66,13.2,10.97,2.82,1.18,6.07,2.07,9.65,2.65,3.34,.52,6.53,1.16,9.48,1.89,.13,.03,.27,.06,.4,.06,.94,.07,1.76-.44,2.03-1.29l44.65-148.45,6.33-19.59,26.51-88.06c.01-.27,.04-.54,.06-.81l-.4-2.84c1.14-3.39,1.46-6.95,.98-10.6M157.65,238.41l-.07,.08-.03-.21,.18,.04-.09,.08Zm62.57-1.92v-.07c.07-.04,.13-.1,.2-.14-.07,.06-.14,.14-.2,.21m.31-.3c.06-.04,.09-.08,.13-.13h.06c-.07,.04-.13,.08-.18,.13m155.38-4.33h-.01s.03-.01,.03-.01h-.01Zm236.74-1.69l-.03-.23h.06l.06,.16-.09,.07Zm120.83-8.3s.07-.06,.1-.08v.03s-.06,.03-.1,.06m23.09,11.95l.14-.04v.11l-.14-.07Zm64.25,6.91c.09-.04,.16-.08,.24-.14,.07,.04,.17,.1,.26,.13h-.5Z"/><path d="M1428.54,151.18c-2.09-4.16-5.37-8.22-9.76-12.05-4.37-3.8-9.4-6.95-14.93-9.37-.37-.16-.78-.23-1.19-.23l-66.65,1.77,10.7-32.22c.03-.16,.06-.3,.09-.45,.14-3.04-1.63-7.11-5.39-12.4-3.7-5.24-7.04-8.54-10.22-10.15-3.51-1.75-7.1-1.66-10.37,.24-2.88,1.68-4.97,3.61-6.32,5.98-6.53,16.6-12.94,33.47-19.05,50.08l-63.92,1.7c-3.31,1.14-6.12,3.04-7.41,6.54-1.96,5.28-.07,12.6,2.64,17.39,2.14,3.8,5.45,6.75,9.18,9.3l7.88-.31c12.55-.48,25.62-.67,38.92-.55-1.87,4.94-3.72,9.86-5.61,14.83l-8.13,22.03c-5.44,14.72-15.37,27.65-28.6,37.16l-45.43,32.67c.84-1.66,1.86-3.62,3.09-5.88,1.99-3.63,3.72-7.54,5.17-11.61,1.46-4.14,2.63-8.12,3.48-11.82,.88-3.89,1.16-7.25,.82-10.03-.03-.13-.04-.24-.07-.37-1.52-4.54-4.95-8.36-10.25-11.35-5.04-2.85-9.96-4.66-14.63-5.37-.74-.13-1.48,.18-1.89,.78-25.29,31.88-66.32,55.55-72.07,58.77-.23,.13-.45,.26-.7,.38-4.44,.6-7.89,.6-10.55,.17-5.01-.81-7.81-6.19-5.75-10.87,2.21-5.05,4.92-9.99,8.1-14.75,4.33-6.46,8.69-12.63,12.99-18.42,4.53-6.8,9.54-13.11,14.92-18.78,5.31-5.58,11.68-10.8,19.1-15.64,2.21-1.79,4.7-3.52,7.38-5.17,1.52-.91,3.07-1.83,4.66-2.74,5.39-3.07,12.16-2.91,17.14,.8,.81,.6,1.39,1.13,1.75,1.5,.04,.03,.08,.01,.13,.04,1.69,.84,3.45,1.43,5.25,1.94,1.21-.33,2.41-.58,3.63-.82l9.31-11.4c5.61-6.73-3.9-13.35-3.9-13.35-19.12-17.46-47.69-7.54-47.69-7.54-12.86,3.55-25.02,10.49-36.15,20.59-11.01,9.98-20.1,19.69-26.89,28.74-3.75,4.09-7.83,9.42-12.15,15.85-4.3,6.44-8.2,13.23-11.61,20.18-3.42,7-6.15,14.18-8.09,21.34-2,7.39-2.24,14.24-.68,20.41,.72,2.47,2.46,5.38,5.32,8.93,2.7,3.35,5.85,6.66,9.4,9.82,3.46,3.09,6.97,6.07,10.42,8.81,3.6,2.88,6.51,4.85,8.8,5.99,.74,.41,1.62,.65,2.61,.72,1.67,.11,3.75-.26,6.39-1.11,3.58-1.16,7.41-2.68,11.35-4.53,4.02-1.85,7.76-3.75,11.14-5.61,4.27-2.36,5.73-3.39,6.41-4.02,4.27-2.55,8.74-5.19,13.41-7.93,2.61-1.53,5.17-3.18,7.66-4.91l15.34-8.6c-.14,.5-.3,.95-.4,1.46-.2,1.22-.61,2.3-1.19,3.21-.1,.16-.17,.33-.21,.5-.74,2.7-.3,5.51,1.29,8.36,1.35,2.43,2.78,4.6,4.3,6.49,4.03,7.69,10.03,12.63,17.85,14.69,1.8,1.25,4.16,1.87,7.03,1.86,1.52-.01,4.17-.67,11.17-5.69,4.9-3.53,10.86-8.06,17.7-13.45,6.94-5.48,14.24-11.52,21.69-17.95,3.22-2.77,6.44-5.58,9.65-8.4,.33,3.08,.96,13.17,1.94,16.46,.34,2.27,1.97,5.05,4.97,8.46,2.78,3.21,6.07,6.47,9.78,9.69,3.63,3.15,7.14,6.13,10.52,8.91,3.55,2.95,6.5,4.98,8.93,6.15,.77,.41,1.67,.65,2.72,.72,1.75,.13,3.92-.24,6.61-1.11,3.7-1.18,7.55-2.74,11.44-4.63l11.07-5.36c3.79-1.86,6.03-3.02,7.17-3.75,9.37-5.27,18.61-11.21,27.45-17.64,5.27-3.82,10.22-7.75,14.76-11.72l3.35-2.92c3.46-3.02,7-6.1,10.5-9.2,5.24-4.2,10.26-8.53,14.94-12.84,.89-.82,1.77-1.62,2.67-2.43-.35-1.66-.72-3.33-.95-5.01-4.6-5.19-10.7-11.28-16.35-13.84-4.12-1.86-8.74-1.86-13.23-1.59l-25.26,21.02c-2.54,2.04-6.15,5.08-10.39,8.81-4.47,3.9-9.42,7.75-14.7,11.44-5.35,3.73-10.46,7.03-15.23,9.79-5.49,3.19-8.74,3.65-10.79,3.41-.24,.03-.53-.13-.88-.37-.85-1.26-.81-10.49,.14-13.47,1.23-3.9,2.16-6.76,2.81-8.63l19.95-58.88,9.52-27.59,5.07-15.3c7.91-.17,15.84-.36,23.77-.6,20.99-.62,42.62-.84,64.42-.58,3.52-.14,7.17-1.19,10.83-3.12,4.07-2.14,5.88-5.58,5.19-9.93l-.17-.55"/><path d="M2261.93,176.38c-1.76-1.36-3.82-3.02-6.27-5.05-4.46-3.65-9.44-7.18-14.8-10.47-2.29-1.41-4.51-2.67-6.67-3.86-9.13-.94-18.05-.65-27.09,.92-10.1,1.76-17.7,5.38-25.4,9.92-2.23,1.46-4.48,3.01-6.78,4.67-4.02,3.45-8.47,7.75-13.24,12.79-4.94,5.24-7.71,10.79-8.23,16.7,.13,3.8,1.72,8,4.74,12.53,2.85,4.3,6.49,8.67,10.79,12.99,4.19,4.22,8.42,8.29,12.57,12.14,4.13,3.83,7.56,7.08,10.36,9.76,4.23,4.03,7.89,9.05,10.9,14.93,2.8,5.46,2.31,10.28-1.56,14.82-3.04,4.1-8.23,6.09-15.65,6.07-11.18-1.14-20.42-4.64-27.33-10.33-5.55-4.97-8.8-10.13-9.68-15.36-.62-3.75-.5-10.66,.06-16.44,.09-.07,.16-.14,.24-.23,3.36-2.33,6.42-4.81,9.07-7.37,.06-.06,.13-.11,.18-.17,.01-.04-.01-.08,0-.14,.96-3.79,2.95-5.73-.67-9.44-3.16-3.25-7.18-6-10.8-8.81-5.72-4.47-10.79-5.66-16.34-5.92l-40.25,33.71c-2.6,2.04-6.26,5.12-10.59,8.9-4,3.46-8.43,6.86-13.1,10.15l5.05-17.85,68.45-221.46c.07-.26,.09-.54,.04-.81-.58-3.36-2.95-7.38-7.25-12.29-4.22-4.78-7.86-8.05-11.23-10-2.36-1.32-6.06-2.34-10.42,.16-2.98,1.72-5.1,3.69-6.3,5.85-.04,.08-.09,.18-.13,.28-15.95,47.8-31.73,94.96-47.32,141.45-15.46,46.08-7.66,20.05-23.22,65.11-2.53,8.4-5.36,16.72-8.09,25.06l-14.05,9.24c-3.08,1.93-6.37,4.02-9.86,6.33-3.52,2.3-6.83,4.64-9.65,6.83-1.19,.68-3.73,2.03-8.53,4.48-4.43,2.27-9.07,4.64-13.94,7.08-4.73,2.38-9.38,4.56-13.87,6.43-5.54,2.33-7.55,2.14-8.02,2.06-.16-.04-.33-.06-.5-.07-.88-.64-2.03-2.09-1.05-5.95,1.05-4.22,1.92-7.28,2.57-9.11,2.7-7.15,6.41-14.14,11.06-20.73,4.78-6.8,9.59-13.27,14.35-19.34,5.01-7.12,10.57-13.74,16.55-19.64,5.92-5.82,13.04-11.24,21.36-16.21,2.48-1.85,5.27-3.63,8.27-5.32,2.95-1.65,6.05-3.26,9.21-4.81,.43-.21,.75-.54,.94-.95,3.26-7.47,.1-14.99-9.42-22.38-2.87-2.1-6.47-4-10.67-5.65-.57-.21-1.18-.27-1.73-.14-14.5,3.48-28.16,10.57-40.58,21.06-4.31,3.63-8.25,7.21-11.98,10.77-18.05,.41-50.58,1.15-53.48,1.16-12.06,.8-23.89,1.33-35.17,1.58-9.64,.2-19.76,.64-30.13,1.26,.6-.38,1.14-.79,1.73-1.18,2.24-1.79,4.77-3.53,7.49-5.17,.7-.43,1.45-.82,2.19-1.24,.37-1.05,.61-2.13,.6-3.29-.01-.16,.04-.28,.09-.41-.2-.57-.44-1.19-.74-1.93-1.76-4.41-2.75-5.85-6.33-8.84-3.75-3.14-8.84-7.25-13.71-8.67-3.42-1.01-7.04-1.05-10.69-.8-6.71,3.59-13.16,8.1-19.26,13.62-4.81,4.36-9.22,8.66-13.27,12.87h-1.58c-8.23,.06-16.15,.38-23.55,.98-7.28,.58-15.06,.91-23.22,.95-11.69,.79-23.16,1.31-34.09,1.55-9.34,.21-19.16,.64-29.21,1.25,.57-.38,1.11-.78,1.69-1.16,2.19-1.76,4.64-3.46,7.29-5.08,.68-.41,1.42-.81,2.13-1.21,.37-1.04,.62-2.1,.61-3.25,0-.16,.06-.27,.09-.4-.18-.55-.4-1.16-.7-1.92-1.66-4.33-2.61-5.75-6.05-8.69-3.62-3.09-8.5-7.14-13.21-8.54-3.29-.99-6.81-1.04-10.35-.78-6.54,3.52-12.83,7.98-18.79,13.41-10.84,9.86-19.76,19.5-26.38,28.48-3.68,4.05-7.66,9.34-11.85,15.73-4.19,6.4-7.96,13.14-11.24,20.05-3.29,6.97-5.86,14.12-7.66,21.27-1.86,7.37-1.96,14.19-.26,20.38,.27,.88,.74,1.85,1.29,2.87t-.03,.01l.07,.06,.1,.21s.09,.01,.13,.03c1.09,1.14,2.38,2.43,4.04,4.03,4.7,4.05,9.62,7.93,14.63,11.57,8.63,8.47,16.79,15.75,24.2,21.6,.74,.6,1.83,1.21,3.31,1.33,.7,.04,1.49-.01,2.36-.24,1.66-.4,2.13-.45,2.23-.47,.16,0,.33-.01,.48-.04,3.46-.75,7-2.2,10.49-4.3,3.31-2,6.57-4.14,9.69-6.36,3.01-2.14,6.1-4.13,9.18-5.93,3.02-1.76,6.29-3.53,10.16-5.54,4.17-2.87,8.44-5.41,12.7-7.54,4.46-2.24,8.9-5.08,13.07-8.33,5.07-3.31,10.35-6.8,15.8-10.47,5.48-3.68,10.42-7.44,14.66-11.17,.09-.08,.18-.18,.26-.28l7.25-9.93c2.99-4.09,3.73-8.5,2.19-13.1-.26-1.39-.98-2.17-1.65-2.63-.07-.37-.26-.72-.51-1.04-2.63-3.02-5.19-5.83-7.65-8.36-2.64-2.7-5.45-5.02-8.23-6.84-.3-.21-.51-.58-.67-1.06,.33-.24,.92-.51,1.99-.62,1.96-.18,3.62-.65,4.98-1.38l16.65-.06c4.34,0,8.81-.2,13.27-.58,2.24-.2,4.53-.34,6.83-.44-.89,1.29-1.8,2.61-2.71,4-4.26,6.5-8.09,13.35-11.4,20.38-3.33,7.05-5.93,14.33-7.72,21.59-1.85,7.49-1.89,14.43-.09,20.72,.3,.89,.79,1.87,1.38,2.91h-.03l.06,.07c.04,.07,.07,.14,.11,.21,.04,.01,.09,.01,.13,.03,1.15,1.16,2.48,2.47,4.22,4.09,4.88,4.12,10.01,8.08,15.2,11.77,9,8.61,17.47,16.01,25.18,21.96,.77,.61,1.9,1.22,3.42,1.33,.72,.06,1.53,0,2.43-.23,1.7-.41,2.2-.47,2.28-.47,.18,0,.34-.03,.51-.06,3.56-.75,7.18-2.23,10.77-4.37,3.39-2.03,6.76-4.2,9.96-6.46,3.08-2.17,6.24-4.19,9.41-6.02,3.11-1.79,6.46-3.59,10.43-5.62,4.27-2.91,8.66-5.49,13.04-7.66,4.57-2.27,9.14-5.15,13.4-8.46,5.21-3.36,10.62-6.9,16.22-10.63,5.61-3.73,10.66-7.55,15.02-11.35,.1-.08,.18-.17,.26-.28l7.41-10.09c3.05-4.16,3.76-8.64,2.11-13.31-.27-1.41-1.02-2.2-1.72-2.67-.09-.38-.27-.74-.54-1.05-2.74-3.07-5.42-5.92-7.98-8.5-2.74-2.73-5.68-5.1-8.56-6.94-.31-.23-.54-.58-.71-1.08,.35-.26,.95-.54,2.06-.64,2.02-.2,3.73-.67,5.12-1.41l17.19-.04c.4,0,11.82-.58,22.62-1.14-2,2.53-4.04,5.24-6.15,8.22-4.75,6.76-9.04,13.89-12.76,21.22-3.73,7.37-6.67,14.96-8.73,22.57-2.13,7.82-2.26,15.11-.38,21.74,.87,2.65,2.9,5.8,6.2,9.66,3.12,3.65,6.77,7.27,10.84,10.73,3.99,3.42,8.02,6.68,11.98,9.71,4.14,3.18,7.48,5.36,10.11,6.63,.87,.47,1.85,.75,2.99,.85,1.89,.16,4.23-.16,7.21-1.01,4.04-1.15,8.35-2.67,12.79-4.51,4.51-1.89,8.73-3.8,12.53-5.69,4.8-2.41,6.43-3.48,7.2-4.12,4.8-2.61,9.82-5.32,15.06-8.13,4.88-2.6,9.59-5.55,14.08-8.7-.17,1.26-.35,2.53-.51,3.8,.4,.81,.74,1.68,1.22,2.43,.75,1.67,2.03,3.69,3.89,6.19,1.85,2.44,3.73,4.74,5.62,6.78,2.06,2.27,4.23,4.17,6.43,5.63,2.58,1.73,5.34,2.38,8.17,1.96,.87-.03,2.09-.28,4.02-1.21,3.73-1.16,7.59-2.67,11.48-4.5l11.44-5.36c3.92-1.87,6.22-3.04,7.38-3.76,9.64-5.29,19.12-11.28,28.17-17.77,3.86-2.77,7.51-5.62,11-8.49,.24,1.15,.47,2.31,.72,3.45,1.6,6.83,4.88,13.33,9.82,19.46,8.91,10.09,20.15,16.59,33.45,19.32,5.93,1.22,11.84,2.03,17.66,2.47,6.84,.5,13.57,.45,20.11-.13,5.65-.34,11.78-1.41,18.21-3.15,6.44-1.75,12.36-4.13,17.61-7.08,5.27-2.94,9.91-6.46,13.84-10.45,4-4.07,6.61-8.64,7.72-13.45,2.87-8.91,2.85-16.72-.04-23.18-2.85-6.3-6.97-11.86-12.22-16.53-5.15-4.57-11.13-8.62-17.75-11.98-6.24-3.18-11.91-6.24-16.85-9.13-4.61-2.68-8.03-5.36-10.15-7.98-1.04-1.25-2.04-3.34,1.28-7,1.72-2.04,4.63-3.9,8.64-5.49,4.44-1.77,8.26-3.19,11.78-4.34,8.29-3.08,16.49-6.02,24.37-8.7,7.1-2.43,14.5-5.24,22.07-8.37,.03-.11,.11-.23,.16-.35l.07-.31c.47-2.01-.09-4.23-1.04-6.41m-568.69,58.56c-2.06,2.41-4.6,4.6-7.55,6.53-3.05,1.96-6.26,3.78-9.52,5.36-3.29,1.62-5.49,2.58-6.68,2.94-2.1,.77-5.58,2.37-10.33,4.75-4.67,2.34-9.84,4.81-15.36,7.34-5.45,2.51-10.62,4.71-15.36,6.5-6.13,2.33-8.27,2.58-8.91,2.57l-1.5-.04c-.68-.16-.5-1.09-.5-1.09-.14-.82-.11-1.93,.24-3.45,.91-3.96,1.67-6.84,2.24-8.56,2.36-6.74,5.63-13.34,9.72-19.59,4.22-6.41,8.46-12.56,12.65-18.29,4.4-6.75,9.31-13.03,14.58-18.63,.23-.23,.47-.45,.7-.68,1.59,5.14,4.5,9.45,8.64,12.8,3.96,3.24,8.22,5.92,12.65,7.98,4.31,2.02,8.17,3.76,11.55,5.22,3.69,1.59,3.92,2.58,3.92,2.58,.03,.24,.11,.47,.23,.68,.27,.52,1.12,2.16-1.39,5.08m164.6,1.05c-2.09,2.46-4.7,4.68-7.74,6.63-3.12,2-6.41,3.85-9.76,5.46-3.39,1.63-5.65,2.63-6.88,2.98-2.16,.78-5.73,2.4-10.6,4.81-4.8,2.4-10.1,4.91-15.78,7.48-5.61,2.55-10.91,4.77-15.78,6.6-6.3,2.36-8.52,2.61-9.17,2.61l-1.56-.06c-.71-.16-.51-1.11-.51-1.11-.16-.84-.16-1.96,.2-3.51,.92-4.02,1.67-6.95,2.24-8.7,2.37-6.85,5.69-13.54,9.85-19.88,4.29-6.53,8.6-12.76,12.87-18.59,4.48-6.87,9.48-13.23,14.87-18.92,.21-.24,.48-.47,.7-.69,1.7,5.22,4.74,9.59,9.04,13,4.12,3.29,8.54,6.02,13.13,8.1,4.47,2.06,8.46,3.82,11.98,5.31,3.8,1.62,4.06,2.61,4.06,2.63,.03,.23,.11,.47,.24,.7,.28,.54,1.16,2.19-1.39,5.15"/><path d="M1707.49,127.57c.28-.01,.54-.07,.78-.18,.98-.44,2.14-1.43,3.68-3.11,1.42-1.53,2.72-3.15,3.89-4.8,1.19-1.69,1.46-9.51,2.4-11.52,1.06-2.23,1.46-4.09,1.26-5.68-.48-4.03-4.61-7.11-12.26-9.13-.24-.07-.5-.1-.75-.07-17.48,1.29-48.58,2.44-65.7,2.92-16.26,.47-32.43,5.01-49.11,5.34l15.17-48.94c.54-.88,1.18-1.69,1.82-2.5,2.34-2.77,3.76-2.58,3.76-2.58l43.81-2.28,34.13-.87c11.65-.28,23.8-.28,36.15,.06,17.94,.18,36.42,.13,54.9-.17,18.31-.3,59.13-2.3,78.13-1.8,3.08-.08,6.26-.96,9.48-2.63,3.58-1.86,5.19-4.88,4.66-8.74-.01-.17-.07-.34-.14-.5-1.76-3.72-6.43-15.38-10.22-18.83-3.75-3.43-8.08-6.29-12.87-8.49-.33-.16-.68-.23-1.04-.23l-353.46,6.24c-.58,0-1.11,.26-1.43,.67-.33,.43-.43,.96-.24,1.48,.57,1.65,1.65,3.92,3.31,6.93,1.65,2.98,5.55,13.97,7.95,16.8,2.38,2.82,4.98,5.36,7.68,7.54,1.5,1.22,3.07,2.11,4.7,2.71,13.87-.88,27.93-.54,41.85-1.76,.28-.03,.53,.03,.77,.11,1.65,.04,3.22,.37,4.53,1.28,2.3,1.59,2.77,4.13,2.23,6.42-.06,.52-.14,1.05-.33,1.59-3.16,8.63-6.13,17.2-8.86,25.46-2.64,8-5.66,16.02-8.98,23.86-11.4,.24-22.92,.7-34.26,1.38-11.72,.68-23.89,1.16-36.13,1.39-4.57,.08-7.96,1.36-10.08,3.82-1.97,2.29-3.22,5.02-3.69,8.12-.47,2.97-.43,6.13,.11,9.42,.53,3.17,1.09,5.9,1.72,8.13,.23,.84,1.06,1.42,2,1.42l71.54-2.04-20.2,65.33c-25.21,75.94-38.36,144.28-38.36,144.28l11.75,24.34c.24,.4,.5,.7,.75,1.01,.17,.23,.35,.44,.54,.67,5.99,6.37,19-5.36,19-5.36l40.65-148.51c5.29-17.58,10.73-38.46,16.68-54.51,3.34-9.92,8.02-14.14,12.43-24.43l123.91-9.04Z"/><path d="M1177.64,128.9c.28,0,.54-.07,.78-.18,.98-.44,2.14-1.43,3.68-3.11,1.42-1.53,2.71-3.15,3.87-4.8,1.19-1.69,1.46-9.51,2.41-11.51,1.05-2.24,1.46-4.09,1.26-5.69-.5-4.02-4.63-7.1-12.26-9.13-.24-.07-.51-.1-.75-.07-17.48,1.29-48.59,2.44-65.71,2.92-16.25,.47-32.43,5.02-49.09,5.35l15.16-48.95c.55-.88,1.19-1.69,1.83-2.5,2.33-2.77,3.76-2.57,3.76-2.57l43.81-2.3,34.13-.85c11.64-.3,23.79-.28,36.15,.04,17.94,.2,36.42,.14,54.9-.16,18.29-.3,59.13-2.31,78.11-1.82,3.08-.07,6.27-.96,9.48-2.63,3.58-1.85,5.19-4.88,4.67-8.74-.03-.17-.07-.34-.14-.5-1.76-3.72-6.44-15.38-10.22-18.83-3.76-3.42-8.09-6.27-12.87-8.49-.33-.14-.68-.23-1.04-.21l-353.46,6.23c-.58,.01-1.11,.26-1.45,.68-.33,.41-.41,.96-.24,1.46,.57,1.65,1.66,3.92,3.32,6.94,1.63,2.98,5.55,13.95,7.95,16.79,2.38,2.82,4.97,5.36,7.68,7.54,1.5,1.22,3.07,2.11,4.68,2.71,13.87-.88,27.94-.52,41.85-1.76,.28-.03,.54,.03,.77,.11,1.66,.04,3.24,.37,4.54,1.28,2.3,1.59,2.77,4.14,2.23,6.42-.07,.52-.16,1.05-.34,1.59-3.15,8.63-6.12,17.2-8.84,25.46-2.64,8-5.66,16.04-8.98,23.86-11.41,.26-22.92,.71-34.26,1.38-11.72,.7-23.89,1.16-36.15,1.39-4.56,.1-7.95,1.38-10.06,3.82-1.99,2.3-3.22,5.02-3.69,8.12-.47,2.98-.43,6.15,.11,9.42,.53,3.17,1.09,5.9,1.7,8.13,.23,.84,1.08,1.43,2.02,1.42l71.53-2.03-20.18,65.31c-25.22,75.96-38.36,144.28-38.36,144.28l11.74,24.35c.26,.38,.51,.68,.77,1.01,.17,.21,.34,.44,.54,.67,5.97,6.36,19-5.38,19-5.38l40.63-148.51c5.31-17.57,10.74-38.46,16.69-54.51,3.34-9.91,8.02-14.12,12.42-24.41l123.93-9.05Z"/><path d="M243.64,131.07c.96-.45,2.14-1.43,3.68-3.11,1.41-1.53,2.72-3.15,3.89-4.8,1.19-1.69,1.46-9.51,2.4-11.52,1.05-2.23,1.46-4.09,1.28-5.68-.51-4.03-4.64-7.11-12.28-9.13-.24-.07-.5-.1-.75-.07-17.48,1.29-48.58,2.44-65.7,2.92-16.26,.47-32.44,5.02-49.11,5.35l15.17-48.95c.55-.88,1.18-1.69,1.82-2.5,2.33-2.77,3.76-2.58,3.76-2.58l43.81-2.3,34.13-.85c11.65-.28,23.8-.27,36.15,.06,17.95,.18,36.42,.13,54.9-.17,18.29-.3,59.13-2.3,78.13-1.8,3.07-.07,6.26-.96,9.48-2.63,3.58-1.85,5.18-4.88,4.66-8.74-.01-.18-.07-.34-.14-.5-1.76-3.72-6.44-15.38-10.22-18.83-3.75-3.42-8.09-6.29-12.87-8.49-.33-.16-.68-.23-1.04-.21L31.33,12.78c-.6,.01-1.12,.26-1.46,.67-.31,.43-.41,.96-.24,1.48,.57,1.65,1.66,3.92,3.32,6.93,1.65,2.99,5.55,13.97,7.95,16.8,2.38,2.82,4.97,5.36,7.68,7.54,1.5,1.21,3.07,2.11,4.68,2.7,13.87-.87,27.94-.52,41.87-1.75,.28-.03,.53,.03,.75,.11,1.66,.04,3.24,.37,4.54,1.28,2.3,1.59,2.77,4.14,2.23,6.42-.06,.52-.14,1.05-.34,1.59-3.15,8.63-6.13,17.2-8.84,25.46-2.65,8-5.66,16.02-8.98,23.86-11.41,.24-22.92,.7-34.25,1.38-11.74,.7-23.9,1.16-36.15,1.39-4.57,.08-7.96,1.38-10.08,3.82-1.97,2.3-3.22,5.02-3.69,8.12-.47,2.97-.43,6.13,.11,9.41,.52,3.18,1.09,5.92,1.7,8.15,.23,.84,1.08,1.43,2.02,1.42l71.54-2.03-20.18,65.31c-25.22,75.94-38.38,144.28-38.38,144.28l11.75,24.35c.24,.37,.5,.67,.75,.99,.17,.23,.35,.45,.54,.67,5.98,6.37,19-5.36,19-5.36l40.65-148.51c5.29-17.57,10.73-38.46,16.68-54.51,3.34-9.92,8.03-14.14,12.42-24.43l123.93-9.04c.27-.01,.54-.07,.78-.18"/></g></g></svg>