<?xml version="1.0" encoding="UTF-8"?><svg id="Layer_2" xmlns="http://www.w3.org/2000/svg" viewBox="0 0 3432.35 835.87"><g id="Layer_1-2"><g id="Group_541" transform="translate(0 0)"><path d="M91.81,0C41.11,0,0,41.11,0,91.81c-.02,24.79,9.83,48.57,27.37,66.1l214.1,214.11H92.2c-50.7,.49-91.39,41.99-90.9,92.69v279.34c.6,50.81,41.91,91.71,92.72,91.81h.95c50.69-.02,91.78-41.12,91.78-91.81v-186.4l279.3-.18h.95c50.7-.01,91.8-41.11,91.81-91.81v-.95c.08-24.7-9.78-48.4-27.37-65.74l-214.31-214.43h243.86c50.69,0,91.79-41.08,91.79-91.77v-.23c-.07-51.13-41.53-92.54-92.65-92.56H91.81Z"/></g><g><path d="M835.92,744.19h-114.44V229.79h331.6v108.06h-217.89v109.46h191.67v101.68h-190.94v195.2Z"/><path d="M1268.48,755.17c-52.2,.25-97.07-17.02-134.62-51.77-37.55-34.75-56.34-80.56-56.34-137.41s17.85-103.36,53.5-139.53c35.66-36.15,79.7-54.13,132.13-53.9,52.43,.25,94.71,16.66,126.85,49.25,32.12,32.59,48.18,77.94,48.18,136.04,0,18.42-.71,29.76-2.11,34.01h-248.02c.73,20.04,9.1,36.75,25.16,50.11,16.07,13.36,34.95,20.15,56.68,20.4,37.32-.25,61.53-16.23,72.62-47.97l92.11,26.48c-9.19,33.17-28.34,60.57-57.38,82.19-29.07,21.64-65.32,32.35-108.77,32.1Zm46.76-275.15c-11.81-11.42-29.05-17.12-51.72-17.12s-40.16,5.93-52.43,17.8c-12.52,11.86-19.48,25.18-20.89,39.96h144.18c-.94-15.67-7.32-29.22-19.13-40.63Z"/><path d="M1619.57,538.65v205.54h-110.53V383.55h106.63v42.27c9.21-16.31,23.38-29.03,42.51-38.15,19.13-9.13,38.61-13.56,58.45-13.33,42.99,0,75.58,13.46,97.78,40.39,22.21,26.92,33.43,61.28,33.66,103.1v226.37h-110.53v-206.24c0-18.77-4.96-33.8-14.88-45.05-9.92-11.27-24.21-16.91-42.88-16.91s-33.42,5.88-44.28,17.6c-10.86,11.75-16.18,26.76-15.93,45.05Z"/><path d="M2298.68,218.82v460.9c0,21.73,.94,43.22,2.83,64.48h-108.98c-1.98-11.93-2.97-23.88-2.97-35.81-8.75,12.84-21.78,23.37-39.05,31.6-17.29,8.24-36.58,12.34-57.87,12.34-51.2,0-93.66-18.26-127.39-54.79-33.73-36.51-50.6-81.25-50.6-134.19s16.25-97.61,48.74-134.05c32.96-36.17,74.51-54.26,124.67-54.26s82.93,12.59,98.31,37.77V218.82h112.31Zm-273.5,344.53c.23,27.96,8.17,49.5,23.79,64.63s34.78,22.69,57.51,22.69,42.02-7.68,57.87-23.04c15.87-15.36,23.79-36.78,23.79-64.28s-7.93-48.81-23.79-63.93c-15.85-15.13-35.15-22.69-57.87-22.69s-41.89,7.56-57.51,22.69c-15.62,15.13-23.56,36.43-23.79,63.93Z"/><path d="M2610.11,489.45c-12.29-10.13-29.3-15.21-51.02-15.21s-40.52,8.01-56.34,24.04-23.74,37.96-23.74,65.76,8.27,49.52,24.82,65.07c16.05,16.02,34.95,24.02,56.68,24.02s39.09-5.17,52.07-15.55c12.75-10.36,21.26-23.09,25.51-38.18l97.42,29.71c-8.73,34.55-28.21,64.15-58.45,88.78-30.24,24.62-70.26,36.93-120.11,36.93s-93.69-17.99-131.59-54.01c-37.92-36.48-56.88-82.31-56.88-137.46s18.49-100.7,55.45-136.58c36.96-35.9,80.59-53.96,130.92-54.21,50.29,.25,90.45,12.41,120.45,36.48,29.99,24.09,49.35,53.83,58.1,89.24l-98.85,29.71c-4.02-15.55-12.16-28.41-24.44-38.54Z"/><path d="M2962.59,755.17c-52.2,.25-97.07-17.02-134.62-51.77-37.55-34.75-56.34-80.56-56.34-137.41s17.85-103.36,53.5-139.53c35.66-36.15,79.7-54.13,132.13-53.9,52.43,.25,94.71,16.66,126.85,49.25,32.12,32.59,48.18,77.94,48.18,136.04,0,18.42-.71,29.76-2.11,34.01h-248.02c.73,20.04,9.1,36.75,25.16,50.11,16.07,13.36,34.95,20.15,56.68,20.4,37.32-.25,61.53-16.23,72.62-47.97l92.11,26.48c-9.19,33.17-28.34,60.57-57.38,82.19-29.07,21.64-65.32,32.35-108.77,32.1Zm46.76-275.15c-11.81-11.42-29.05-17.12-51.72-17.12s-40.16,5.93-52.43,17.8c-12.52,11.86-19.48,25.18-20.89,39.96h144.18c-.94-15.67-7.32-29.22-19.13-40.63Z"/><path d="M3397.63,488.06c-24.57,0-44.75,8.04-60.59,24.16-15.82,16.1-23.61,40.85-23.37,74.23v157.74h-110.53V383.55h106.63v48.2c8.73-18.54,22.08-31.79,40.02-39.78,17.96-7.98,34.14-11.96,48.54-11.96s25.74,1.17,34.01,3.53v108.06c-10.15-2.36-21.73-3.53-34.72-3.53Z"/></g></g></svg>