<?xml version="1.0" encoding="UTF-8"?><svg id="Layer_2" xmlns="http://www.w3.org/2000/svg" viewBox="0 0 1784.09 216.86"><defs><style>.cls-1{fill:#231f20;}</style></defs><g id="Capa_1"><g><g><path class="cls-1" d="M70.84,108.51c.05-6.66-.01-13.31,.21-19.97,.08-2.43-.26-3.42-3.04-3.15-9.27,.86-18.59,1.42-27.86,2.28-4.46,.43-7.38,3.76-7.94,8.22-.47,4.59-.68,9.21-.63,13.83-.06,7.35,.12,14.65-.28,22-.81,14.76-.86,29.63-4.91,44.01-1.67,5.95-4.72,11.19-8.46,15.97-2.63,3.4-6.86,4.41-10.91,3.04-3.64-1.24-6.04-5.08-6.23-9.83-.44-11.18-.12-22.35-.5-33.52-.52-15.92-.28-31.78,.07-47.7,.34-14.12,1.12-28.24,2.35-42.36,1.02-12.06,2.96-24.03,5.83-35.79,.78-2.98,.98-6.08,.59-9.14C7.98,8.64,14.12,1.34,22.98,.25c5.62-.65,11.84,3.16,13.81,11.1,.9,3.54,.41,6.89-.31,10.24-.91,4.52-1.46,9.1-1.62,13.71-.22,6.13-.73,12.32-.72,18.46,.04,2.14,.67,2.61,2.7,2.22,6.55-1.28,13.21-1.29,19.75-1.99,2.66-.27,5.33-.42,7.94-1.16,3.83-1.07,5.18-3.78,5.38-7.31,.2-3.53,.23-6.94,.14-10.42-.23-7.99,.58-15.97,.88-23.96,.22-5.5,2.45-9.88,9.75-10.87,5.04-.66,9.78-.04,14.22,2.37,3.29,1.76,5.06,4.73,5.9,8.21,2.07,8.87,2.29,17.9,1.36,26.99-.38,3.82-.46,7.7-.72,11.51-.73,12.04-1.22,24.01-1.66,36.05-.51,13.48-.26,26.97-.94,40.46-.55,11.92-.12,23.91-.85,35.83-.46,7.7,.17,15.4-1.22,23.03-.85,4.57-5.33,7.77-10.13,7.85-4.81,.08-8.03-2.78-9.61-7.66-3.9-12.01-4.85-24.47-5.57-36.97-.65-13.03-.78-26.23-.63-39.43h.01Z"/><path class="cls-1" d="M381,124.81c.09-11.58-.06-23.1,.32-34.67,.36-9.72,.84-19.44,1.38-29.11,.67-12.04,1.22-24.01,1.37-36.05,.09-4.69,.82-9.43,3.06-13.7,2.7-5.13,9.04-8.61,13.78-7.65,7.46,1.5,12.28,6.4,12.69,13.29,.56,9.73-.32,19.39-.74,29.11-.63,14.52-1.61,29.05-2.24,43.57-.42,10.07-.91,20.2-1.39,30.26-.34,7.23-.8,14.47-.34,21.65,.47,7.11-.72,14.23-3.46,20.81-4.48,10.68-12.07,18.9-21.32,25.71-13.04,9.63-27.78,13.8-43.8,12.29-16.72-1.57-31.55-7.59-42.85-20.76-4.48-5.24-6.69-11.4-7.68-18.12-1.93-13.16-.9-26.29-.57-39.48,.33-12.44,.77-24.89,.05-37.28-.15-2.78-.07-5.62,0-8.39,.31-10.88-.3-21.77-.5-32.65-.12-6.54-1.06-13.03-.84-19.57,.15-3.99,.99-7.87,4.42-10.56,4.89-3.78,13.97-2.15,17.86,3.15,3.04,4.13,3.75,9,4.29,13.93,1.51,14.37-.33,28.71-.33,43.01,.02,12.62-.31,25.24-.98,37.85-.48,9.26-.6,18.52-.62,27.72,0,7.24,1.75,14.08,5.75,20.25,3.55,5.53,8.79,8.34,15.16,8.86,10.64,.89,21.18,.28,31.17-4.1,9.18-4.04,13.4-11.71,14.92-21.19,1.09-6.01,.56-12.09,1.41-18.17h0Z"/><path class="cls-1" d="M212.27,137.53c-11.63-.15-21.53-.11-31.49,.28-4.69,.2-8.29,1.73-11.39,5.59-4.94,6.27-9.24,13.03-12.83,20.16-5.58,10.84-12.66,20.69-20.43,30.06-4.44,5.35-13.12,5.17-16.38-.36-1.89-3.2-1.74-6.61-.5-10.02,5.27-14.89,11.05-29.61,18.39-43.62,11.77-22.34,25.8-43.41,41.87-62.89,19.52-23.82,43.62-41.98,70.25-56.95,5.46-3.08,13.32-.48,14.31,6.48,.93,6.61,1.23,13.21,1.82,19.81,1.01,11.3,1.8,22.59,2.58,33.94,.42,6.02,.72,12.1,1.14,18.13,.83,13.15,1.71,26.29,2.54,39.38,.41,6.89,.71,13.84,1.06,20.73,.46,7.76,.92,15.52,1.44,23.28,.26,3.48-2.61,8.2-6.09,9.79-3.66,1.65-9.56,1.08-11.5-2-4.17-6.75-8.81-13.32-11.42-20.93-.68-1.97-.43-4-.19-6.02,.81-5.93,.26-11.98-1.6-17.67-1.47-4.64-3.89-6.11-8.69-6.61-8.21-.76-16.44-.24-22.86-.58Zm30.18-86.31c-.35-.12-.75-.18-1.1-.3-23.68,16.38-45.01,34.85-56.22,62.78,1.85,.59,3.42-.09,5.04-.14,16.16-.69,32.29-1.34,48.41-1.95,3.71-.15,4.17-.49,4.14-4.14-.14-12.5-.33-25.01-.41-37.57-.01-6.25,.09-12.45,.14-18.7Z"/><path class="cls-1" d="M451.28,92.98c-.03,3.53,.01,6.25-.07,8.91-.59,24.66-1.01,49.37-1.08,74.03-.04,5.61-2.57,10.63-4.63,15.65-1.53,3.69-5.25,5.11-9.12,4.68-4.8-.5-7.44-3.18-8.51-7.71-.36-1.69-.52-3.42-.48-5.16,.34-14.82,.46-29.69,1.09-44.51,.64-14.99,1.04-30.04,1.56-45.02,.37-10.59,.8-21.18,1.4-31.71,.4-7.29,.05-14.65,1.67-21.81,1.02-4.57,4.05-6.86,8.45-7.46,3.88-.49,7.35,.63,9.46,4.12,2.92,4.88,5.6,9.88,8.4,14.83l43.01,75.87c3.6,6.34,7.37,12.62,11.09,18.96,.93-.63,.53-1.44,.54-2.14-.12-14.18,.04-28.36-.49-42.49-.33-9.26,.08-18.52-.25-27.73-.67-18.3-.07-36.64-.1-54.94,0-6.6,3.09-10.69,9.06-11.86,3.94-.72,7.17,.92,9.58,4.01,4.41,5.59,6.69,11.51,5.99,19.15-1.01,11.51-.18,23.1-.73,34.67-.76,15.62-.35,31.2-.82,46.82-.32,12.15,.34,24.32,.07,36.41-.17,6.77,.07,13.6-.27,20.37-.34,6.6,.13,13.26,.2,19.91,.09,3.11-.92,6.16-2.84,8.6-4.09,5.12-12.31,4.94-15.92-.53-14.02-21.53-28.04-43.11-41.59-64.98-8.01-12.74-16.13-25.48-24.65-38.97h0Z"/><path class="cls-1" d="M967.84,74.4c0,5.86-1.43,11.63-4.18,16.81-11.22,21.91-20.26,44.88-30.73,67.2-6.36,13.56-13.57,26.64-24.71,37.03-11.6,10.91-25.32,17.98-41.02,20.3-9.62,1.43-17.13-.94-21.64-9.54-1.88-3.6-1.97-7.54-1.36-11.3,.79-4.97,.48-10.01,.92-14.99,.7-7.87,.35-15.8,1.05-23.67,.7-8.62,.36-17.31,1.07-25.93,.51-6.19,.21-12.5,.43-18.69,.45-13.77,.9-27.49,1.47-41.26,.63-14.93,1.33-29.8,1.56-44.74-.03-3.18,.34-6.34,1.11-9.43,1.55-5.78,6.84-9.27,12.56-7.6,18.14,5.23,36.04,11.16,53.11,19.33,10.7,5.06,20.94,11.04,30.6,17.89,5.85,4.09,11.05,9.05,15.4,14.7,3.15,4.31,4.68,9.01,4.35,13.87h0Zm-25.03,2.65c.19-2.02-1.24-4.24-3.31-6.16-7.7-7.11-16.04-13.49-24.92-19.06-12.14-7.5-25.38-13.05-39.24-16.45-1.68-.42-2.2-.02-2.27,1.72-.6,10.18-1.31,20.31-1.97,30.49-.27,4.69-.48,9.43-.74,14.12-.86,14.41-1.72,28.76-2.59,43.16-.33,5.67-.26,11.34-.53,17.01-.81,15.68,.57,31.38-1.69,47.05-.25,1.91,.39,2.55,2.25,1.58,3.6-1.82,7.32-3.48,10.87-5.36,9.59-5.25,17.81-12.02,23.95-21.18,4.57-6.8,8.21-14.12,11.86-21.39,8.17-16.26,15.01-33.06,23.13-49.32,2.41-4.84,4.94-9.69,5.22-16.23h0Z"/><path class="cls-1" d="M715.99,132.34c-.35-7.88,.31-17.71,.96-27.49,.78-11.75,1.92-23.55,3.45-35.23,1.47-11.05,2.54-22.15,3.9-33.2,.8-6.48,2.01-12.95,5.01-18.89,5.7-11.42,15.05-14.47,26.73-12.76,9.43,1.35,18.79,2.81,28.22,3.98,12.03,1.48,24,3.14,35.85,5.6,10,2.04,14.79,11.28,9.85,21.32-3.88,7.96-12.42,11.54-21.78,9.44-7.34-1.62-13.74-5.49-20.72-7.97-9.64-3.43-19.41-5.3-29.67-3.18-3.59,.78-6.1,2.67-7.51,6.02-3.42,8.37-4.99,17.15-5.93,26.06-.56,5.15-1.41,10.29-1.16,15.5,.41,6.95-.4,6.31,6.43,6.65,11.69,.61,23.44,.99,35.06,2.7,5.49,.79,8.02,3.48,8.96,8.69,.67,3.59-1.56,7.86-5.35,10.15-2.56,1.54-5.57,1.52-8.35,1.9-10.5,1.35-21.09,1.89-31.68,1.61-4.75-.09-5.27,.6-6.12,5.34-1.09,6.01-.56,12.09-.6,18.17,.03,8.56-.4,17.12-1.3,25.63-.21,2.41-.25,4.82-.11,7.24,.35,6.89,3.75,9.46,10.53,8.07,10.26-2.06,20.41-4.76,30.84-6.07,4.69-.6,9.39-2.07,14.31-1.05,4.28,.9,6.51,3.52,7.06,7.64,.49,3.71-.69,6.94-3.83,9.06-6.11,4.24-12.91,7.31-19.59,10.44-14.52,6.78-29.73,11.7-45.16,15.98-8.93,2.48-15.65-4.46-15.94-12.28-.44-10.37-1.23-20.73-1.62-31.1-.43-11.99-.86-23.97-.75-37.98Z"/><path class="cls-1" d="M604.19,142.19c.1-12.91,.37-25.87,.24-38.78-.12-14.24-.42-28.48-.89-42.73-.24-6.89-.94-13.84-.83-20.73,.02-2.03-.62-2.73-2.59-2.51-8.81,.92-17.67,1.26-26.52,1.01-3.36-.1-6.71-.61-9.95-1.52-6.64-1.85-10.81-9.81-9.19-17.2,1.86-8.55,6.75-12.68,15.5-13.83,7.36-.93,14.59-.18,21.82,.69,3.41,.43,6.89,.46,10.36,.66,14.93,1.04,29.86,1.1,44.8,.92,5.5-.07,10.95-.9,16.38,.24,4.19,.94,7.2,4.62,7.28,8.91,.08,4.05-3.01,7.97-7.3,8.92-6.26,1.4-12.64,2.62-18.9,4.02-8.47,1.85-8.82,2.71-9.29,11.39-1.28,23.2-1.68,46.41-1.4,69.63,.13,12.79,.04,25.59,.11,38.44,.06,15.4-3.07,30.19-8.67,44.51-1.71,4.44-5.2,6.79-9.72,7.05-3.75,.31-7.37-1.47-9.4-4.64-1.26-1.92-1.47-4.12-1.57-6.38-.87-15.29-.29-30.62-.29-45.96-.05-.75,.01-1.45,.02-2.08h0Z"/></g><g><path class="cls-1" d="M1407.84,67.82c-5.24,4.13-9.67,8.38-14.16,12.57-4.49,4.19-9.67,7.34-16.04,7.81-7.88,.52-13.99-2.89-18.75-8.88-4.99-6.23-8.81-13.38-14.79-18.81-2-1.97-4.2-3.73-6.56-5.26-.02,2.84-.16,5.32-.06,7.76,.72,11.99-.07,24.02,.36,36.01,.37,11.58-.18,23.15,.43,34.68,.4,7.88,.17,15.75,.51,23.62,.24,6.08-1.94,12.08-3.73,17.97-.53,1.67-.95,3.35-1.49,4.97-2.01,5.77-6.08,7.77-10.07,7.45-5.21-.39-8.48-4.12-8.9-9.68-.79-10.14-1.41-20.33-2.2-30.47-.79-10.54-1.11-21.14-1.55-31.68-1.04-23.28-.98-46.61-.45-69.93,.25-9.52,1.31-19,3.17-28.34,1.5-7.46,7.9-10.53,14.64-7.01,6.4,3.35,12.15,7.79,17.91,12.18,9.27,7.02,16.09,16.22,23.08,25.3,6.88,8.97,6.31,7.75,14.45,2.66,8.67-5.43,16.24-12.32,23.94-18.98,2.45-2.12,4.9-4.36,7.29-6.6,2.62-2.41,5.88-4.18,9.17-2.82,3.81,1.59,7.26,4.34,7.92,8.92,.94,6.26,1.24,12.63,1.71,18.94,1.05,13.79,1.58,27.62,1.77,41.46,.24,13.61-.09,27.15-.14,40.75-.11,13.95-.04,27.96-.49,41.91-.15,4.17,.17,8.45-.91,12.61-1.19,4.45-4.45,7.2-9.09,7.51-3.76,.26-8.49-2.44-9.85-5.92-3.75-9.64-6.57-19.56-7.65-29.81-1.35-13.09-.44-26.11,.65-39.18,.89-10.93,1.85-21.87,1.47-32.87-.19-5.38-.61-10.71-.98-16.1-.11-.81-.34-1.57-.62-2.73h0Z"/><path class="cls-1" d="M1236.92,133.83c-12.51,.37-25.01,.62-37.52,1.1-4.05,.14-8.05,.69-12.05,1.07-3.48,.32-5.18,3.14-7.05,5.5-5.85,7.65-9.45,16.48-13.39,25.14-4.6,10.08-10.32,19.61-17.06,28.41-2.16,2.82-5.24,3.78-8.71,3.29-4.39-.61-6.98-3.41-8.4-7.42-.85-2.26-.43-4.52,.17-6.77,6.5-25.54,16.24-49.72,28.63-72.95,10.28-19.26,21.71-37.75,35.44-54.72,14.61-18.11,31.96-33.84,51.41-46.61,2.15-1.43,4.02-3.38,6.52-4.23,7.49-2.43,13.36,1.78,13.93,9.95,.57,8.34,2.25,16.57,3.17,24.86,1.08,9.62,2.28,19.24,3.43,28.91l3.6,28.86c1.04,8.46,1.9,16.98,2.93,25.49,1.52,12.69,3.22,25.32,4.75,38.01,.65,5.45,1.36,10.89,1.73,16.34,.36,5.62-2.33,9.94-6.39,11.12-5.34,1.58-10.24-.19-13.04-5.08-2-3.49-4.17-6.98-6.46-10.24-3.44-4.83-4.79-10.11-4.62-16.01,.29-6.37-.91-12.72-3.51-18.55-1.65-3.6-4.3-5.47-8.41-5.27-3.01,.15-5.96,.01-8.97-.01-.12-.06-.11-.12-.11-.17h0Zm-43.47-22.91c1.22,0,2.26,.08,3.3,.03,7.94-.63,15.87-1.38,23.81-2.02,9.09-.74,18.19-1.37,27.34-2.11,3.13-.27,4.18-1.76,3.86-4.89-1.46-13.21-2-26.47-3-39.68-.58-7.65-1.04-15.23-1.62-23.46-24.29,19.73-44.14,41.94-53.69,72.12h0Z"/><path class="cls-1" d="M1017.76,48.97c.39-12.56,.05-21.77,2.03-30.72,3.12-13.99,14.04-19.63,27.52-17.97,7.98,.99,16.02,1.86,24.06,2.67,10.41,1.06,20.82,2.01,31.24,3.02,1.16,.12,2.31,.13,3.47,.14,9.61,.02,12.86,6.52,11.35,14.67-1.51,8.15-6.56,10.02-13.68,10.08-9.55,.1-19.15-1.19-28.7-2.07-7.06-.69-14.11-1.73-21.29-1.61-2.32,.04-3.25,1.25-3.9,3.1-1.24,3.46-1.21,7.17-1.76,10.81-1.58,9.94-1.02,19.96-1.79,29.91-.13,1.62,.86,1.74,1.9,1.81,6.31,.45,12.67,.96,18.98,1.36,5.73,.33,10.68,3.79,11.8,8.48,1.35,5.74-1.12,9.95-6.8,11.82-6.38,2.09-12.88,3.95-19.15,6.51-5.11,2.1-7.62,5.21-8.01,11-1.1,14.93-.05,29.81,.93,44.64,.47,7.18,.58,14.42,1.17,21.6,.37,4.81,.45,9.61,.35,14.42-.06,4.63-.56,9.23-1.49,13.77-1.02,5.2-3.72,9.23-9.46,10.29-4.54,.88-8.97-1.95-10.08-6.44-1.29-4.87-1.08-9.91-1.51-14.89-1.06-13.38-1.82-26.82-2.59-40.25-.46-7.88-.69-15.75-1.04-23.63l-1.96-39.44c-.35-7.47-.81-15-.99-22.47-.11-8.05-.92-16.04-.6-20.61h0Z"/><path class="cls-1" d="M1705.71,176.76c.13-10.07,1.3-19.04,2.36-28,2.04-17.41,.78-34.21-6.97-50.42-7.69-16.09-17.95-30.24-29.48-43.64-7.23-8.39-15.1-16.21-22.51-24.43-4.19-4.66-6.06-9.94-3.87-15.95,2.01-5.43,6.2-8.75,11.94-9.81,3.94-.78,7.23,.81,9.75,3.72,9.18,10.55,18.31,21.09,27.31,31.76,9.75,11.54,19.51,23.07,29.14,34.72,4.19,5.01,4.07,5.13,8.67,1.17,11.19-9.52,22.41-19.07,33.68-28.63,2.69-2.41,6.28-3.56,9.86-3.17,7.92,.99,11.15,10.04,5.95,16.25-12.27,14.73-24.59,29.39-36.4,44.47-5.9,7.54-9.73,15.79-10.73,25.39-1.12,10.76-.05,21.59-.77,32.35-.72,10.53-3.98,20.4-8.22,29.92-1.9,4-6.31,6.15-10.63,5.19-5.43-1.2-8.19-4.17-8.55-9.73-.26-4.11-.92-8.17-.55-11.18h0Z"/><path class="cls-1" d="M1536.63,175.24c.22-13.31-.43-26.63-.1-40,.17-6.83-.13-13.72,.1-20.55,.71-25.12,.73-50.24,1.21-75.3,.1-5.27,.31-10.59,.47-15.86,.3-8.62,5.64-11.48,13.22-10.26,8.09,1.28,12.22,6.69,13.03,14.98,1.02,10.72-.51,21.3-.76,31.95-.26,11.46-.29,22.92-.32,34.44-.07,9.26-.26,18.52-.1,27.79,.12,6.66,.36,13.26,.2,19.91-.09,4.4-.47,8.85-.51,13.25,0,1.92,.18,3.84,.54,5.73,.73,3.54,3.83,5.76,8.64,5.8,4.98,.04,10.02-.21,15-.46,6.6-.41,13.21-.94,19.81-1.47,3.53-.26,7.07-.64,10.6-.96,3.13-.32,6.25-.24,9.02,1.34,5.76,3.29,5.93,12.09,.17,15.75-5,3.2-10.63,5.36-16.21,7.52-11.82,4.68-24.17,7.89-36.77,9.56-8.87,1.18-17.81,1.75-26.76,1.71-6.48-.05-10.39-4.02-10.57-10.5-.08-4.86,.07-9.61,.11-14.36h0Z"/><path class="cls-1" d="M1475.6,10.14c.92,.18,2.2,.42,3.53,.78,5.55,1.55,11.15,3.1,16.69,4.58,5.37,1.49,8.23,6.31,7.55,11.92-1.36,10.76-3,21.51-3.95,32.33s-2.42,21.75-3.49,32.68c-.82,8.21-1.34,16.49-2.1,24.7-1.14,12.26-1.69,24.53-3.69,36.67-.73,4.28-3.69,6.17-7.63,6.66-3.42,.38-6.48-.63-8.54-3.65-2.2-3.18-3.42-6.93-3.51-10.79-.34-8.28-.97-16.51-1.95-24.67-.6-5.33-.84-10.72-1.15-16.1-.88-13.49-2.17-27.05-2.41-40.54-.29-15.11-.64-30.28,.81-45.38,.45-5.96,4.01-9.12,9.85-9.19h0Z"/></g></g></g></svg>