<?xml version="1.0" encoding="UTF-8"?><svg id="Layer_2" xmlns="http://www.w3.org/2000/svg" viewBox="0 0 757.41 274.82"><defs><style>.cls-1{fill:#040303;}.cls-2{fill:#0c0c0c;}</style></defs><g id="Layer_1-2"><g id="Layer_2-2"><g id="Layer_1-2"><path class="cls-2" d="M513.15,131.42c-2.44-1.53-5.25-2.35-8.13-2.35-4.13-.18-8.28-.13-12.42-.08-1.32,.08-2.64,.25-3.94,.5-3.77,.27-7.48,1.02-11.06,2.23-4.81,.75-9.23,2.72-13.79,4.32,.66,.21,1.37,.27,2.06,.18,3.92-.62,7.83-1.28,11.74-1.93,.38,.09,.77,.14,1.16,.14,1.78-.21,3.56-.45,5.33-.69l4.59-.66c2.94-.16,5.88-.39,8.83-.47,4.46-.2,8.91,.64,13,2.44-.63,.03-1.25-.1-1.82-.37-2.75-1.01-5.66-1.5-8.59-1.44-3.8,.13-7.6,.36-11.39,.55-2.46,.2-4.92,.36-7.36,.64-1.25,.14-2.47,.49-3.7,.74-3.41-.09-6.82,.27-10.14,1.06-4.87,.92-9.8,1.6-14.31,3.84-2.38,.66-4.6,1.8-6.51,3.36l-1,.25c.08-.28,.16-.56,.28-1l-2,.74c-2.24,.7-4.52,1.31-6.72,2.14-.91,.36-1.95,.03-2.5-.78-.61-.65-.27-1.39,.18-2.14,1.63-2.86,3.84-5.35,6.49-7.31,.29-.25,.55-.53,.78-.84,.53-.33,1.03-.7,1.51-1.1,2.21-2.05,4.41-4.11,6.58-6.2l3-3c6.51-5.96,13.02-11.91,19.55-17.85,1.56-1.43,3.25-2.73,4.88-4.08,1.29-1,2.63-2,3.86-3.06,2.43-2.16,4.79-4.38,7.18-6.58,1.43-1.22,2.83-2.47,4.29-3.65,4.78-3.83,9.51-7.75,14.42-11.43,3.85-2.89,7.87-5.58,11.93-8.19,4.43-2.84,9-5.47,13.49-8.2,1.19-.72,2.35-1.5,3.57-2.17s2.27-2.13,4.09-1.79c.4,.07,.91-.55,1.41-.75,1.33-.61,2.71-1.12,4.12-1.53,1.3-.33,2,.56,1.55,1.82-.71,1.63-2.02,2.93-3.66,3.62-.25-.57-.49-1.14-.78-1.82-.53-.05-1.06,0-1.56,.16-3.8,2-7.6,4-11.33,6.11-1.21,.83-2.38,1.73-3.5,2.69-1.07,.78-1.79,2.33-3.63,1.59-.36-.14-1.1,.55-1.61,.91-4.67,3.3-9.41,6.51-14,10-5.69,4.33-11.23,8.85-16.8,13.32-.77,.69-1.5,1.42-2.18,2.2l-11,9.53c-.43,.17-.85,.4-1.23,.67-6,5.39-12,10.77-18,16.2-1.8,1.65-3.46,3.45-5.18,5.18-.42,.2-.82,.44-1.19,.72-2.35,2.2-4.68,4.42-7,6.67-1,1-1.94,2-2.91,3-2.24,1.46-4.09,3.44-5.4,5.77,2.33,.48,3.84-.73,5.49-1.25,.34,0,.67-.04,1-.1,3.22-.89,6-2.8,9.34-3.55,.3-.07,.51-.55,.77-.84,.91-.16,1.81-.37,2.7-.63,4.71-1.59,9.39-3.25,14.1-4.84,2.53-.86,5.11-1.61,7.66-2.41,3.34-.6,6.69-1.18,10-1.81,.36-.14,.7-.33,1-.57,4.62-.09,9.25-.17,13.88-.28,3.63-.08,7,1.07,10.45,2,4.61,2.23,8.56,5.18,11.07,9.79l1.85,6.13c2.84-.54,5.5-1,8.13-1.57,1.62-.35,3.19-.94,4.81-1.35,.76-.18,1.54-.25,2.32-.23,2.6,.07,4.84-.25,6.71-2.58,2.17-2.53,4.77-4.66,7.69-6.27,.82-.3,1.67-.51,2.53-.64,.63,0,1.75,.2,1.86,.56,.48,1.57,1.9,1.42,3,1.8,.53,1.82-.95,2.85-1.39,4.23-2,2.66-4,5.28-5.9,8-3.4,4.69-6.35,9.69-8.83,14.93-.38,.84-.89,1.61-1.53,2.28-.95,1-1.37,2.57-2,3.89h0c-.27,.23-.64,.41-.8,.71-1.13,2.07-2.23,4.16-3.33,6.24-.18,.35-.3,.74-.53,1.28,2.11-.19,2.36-1.92,3.26-3l.08,.81,.68-.42c.54-.32,1.07-.67,1.56-1.06,8.74-7.92,17.47-15.85,26.2-23.8,1.47-1.36,2.74-2.94,4.45-4.8l-8-.28c2.31,0,4.61,0,6.91-.09,.61,0,1.45,0,1.79-.35,1.71-1.83,3.8-3.37,4.68-5.87l2.74-2.75,1.14-1.18h0v2.12c.7-.6,1.33-1.27,1.88-2,.48-.87-.21-1-.92-1h0l4.55-5.73,.5,.23c-.16,2.01-.73,3.97-1.67,5.75-.89,1.92-1.56,3.93-2,6,.42-.16,.81-.38,1.17-.65,3.14-3.06,6.25-6.16,9.38-9.23,.29-.36,.66-.64,1.08-.82,.57-.21,1.19-.21,1.76,0,.32,.23,.32,1.07,.29,1.64-.11,2.44-.28,4.89-.43,7.28,2.54,.54,6.84-.59,12.33-3.07,2.21-.82,4.46-1.56,6.62-2.49,1.8-.77,3.5-1.76,5.24-2.65,2.73-1.16,5.48-2.29,8.2-3.47,1.89-.92,3.42-2.46,4.34-4.35h0c.7,0,1.08-.25,1-1h0c.79-.53,1.59-1,2.36-1.6,1.32-.94,2.61-1.94,3.94-2.86,1.46-1.19,3.58-1.1,4.94,.21v2.94l.57,.21c.61-1.25,2.25-1.55,2.47-3.16,.89-.63,1.77-1.45,2.66,0-.32,1-.66,1.91-1,2.87-.75,2.37-1.48,4.74-2.22,7.11-.14,.66-.21,1.33-.22,2,.1,1.32,.55,1.57,2.18,1.43,1.35,.95,2.67,.19,3.82-.3,4.6-1.81,8.96-4.16,13-7,.7-.57,1.37-1.18,2.01-1.82l2.37-1.44c3.22-2,6.45-4,9.67-5.94,.18-.14,.35-.31,.48-.5,2.26-2.86,4.56-5.7,6.78-8.6,1.12-1.78,3.26-2.65,5.31-2.16,.35,.14,.68,.3,1,.49,1-1.5,1.9-2.92,2.8-4.37,2-3.26,3.95-6.55,6-9.79,2.61-4.08,4.89-8.36,6.82-12.8,.14-.35,.19-.9,.43-1,1.64-.73,2.1-2.32,2.78-3.72,4.51-9.22,8.81-18.53,13.51-27.65,4.1-8,8.63-15.73,13-23.6,.64-1.19,1.23-2.4,1.74-3.65,.13-.49,.19-1,.17-1.51l-.46-.2-3.34,5.05c.05-1.56,4.53-8.67,6.46-10.29-.08,1-.16,1.88-.23,2.78h-.37l.07,.32,.26-.35c.48-.39,.91-.84,1.28-1.34,1.66-3.21,3.76-6.17,6.24-8.8,.46-.83,1.49-1.14,2.33-.71,.82,1.9-.49,3.33-1.28,4.79-3.81,7-7.64,13.97-11.49,20.92-2.43,4.35-5,8.6-7.49,12.91-3.11,5.41-6.17,10.84-9.27,16.26-2.92,5.1-6.05,10.1-8.75,15.32-2.16,4.17-3.82,8.6-5.7,12.92-.45,1-1.38,1.73-1.83,2.83-2.56,6.27-5.26,12.48-7.87,18.73-3,7.11-6,14.21-8.81,21.37-2.56,6.48-4.89,13-7.37,19.55-.57,1.37-1.22,2.7-1.93,4-.33,.98-1.4,1.51-2.38,1.18-.17-.06-.34-.14-.49-.25,.79-1.42,1.7-2.79,2.34-4.27,1.57-3.63,3-7.3,4.49-11,1.61-4.1,3.13-8.24,4.73-12.35,2.23-5.71,4.47-11.41,6.76-17.08,.79-2,1.77-3.81,2.63-5.73,.36-.73,.52-1.55,.44-2.37-.37,.33-.71,.71-1,1.11-1.33,2.41-3.46,4.31-4.25,7.08-.23,.82-1.42,1.31-2,2.1-2.91,4.19-5.78,8.4-8.61,12.64-1.83,2.74-4.46,4.49-7.08,6.21-2-1.51-2.25-2.1-1.65-4.12,.5-1.69,1-3.39,1.49-5.26-3.32,1.02-6.38,2.77-8.94,5.11-.5,.2-1,.43-1.47,.7-3.57,2.5-7.39,4.61-11.41,6.29-3.14,1.23-6.22,2.36-9.59,.95,.01-.53-.04-1.07-.16-1.59-.46-1.12-.46-2.38,0-3.5,.39-1.79,.77-3.59,1.23-5.71-2.1,1.61-4,3.47-5.64,5.54l-7.08,6.59,3.85,.35c-1.06,.21-2.2,.77-3.15,.54-1.28-.31-1.91,.27-2.71,.93-1.2,1-2.44,2-3.7,2.9-.71,.69-1.79,.83-2.65,.34-1-.63-.66-1.66-.62-2.6,0-1.16,.07-2.31,.1-3.47,1.88,0,1.79-1.68,2.81-3.07-2.25,.44-4,.7-5.22,2.29-.54,0-1.08,.06-1.6,.19-3.19,1.33-6.36,2.7-9.51,4.1-.46,.2-.78,.71-1.17,1.08-3,0-5.63,1.45-8.34,2.46-2.35,.98-4.92,1.3-7.44,.92-1.09-.05-1.94-.96-1.91-2.05-.08-1.17,0-2.36,0-4.07-.83,.82-1.33,1.35-1.86,1.85-1.8,1.64-3.57,3.32-5.41,4.9-.75,.6-1.56,1.1-2.42,1.51-2.34,1.17-2.78,.95-3.42-1.75-.37,.26-.76,.49-1.17,.67-1.81,.62-1.52,3-3.56,3.75-1.56,.54-2.74,2.21-4.05,3.43s-2.49,2.48-3.76,3.68-2.72,2.4-4,3.65-2.56,2.63-3.93,3.85c-4,3.59-8,7.18-12.09,10.67-3.23,2.75-6.67,5.27-9.84,8.08-1,.94-1.56,2.48-2.38,3.84,0-.36,0-.71,.08-1.05s.16-.63,.25-.94l-.74,.38c-2.51,1.2-2.81,3.92-4.06,6-.87,1.64-1.18,3.51-.88,5.34-.06,.97,.57,1.85,1.51,2.11h0c-.18,.93-.31,1.86-.39,2.8,.03,2.54-.09,5.08-.34,7.61-.74,4.29-1.95,8.48-3.63,12.5-1.3,3.19-2.48,6.4-4.57,9.19-.24,.51-.38,1.07-.43,1.63l-3.44-.36c-.47-3.16-.49-6.37-.06-9.54,.23-2.37,.69-4.71,1.36-7,.84-3.07,1.83-6.11,2.9-9.12s2.22-5.71,3.32-8.57c.67-1.6,.54-3.42-.34-4.91-1.21-2.18-.91-3.05,1.07-4.59,1.46-1.15,3.17-2.12,4.27-3.55,1.38-1.98,2.6-4.08,3.63-6.27,1.64-3.08,3.15-6.23,4.83-9.28,1.79-3.23,3.61-6.44,5.62-9.52,1.6-2.46,2.87-5.12,5-7.31,.89-.93,1.08-2.54,1.58-3.85l.71-.91-.39-.25-.62,.81c-2.8,2.43-5.57,4.87-8.4,7.26-.42,.36-1.14,.36-1.63,.67-1.07,.68-2.08,1.46-3.12,2.19-.67,.63-1.7,.69-2.44,.14-.82-.7-.7-1.61-.07-2.53,1.35-2,2.63-4,4.15-6.35l-17.2,3.41c-.52,2.66-.93,5-1.44,7.29-.39,2.09-.92,4.15-1.58,6.17-2.79,7.37-6.57,14.33-11.24,20.69-3.43,4.94-7.25,9.58-11.43,13.9-1.15,1.18-2.27,2.38-3.35,3.62-.47,.6-.89,1.24-1.26,1.9-.35,.13-.69,.3-1,.51-2.56,2.3-5.1,4.62-7.65,6.93l-3.26,2.65c-.16,.25-.32,.5-.49,.75h0l-.49,.52h.05c-.39,.06-.86,0-1.15,.2-4.97,3.59-10.24,6.74-15.75,9.42-1.08,.46-2.01,1.21-2.68,2.17-.2-.87-.77-.89-1.45-.63-1.18,.46-2.33,1-3.54,1.39-4.89,1.5-9.87,2.21-14.91,.88-3.21-.66-5.88-2.88-7.13-5.91-.21-.49-.33-1.02-.36-1.55-.06-3-.18-6-.05-9.07,.11-1.32,.47-2.62,1.05-3.81,2.2-5.01,5.42-9.51,9.44-13.22,2.48-2.23,4.86-4.58,7.4-6.73,3.33-2.8,6.71-5.52,10.13-8.15,2.59-2,5.25-3.9,8-5.64,6.67-4.21,13.25-8.56,20.34-12.07,2.92-1.45,5.73-3.14,8.68-4.53,3.93-1.84,8-3.4,11.92-5.25,2.62-1.24,5.34-2.25,8.14-3,1.11-.29,2.9-.48,2.41-2.65l-5.3-.45h5.27c-1.49-5.99-4.81-9.95-10.27-12.08Zm67.67,7.2c.14-.34,.29-.67,.43-1l1.78-1.12,.9-1-.29-.32-1.06,.91-1.28,1.59-.45,1-.31,.27,.28-.33Zm152.58-97.87c-1.63,1-1.93,2.68-2.44,4.28l-.66,.95,.34,.15c.1-.37,.19-.75,.28-1.13l2.43-4.29c.58-.24,.85-.9,.62-1.47-.05-.11-.11-.21-.19-.31-.13,.61-.26,1.21-.38,1.82Zm3.27-6.78c1.24,.13,1.49-.93,1.91-1.67,4-7.08,7.98-14.18,11.93-21.29,.15-.28,0-.71,0-1.06h.21c-.06,.02-.12,.05-.18,.08-1,1.52-2,3-3,4.56-2.22,3.67-4.44,7.34-6.55,11.07-1.54,2.74-2.91,5.59-4.35,8.39l-.71,1.29,.38,.09c.17-.54,.27-1.01,.36-1.46Zm-91.84,83.31c-.31,.07-.61,.19-.89,.34-4.67,3.42-8.57,7.77-11.46,12.78-.23,.58-.36,1.2-.4,1.82-1.3,.64-1.35,1.75-1.19,3.48,1.48-1.11,2.88-1.71,3.53-3.25,2-1.72,4.08-3.43,6.09-5.18,.65-.57,1.64-1.19,1.72-1.88,.22-1.83,1.57-2.65,2.67-3.72,1.41-1.14,2.03-3,1.56-4.76l-1.63,.37Zm-167.68,94.24l-3.74,3.22c.59,.11,.77,.21,.88,.16,.43-.19,.85-.41,1.25-.66,6.18-3.98,12.02-8.48,17.45-13.43,.63-.69,1.19-1.44,1.66-2.25,.7-.48,1.37-1.01,2-1.58,4.98-5.04,9.52-10.48,13.59-16.28,5.06-7.19,9.47-14.7,12-23.17,.84-2.81,1.69-5.64,1.25-8.91-.87,.44-1.78,.79-2.72,1.07-1.72,.33-2.16,1.46-2.43,3-.51,2.78-1.42,5.48-2.7,8,.66-2.59,1.35-5.17,2.21-7.69,.48-1.02,.14-2.23-.8-2.86-.44,.1-.86,.23-1.28,.39-.16,.07-.21,.38-.3,.58h0c-1.67,.01-3.26,.74-4.36,2h0c-.91,.15-1.81,.39-2.68,.71-5.54,2.68-11.06,5.38-16.52,8.21-.69,.36-2,.39-2,1.69h0c-.53,.01-1.05,.12-1.55,.3-2.25,1.32-4.45,2.71-6.67,4.07h0c-1.21,.73-2.78,1.21-3.53,2.27-.41,.76-.98,1.43-1.68,1.94-4.64,2.87-9.35,5.64-13.85,8.73-6.07,4.22-11.59,9.19-16.41,14.79-3.47,3.74-6.12,8.17-7.78,13-1.02,2.88-1.06,6.02-.1,8.93,1.47,4.1,4.75,6,9,6.43,4.51,.45,8.68-1,12.75-2.61,2.29-1.05,4.51-2.24,6.65-3.55,.58-.11,1.14-.3,1.67-.56,3.04-2.08,5.88-4.02,8.74-5.94Zm54.54-18.17h-.53c-.42,1-.89,2-1.24,3-1.29,3.84-2.64,7.66-3.77,11.55-1.42,4.57-2.24,9.29-2.46,14.07,.07,.68,.19,1.35,.38,2,.79-1.01,1.5-2.08,2.12-3.2,.46-1.08,.46-2.35,.92-3.43,.4-.92,1.33-1.62,1.73-2.54,.73-1.68,1.34-3.4,1.82-5.17,.47-1.85,.85-3.72,1.12-5.61,.24-1.56,.25-3.15,.46-4.71,.28-2,.09-4.04-.56-5.96h0Zm149.81-68.91c.57-.33,1.11-.7,1.63-1.11,3.34-3.12,5.83-6.91,8.3-10.7,1.47-2.26,2.84-4.59,4.21-6.92,.37-.63,1.15-1.34,.37-2.13s-1.62-.09-2.3,.39c-.79,.52-1.53,1.12-2.19,1.8-4.43,4.8-7.77,10.51-9.78,16.72-.13,.64-.22,1.29-.25,1.95h0Zm-139.66,25l.33,.37c.35-.1,.69-.25,1-.44,2.37-2,4.74-4,7.08-6.05s4.37-3.91,6.55-5.87c.45-.32,.86-.69,1.22-1.11,.2-.34,.22-.76,.05-1.12-.3-.34-.72-.55-1.17-.6-.38,.06-.73,.23-1,.5-2.43,1.92-5,3.71-7.22,5.82-2.61,2.54-4.91,5.39-6.85,8.47v.03Zm57.66-17.47c-1.36,2.9-1.35,3.87,0,4.94v-4.94Zm-68.15,53.81q1.23-.72,1.07-2.16c-.75,.62-1.79,.91-1.07,2.18v-.02ZM735.67,36.3l-.3-.15-1,1.86,.45,.23c.33-.65,.57-1.27,.85-1.94Zm9.9-23.33l-.39-.51c-.11,.1-.3,.2-.3,.3,.02,.2,.08,.39,.17,.56l.52-.35Z"/><path class="cls-1" d="M299.7,132.75c2.12-1.48,4-2.78,5.85-4.07,.8-.55,1.64-1,2.42-1.61,.47-.51,1.27-.54,1.78-.07,.04,.04,.08,.07,.11,.12,2.67,2.71,6.19,3.93,9.7,4.63,8.22,1.7,16.71,1.6,24.89-.31,1.82-.39,3.52-1.24,4.92-2.47,.75-.67,1.18-1.63,1.17-2.63,.18-1.16-.49-2.29-1.59-2.7-2.06-.96-4.25-1.59-6.5-1.88-1.69-.27-3.33-.89-5-1.12-5.07-.68-10.14-1.41-15.23-1.81-3.96-.24-7.88-1.03-11.62-2.35-2-.73-3.87-1.76-5.56-3.06-3.08-2.27-4.92-5.84-5-9.66-.06-2.52-.24-5.09,.63-7.44,1.78-4.79,5.38-7.76,10.13-9.51,5.46-2,11.15-2.54,16.87-2.81,7.23-.48,14.49,.49,21.34,2.84,4,1.45,7.87,3.33,10.73,6.69,.56,.66,1,1.37,1.6,2.1l-9.27,6c-2.88-2.37-6.28-4.02-9.92-4.81-8-2.13-15.95-1.9-23.94-.41-1.88,.46-3.7,1.13-5.43,2-.7,.38-1.28,.95-1.65,1.66-1.06,1.85-.78,3.28,1.11,4.46,1.37,.91,2.9,1.55,4.51,1.88,4.75,.81,9.55,1.35,14.33,2,6.33,.88,12.74,1.33,18.87,3.34,4.42,1.45,8.14,3.83,10.26,8.17,3.18,6.65,1.2,14.62-4.73,19-3.53,2.48-7.64,4-11.94,4.4-4.58,.63-9.2,.96-13.82,1-3.79,.1-7.59-.21-11.31-.94-5.14-1.12-10.35-2.45-14.42-6.18-1.42-1.39-2.73-2.86-4.29-4.45Z"/><path class="cls-1" d="M545.33,254.3v-57.88c.75,0,1.44-.12,2.13-.12,10.47,0,20.94-.08,31.4,0,7.02-.08,13.89,2.07,19.61,6.15,6.08,4.42,10.21,10.22,11.45,17.68,2,11.94-2.31,21.42-12,28.53-3.8,2.71-8.22,4.43-12.86,5-2.83,.4-5.69,.6-8.55,.61-9.75,.06-19.5,0-29.25,0l-1.93,.03Zm11.08-11.6c8.69,0,17.17,.22,25.62-.08,5.02-.25,9.74-2.49,13.1-6.23,6.04-6.21,6.01-16.1-.06-22.28-4.08-4.17-9.69-6.49-15.52-6.4-7.19-.09-14.39,0-21.58,0-.52,.03-1.04,.09-1.56,.19v34.8Z"/><path class="cls-1" d="M524.07,138.74c-2.51-4.61-6.46-7.56-11.07-9.79l.06-40.27v-3.14c2.83,0,5.54,.18,8.22,0s4.55,.72,6.44,2.64c12.85,13,25.83,25.93,38.78,38.86,.62,.62,1.27,1.21,1.91,1.81l.62,.12c0-6.67,.02-13.36,.06-20.09v-20.82c.03-.78,.11-1.56,.22-2.34l10.57,.06c.08,.86,.24,1.71,.24,2.57v46.35c0,.88,.06,1.75,.09,2.62-.88,2.5-3,4-4.68,5.87-.34,.36-1.18,.33-1.79,.35-2.3,.06-4.6,.07-6.91,.09-.59-.38-1.15-.8-1.69-1.26-1.23-1.14-2.41-2.33-3.61-3.5,.44-1.38,1.92-2.41,1.39-4.23-1.08-.38-2.5-.23-3-1.8-.11-.36-1.23-.6-1.86-.56-.86,.13-1.71,.34-2.53,.64-.08-.13-.18-.26-.28-.38-10-10.07-20.03-20.14-30.09-30.21-.34-.26-.69-.5-1.07-.7v9.62c.04,9.15,.03,18.31-.02,27.49Z"/><path class="cls-2" d="M311.99,257.06c-2.07,1.7-4.55,1.57-7,1.41-.51,0-1.14-.79-1.42-1.35-.16-.62-.21-1.26-.15-1.89,1.28-4.36,3.39-8.43,6.19-12,1.81-2.31,3.62-4.61,5.38-7,.4-.65,.74-1.33,1-2.05,.42-.15,.82-.36,1.17-.64,1.4-1.55,2.74-3.15,4.11-4.74,.29-.12,.57-.27,.82-.46,2.85-2.79,5.68-5.59,8.49-8.39,.42-.48,.8-.98,1.14-1.51,.62-.49,1.26-.95,1.85-1.47,3.57-3.14,7-6.42,10.73-9.42,2.71-2.06,5.02-4.6,6.79-7.51,2.59-4.56,5.46-9,7-14,.1-.35,.5-.6,.75-.91,1.27-1.29,2.02-2.99,2.11-4.8-.7-.11-1.61,.56-1.58-.73l.57-1-.31-.23-.84,.67c-5.51,3.3-10.14,7.71-15.53,11.92,1,.26,1.5,.42,2,.51s.89,.08,1.34,.11c-.87,.15-1.75,.17-2.63,.07-.53,0-1.18-.42-1.56-.22-.94,.67-2.25,.45-2.91-.49-.11-.16-.2-.33-.27-.51-.33,.15-.49,.2-.62,.28l-12.72,8.26c-.33,.22-.85,.63-1,.53-1.25-.77-2.31,.16-3.43,.31-3.24,.43-4.88-.35-6.46-3.22-.46-.72-.97-1.41-1.51-2.07l-3.21,2.51-7.75,7.62h-1.9c-.37-3,.61-5.86,1.67-8.69-3-.8-5.71-.72-7.92,1.81-1.25,1.42-2.63,2.74-4.11,3.92-3,2.42-6.15,4.7-9.19,7.09-.25,.19-.21,.76-.23,.86-1.69,.88-3.27,1.73-4.89,2.53-2.28,1.13-3.31,.77-4.56-1.51-.09-.16-.19-.31-.32-.45,.25-1.4,.43-2.47,.62-3.55l.25-.1h-.1s-.09,.09-.12,.14l-1.52,1.12-.41,.32h.08c-.19,.33-.38,.66-.56,1h0c-.24,.02-.47,.1-.68,.21-3.08,2.6-6.3,5.07-9.15,7.92-1.07,1.02-2.52,1.54-4,1.45-1,.06-1.88-.19-2-1.49-.06-.47-.56-.88-.86-1.33,.25-.41,.72-.82,.73-1.25,.1-4.06,2-7.64,3-11.48,.23-1,.44-2,.74-3.25-.89,.15-1.51,.07-1.87,.34-2.6,1.91-5.48,3.48-7.29,6.3-.13,.2-.31,.36-.51,.49-4.64,2.83-7.51,7.12-9.75,11.85-2.67,.47-3.21,2.76-4.25,4.61-.81,.45-.73,2-2.29,1.7l.33-2.63,6.9-13.31c1-1.62,2.3-3.13,2.27-5.21,.45-.44,.85-.92,1.19-1.45,1.51-3.06,3-6.15,4.42-9.23,5.09-10.61,10.22-21.2,15.27-31.82,2-4.16,3.79-8.39,5.69-12.6,.79-.6,1.09-1.66,.74-2.59l-1.14,2.2c-1.81,3-3.63,5.95-5.43,8.93-7.93,13.16-16.64,25.79-25.8,38.12-.79,1.06-1.44,2.23-2.15,3.35l-7.36,9.17c-1.61,1.84-3.24,3.68-4.83,5.55-1.17,1.37-2.2,2.78-.88,4.68,.28,.41,.18,1.08,.26,1.59l1.58,.61-1.55,.1c-1.54,4.04-4.74,7.23-8.78,8.76-.58,.34-1.11,.74-1.6,1.19h-.76c-.93-1.71-1.12-3.35,.21-5s2.46-3.23,3.6-4.92c.23-.35,.06-1,.08-1.47,.65-.26,1.67-.07,1.6-1.51l-3.65,.63,2.09,.89c-3.04-.15-6.07,.36-8.89,1.51-.5,.25-1.08,.29-1.61,.12-1.16-.63-2,0-2.88,.5-2.38,1.44-4.75,2.91-7.07,4.45-.52,.34-1.48,.46-1.28,1.49-.88,.24-1.72,.58-2.53,1-.91,.59-1.59,1.52-2.5,2.12-.89,.49-1.81,.92-2.77,1.26h0l-6.6,2.4,.06,.43,2.08,.25,.05,.25c-.84,.2-1.7,.31-2.56,.32-1.68-.17-3.33-.56-5-.82-1.07-.03-1.92-.91-1.89-1.99,0-.02,0-.05,0-.07,0-2.16-.53-4.37,.8-6.4,.29-.69,.47-1.42,.54-2.17-2.93,1.71-5.39,4.12-7.18,7-.41,.69-.69,1.76-2,1.5-.33-.07-.83,.65-1.25,1-1.83,1.64-3.65,3.31-5.5,4.94-.66,.58-1.36,1.1-2.1,1.57-2.46,1.53-3.39,1.16-4.23-1.6-.71,3.34,.55,4.93,3.89,4.94,.39,0,.79,0,1.19,.06h0c-.84,.81-1.72,1.38-2.92,.67-1.43-.85-2.67-1.75-2.82-3.67-.22-2.87,.91-5.31,2.31-7.6,1.93-3.17,4.1-6.19,6.19-9.27,.11-.15,.42-.17,.63-.26h0c0,.28-.08,.56-.13,.83l-.51,1,1-.55c.37-.35,1.27-.45,.64-1.29h0c.19,.05,.47,.22,.56,.15,1.42-1.2,2.82-2.42,4.22-3.64,.18-.27,.37-.53,.56-.79l-1.23,.16-2.75,1.13h0c1.37-.91,2.84-1.66,4.37-2.25,3.64-1,4.69-.2,5.42,3.74l1.5-2c.83-.28,1.35-.47,1.88-.62s1.25-.53,1.66-.33c.84,.4,.48,1.24,.21,1.9-.61,1.47-1.41,2.87-1.88,4.38-.54,1.66-.9,3.37-1.07,5.1-.19,2.33,.77,3.22,3,2.65,2.23-.58,4.39-1.38,6.46-2.39,2.63-1.27,5.13-2.82,7.69-4.26,.08,0,.15-.03,.22-.06,3.89-2.49,7.77-4.99,11.63-7.5,.15-.09,.15-.42,.22-.64,2.01-1.07,3.95-2.28,5.8-3.61,2.76-2.26,5.76-4.22,8.95-5.84,2.2-1.11,2.23-1.07,3.53,1.37-5.12,1.92-10.48,3.48-14.16,8.67,.84-.19,1.21-.25,1.57-.37,3.09-1,6.11-2.26,9.46-2.26,.55-.04,1.06-.29,1.43-.7,2-2.46,3.93-5,5.88-7.47,2.26-2.84,4.53-5.66,6.74-8.54,.23-.3,.09-.88,.12-1.33,.94,.15,1.19-.62,1.6-1.18,6.48-9,13-18,19.44-27,5.38-7.74,10.33-15.79,14.8-24.09,.32-.59,1-1.14,.17-1.84,.49-.29,1.18-.47,1.45-.9,1.1-1.73,2.12-3.51,3.08-5.32,.76-1.44,1.39-3,2.08-4.42l3.94-6.9c2.21-3.88,4.34-7.8,6.63-11.63,2.05-3.43,4.28-6.74,6.41-10.11,.33-.71,.7-1.41,1.11-2.08,.65-.78,1.45-1.61,2.74-.31l-2.91,5.59c-3.56,6.86-7.12,13.71-10.69,20.56-1.48,2.83-3,5.62-4.52,8.45-.13,.36-.21,.74-.24,1.13-1.38,1.82-2.46,3.84-3.21,6h-.32c-2.09,3.95-4.11,7.67-6,11.43s-3.74,7.44-5.54,11.19c-.92,1.91-1.62,3.94-2.56,5.85-2.17,4.38-4.5,8.69-6.62,13.09-3.08,6.37-6.06,12.79-9,19.21-.18,.73-.26,1.48-.24,2.23-1.92,1.22-2.47,3.55-3.22,5.79,1.55-1.02,2.87-2.36,3.86-3.92,.18-.26,.2-.64,.41-.86,.46-.47,.5-1.67,1.69-1,.11,.06,.54-.32,.72-.57,2.06-2.84,5.13-4.53,7.74-6.74,1.26-1.16,3.05-1.54,4.67-1,1,1.39,.6,2.83,.11,4.3-1.18,3.6-2.36,7.21-3.44,10.84-.18,.76-.14,1.55,.14,2.28,.49,1.32,1.47,1.53,2.65,.7,4.67-3.37,8.98-7.21,12.85-11.48,.52-.57,1.12-1.09,1.59-1.7,.51-.65,.95-1.35,1.3-2.1,.54-1.21,.93-2.49,1.43-3.71,.24-.58,.29-.56,2-.51-.45,1.48-.91,2.88-1.28,4.3-.07,.25,.2,.59,.32,.89,0,.08,.06,.21,0,.23-1.93,1.64-1.46,4.2-2.37,6.24-.18,.66-.02,1.36,.43,1.87,.42,.31,1.3,0,2-.06,.2,0,.37-.28,.56-.42,4.13-3.2,8.29-6.36,12.36-9.63,1.77-1.42,3.36-3.07,5-4.63,2.23-2.32,4.9-4.16,7.85-5.43,1.92-.85,2.83-.17,2.88,1.93v3.57c-.98,1.66-1.42,3.58-1.27,5.5,.46-.3,.89-.63,1.3-1,.7-.73,1.38-1.49,2-2.28,.39-.55,.75-1.11,1.07-1.7,1.41-1,2.78-2.06,4.24-3,1.26-.96,3.05-.71,4.01,.55,.15,.19,.27,.41,.36,.63,2,3.64,3.59,4.34,7.49,2.9,3.36-1.26,6.53-3,9.39-5.17,2.56-1.91,5.18-3.72,7.72-5.64,.94-.7,1.8-1.51,2.55-2.41,3.53-4.45,7.94-8.13,12.95-10.82,1.32-.66,2.76-1.05,4.24-1.14,2.28-.12,4,1.48,3.62,4.44-.22,1.65-.69,3.25-1.39,4.76-2.08,4.38-4.32,8.68-6.52,13-.89,1.77-1.83,3.52-2.55,5.39,1.36-.87,2.82-1.6,3.05-3.11,1.42-.63,2.79-1.35,4.13-2.14,6.15-4.11,12.23-8.33,18.36-12.46,3.07-2.07,6.2-4.06,9.34-6,.59-.38,1.27-1.91,2.14-.18,0,.07,.72-.28,1.09-.25,.68,.14,1.35,.34,2,.6-5.51,3.71-11,6.29-16,9.57s-10.12,6.6-15.57,10.14l5,.64c-3.97-.69-8.02,.78-10.62,3.86-3.43,1.63-6.06,4.59-7.27,8.19-.23,.49-.51,.96-.83,1.4h0l1-3.26-.44-.24c-.83,1.19-1.69,2.36-2.48,3.58-4.8,7.33-9.59,14.67-14.37,22-.51,.79-1,1.6-1.48,2.41l-.5,1h0c-.32,.19-.61,.4-.88,.65-4,4.93-8,9.87-12,14.81l-7.69,6.57,2.32-.45,.04-.22Zm-94.84-37.32c-.85,.9-1.78,1.75-2.55,2.71-1.22,1.51-2.33,3.1-3.61,4.82,3.28-.19,6.67-3.3,7.8-6.86l-1.24-.6,1.41-.27q-1.3-.93-1.81,.2Zm115,1.43c-.46,.31-.89,.64-1.31,1-6.09,5.83-11.79,12.05-17.08,18.62-2.25,2.97-4.33,6.08-6.23,9.29-.72,1.49-1.3,3.04-1.72,4.64,0,.44-.13,1.06,.1,1.29,.39,.25,.86,.31,1.3,.19,1.75-.52,3.32-1.52,4.55-2.87,1.41-1.15,2.92-2.21,4.22-3.48,4.62-4.73,8.83-9.84,12.59-15.28,1.35-1.86,2.54-3.84,3.8-5.77,.45-.45,.87-.93,1.26-1.43,2.73-4.1,5.46-8.2,8.15-12.33,.93-1.41,1.73-2.91,2.6-4.36l-.41-.33c-.88,.71-1.81,1.38-2.64,2.15-3.18,2.9-6.18,5.79-9.26,8.67h.08Zm-180.89,16.9l.54,.45c.43-.12,.83-.3,1.21-.53,1.77-1.46,3.41-3.1,5.27-4.45,3.42-2.46,5-6.41,8-9.27,.3-.26,.51-.61,.6-1,.14-1,1.25-2,.22-2.85s-1.94,.29-2.72,.87c-4.17,3.08-7.7,6.93-10.41,11.34-1.1,1.7-1.82,3.62-2.71,5.44Zm191.81-49.94l.46,.24c.2-.11,.4-.22,.59-.35,5.43-4.12,10.24-9.08,16.45-12.16,.36-.18,.49-.81,1-1.72-.99,.02-1.98,.12-2.95,.32-.88,.34-1.74,.77-2.54,1.27-4.86,2.74-8.63,6.71-12.25,10.83-.32,.49-.58,1.02-.76,1.57h0Zm-45.09,6.6l.19,.37h4.14q.41-2-.37-3.2l-3.96,2.83Zm63-15.16l.4,.14c.11-.47,.22-.94,.32-1.42-.42,.07-.57,.23-.61,.41-.07,.29-.12,.58-.15,.87h.04Zm-91.83-34.18l-.22-.38c-.16,.13-.3,.27-.42,.44,0,.06,.1,.22,.16,.34l.48-.4Z"/><path class="cls-1" d="M273.15,132.97c-.69,1.47-1.32,3-2.08,4.42-1,1.81-2,3.59-3.08,5.32-.27,.43-1,.61-1.45,.9-.55-.66-1.06-1.34-1.53-2.06-1.87-3.15-3.69-6.32-5.54-9.52h-41.44c-1.87,3.25-3.84,6.54-5.66,9.9-.49,1.2-1.72,1.92-3,1.77-3.57-.11-7.14,0-11,0,.48-.91,.78-1.52,1.12-2.11,7.04-12.25,14.08-24.49,21.11-36.74,2-3.52,3.86-7.14,5.82-10.69,1.35-2.45,2.78-4.85,4.16-7.28,.43-.87,1.36-1.38,2.32-1.28,3.83,.07,7.67,0,11.51,0,.87-.1,1.7,.37,2.06,1.17,4.93,8.71,9.93,17.38,14.93,26.05,3.88,6.66,7.82,13.37,11.75,20.15Zm-34.34-37c-4.84,8.44-9.5,16.57-14.25,24.84h28.46c-4.76-8.37-9.39-16.46-14.23-24.91l.02,.07Z"/><path class="cls-2" d="M146.7,129.03c-.47,1.69-1,3.37-1.41,5.07-.03,.43,.02,.86,.15,1.27,0,.07,.15,.11,.23,.16-1.39,.32-1.17,1.62-1.38,2.52-1.6,6.92-3.18,13.85-4.62,20.8-1.13,5.39-2.06,10.82-3.06,16.23-.16,.85-.22,1.72-.39,3,19.42-5.46,38.5-11,57.72-16.1l-58.31,17.71c.48,1,.84,2,1.33,2.82,4.67,7.92,7.97,16.58,9.74,25.61,1.72,9,1.7,18-1.22,26.77-1.3,3.65-2.84,7.2-4.61,10.65-.71,1.24-1.67,2.33-2.82,3.18-1.35,1.12-2.29,.92-3.25-.65-.78-1.2-1.36-2.52-1.72-3.9-.97-3.87-1.73-7.79-2.27-11.75-.57-4.44-.78-8.91-.65-13.38,.26-6.14,1-12.26,1.69-18.37,.65-5.86,1.52-11.7,2.2-17.56-.03-.97-.19-1.92-.47-2.85-2.73,.77-5.16,1.45-7.59,2.15-9.89,2.85-19.78,5.73-29.69,8.52-1.29,.36-2.41,1.11-3.86,1.2-1.4,.25-2.78,.66-4.09,1.22-1.29,.41-2.57,.83-3.87,1.18-1.36,.46-2.76,.79-4.18,1-1.7,.12-2.15,1.23-2.37,2.5-.88,5.07-1.7,10.15-2.5,15.23-1,6.11-1.9,12.21-2.78,18.33-.45,2.83-.75,5.68-.89,8.54,.05,2.16,.23,4.31,.53,6.44,.43,5.41,.23,10.86-.57,16.23-.4,3.38-1.06,6.73-2,10-.28,.88-.27,2.15-1.56,2s-1-1.46-1-2.31c.39-6.7,.81-13.4,1.32-20.09,.26-3.42,.89-6.82,1-10.24,0-1.88-.24-3.75-.75-5.56-.81-3.32-1.65-6.65-2.78-9.87-2.33-6.64-6.16-12.16-13-14.86-3.7-1.45-7.53-2.53-11.44-3.24-1.73-.33-3.58-.74-4.07-2.84,1.19-1.75,3.04-2.93,5.12-3.28,2.63-.67,5.31-1.12,7.95-1.74,7.49-1.76,15-3.56,22.45-5.35l3.68-.87c4.2-15.59,6.08-31.67,9.19-47.72-3.57,.63-7.07,1.58-10.47,2.84-.99,.27-1.99,.48-3,.63-9.46,2.24-18.91,4.55-28.38,6.73-5.06,1.16-10.16,2.11-15.24,3.13-3.89,.79-7.76,1.72-11.69,2.26-4.52,.61-9,1.42-13.65,1.17-1.32-.07-3,.16-3.35-1.57s1.15-2.32,2.3-2.93c10.75-5.89,22.15-10.49,33.97-13.72,3.82-1.13,7.7-2.03,11.62-2.7,6-.82,12-1.64,18.11-1.1,5.93,.41,11.82,1.3,17.61,2.66,.85,.14,1.72,.21,2.58,.2,1.73-7,3.43-13.89,5.09-20.76,.68-2.77,1.13-5.59,1.59-8.41,.47-2.25,.69-4.54,.67-6.83-.06-2.98-.57-5.93-1.51-8.75-.69-1.9-1.05-3.94-1.86-5.77-1-2.16-2.28-4.14-3.39-6.23-.29-.63-.54-1.27-.74-1.93h0c5.83,7.37,8.79,16.61,8.3,26-.24,6.32-1.85,12.38-3.24,18.47-1.07,4.55-2.13,9.1-3.3,14.07,1.77-.43,3.19-.75,4.59-1.13l17.2-4.71c2.83-.79,5.67-1.55,8.49-2.39,.89-.31,1.76-.67,2.6-1.09,3.35-.93,6.71-1.83,10.06-2.79,3.15-.9,6.28-1.86,9.42-2.8,1.6-.48,3.21-.92,4.78-1.47,.56-.19,1.34-.56,1.47-1,.75-2.5,1.32-5.05,2-7.58,.36-.27,.71-1,1.11,0-1.06,2.52-1.79,5.16-2.19,7.86,2.62-.8,4.85-1.46,7.06-2.17,6.84-2.18,13.69-4.39,20.54-6.57,.76-.19,1.53-.35,2.3-.46v.72c-.47,.05-.93,.14-1.39,.26-1.59,.51-3.16,1.06-4.74,1.6s-3.14,1.09-4.72,1.62l-4.52,1.5-4.75,1.55c-1.61,.42-3.19,.96-4.73,1.61-1.4,.7-2.95,.67-4.32,1.33-.49,.25-.96,.54-1.41,.85Zm-102.86,25.86c1.4-.28,2.81-.51,4.19-.83,10.41-2.44,20.81-4.89,31.22-7.35,.54-.21,1.05-.46,1.54-.77-6.85-1.81-13.92-2.62-21-2.39-3.75,.2-7.48,.62-11.18,1.26-15.46,2.47-29.89,7.88-43.63,15.24-.63,.38-1.24,.8-1.83,1.25l.2,.56c3.16-.28,6.34-.34,9.45-.88,9.59-1.65,19.16-3.47,28.73-5.26,.81-.22,1.59-.5,2.35-.86l-.04,.03Zm65.72-14.82c-.24-.03-.48-.03-.72,0l-19.38,5.56c18.79,6,33.86,16.36,45.09,32.93,.6-3,1.07-5.27,1.53-7.6s.88-4.71,1.35-7,1-4.69,1.47-7,1.1-4.82,1.67-7.23,1.19-4.64,1.65-7,1.69-4.34,1.3-6.75c1.52-2,1.48-4.36,2.4-7-1.42,.36-2.33,.54-3.22,.81-4.18,1.33-8.36,2.65-12.54,3.94-3.19,1-6.36,2.05-9.54,3.07l-11.06,3.27Zm-21.69,7.37c-.34,.93-.63,1.87-.87,2.83-.89,5.12-1.66,10.25-2.62,15.35-1.58,8.35-3.23,16.77-4.91,25.15-.19,1-.34,1.94-.55,3.19,18.07-4.79,35.71-9.63,53.62-14.83-11.12-16.16-26.02-26.16-44.67-31.69Zm47.49,36.7c-.2,1-.3,1.31-.35,1.67-.62,5.06-1.29,10.16-1.86,15.16-.59,5.4-1.24,10.79-1.56,16.2-.33,8.23,.51,16.46,2.48,24.46,.37,1.55,.9,3.05,1.59,4.48,.67,1.46,1.44,1.53,2.51,.31,.68-.78,1.27-1.64,1.75-2.56,3.65-6.78,5.7-14.31,6-22,.42-13-3.36-25-9.52-36.38-.32-.47-.67-.91-1.04-1.34Zm-59,12.52c-.49,.06-.87,.07-1.23,.15-8.07,1.92-16.13,3.84-24.2,5.76-2.72,.65-5.46,1.2-8.16,1.9-1,.1-1.9,.65-2.43,1.5,.51,.17,.87,.31,1.23,.41,2.93,.76,5.9,1.42,8.8,2.29,8.46,2.54,14.14,8.09,17.23,16.32,1,2.71,1.92,5.47,2.91,8.28,1.93-12.23,3.86-24.3,5.83-36.61h.02Z"/><path class="cls-1" d="M453.23,124.15l-3,3c-2.18,2.09-4.37,4.16-6.58,6.2-.48,.4-.98,.77-1.51,1.1v-15.4h-45.42v24.35h-11.1v-57.71h11v21.45h45.45v-21.51h11.08c0,12.84,.03,25.68,.08,38.52Z"/><path class="cls-1" d="M356.6,200.48c2.6-3.08,6.65-4.55,10.62-3.86,.12,.86,.21,1.72,.24,2.58,0,8.38,.13,16.77,0,25.16-.14,7.87,3.65,13.17,10.3,16.78,2.68,1.51,5.67,2.41,8.74,2.63,2.79,.69,5.71,.69,8.5,0,6.5-.75,12.38-4.24,16.15-9.59,1.3-1.99,2.07-4.27,2.24-6.64,1.15-9.7,.19-19.42,.49-29.13-.04-.6-.15-1.19-.33-1.77,2.19-.53,9.31-.48,11.23,.15v27.7c.05,4.83-1.08,9.6-3.29,13.89-2.68,4.98-6.66,9.13-11.53,12-6.89,4.34-14.48,5.43-22.43,5-1.43-.08-2.87-.06-4.29-.2-1.05-.08-2.1-.27-3.11-.57-7.71-2.39-14.28-6.36-18.9-13.25-2.04-3.12-3.53-6.57-4.38-10.2-.46-1.89-.13-4-.13-6-.06-8.22-.1-16.45-.12-24.68Z"/><path class="cls-1" d="M463.36,223.8c.67-.96,1.6-1.71,2.68-2.17,5.51-2.68,10.78-5.83,15.75-9.42,.29-.2,.76-.14,1.15-.2-.32,.72-.57,1.48-1,2.16-2.91,5.12-5.85,10.24-8.77,15.36-.34,.59-.65,1.21-1.08,2h28.39l-13.39-23.36c2.55-2.31,5.09-4.63,7.65-6.93,.31-.21,.65-.38,1-.51,10.21,17.76,20.43,35.52,30.83,53.62-4.28,0-8.23,.05-12.18,0-.68-.08-1.3-.44-1.7-1-2-3.41-4-6.88-6.06-10.58h-39.08c-1.43-.14-2.78,.67-3.32,2-1.69,3.21-3.53,6.33-5.34,9.53h-13.09c1.36-2.55,2.59-4.86,3.86-7.15,1-1.77,2-3.5,3-5.24l4.33-7.46c.93-1.61,1.86-3.22,2.82-4.82,1.18-2,2.34-3.91,3.55-5.83Z"/><path class="cls-1" d="M331.7,218.51c-.34,.53-.72,1.03-1.14,1.51-2.81,2.81-5.64,5.61-8.49,8.39-.25,.19-.53,.34-.82,.46,.2-1.8,.25-3.61,.16-5.41-.78-6.41-4.55-10.77-10.05-13.73s-11.21-3.51-17.21-2.76c-4.81,.53-9.34,2.51-13,5.67-3.78,3.09-5.98,7.7-6,12.58-.06,6.38,3.06,11.11,8.15,14.65,4.09,2.7,8.88,4.17,13.78,4.22,4.25,.23,8.49-.53,12.4-2.21l-13.33-14.91h13.3l6.49,7.3c-.26,.72-.6,1.4-1,2.05-1.76,2.35-3.57,4.65-5.38,7-2.8,3.57-4.91,7.64-6.19,12-4.22,0-8.45,.08-12.67-.09-1.65-.12-3.27-.5-4.8-1.12-7-2.6-13.1-6.44-17.25-12.8-2.35-3.35-3.81-7.23-4.25-11.3-.35-3.49-.28-7.02,.22-10.49,.43-2.65,2-5.12,3.08-7.64,.47-.92,1-1.81,1.58-2.67h0c.18-.33,.37-.66,.56-1h-.08l.41-.32,1.52-1.12h0l-.62,3.55c.13,.14,.23,.29,.32,.45,1.25,2.28,2.28,2.64,4.56,1.51,1.62-.8,3.2-1.65,4.89-2.53,0-.1,0-.67,.23-.86,3-2.39,6.17-4.67,9.19-7.09,1.48-1.18,2.86-2.5,4.11-3.92,2.21-2.53,4.88-2.61,7.92-1.81-1.06,2.83-2,5.69-1.67,8.69h1.9l7.75-7.62,4.88,1.83,.78,.49h-.05l.48,1c.87,1.54,2.41,1.34,3.83,1.46,5.65,4.02,9.72,9.89,11.51,16.59Z"/><path class="cls-1" d="M148.38,119.32c-.64,2.53-1.21,5.08-2,7.58-.13,.45-.91,.82-1.47,1-1.57,.55-3.18,1-4.78,1.47-.37-.12-.75-.2-1.14-.24h-17.15c-.39,.05-.78,.13-1.15,.25v5.59c-.84,.42-1.71,.78-2.6,1.09-2.82,.84-5.66,1.6-8.49,2.39v-9.31h-5.68v-9.78h5.52v-9.45h-5.55v-9.84h5.46c.26-2.39,.33-4.8,.21-7.21v-7.23h11.09v2.53c.05,3.91,.11,7.81,.17,11.72,.75,.16,1.51,.26,2.27,.31h31.41l-1.35,4.85v-.06c-.46,1.63-.92,3.26-1.39,4.89h-31.19c.1,3.32-.11,6.32,.13,9.42l27.68,.03Z"/><path class="cls-1" d="M623.9,128.66c-1.74,.89-3.44,1.88-5.24,2.65-2.16,.93-4.41,1.67-6.62,2.49-1.67-2.08-3.22-4.26-4.63-6.53-1.43-2.62-2.34-5.5-2.66-8.47-.31-3.5-.27-7.01,.12-10.5,.21-1.57,.68-3.09,1.38-4.51,1.58-3.76,3.86-7.18,6.73-10.08,4.39-4.39,9.8-6.85,15.72-8.26,9.09-2.24,18.67-1.33,27.17,2.59,6.49,2.75,11.87,7.61,15.28,13.78-2.82,2.32-6.18,3.69-9.34,5.71-5.15-7.72-12.75-10.88-21.52-11.86h-2.32c-5.32-.07-10.52,1.51-14.9,4.53-6.48,4.67-8.84,10.48-7.15,18.19,.96,3.8,3.3,7.11,6.58,9.26l.84,.56,.56,.45Z"/><path class="cls-1" d="M231.45,222.56l-.33,2.63c1.56,.31,1.48-1.25,2.29-1.7,8.28,3.47,11,11.73,8.3,19.49-1.07,2.77-2.95,5.16-5.4,6.84-3.67,2.73-8,3.72-12.39,4.41-6.72,.97-13.53,1.12-20.29,.43-5.87-.48-11.55-2.27-16.64-5.23-2.43-1.56-4.52-3.6-6.12-6l5.83-4c.17-.12,.39-.17,.58-.28,.83-.52,1.65-1.46,2.48-1.47s1.72,.86,2.53,1.42c3.61,2.51,7.73,3.5,12,4.1,5.48,.71,11.02,.71,16.5,0,2.25-.29,4.47-.81,6.61-1.57,1.28-.54,2.45-1.32,3.44-2.29,1.7-1.52,1.52-3.24-.33-4.51-1.83-1.12-3.87-1.84-6-2.12-3.08-.62-6.17-1.16-9.27-1.63-1.66-.26-3.34-.31-5-.45,.49-.45,1.02-.85,1.6-1.19,4.04-1.53,7.24-4.72,8.78-8.76l1.55-.1,9.28,1.98Z"/><path class="cls-1" d="M201.15,217.8c-.07,.22-.07,.55-.22,.64-3.86,2.52-7.74,5.02-11.63,7.5-.07,.03-.14,.05-.22,.06-.25-.19-.51-.37-.79-.53-10-5.31-9.56-20.32,0-26,4.11-2.32,8.66-3.73,13.36-4.13,7.07-.8,14.17-1,21.2,.37,2.57,.51,5.08,1.33,7.61,2,0,.45,.11,1-.12,1.33-2.21,2.88-4.48,5.7-6.74,8.54-.28-.14-.57-.26-.87-.35-6.36-1.49-12.79-1.32-19.22-.71-3.12,.18-6.17,.94-9,2.25-1.67,.84-2.85,2-2.85,4.05s1.58,2.59,3,3.29c.64,.3,1.31,.53,2,.69,1.58,.37,3.06,.67,4.49,1Z"/><path class="cls-1" d="M177.2,117.97c-.77,.11-1.54,.27-2.3,.46-6.85,2.18-13.7,4.39-20.54,6.57-2.21,.71-4.44,1.37-7.06,2.17,.4-2.7,1.13-5.34,2.19-7.86h16.54v-9.47h-14c.39-1.61,.78-3.22,1.15-4.84v.06l1.72-4.82h6.17c1.64,0,3.27-.2,4.9-.31,.06-3,.13-6.05,.17-9.07v-5.14h11v14.25h5.71v9.92h-5.58v7.57l-.1,.56,.03-.05Z"/><path class="cls-1" d="M628.97,131.11c0,1.16-.05,2.31-.1,3.47,0,.94-.35,2,.62,2.6,.86,.49,1.94,.35,2.65-.34,1.26-.94,2.5-1.9,3.7-2.9,.8-.66,1.43-1.24,2.71-.93,1,.23,2.09-.33,3.15-.54l7.76-1.68c3.37,1.41,6.45,.28,9.59-.95,4.02-1.68,7.84-3.79,11.41-6.29,.47-.27,.97-.5,1.47-.7v20.48h-10.36c-.22-1.75-.42-3.45-.66-5.44-.65,.17-1.28,.4-1.88,.69-8.23,5-17.17,6-26.55,4.94-3.4-.35-6.74-1.19-9.9-2.5-3.05-1.28-5.86-3.08-8.3-5.32,.39-.37,.71-.88,1.17-1.08,3.15-1.41,6.32-2.77,9.51-4.1,.52-.13,1.06-.2,1.6-.19l2.41,.78Zm39.16-3l-6.28,3.94c2.28-.99,4.39-2.34,6.24-4l2-1.49-.3-.32-1.66,1.87Z"/><path class="cls-1" d="M146.7,129.03c.42-.33,.87-.62,1.33-.89,1.37-.66,2.92-.63,4.32-1.33,1.54-.65,3.12-1.19,4.73-1.61l4.75-1.55,4.52-1.5c1.58-.53,3.15-1.08,4.72-1.62s3.15-1.09,4.74-1.6c.46-.12,.92-.21,1.39-.26,.42,.28,.89,.48,1.38,.6,1.36,.08,2.72,0,4.26,0v9.75h-5.52v14.41h-11.09v-14.23l-19.53-.17Z"/><path class="cls-1" d="M477.52,104.97l11-9.53c0,1.65,.09,3.3,.13,5l-.09,.81h0l-4.8,4.33c-.32,.33-.65,.65-1,1l-.94,1-.75,.71,.26,.18,.45-.93,.95-1,1-1c.51-.34,1-.66,1.51-1,1.11-.84,2.2-1.71,3.29-2.56,0,8.45,.03,16.9,.08,25.35-.3,.24-.64,.43-1,.57-3.33,.63-6.68,1.21-10,1.81l-.09-17.22v-.65l.77-.72-.63-.09-.14-6.06Z"/><path class="cls-1" d="M672.05,119.97c-.65,.67-1.34,1.3-2.07,1.89-4.04,2.84-8.4,5.19-13,7-1.15,.49-2.47,1.25-3.82,.3,1.52-1,3.23-1.68,4.47-3.45h-6.48c.74-2.37,1.47-4.74,2.22-7.11,.3-1,.64-1.91,1-2.87h17.51c.05,1.41,.11,2.8,.17,4.24Z"/><path class="cls-1" d="M191.69,227.31c-.2-1,.76-1.15,1.28-1.49,2.32-1.54,4.69-3,7.07-4.45,.86-.52,1.72-1.13,2.88-.5,.53,.17,1.11,.13,1.61-.12,2.82-1.15,5.85-1.66,8.89-1.51h0c0,.5,.15,1.12-.08,1.47-1.14,1.69-2.33,3.34-3.6,4.92s-1.14,3.3-.21,5l-.64-.07c-.53-.36-1.07-.69-1.63-1-.1-.05-.41,.33-.63,.51-1.42-.09-2.84-.16-4.26-.29-1.15-.08-2.29-.24-3.41-.48-2.46-.64-4.81-1.33-7.27-1.99Z"/><path class="cls-1" d="M488.7,92.58c-2.39,2.2-4.75,4.42-7.18,6.58-1.23,1.09-2.57,2-3.86,3.06v-16.51h11l.04,6.87Z"/><path class="cls-1" d="M293.74,195.68c-1.68,1.56-3.27,3.21-5,4.63-4.07,3.27-8.23,6.43-12.36,9.63-.19,.14-.36,.39-.56,.42-.67,.09-1.55,.37-2,.06-.45-.51-.61-1.21-.43-1.87,.91-2,.44-4.6,2.37-6.24v-.23c4-2.48,8.17-4.7,12.88-5.59,1.66-.32,3.39-.52,5.1-.81Z"/><path class="cls-1" d="M477.58,135.17c1.23-.25,2.45-.6,3.7-.74,2.44-.28,4.9-.44,7.36-.64v9.8h-11.06v-8.42Z"/><path class="cls-1" d="M325.87,245.35c2.74,3.15,5.49,6.29,8.56,9.8h-7.49c-1.19-.11-2.4-.11-3.59,0-2.3,.42-3.54-.77-4.49-2.58,.45-.74,.9-1.47,1.34-2.21h0l1-1v.05c.81-.82,1.63-1.63,2.45-2.44h0l1-1h0l1.22-.62Z"/><path class="cls-1" d="M513.15,131.42c5.5,2.13,8.82,6.09,10.31,12.05h-5.31l-4.08,.2c-1,0-1-.75-1-1.5,.01-3.61,.02-7.2,.08-10.75Z"/><path class="cls-2" d="M710.26,93.07c-.39,1.43-.68,2.9-1.17,4.3-2.22,6.35-4.48,12.68-6.77,19-1.84,5.08-3.72,10.15-5.65,15.21-1.3,3.44-2.83,6.79-4,10.27-1.59,4.66-3,9.4-4.41,14.13-1.03,3.46-1.99,6.94-2.88,10.45-.25,1.29-.41,2.59-.48,3.9l-.56-.09c.41-2,.78-3.93,1.22-5.88,.54-2.36,1-4.75,1.72-7,1.5-4.75,2.78-9.55,4.58-14.21,2-5.1,3.65-10.31,5.8-15.35,1.56-3.68,2.8-7.49,4.17-11.25,1.79-4.92,3.62-9.82,5.33-14.77,.76-2.22,1.26-4.54,1.92-6.79,.24-.66,.53-1.3,.85-1.92h.33Z"/><path class="cls-1" d="M488.65,133.08l-4.59,.66c-1.77,.24-3.55,.48-5.33,.69-.39,0-.78-.05-1.16-.14v-2.57c3.58-1.21,7.29-1.96,11.06-2.23l.02,3.59Z"/><path class="cls-1" d="M317.39,250.97c4-4.94,8-9.88,12-14.81,.27-.25,.56-.46,.88-.65-.66,1.54-1.32,3.07-2,4.61-.84,1.17-1.68,2.35-2.51,3.53l-.32,.39c-.34,.68-.68,1.37-1,2h0l-1,1h0c-.82,.81-1.64,1.62-2.45,2.44v-.05l-1,1h0l-1.79,1.7-.81-1.16Z"/><path class="cls-2" d="M177.15,117.97l.1-.56,26.43-9c.65-.27,1.37-.37,2.07-.28-6.35,2.29-12.7,4.58-19.07,6.85-2.48,.88-5,1.74-7.46,2.57-.68,.18-1.37,.32-2.07,.42Z"/><path class="cls-1" d="M278.57,143.62h-6.18c.75-2.16,1.83-4.18,3.21-6,.95,1.67,1.92,3.33,2.84,5,.1,.32,.15,.66,.13,1Z"/><path class="cls-2" d="M726.04,46.74l-8.33,18.74-.47-.21c2.79-6.24,5.57-12.48,8.35-18.73l.45,.2Z"/><path class="cls-2" d="M280.97,181.29c-.56,.02-1.12-.05-1.65-.22-.33-.17-.73-.93-.61-1.11,.74-1.12,.91-2.8,2.58-3.08,.58-.02,1.16,.04,1.73,.17,.02,.51-.05,1.02-.21,1.51-.48,.88-1.12,1.68-1.84,2.73Z"/><path class="cls-1" d="M307.55,196.31c-.32,.59-.68,1.15-1.07,1.7-.62,.79-1.3,1.55-2,2.28-.41,.37-.84,.7-1.3,1-.15-1.92,.29-3.84,1.27-5.5l3.1,.52Z"/><path class="cls-1" d="M446.62,143.43c1.92-1.56,4.14-2.71,6.53-3.36v3.36h-6.53Z"/><path class="cls-1" d="M651.7,115.65c-.22,1.61-1.86,1.91-2.47,3.16l-.57-.21v-2.94h3.04Z"/><path class="cls-2" d="M625.41,126.14c1.93-1.4,3.7-3.1,6.25-3.34h0c-2,1.2-3.76,3-6.25,3.36v-.02Z"/><path class="cls-2" d="M631.66,122.8c0-.22,0-.57,.15-.65,1.44-.85,2.89-1.69,4.38-2.43,.29-.15,.79,.12,1.19,.19h0c-1.17,0-1.35,.22-1,1h0c-.58-.71-1.11-.11-1.59,.12-1.1,.55-2.16,1.19-3.23,1.79l.1-.02Z"/><path class="cls-2" d="M732.4,33.51l2.85-5.76h0c-.16,.71-.38,1.41-.66,2.08-.67,1.26-1.46,2.46-2.2,3.69h.01Z"/><path class="cls-2" d="M86.09,85.75c-.42-.09-.83-.25-1.2-.48-1.06-.9-2.03-1.91-2.9-3,1.91,.55,2.91,2.12,4.07,3.53l.03-.05Z"/><path class="cls-2" d="M325.83,243.66c.83-1.18,1.66-2.36,2.51-3.53l1-.23c-.63,1.69-1.83,3.1-3.39,4l-.12-.24Z"/><path class="cls-2" d="M488.59,101.86c-1.09,.85-2.18,1.72-3.29,2.56-.48,.37-1,.69-1.51,1h0l4.8-4.33v.77Z"/><path class="cls-2" d="M728.15,42.19l-1.5,3.69c.17-1.38,.38-2.74,1.53-3.65l-.03-.04Z"/><path class="cls-2" d="M524.15,229.3c1.08,1.59-.3,2.44-.56,3.51l.56-3.51Z"/><path class="cls-2" d="M735.25,27.75l1.49-2.78,.41,.26c-.68,.8-.54,2.15-1.93,2.47l.03,.05Z"/><path class="cls-2" d="M623.29,128.18l-.84-.56,3-1.48h0c-.17,.29-.36,.57-.58,.82-.55,.41-1.07,.81-1.58,1.22Z"/><path class="cls-2" d="M732.36,33.48l-1.21,2.84-.54-.29,1.77-2.52-.02-.03Z"/><path class="cls-1" d="M443.92,143.41l2-.74c-.12,.45-.2,.73-.28,1l-1.72-.26Z"/><path class="cls-2" d="M344.15,217.73c.65-.93,.64-2.36,2.05-2.73h0c-.83,.8-.68,2.35-2.06,2.73h.01Z"/><path class="cls-2" d="M206.59,230.03c.22-.18,.53-.56,.63-.51,.56,.31,1.1,.64,1.63,1-.47,.21-.95,.38-1.45,.52-.91,.22-1.02-.29-.81-1.01Z"/><path class="cls-2" d="M739.15,21.53c-.38,.79-.77,1.58-1.15,2.38-.34-.95,.15-1.99,1.09-2.33,.02,0,.04-.01,.06-.02v-.03Z"/><path class="cls-2" d="M514.08,143.63l4.08-.2-4.08,.2Z"/><path class="cls-2" d="M739.15,21.56c.24-.79-.3-1.92,1.11-2.32,.27,1.16-.71,1.6-1.15,2.29l.04,.03Z"/><path class="cls-2" d="M324.5,246.1c.33-.68,.67-1.37,1-2l.36,1.31-1.36,.69Z"/><path class="cls-2" d="M318.41,252.09l1.79-1.7c-.44,.74-.89,1.47-1.34,2.21l-.45-.51Z"/><path class="cls-2" d="M536.15,188.55l-1,2.77h0c-.11-1.03,.26-2.05,1-2.77Z"/><path class="cls-2" d="M686.23,107.77l-.92,1.3-.24-.14,.67-1.47,.49,.31Z"/><path class="cls-2" d="M537.15,185.65c-.31,1-.63,1.93-.94,2.9h0c.09-1,0-2.15,.94-2.9Z"/><path class="cls-2" d="M728.15,42.23c.13-.6,.27-1.19,.4-1.79l.54,.23-1,1.52,.06,.04Z"/><path class="cls-2" d="M537.15,185.69c.17-.86-.12-1.9,1-2.38h0l-1,2.37h0Z"/><path class="cls-2" d="M254.46,181.33l-.46,2-.48-.18,1-1.81h-.06Z"/><path class="cls-2" d="M250.61,190.49l.74-1.49c.04,.33,.04,.67,0,1-.13,.26-.28,.51-.45,.75l-.29-.26Z"/><path class="cls-2" d="M249.26,194.21l.45-1.24,.35,.12-.53,1.39-.27-.27Z"/><path class="cls-2" d="M248.22,197.16l-.53,1.57-.41-.23,1-1.3-.06-.04Z"/><path class="cls-2" d="M163.56,95.52l.34-1h.07l-.41,1Z"/><path class="cls-2" d="M253.4,184.66l-.56,1.33-.26-.1,.47-1.36,.35,.13Z"/><path class="cls-2" d="M246.3,201.44l.46-1.52,.47,.25-1,1.24,.07,.03Z"/><path class="cls-2" d="M343.24,219.68c.3-.65,.61-1.3,.92-2h0c-.31,.65-.62,1.3-.92,1.95v.05Z"/><path class="cls-2" d="M162.97,96.97l-.26,.81h-.05l.25-.82h.06Z"/><path class="cls-2" d="M347.52,211.49l1-1.38h0c-.3,.49,0,1.43-1,1.38Z"/><path class="cls-2" d="M337.98,228.36l-1,1.42h0c.12-.61-.17-1.5,1-1.42Z"/><path class="cls-2" d="M338.94,226.97l-1,1.43h0c0-.67,0-1.4,1-1.43Z"/><path class="cls-2" d="M338.98,226.97c.1-.63-.13-1.49,1-1.43h0l-1,1.43Z"/><path class="cls-2" d="M343.2,219.64l-.48,1.36-.36-.17c.29-.39,.59-.77,.88-1.15l-.04-.04Z"/><path class="cls-2" d="M488.6,101.19l.09-.81,1.43-.58h0l-1.52,1.39Z"/><path class="cls-2" d="M341.36,223.08l.26-1.22,.35,.14c-.22,.35-.43,.7-.65,1l.04,.08Z"/><path class="cls-2" d="M340.38,224.49c0-.67,.13-1.3,1-1.41h0l-1,1.42h0Z"/><path class="cls-2" d="M158.53,239.4l.47-1.35,.35,.17-.86,1.14,.04,.04Z"/><path class="cls-2" d="M512.67,79.14c.18-.27,.35-.54,.52-.81l.25,.25-.8,.52,.03,.04Z"/><path class="cls-2" d="M687.15,106.56l-.54,.22c0-.13-.15-.35-.1-.39,.16-.11,.33-.2,.51-.26l.13,.43Z"/><path class="cls-2" d="M519.76,72.82c-.15,.28-.3,.56-.46,.84l-.27-.22,.77-.58-.04-.04Z"/><path class="cls-2" d="M522.66,70.43l-.89,1h0c.29-.35,.59-.69,.88-1h.01Z"/><path class="cls-2" d="M158.49,239.36l-.54,.75-.22-.23,.8-.48-.04-.04Z"/><path class="cls-2" d="M584.15,133.34l1-1h0c.12,.76-.27,1-1,1Z"/><path class="cls-2" d="M330.8,238.45l-.6,.89-.27-.34,.9-.51-.03-.04Z"/><path class="cls-2" d="M157.54,223.07l.42-1,.51,1h-.93Z"/><path class="cls-2" d="M493.9,95.91l-1,.92h0l1-.92Z"/><path class="cls-2" d="M331.2,237.41l1.08-.86h-.05l-1.07,.85h.04Z"/><path class="cls-2" d="M254.5,181.36c.07-.44,.14-.88,.2-1.33l.38,.11-.62,1.19,.04,.03Z"/><path class="cls-2" d="M507.89,83.49l.9-1h0l-.9,1Z"/><path class="cls-2" d="M160.46,236.54l-.57,.68-.18-.24,.79-.41-.04-.03Z"/><path class="cls-2" d="M492.04,97.85c.31-.33,.61-.66,.92-1h0c-.31,.32-.61,.65-.92,1Z"/><path class="cls-2" d="M336.06,231.24l-.58,.92-.27-.34,.9-.54-.05-.04Z"/><path class="cls-2" d="M334.15,233.6l.46-.83,.28,.25-.78,.54,.04,.04Z"/><path class="cls-2" d="M332.65,235.49l1.05-.85h0l-1.06,.84h.01Z"/><path class="cls-2" d="M507.86,83.45l-.76,.69-.16-.28,.95-.37-.03-.04Z"/><path class="cls-2" d="M156.58,241.79l-.77,.74-.16-.29,1-.41-.07-.04Z"/><path class="cls-2" d="M156.62,241.83l.28-.93,.32,.16-.64,.73,.04,.04Z"/><path class="cls-2" d="M538.15,183.31l.09-1,.18,.05-.3,.91,.03,.04Z"/><path class="cls-2" d="M183.89,231.69l.76,.21c-.61,1-.55,0-.73-.24l-.03,.03Z"/><path class="cls-2" d="M346.61,213.48c-.15,.49-.29,1-.44,1.48h0c.15-.49,.29-1,.44-1.48Z"/><path class="cls-2" d="M520.7,71.84c.11,.73-.31,.95-.94,1h0l.93-1h.01Z"/><path class="cls-2" d="M535.15,191.32c-.13,.52-.26,1-.38,1.56h0c.13-.51,.25-1,.38-1.55h0Z"/><path class="cls-2" d="M548.06,149.48h-.71v-.19h.7v.19Z"/><path class="cls-2" d="M312.98,256.62l-1,.44h0l1-.44Z"/><path class="cls-2" d="M313.01,256.66l1-.45h0l-1,.45Z"/><path class="cls-2" d="M250.42,191.97l-.09,.05c0-.06,0-.13,0-.19,0,0,.1,0,.15-.05l-.06,.19Z"/><path class="cls-2" d="M252.05,187.54l-.1,.8-.29-.13,.42-.64-.03-.03Z"/><path class="cls-2" d="M154.15,243.24c.16-.15,.32-.3,.09-.08h-.13l.04,.08Z"/><path class="cls-2" d="M331.15,237.37l-.36,1.08h0c.13-.36,.25-.72,.37-1.08h-.01Z"/><path class="cls-2" d="M248.74,196.21v-.83l.33,.07-.33,.72v.04Z"/><path class="cls-2" d="M332.28,236.55c.12-.35,.25-.7,.37-1.06h0l-.38,1.07h.01Z"/><path class="cls-2" d="M81.27,80.97l-1-.44h0l1,.43h0Z"/><path class="cls-2" d="M248.7,196.17l-.48,1h0l.48-1Z"/><path class="cls-2" d="M80.3,80.53c-.18-.07-.37-.14-.17-.07-.16-.12,0,0,.13,.11l.04-.04Z"/><path class="cls-1" d="M330.28,235.56l.5-1-.5,1Z"/><path class="cls-2" d="M514.46,77.08l-.06,.74-.26-.1c.12-.2,.23-.4,.35-.59l-.03-.05Z"/><path class="cls-2" d="M333.7,234.64c.15-.35,.29-.69,.43-1h0l-.42,1h0Z"/><path class="cls-2" d="M182.49,233.63l-.72,.31-.05-.22,.82-.05-.05-.04Z"/><path class="cls-2" d="M514.49,77.13l1.07-.37h0l-1.06,.35v.02Z"/><path class="cls-2" d="M336.46,230.21c-.13,.34-.26,.68-.4,1h0l.39-1h0Z"/><path class="cls-2" d="M569.03,128.97l-.62-.12,.62,.12Z"/><path class="cls-2" d="M340.34,224.46l-.42,1h0c.15-.35,.29-.7,.43-1h0Z"/><path class="cls-2" d="M516.91,75.24c-.06,.25-.13,.5-.19,.75l-.32-.16,.54-.55-.03-.04Z"/><path class="cls-2" d="M246.27,201.41l-.52,.95h0l.51-.95h.01Z"/><path class="cls-2" d="M245.75,202.36v.8l-.28-.08c.11-.23,.22-.46,.32-.69l-.04-.03Z"/><path class="cls-2" d="M244.79,204.27v.83h-.22l.3-.75-.08-.08Z"/><path class="cls-2" d="M494.37,95.4l.56-.44,.13,.32-.72,.08,.03,.04Z"/><path class="cls-2" d="M495.89,93.97l.21,.23c-.12,.07-.25,.12-.38,.16,0,0-.1-.1-.14-.15l.31-.24Z"/><path class="cls-2" d="M159.5,221.2c.13-.36,.25-.72,.37-1.08h0l-.36,1.07h0Z"/><path class="cls-2" d="M252.08,187.57c0-.21,.07-.42,0-.11,.17-.25,.06-.08,0,.08v.03Z"/><path class="cls-2" d="M521.77,71.46l-1.07,.38h0l1.08-.37h-.01Z"/><path class="cls-2" d="M684.83,110.02c-.11,.09-.2,.22-.32,.24s-.22-.1-.34-.16c.13-.12,.26-.23,.41-.32,0,0,.17,.19,.25,.24Z"/><path class="cls-2" d="M496.74,92.97l.58-.28v.28h-.58Z"/><path class="cls-2" d="M511.39,135.42h.55v.13l-.56-.05v-.08Z"/><path class="cls-2" d="M501.15,89.25l.19,.06c-.09,.07-.18,.13-.28,.18-.04-.04-.07-.09-.1-.14l.19-.1Z"/><path class="cls-2" d="M347.49,211.45l-.5,1h.05l.48-1h-.03Z"/><path class="cls-2" d="M346.65,213.52l.39-1.06h-.05l-.38,1,.04,.06Z"/><path class="cls-2" d="M508.79,82.48l.49-.48h0l-.48,.49h0Z"/><path class="cls-2" d="M496.7,92.97v.23c.03-.07,.07-.14,.11-.2l-.11-.03Z"/><path class="cls-2" d="M522.69,70.47l.25-.35,.14,.26h-.42l.03,.09Z"/><path class="cls-2" d="M502.56,88.25l-.31,.29,.35-.26-.04-.03Z"/><path class="cls-2" d="M502.6,88.28l.48-.48h0l-.48,.48Z"/><path class="cls-2" d="M518.08,74.64c0-.06-.14-.12-.13-.17s.09-.1,.15-.15,.13,.12,.13,.17-.08,.1-.15,.15Z"/><path class="cls-2" d="M159.47,221.15l-.28,.28-.06-.25h.37l-.03-.03Z"/><path class="cls-2" d="M503.53,87.29l-.49,.48h0l.49-.47h0Z"/><path class="cls-2" d="M516.94,75.28c.03-.06,.07-.12,.12-.18h.14l-.29,.15,.03,.03Z"/><path class="cls-2" d="M493.93,95.97l.45-.54h0c-.15,.18-.3,.36-.44,.55h-.01Z"/><path class="cls-2" d="M244.83,204.31l.25-.16s0,.12-.08,.13c-.07,.01-.14,.01-.21,0l.04,.03Z"/><path class="cls-2" d="M503.57,87.33l.47-.49h0l-.47,.48h0Z"/><path class="cls-2" d="M515.56,76.76v-.37l.24,.09-.3,.24,.06,.04Z"/><path class="cls-2" d="M336.5,230.24l.56-.42h0l-.56,.43h0Z"/><path class="cls-2" d="M504.04,86.84l.1-.38c-.05,.12-.09,.23-.14,.34l.04,.04Z"/><path class="cls-2" d="M492,97.81l-.46,.51h0c.16-.16,.31-.33,.47-.5h-.01Z"/><path class="cls-2" d="M182.97,233.13l.2-.31,.14,.23h-.37l.03,.08Z"/><path class="cls-2" d="M182.94,233.1l-.45,.53h0l.43-.54h.02Z"/><path class="cls-2" d="M551.56,147.32v-.37l-.07,.32,.07,.05Z"/><path class="cls-2" d="M551.53,147.27l-.36,.26,.39-.21-.03-.05Z"/><path class="cls-2" d="M512.64,79.1l-.47,.51h0c.15-.18,.31-.35,.46-.52h0Z"/><path class="cls-2" d="M512.15,79.61l-.33,.28c.12-.08,.24-.16,.37-.23l-.04-.05Z"/><path class="cls-2" d="M491.09,98.83l.48-.48h0l-.49,.47h0Z"/><polygon class="cls-2" points="510.89 80.6 510.97 80.77 510.81 80.77 510.89 80.6"/><path class="cls-2" d="M490.62,99.32l.47-.49h0l-.47,.49Z"/><path class="cls-2" d="M81.23,80.97l.13,.17c-.03-.07-.06-.14-.1-.2l-.03,.03Z"/><path class="cls-2" d="M490.58,99.28l-.5,.48h0l.5-.48Z"/><path class="cls-2" d="M509.76,81.52c.02-.07,.06-.13,.1-.19h.14l-.28,.18h.04Z"/><path class="cls-2" d="M509.72,81.49l-.48,.47h0l.48-.48h0Z"/><path class="cls-2" d="M505.35,85.65l-.17,.14s-.13-.12-.12-.17,.1-.09,.16-.14l.13,.17Z"/><path class="cls-2" d="M550.07,148.22l.2-.31-.23,.27,.03,.04Z"/><path class="cls-2" d="M550.04,148.18l-.16,.34-.2-.2,.39-.1-.03-.04Z"/><path class="cls-2" d="M506.15,84.82s-.11-.11-.1-.15,.08-.08,.13-.12,.11,.1,.1,.14-.07,.09-.13,.13Z"/><path class="cls-2" d="M315.9,254.73l.16-.32-.2,.28,.04,.04Z"/><path class="cls-2" d="M315.86,254.69l-.18,.35,.22-.31-.04-.04Z"/><path class="cls-2" d="M314.46,255.69l.2-.32-.24,.28,.04,.04Z"/><path class="cls-2" d="M314.42,255.65l-.45,.52h0l.45-.52h0Z"/><polygon class="cls-2" points="548.99 148.93 548.8 148.97 548.81 148.84 548.99 148.93"/><path class="cls-1" d="M466.9,217.82l12.3-21.29c3.55,0,7.11,0,10.67,.09,.72,.09,1.43,.28,2.11,.54h0c-.82,1-1.63,1.95-2.44,2.92h.05l-5.33,5.32h.05l-1,1h0l-2,1.47h.05l-4.36,3.88h.05c-2.85,1.92-5.69,3.86-8.57,5.74-.51,.17-1.04,.28-1.58,.33Z"/><path class="cls-1" d="M453.15,126.97c0,2.72,.05,5.44,.08,8.15,0,.42-.07,.83-.11,1.25l.09,1.06c-.26,.29-.47,.77-.77,.84-3.29,.75-6.12,2.66-9.34,3.55-.33,.06-.66,.1-1,.1l-.09-4.52c1-1,1.9-2.06,2.91-3,2.31-2.25,4.65-4.47,7-6.67,.38-.3,.79-.55,1.23-.76Z"/><path class="cls-1" d="M493.36,196.57l1.28,2c-.47,.81-1.03,1.56-1.66,2.25-5.43,4.95-11.27,9.45-17.45,13.43-.4,.25-.82,.47-1.25,.66-.11,0-.29-.05-.88-.16l3.74-3.22h-.05l4.36-3.88h-.05l2-1.47h0l1-1h-.05l5.33-5.32h-.05c.81-1,1.62-1.95,2.44-2.92h0l1.29-.37Z"/><path class="cls-1" d="M649.34,125.7l-2.37-.09-.66,.12-1.38-.2c1.64-2.07,3.54-3.93,5.64-5.54-.42,2.12-.84,3.92-1.23,5.71Z"/><path class="cls-1" d="M644.9,121.64c0-1.46,0-2.92-.07-4.39l1.63-.37c.47,1.76-.15,3.62-1.56,4.76Z"/><path class="cls-1" d="M632.08,132.19l2.34,.23c-.65,1.54-2,2.14-3.53,3.25-.16-1.7-.11-2.84,1.19-3.48Z"/><path class="cls-1" d="M483.38,211.53c-.16,.17-.32,.35-.49,.52l.49-.52Z"/><path class="cls-1" d="M483.83,210.82c-.16,.25-.32,.5-.49,.75,.17-.25,.33-.5,.49-.75Z"/><path class="cls-1" d="M305.73,254.76c.42-1.6,1-3.15,1.72-4.64,1.9-3.21,3.98-6.32,6.23-9.29,5.29-6.57,10.99-12.79,17.08-18.62,.42-.36,.85-.69,1.31-1,.07,2.56,.15,5.11,.22,7.67-1.26,1.93-2.45,3.91-3.8,5.77-3.76,5.44-7.97,10.55-12.59,15.28-1.3,1.27-2.81,2.33-4.22,3.48l-5.95,1.35Z"/><path class="cls-1" d="M238.35,209.25l-5.07,3.11c-1.91-2.2-4.52-3.32-7.23-4.24l7.36-9.17c2.72,1.2,5.17,2.93,7.21,5.09,.03,2.08-1.26,3.59-2.27,5.21Z"/><path class="cls-1" d="M217.51,219.81l1.24,.6c-1.13,3.56-4.52,6.67-7.8,6.86,1.28-1.72,2.39-3.31,3.61-4.82,.77-1,1.7-1.81,2.55-2.71l.4,.07Z"/><path class="cls-1" d="M271.72,206.73c.03-.05,.07-.1,.12-.14h.1l-.25,.1,.03,.04Z"/><path class="cls-1" d="M120.62,136.76v6.71h-11.06v-3.4l11.06-3.31Z"/><path class="cls-2" d="M319.04,201.43l1.17,.52c-1.42-.12-3,.08-3.83-1.46h0l.6-.1h-.07c.24,1.28,1.24,1.05,2.13,1.04Z"/><path class="cls-2" d="M315.9,199.47l.91,.41-.47,.63h0l-.44-1.04Z"/><path class="cls-2" d="M315.15,198.97l.78,.49-.78-.49Z"/><path class="cls-2" d="M152.07,109.82l-.1,.13-.14-.08c.47-1.63,.93-3.26,1.39-4.89-.38,1.62-.76,3.23-1.15,4.84Z"/><path class="cls-2" d="M668.09,128.05c-1.85,1.66-3.96,3.01-6.24,4l6.28-3.94-.04-.06Z"/><path class="cls-2" d="M668.15,128.08l1.66-1.84,.3,.32-2,1.49,.04,.03Z"/><path class="cls-2" d="M481.87,107.39l-.45,.93-.26-.18,.75-.71-.04-.04Z"/><path class="cls-2" d="M481.91,107.43l.94-1h0l-.95,1h.01Z"/><path class="cls-2" d="M476.68,112.75l.86-1.08v.7l-.89,.34,.03,.04Z"/><path class="cls-2" d="M477.53,111.72c0-.27,.09-.54,.14-.81l.63,.09-.77,.72Z"/><path class="cls-2" d="M482.85,106.45c.33-.32,.66-.64,1-1h0l-1,1Z"/><path class="cls-2" d="M321.15,249.46c.81-.82,1.63-1.63,2.45-2.44-.84,.81-1.66,1.62-2.45,2.44Z"/><path class="cls-2" d="M323.54,247.06l1-1-1,1Z"/><path class="cls-2" d="M320.15,250.4l1-1-1,1Z"/><path class="cls-2" d="M514.58,163.18l-1.89,4.1-.41-.19,2-4,.3,.09Z"/><path class="cls-2" d="M511.22,169.84l-2,3.27h0c.16-1.32,.89-2.51,2-3.26h0Z"/><path class="cls-2" d="M496.26,191.82c-.21,1.33-1.14,2.43-2.42,2.86h.05l2.4-2.85h-.03Z"/><path class="cls-2" d="M508.8,174.13l-1.33,2.66c-.02-1.05,.49-2.03,1.36-2.62l-.03-.04Z"/><path class="cls-2" d="M502.15,184.7l-.86,1.36-.37-.35,1.27-1h-.04Z"/><path class="cls-2" d="M496.29,191.86l.86-1.29,.32,.32-1.21,.93,.03,.04Z"/><path class="cls-2" d="M515.5,151.07l1.38,.28-1.51,.7c.08-.47,.12-.74,.17-1l-.04,.02Z"/><path class="cls-2" d="M511.15,152.97l1.4,.26-1.87,.7h0c.16-.34,.32-.68,.47-1v.04Z"/><path class="cls-2" d="M510.71,153.97l-1.91,1h0l1.91-1Z"/><path class="cls-2" d="M511.26,169.88l.36-1.85,.47,.16-.87,1.65,.04,.04Z"/><path class="cls-2" d="M483.27,167.8l-.82,.89-.56-.82h0l1.44-.07h-.06Z"/><path class="cls-2" d="M507.8,155.38l-1.42,.94-.17-.41,1.63-.49-.04-.04Z"/><path class="cls-2" d="M505.4,156.57l-1.07,.69-.24-.26c.16-.15,.28-.37,.47-.45,.28-.04,.56-.03,.84,.02Z"/><path class="cls-2" d="M503.08,183.26c.1-.4,.19-.8,.29-1.2l.36,.18-.69,1,.04,.02Z"/><path class="cls-2" d="M504.99,180.38c.12-.41,.23-.82,.35-1.23l.36,.2-.75,1,.04,.03Z"/><path class="cls-2" d="M494.79,161.57l-.9,1-.3-.38,1.23-.57-.03-.05Z"/><path class="cls-2" d="M513.26,152.66l1-.52,.16,.31-1,.5-.16-.29Z"/><path class="cls-2" d="M490.04,163.56l1.08,.2c-.64,1-.9,.61-1-.23l-.08,.03Z"/><path class="cls-2" d="M499.62,187.51l-.92,1.46h0l.92-1.45h0Z"/><path class="cls-2" d="M499.66,187.55l.54-.91,.29,.27-.87,.6,.04,.04Z"/><path class="cls-2" d="M504.95,180.34l-.45,.9-.35-.27,.8-.63Z"/><path class="cls-2" d="M506.81,177.65c-.17,.19-.33,.39-.51,.57,0,0-.15-.1-.14-.11,.12-.23,.24-.44,.37-.66l.28,.2Z"/><path class="cls-2" d="M502.57,157.82l.42-.36,.13,.25-.59,.07,.04,.04Z"/><path class="cls-2" d="M508.83,174.17l.45-1h0c-.15,.34-.3,.68-.44,1h-.01Z"/><path class="cls-2" d="M483.3,167.83c.22-.08,.43-.17,.12-.05h-.15l.03,.05Z"/><path class="cls-2" d="M486.72,165.97l.91-.52h0l-.92,.53h.01Z"/><path class="cls-2" d="M488.6,164.97l-1,.44h0l1-.44Z"/><path class="cls-2" d="M507.84,155.42l1-.47h0l-1,.46h0Z"/><path class="cls-2" d="M488.63,164.97l.53-.35,.12,.21-.68,.1,.03,.04Z"/><path class="cls-2" d="M502.15,184.74l.39-1h0l-.39,1Z"/><path class="cls-2" d="M502.53,157.78c-.15,.14-.3,.28-.07,.06h.11l-.04-.06Z"/><path class="cls-2" d="M494.82,161.6c.14-.08,.27-.16,.42-.23,.07-.03,.15-.05,.23-.06-.07,.07-.13,.19-.21,.21-.16,.02-.31,.02-.47,0l.03,.08Z"/><path class="cls-2" d="M496.64,160.84v.13l-.3-.08c.04-.05,.1-.1,.16-.13,0,0,.1,.05,.14,.08Z"/><path class="cls-2" d="M502.54,183.71l.54-.45h0l-.54,.44h0Z"/><path class="cls-2" d="M493.84,194.68v.36c0-.11,0-.22,.08-.33l-.08-.03Z"/><path class="cls-2" d="M486.68,165.97l-.14,.44-.2-.08,.38-.33-.04-.03Z"/><path class="cls-2" d="M485.15,167.14c-.06,.05-.12,.14-.17,.14s-.12-.09-.17-.15,.11-.14,.17-.14,.17,.1,.17,.15Z"/><path class="cls-2" d="M498.15,189.42v.36l-.25-.08,.28-.24-.03-.04Z"/><path class="cls-2" d="M498.21,189.46l.53-.46h0l-.52,.45h-.01Z"/><path class="cls-2" d="M453.08,136.41c0-.42,.08-.83,.11-1.25l1.32-.92h0c.25,1.18-1.04,1.38-1.43,2.17Z"/><path class="cls-2" d="M456.46,132.34l1.43-1.44h0c.06,1-.58,1.34-1.43,1.44Z"/><path class="cls-2" d="M460.38,129.06l-1.57,.84h0l1.57-.85h0Z"/><path class="cls-2" d="M466.62,122.82l-1.57,.84h0l1.57-.84Z"/><path class="cls-2" d="M474.76,114.65l-1,1h0c-.24-.89,.25-1,1-1Z"/><path class="cls-2" d="M473.8,115.61l-.8,.73-.18-.36,1-.33-.02-.04Z"/><path class="cls-2" d="M471.44,118.06l.33-1.07,.33,.17-.7,.86,.04,.04Z"/><path class="cls-2" d="M470.47,119.03c0-.62,.06-1.22,1-1h0l-1,1Z"/><path class="cls-2" d="M467.97,120.83l.73-.81,.21,.3-1,.47,.06,.04Z"/><path class="cls-2" d="M464.15,124.65l1-1h-.05c.08,.73-.18,1.11-1,1h.05Z"/><path class="cls-2" d="M464.08,124.62l-.4,1-.33-.2,.78-.75-.05-.05Z"/><path class="cls-2" d="M457.89,130.9l1-1h0c.09,.72-.17,1.1-1,1Z"/><path class="cls-2" d="M455.49,133.29c.33-.31,.65-.63,1-.95h0c.2,.85-.45,.84-1,1v-.05Z"/><path class="cls-2" d="M455.45,133.26c.21,.86-.43,.86-1,1h0l1-.94v-.06Z"/><path class="cls-2" d="M476.65,112.71l-.47,.41-.13-.31,.63-.06-.03-.04Z"/><path class="cls-2" d="M474.8,114.69l.1-.8,.21,.07-.36,.69,.05,.04Z"/><path class="cls-2" d="M470.44,118.97l-.6,.32-.07-.32h.67Z"/><path class="cls-2" d="M466.66,122.86c0-.29-.05-.58-.07-.86h.36c-.11,.26-.23,.51-.34,.77l.05,.09Z"/><path class="cls-2" d="M460.42,129.09l-.07-.86,.36,.06-.33,.77,.04,.03Z"/><path class="cls-2" d="M461.68,127.37l-.08,.13-.19-.16,.15-.13,.12,.16Z"/><path class="cls-2" d="M462.37,126.46l.07-.14,.21,.14-.14,.14-.14-.14Z"/><path class="cls-2" d="M467.93,120.79v.41l-.27-.09,.31-.28-.04-.04Z"/><path class="cls-2" d="M543.28,167.97l1-.37-.71,1.62-.29-1.29v.04Z"/><path class="cls-2" d="M542.3,173.08c-.14,.01-.28,.04-.42,.09v-.87h.29l.13,.78Z"/><path class="cls-2" d="M542.87,170.76c-.07,.2-.14,.4,0,.12l.08-.08-.08-.04Z"/><path class="cls-2" d="M542.91,170.8v-.83l.34,.08c-.12,.24-.23,.48-.34,.71v.04Z"/><path class="cls-2" d="M489.62,199.97l-5.33,5.32,5.33-5.32Z"/><path class="cls-2" d="M481.45,207.67l-4.36,3.88,4.36-3.88Z"/><path class="cls-2" d="M492.01,197.12c-.82,1-1.63,1.95-2.44,2.92,.81-.97,1.58-1.95,2.44-2.92Z"/><path class="cls-2" d="M483.38,206.24l-2,1.47,2-1.47Z"/><path class="cls-2" d="M484.34,205.28l-1,1,1-1Z"/><path class="cls-2" d="M529.99,207.2c.14-.57,.28-1.14,.52-2.07,.2,.5,.35,.69,.3,.81-.18,.45-.41,.89-.63,1.33l-.19-.07Z"/><path class="cls-2" d="M528.15,214.47v-.84h.23l.11,.85h-.34Z"/><path class="cls-2" d="M529.38,210.2l-.09,1h-.14v-1h.23Z"/><path class="cls-2" d="M529.6,209.32v-.66h.1v.66h-.1Z"/><path class="cls-2" d="M528.67,212.36h.08c0,.07,0,.13,0,.2-.03,.06-.06,.12-.1,.18l.02-.38Z"/><path class="cls-2" d="M646.31,125.73l.66-.12c-.46,.51-.92,1-1.39,1.51h0l.73-1.39Z"/><path class="cls-2" d="M645.58,127.12l-.76,.68-.15-.32,1-.32-.09-.04Z"/><path class="cls-2" d="M643.71,129.09l.06-.78,.3,.1-.39,.64,.03,.04Z"/><path class="cls-2" d="M642.68,129.49l1-.4h0l-1,.41h0Z"/><path class="cls-2" d="M642.15,129.97l-.14,.38,.14-.38Z"/><path class="cls-2" d="M642.15,129.97c.17-.16,.33-.32,.49-.49h0l-.49,.49Z"/><path class="cls-1" d="M319.04,201.43c-.9,0-1.91,.24-2.17-1.05,1.08-.41,1.54,.5,2.17,1.05Z"/><path class="cls-2" d="M356.66,184.19l-.44,.88-.3-.23,.77-.62-.03-.03Z"/><path class="cls-2" d="M356.69,184.22l.37-.94,.31,.21c-.24,.23-.48,.46-.71,.7l.03,.03Z"/><path class="cls-2" d="M355.53,185.97l-.54,.32c0-.14-.11-.31-.06-.4,.09-.11,.23-.19,.37-.21,.05,0,.13,.18,.23,.29Z"/><path class="cls-2" d="M350.43,189.97l-.57,.51-.15-.33,.75-.15-.03-.03Z"/><path class="cls-2" d="M347.89,191.36l-.22-.28c.13-.07,.27-.12,.41-.13,.08,0,.15,.16,.23,.25l-.42,.16Z"/><path class="cls-2" d="M358.15,182.3l.05-.83,.31,.1-.4,.69,.04,.04Z"/><path class="cls-2" d="M354.08,186.78c.06,.05,.18,.12,.17,.14-.06,.14-.13,.27-.21,.4-.05-.06-.17-.13-.15-.16,.05-.13,.11-.26,.19-.38Z"/><path class="cls-2" d="M352.95,187.85c.06,0,.11-.14,.16-.14s.11,.09,.16,.14-.1,.14-.15,.15-.1-.09-.17-.15Z"/><path class="cls-1" d="M316.34,200.51l.47-.63c.09,.1,.16,.21,.22,.33,0,0-.06,.13-.09,.2l-.6,.1Z"/><path class="cls-2" d="M358.15,182.26l-.25,.25s0-.13,.07-.15c.07-.03,.14-.05,.22-.06l-.04-.04Z"/><path class="cls-2" d="M350.46,189.97l.17-.36c-.07,.11-.14,.22-.2,.33l.03,.03Z"/><path class="cls-2" d="M351.86,188.97l-.27,.32,.31-.28-.04-.04Z"/><path class="cls-2" d="M351.9,189.02l.14-.37-.18,.33,.04,.04Z"/><path class="cls-2" d="M43.87,154.86l-1.51-.23h0l1.48,.24h.03Z"/></g></g></g></svg>