<svg id="Capa_1" data-name="Capa 1" xmlns="http://www.w3.org/2000/svg" viewBox="0 0 30.3 43.19"><defs><style>.cls-1{fill:#fff;}</style></defs><path class="cls-1" d="M12,17.07A14.15,14.15,0,0,1,24.87,3V.41H8.21V33.73H24.87V31.16A14.15,14.15,0,0,1,12,17.07Z" transform="translate(-8.21 -0.41)"/><path class="cls-1" d="M11.32,37.21A1.66,1.66,0,0,1,9.58,38.9H8.21V35.52H9.58A1.65,1.65,0,0,1,11.32,37.21Zm-1,0a.79.79,0,0,0-.83-.84H9.14v1.68h.39A.79.79,0,0,0,10.36,37.21Z" transform="translate(-8.21 -0.41)"/><path class="cls-1" d="M14,38.09v.81H11.8V35.52H14v.81H12.73v.49h1.11v.77H12.73v.5Z" transform="translate(-8.21 -0.41)"/><path class="cls-1" d="M17.55,35.52V38.9h-.77l-1.34-1.83V38.9h-.91V35.52h.82l1.29,1.77V35.52Z" transform="translate(-8.21 -0.41)"/><path class="cls-1" d="M21.21,35.52V38.9h-.77L19.1,37.07V38.9h-.9V35.52H19l1.3,1.77V35.52Z" transform="translate(-8.21 -0.41)"/><path class="cls-1" d="M23.69,37.58V38.9h-.94V37.58l-1.17-2.06h1l.61,1.22.62-1.22h1Z" transform="translate(-8.21 -0.41)"/><path class="cls-1" d="M11.11,41.94a1.54,1.54,0,0,1-1.62,1.58H8.21V40.36H9.49A1.54,1.54,0,0,1,11.11,41.94Zm-.89,0a.73.73,0,0,0-.78-.78H9.08v1.56h.36A.74.74,0,0,0,10.22,41.94Z" transform="translate(-8.21 -0.41)"/><path class="cls-1" d="M13.62,42.76v.76H11.56V40.36h2v.75H12.43v.47h1v.71h-1v.47Z" transform="translate(-8.21 -0.41)"/><path class="cls-1" d="M14,42.5h.89a.34.34,0,0,0,.37.33c.19,0,.36-.09.36-.27s-.25-.25-.55-.32-1-.26-1-1,.45-1,1.2-1,1.19.39,1.19,1h-.88A.28.28,0,0,0,15.2,41c-.16,0-.31.06-.31.21s.24.24.54.31c.46.12,1.07.28,1.07,1s-.53,1-1.26,1S14,43.19,14,42.5Z" transform="translate(-8.21 -0.41)"/><path class="cls-1" d="M17,40.36h.88v3.16H17Z" transform="translate(-8.21 -0.41)"/><path class="cls-1" d="M21.62,41.83A1.64,1.64,0,0,1,20,43.6a1.66,1.66,0,1,1,0-3.32,1.6,1.6,0,0,1,1.64,1.25h-.91a.8.8,0,0,0-1.51.41.77.77,0,0,0,.79.84.76.76,0,0,0,.72-.4h-.79v-.55Z" transform="translate(-8.21 -0.41)"/><path class="cls-1" d="M24.87,40.36v3.16h-.72L22.9,41.81v1.71h-.84V40.36h.76L24,42V40.36Z" transform="translate(-8.21 -0.41)"/><path class="cls-1" d="M24.87,10.34c.43,0,.87,0,1.31,0C32.65,10.3,38,13,38.51,16.47A12.34,12.34,0,0,0,26.18,4.72c-.44,0-.88,0-1.31.07a12.36,12.36,0,0,0-11,11.68C14.36,13.25,19,10.68,24.87,10.34Z" transform="translate(-8.21 -0.41)"/><path class="cls-1" d="M26.18,23.84c-.44,0-.88,0-1.31,0-5.86-.34-10.51-2.91-11-6.13a12.36,12.36,0,0,0,11,11.68c.43,0,.87.07,1.31.07A12.34,12.34,0,0,0,38.51,17.67C38,21.13,32.65,23.84,26.18,23.84Z" transform="translate(-8.21 -0.41)"/><path class="cls-1" d="M26.18,12.25l-.51,0a4.82,4.82,0,0,0,0,9.58,4.36,4.36,0,0,0,.51,0,4.82,4.82,0,0,0,0-9.64Zm0,7.42H25.9a2.61,2.61,0,0,1,0-5.18h.28a2.6,2.6,0,1,1,0,5.2Z" transform="translate(-8.21 -0.41)"/></svg>