<?xml version="1.0" encoding="UTF-8"?><svg id="Layer_2" xmlns="http://www.w3.org/2000/svg" viewBox="0 0 1755.55 653.45"><g id="Layer_1-2"><g><path d="M506.69,353.7l-119.09,299.75h114.19l12.04-35.68h90.11l12.05,35.68h114.18l-119.1-299.75h-104.38Zm35.24,178.41l16.96-50.85,16.95,50.85h-33.91Z"/><polygon points="362.65 353.7 384.07 653.45 277.01 653.45 271.21 517.84 235.52 653.45 149.87 653.45 112.85 517.84 107.06 653.45 0 653.45 21.4 353.7 142.73 353.7 192.7 517.84 249.8 353.7 362.65 353.7"/><polygon points="1213.17 353.7 1420.14 353.7 1420.14 439.33 1327.35 439.34 1327.35 467.89 1398.71 467.89 1398.71 539.24 1327.35 539.24 1327.35 567.79 1420.14 567.79 1420.14 653.43 1213.17 653.43 1213.17 353.7"/><polygon points="114.18 306.86 0 306.86 0 7.11 121.33 7.11 185.55 142.71 185.55 7.11 299.74 7.15 299.74 306.9 178.42 306.9 114.18 171.29 114.18 306.86"/><path d="M488.83,314.03c90.58,0,164.19-70.47,164.19-157.01S579.42,0,488.83,0s-164.18,70.49-164.18,157.02,73.61,157.01,164.18,157.01Zm.04-221.23c27.65,0,49.95,28.53,49.95,64.22s-22.3,64.23-49.95,64.23-49.96-28.54-49.96-64.23,22.3-64.22,49.96-64.22Z"/><polygon points="1175.85 353.69 1175.85 439.33 1104.49 439.33 1104.49 653.43 990.31 653.43 990.31 439.33 880.05 439.33 880.05 653.43 765.83 653.43 765.83 439.33 694.48 439.33 694.48 353.69 1175.85 353.69"/><path d="M1681.5,556.65c33.94-17.83,52.65-54.42,52.65-95.91,0-57.97-36.13-107.04-99.92-107.04h-178.43v299.75h114.2v-85.64l57.09,85.64h128.46l-74.05-96.8Zm-90.11-60.21h-21.4v-64.23h21.4c15.63,0,28.55,10.27,28.55,32.12h0c0,22.29-12.93,32.07-28.56,32.11Z"/></g></g></svg>