<?xml version="1.0" encoding="UTF-8"?><svg id="Layer_2" xmlns="http://www.w3.org/2000/svg" viewBox="0 0 1222.06 325.27"><g id="Layer_1-2"><g><g><path d="M602.92,18.53h-13.33V7.15h66.62c.19,3.09,.41,6.84,.68,11.18h-15.46c0,4.4,.15,8.29-.03,12.17-.46,9.83,1.19,19.66-2.71,29.45-1.9,4.75-.33,10.87-.33,16.66h73.13V19.32l-14.31-.93V7.27h63.6v11.37h-14.65V150.34h14.74v8.74h-63.84c-.13-2.01-.27-4.38-.4-6.47,.82-.88,1.4-2.11,2.09-2.17,13.25-1.15,13.29-1.12,13.33-13.94,.04-15.28,0-30.57,0-46.59h-73.88c1.49,7.57-1.6,15,2.79,23.03,2.58,4.71,.47,11.98,.47,18.09v19.27h15.07v8.76h-66.88c-.13-2.33-.29-5.1-.48-8.45h13.93c6.02-11.65,4.53-23.66,4.57-35.46,.08-26-.1-51.99,.11-77.99,.05-6.53-.43-12.67-4.81-18.63Zm132.89,16.19c-7.08,61.5-6.84,55.4-.52,102.57,1.59-18.9,4.04-35.55,4.09-52.2,.05-16.79-2.28-33.58-3.57-50.37Zm-103.6,97.25c0-7.47-.4-14.97,.11-22.4,.53-7.77,2.92-15.5,2.75-23.21-.33-15.4-1.82-30.77-2.9-46.15-.14-1.94-.7-3.84-1.56-8.31-5.47,35.26-7.12,67.66,1.59,100.07Zm-13.41-5.2c2.27-25.61,1.72-82.3-1.36-92.35-.58,4.39-.18,8.86-.7,13.22-.5,4.2-2.74,8.28-2.82,12.44-.33,17.23,.2,34.49-.33,51.71-.18,5.72,2.91,9.31,5.2,14.98Zm104.52-.06c2.32-29.83,1.69-79.45-1.19-89.81-1.39,7.69-3.23,14.71-3.8,21.83-.64,8.06-.15,16.21-.15,24.32s.19,16.23-.06,24.33c-.2,6.46,.12,12.66,5.2,19.32Z"/><path d="M1007,90.02c8.35,11.99,16.16,23.63,24.44,34.93,6.15,8.39,9.45,19.42,20.79,23.25,1.78,.6,3.49,2.04,5.24,2.04,7.58,0,3.71,5.11,4.57,9.28-14.23,0-27.91,.33-41.57-.19-4.34-.17-7.7-2.73-10.88-7.01-12.62-16.96-22.31-35.67-33.25-53.6-2.28-3.73-3.99-6.14-9.45-7.14,0,10.55-.5,20.11,.14,29.6,.63,9.24,2.44,18.41,3.9,28.81,3.91,.18,8.76,.39,13.96,.63v8.25h-66.76v-8.41h13.99c1.43-13.83,3.28-26.52,3.92-39.27,.66-13.2-.63-26.52,.34-39.68,1.29-17.59-3.51-34.55-3.68-52.43h-14.28V6.56c26.66,0,53.18-.91,79.58,.42,11.77,.59,23.92,3.99,32.07,14.87,4.23,5.64,8.06,10.9,7.5,18.36-.31,4.05-.39,8.17,0,12.21,1.59,16.43-6.98,26.59-20.6,33.65-2.92,1.51-6.13,2.46-9.97,3.96Zm-3.26-10.04c-2.33,.46-5.88-1.52-6.14,3.06h-9.99c9.53,13.51,16.07,27.3,28.41,36.71,.46,2.32-1.52,5.86,5.89,7.9-.48-.59-.97-1.19-1.45-1.78-.46,.45-.91,.91-1.37,1.36,.61,.47,1.18,1,1.85,1.36,.11,.06,.62-.59-1.85-2.72-.46-2.32,1.52-5.86-3.07-6.12,.08-5.73-3.86-9.59-6.36-14.2-4.06-7.48-11.84-13.01-12.06-22.51,2.33-.46,5.88,1.52,6.14-3.06,1.02-1.02,2.05-2.04,3.12-2.68,6.63-3.37,11.11-9.25,11.84-15.61,1.05-9.11,2.59-19.11-5.75-29.04,0,9.3-.75,16.82,.2,24.12,1.05,8.03-7.22,12.56-6.34,20.16-1.02,1.02-2.05,2.04-3.07,3.06Zm5.89,50.73l-1.45-1.78c-.46,.45-.91,.91-1.37,1.36,.61,.47,1.18,1,1.85,1.36,.11,.06,.62-.59-1.85-2.72-.46-2.32,1.52-5.86-2.15-4.11-1.03-3.95-1.1-6.06-2.06-7.63-5.26-8.54-11.31-16.65-15.95-25.5-2.75-5.26-4.88-7.93-10.52-4.14,10.77,10.72,15.26,26.05,27.61,35.26,.46,2.32-1.52,5.86,5.89,7.9Zm14.57-63.24c3.38-3.48,7.44-6.24,7.21-11.46-.33-7.53,1.31-15.45-4.96-21.61-4.11,6,2.04,11,1.63,16.4-.42,5.62-2.52,11.12-2.86,18.31v-1.36c-.8,.28-1.69,.44-2.33,.92-.19,.14,.32,1.21,.51,1.85,.61-.47,1.21-.94,.79-3.05Zm-57.31,12.79c7.68-.37,14.53,.52,20.6-1.24,13.32-3.86,23.56-24.11,19-37.3-1.98-5.72-5.4-11.6-9.81-15.64-4.11-3.77-10.31-5.17-16.53-4.31-3.32,.46-6.75,.08-9.06,.08-1.57,10.29-3.46,18.94-4.06,27.69-.67,9.63-.15,19.33-.15,30.72Zm-6.62-45.6l-2.59-.19c0,2.94,.4,5.95-.11,8.8-.56,3.21-2.79,6.26-2.83,9.4-.26,21.8-.27,43.61,.04,65.41,.04,2.63,2.54,5.22,5.48,10.87V34.67Zm-17.47,93.6l1.58,.29c1.36-9.57,3.42-19.1,3.91-28.71,.68-13.14-.07-26.36,.27-39.53,.16-6.28-.76-11.86-5.77-17.08v85.02Z"/><path d="M395.29,18.72h-14.39V7.25h51.34v11.38h-17.88V161.77c-1.8,.32-3.19,.78-4.58,.79-17.14,.1-18.04,.57-25.95-13.85-6.76-12.31-15.23-23.34-23.33-34.55-8.23-11.38-14.63-24.02-24.45-34.4-5.92-6.25-10.08-14.15-16.04-22.77-1.67,4.22-3.83,7.19-3.88,10.2-.32,18.33-.96,36.72,.18,54.98,.57,9.09,3.88,18.08,2.29,27.99h15.2v9c-16.41,.84-33.48,.12-51.07,.44v-8.8c4.26-.24,9.11-.5,14.13-.78,7.1-38.26,2.5-76.63,3.61-114.79,.11-3.62-1.67-7.38-2.98-10.93-1.56-4.23-4.75-6.01-9.42-5.56-3.52,.34-7.1,.07-11.34,.07V6.56c13.3,0,26.53,.65,39.66-.26,6.85-.48,10.74,2.78,13.94,7.14,6.82,9.28,12.88,19.12,19.43,28.61,9.32,13.51,17.86,27.54,28.27,40.33,5.74,7.05,10.36,15,15.93,23.2,4.38-12.55,7.49-24.7,4.45-35.96-4.47-16.53-.95-32.93-3.12-50.89Zm-8.96,111.99c-.48-.59-.97-1.18-1.45-1.78l-1.37,1.36c.61,.47,1.18,1,1.85,1.36,.11,.06,.62-.59-1.85-2.72-1.02-1.02-2.05-2.04-3.07-3.06-.71-2.24-.98-4.77-2.21-6.68-9.57-14.85-19.09-29.74-29.12-44.28-6.23-9.04-10.98-19.41-20.86-25.52-.46-2.32,1.52-5.86-4.44-6.12h1.37c-.28-.79-.44-1.68-.93-2.32-.15-.19-1.21,.32-1.86,.51,.47,.6,.94,1.21,2.79,1.81,.46,2.32-1.52,5.86,3.07,6.12-.48,3.24,1.42,5.27,3.04,7.91,13.11,21.32,26.69,42.25,42.73,61.58,2.04,2.46,2.82,5.9,6.42,6.99,1.02,1.02,2.05,2.04,5.89,4.84Zm6.14-12.24c-.48-.59-.97-1.18-1.45-1.78l-1.37,1.36c.61,.47,1.18,1,1.85,1.36,.11,.06,.62-.59-1.85-2.72-1.02-1.02-2.05-2.04-3.07-3.06-.69-2.22-.93-4.73-2.15-6.61-7.99-12.27-16.07-24.5-24.36-36.56-5.87-8.54-9.61-18.84-19.54-24.13-1.02-1.02-2.05-2.04-3.07-3.06-.46-2.32,1.52-5.86-4.44-6.12h1.37c-.28-.79-.44-1.68-.93-2.32-.15-.19-1.21,.32-1.86,.51,.47,.6,.94,1.21,2.79,1.81,.46,2.32-1.52,5.86,3.07,6.12,1.02,1.02,2.05,2.04,3.07,3.06,.69,2.22,1.04,4.63,2.13,6.63,9.36,17.1,20.84,32.84,33.13,47.87,3.48,4.26,3.84,11.47,10.79,12.81,1.02,1.02,2.05,2.04,5.89,4.84Zm-85.18,6.94c3.88-28.61,3.22-69.85,0-79.61V125.42Zm98.23-15.34c3.79-26.36,3.22-60.49,0-70.68V110.08Zm-10.17,14.71c-.36-.64-.72-1.31-1.09-1.97-.34,.34-1.02,.75-.96,1.01,.16,.72,.62,1.37,.96,2.05l1.09-1.09Z"/><path d="M880.15,107.52h-11.06c-.26-5.78-.52-11.63-.8-17.91h-36.3c1.23,17.46,2.48,35.17,3.81,54.19,6.34,1.17,13.87,.23,21.32,.4,7.6,.17,15.21,.04,23.34,.04v-14.58h15.4v29.25h-112.88v-8.01h13.26c2.51-5.29,5.06-9.65,4.99-15.46-.33-30.08-.15-60.16-.15-90.24,0-2.55-.1-5.1,.02-7.65,.29-6.45,.32-12.81-4.52-18.75h-13.42V7.47c.86-.22,2.22-.86,3.59-.87,23.54-.06,47.1,.52,70.6-.38,7.23-.28,17.3,6.38,21.84-5.59h13.69V39.12q-14.57,1.21-15.87-16.9h-42.15c0,4.38-.59,8.92,.11,13.26,2.2,13.64-4.74,26.48-2.93,40.73h36.33v-17.01h11.79v48.32Zm-55.76,24.41c2.48-29.46,1.89-87.58-.69-97.57-1.41,7.64-3.37,15.13-4.03,22.74-.7,8.05-.16,16.22-.16,24.33s.58,16.28-.16,24.33c-.75,8.13,2.59,15.17,5.04,26.17Zm-17.16-6.65c5.42-12.29,6.76-24.86,6.26-37.77-.53-13.55-.12-27.14-.12-43.17-3.17,2.68-5.94,3.92-5.95,5.19-.25,25.25-.19,50.5-.19,75.75Z"/><path d="M185.47,3.55h19.87c7.1,20.04,14.18,40.53,21.63,60.89,3.72,10.17,7.96,20.16,12.25,30.1,6.92,16,14.29,31.81,20.98,47.91,1.6,3.86,2.37,7.19,7.3,8.02,4.89,.83,1.3,5.09,2.69,8.32h-58.2v-8.16c1.58-.08,3.46-.22,5.34-.26,1.93-.05,3.86-.01,5.96-.01,.25-5.11,1.31-8.97-1.74-13.42-3.38-4.92-4.92-11.16-6.88-16.96-3.11-9.17-2.97-9.31-11.72-9.37-13.81-.09-27.62-.02-42.53-.02-4.71,12.29-9.57,24.94-14.95,38.95,6.29,.5,11.08,.88,16.41,1.3v7.93h-48.13v-7.21c.54-.29,1.49-1.28,2.19-1.12,9.92,2.17,13.82-4.59,15.54-11.85,2.66-11.23,8.59-20.99,12.82-31.44,9.37-23.15,19.6-45.94,27.41-69.72,2.64-8.03,6.3-15.74,9.5-23.59,1.24-3.05,2.51-6.1,4.24-10.29Zm-29.18,94.79c5.86-3.58,6.43-9.27,6.14-15.3,5.86-3.58,6.43-9.27,8-22.66-.98,2.37-1.56,3.41-1.82,4.52-.21,.9-.04,1.89-.04,2.84,1.02-.7,2.61-1.22,2.92-2.16,.35-1.07-.44-2.51-2.92,2.16-5.86,3.58-6.43,9.27-6.14,15.3-5.86,3.58-6.43,9.27-5.54,18.05-.78-1.06-1.41-1.91-2.03-2.76-.55,.7-1.57,1.43-1.54,2.1,.07,1.27,.75,2.5,1.17,3.75,.71-.92,1.42-1.83,1.8-5.86Zm43.87-41.62c1.33-1.61,2.13-2.14,2.12-2.63-.05-1.32-.45-2.64-.71-3.95-.67,.17-1.93,.35-1.93,.52,.02,1.65,.25,3.29,4.82,4.63-2.29,12.08,3.95,22.18,6.73,33.17,2.91,11.51,10.26,20.25,14.95,34.07,.5-4.94,1.16-6.56,.71-7.77-7.38-19.85-14.9-39.65-26.67-58.03Zm8.03,41.25c-3.17-8.16-6.04-15.55-8.92-22.93-3.07-7.88-6.06-15.78-9.31-23.58-.41-.98-2.26-1.99-3.34-1.88-.97,.09-2.32,1.55-2.62,2.64-3.68,13.72-11.22,25.86-16.08,39.09-.73,1.99-1.83,3.85-3.19,6.67h43.46Zm29.59,21.67c1.48-11.88-12.94-50.29-28.42-75.7-.05,10.38,11.78,41.87,28.42,75.7Zm-85.33-12.11h-1.54v6.12h1.54v-6.12Zm89.18,21.3c.24-1.67,.61-3.03,.53-4.36-.03-.42-1.25-.77-1.92-1.16-.35,1.33-.85,2.66-.94,4.01-.02,.36,1.21,.81,2.34,1.51ZM172.09,57.48l1.09,1.09c.34-.68,.8-1.33,.96-2.05,.06-.25-.62-.67-.96-1.01-.37,.66-.74,1.33-1.09,1.97Zm-23.91,59.66l-1.09,1.09c.68,.34,1.34,.8,2.06,.96,.25,.06,.67-.62,1.01-.96l-1.98-1.09Zm57.69-78.02l1.09,1.09c.34-.68,.8-1.33,.96-2.05,.06-.25-.62-.67-.96-1.01-.37,.66-.74,1.33-1.09,1.97Zm21.49,85.66c.41,.41,.75,.75,1.09,1.09,.34-.68,.8-1.33,.96-2.05,.06-.25-.62-.67-.96-1.01l-1.09,1.97Z"/><path d="M1222.06,159.11h-58.31v-8.69h14.88c-4.32-11.53-8.63-21.87-11.99-32.5-1.61-5.09-3.95-7.42-9.25-7.38-14.82,.12-29.64,.04-45.17,.04-4.66,12.52-9.41,25.27-14.68,39.43h16.34v8.89h-48.39v-7.82c3.83-.59,9.2,.17,11.13-2.04,4.26-4.91,7.75-11,9.8-17.18,2.98-8.97,6.36-17.83,10.22-26.35,8.75-19.34,16.23-39.14,23.86-58.91,4.58-11.85,9.73-23.49,14.96-35.07,4.05-8.97,4.27-8.6,16.28-8.15,6.64,.25,7.17,4.08,8.91,9.39,5.73,17.42,13.47,34.19,19.16,51.63,7.61,23.34,19.12,45.09,27.08,68.31,2.28,6.65,3.73,16.51,13.99,18.63,.8,.17,.73,4.46,1.19,7.75Zm-98.57-97.48c-4.59,.26-2.61,3.8-3.07,6.12-5.92,1.43-1.9,6.17-3.07,9.18-5.86,3.58-6.43,9.27-6.14,15.3-4.59,.26-2.61,3.8-3.07,6.12-5.92,1.43-1.9,6.17-2.47,11.93-.78-1.06-1.41-1.91-2.03-2.76-.55,.7-1.57,1.43-1.54,2.1,.07,1.27,.75,2.5,1.17,3.75,.71-.92,1.42-1.83,1.8-5.86,5.92-1.43,1.9-6.17,3.07-9.18,4.59-.26,2.61-3.8,3.07-6.12,5.86-3.58,6.43-9.27,6.14-15.3,5.92-1.43,1.9-6.17,3.07-9.18,4.59-.26,2.61-3.8,4.93-13.48-.98,2.37-1.56,3.41-1.82,4.52-.21,.9-.04,1.89-.04,2.84,1.02-.7,2.61-1.22,2.92-2.16,.35-1.07-.44-2.51-2.92,2.16Zm58.56,61.27c-.54-.92-1.2-2.03-1.86-3.14-.48,.47-1.44,1.08-1.35,1.4,.42,1.53,1.12,2.98,1.72,4.46,.43-.77,.85-1.55-1.8-5.86-.33-2.88-.17-5.92-1.07-8.6-3.56-10.56-6.27-21.66-11.58-31.3-4.39-7.97-4.21-18.12-14.38-24.3l2.81-.09c-.39-3.01-.79-6.01-1.18-9.02l-2.05,.19c.14,2.97,.28,5.95,2.89,8.88,1.12,16.72,8.35,31.54,14.6,46.67,2.59,6.27,4.79,12.76,13.26,20.71Zm-20.83-72.29c1.33-1.61,2.13-2.14,2.12-2.63-.05-1.32-.45-2.64-.71-3.95-.67,.17-1.93,.35-1.93,.52,.02,1.65,.25,3.29,2.72,4.85,.47,3.27,.81,6.46,1.67,9.78,4.2,16.3,12.78,30.9,17.55,46.98,1.31,4.42,2.84,10.83,11.72,16.74-.54-.92-1.2-2.03-1.86-3.14-.48,.47-1.44,1.08-1.35,1.4,.42,1.53,1.12,2.98,1.72,4.46,.43-.77,.85-1.55-1.8-5.86,0-1.5,.27-3.07-.04-4.5-3.42-15.49-8.92-30.35-15.53-44.67-3.37-7.3-5.52-15.58-14.25-19.98Zm-1.22,47.32c-3.13-8.04-6.01-15.4-8.88-22.76-3.07-7.88-6.06-15.78-9.31-23.59-.42-1-2.17-2.08-3.23-2.01-.99,.06-2.45,1.45-2.73,2.52-4.24,15.81-13.68,29.58-17.72,45.84h41.86Zm.34-59.24c-.34-.34-.76-1.01-1.01-.96-.72,.16-1.38,.62-2.06,.96,.34,.34,.76,1.01,1.01,.96,.72-.16,1.38-.62,2.06-.96Zm-60.97,79.99c.41,.41,.75,.75,1.09,1.09,.34-.68,.8-1.33,.96-2.05,.06-.25-.62-.67-.96-1.01-.37,.66-.74,1.33-1.09,1.97Z"/><path d="M55.5,83.05c2.23,0,4.18,.04,6.12,0,5.42-.13,10.73,.98,15.12-4.53,4.68-5.88,9.45-11.18,8.98-19.32-.27-4.57-.26-9.18,0-13.75,.71-12.64-12.61-25.19-24.37-23.66-3.9,.51-7.93,.08-12.52,.08,0,40.05-.05,79.2,.04,118.35,.02,8.25,1.87,9.77,10.88,10.13,2.03,.08,4.06,.01,6.49,.01,.34,1.39,.86,2.75,.96,4.13,.09,1.42-.23,2.86-.41,4.66H.33v-8.14c4.05-.32,8.84-.7,14.72-1.17v-14.76c0-8.15-.4-16.33,.12-24.45,.46-7.26,3.01-14.49,2.75-21.66-.81-22.98-2.49-45.92-3.9-70.01H0V6.56c26.1,0,52.11-1.07,77.95,.5,11.05,.67,22.73,5.39,30.45,14.71,8.7,10.5,13.9,23.1,10.76,36.6-4.15,17.87-15.3,30.89-33.29,36.81-6.45,2.12-13.04,3.92-20.18,3.3-8.71-.77-10.2-1.7-10.69-10.47-.08-1.42,.28-2.85,.5-4.96Zm20.97,8.38l-.02-1.38h-12.04l.02,1.38c4.01,0,8.02,0,12.02-2.26,2.33-.46,5.88,1.52,4.39-2.57,12.61-3.56,15.83-8.38,17.1-23.47,1.27-15,1-16.15-6.09-25.33-.48,16.88,3.2,34.2-9.26,48.3-2.33,.46-5.88-1.52-6.13,5.32ZM42.69,39.24c-9.33,6.62-5.53,14.31-6.01,20.94-.55,7.56-.13,15.2-.13,22.8,0,7.1-.13,14.2,.04,21.29,.17,7.1-.75,14.32,1.01,23.91,2.39-6.15,4.87-9.63,4.92-13.14,.34-24.72,.18-49.44,.18-75.8Zm-15.41-1.33c-1-.18-2.01-.37-3.01-.55,0,8.51,.52,17.07-.15,25.53-.66,8.26-4.28,16.21-2.92,24.74,.99,6.21,2.46,12.38,2.95,18.62,.51,6.59,.03,13.25,.17,19.87,.04,1.79,.75,3.57,1.79,8.17,1.62-18.41,2.64-33.72,4.38-48.95,1.85-16.11-4.33-31.46-3.22-47.44Zm77.65-.2c-.27,10.95-1.87,21.87,.49,34.67,4.28-12.94,8.32-23.86-.49-34.67Z"/><path d="M528.81,150.75h20.2v8.26h-75.96c-.17-2.16-.38-4.92-.65-8.27h16.87c3.63-6.1,5-11.91,4.92-18.57-.34-30.57-.23-61.14-.09-91.71,.03-6.48,0-12.75-4.33-18.29h-32.2v17.36h-15.36V.44h13.24c5.83,11.84,16.58,5.47,24.82,5.78,25.02,.94,50.1,.37,75.15,.31,4.08-.01,9,1.85,10.3-5.08,.19-1.02,6.39-.93,10.53-1.45V39.83h-11.44V22.16h-36.99c0,5.06-.56,10.11,.11,14.99,1.91,14.12-4.03,27.55-3.19,41.54,1.39,23.46,2.67,46.93,4.08,72.06Zm-10.21-18.75v-16.33c0-5.61-.4-11.25,.12-16.81,.48-5.23,2.85-10.41,2.71-15.56-.15-5.69,1.76-11.37-2.34-17.42-2.61-3.86-.24-10.9-.56-16.49-.29-4.92,1.28-10.17-1.75-16.2-6.09,33.98-6.21,66.37,1.83,98.81Zm-18.79-7.95c9.71-6.92,5.89-14.61,6.38-21.24,.56-7.56,.13-15.2,.13-22.8,0-7.1,.14-14.2-.04-21.29-.17-7.08,.78-14.28-1.64-21.22-7.9,28.02-2.77,56.46-4.83,86.55Z"/></g><g><path d="M264.9,324.49h-17.98v-1.09c3.6,0,5.69-3.18,5.69-8.86v-39.05c0-5.18-2.01-8.78-5.69-8.78v-1.09h17.98c16.64,0,33.19,5.1,33.19,29.6s-16.56,29.27-33.19,29.27Zm0-57.78h-3.68v56.69h3.68c9.03,0,23.16-.42,23.16-28.18s-13.97-28.51-23.16-28.51Z"/><path d="M327.78,265.62v1.09c-3.6,0-5.85,1.42-5.85,6.61v42.23c0,5.69,2.34,7.86,5.85,7.86v1.09h-20.32v-1.09c3.59,0,5.85-2.17,5.85-7.86v-42.23c0-5.18-2.17-6.61-5.85-6.61v-1.09h20.32Z"/><path d="M397.26,265.62v1c-12.12,0-11.87,12.04-11.87,19.82v38.05h-2.68l-35.54-45.82v24.92c0,7.36,0,19.82,10.96,19.82v1.09h-24.17v-1.09c12.12,0,12.12-12.29,12.12-19.82v-26.17l-3.43-4.43c-5.35-6.69-7.78-6.19-9.95-6.36v-1h15.47l36.12,46.66v-25.84c0-7.78,.09-19.82-10.95-19.82v-1h23.91Z"/><path d="M464.73,265.62v1c-12.12,0-11.87,12.04-11.87,19.82v38.05h-2.68l-35.54-45.82v24.92c0,7.36,0,19.82,10.96,19.82v1.09h-24.17v-1.09c12.12,0,12.12-12.29,12.12-19.82v-26.17l-3.43-4.43c-5.35-6.69-7.78-6.19-9.95-6.36v-1h15.47l36.12,46.66v-25.84c0-7.78,.09-19.82-10.95-19.82v-1h23.91Z"/><path d="M511.47,307.09v17.39h-42.06v-1.09c3.51,0,4.52-3.01,4.52-8.7v-40.14c0-5.18-.84-7.86-4.52-7.86v-1.09h40.98v15.05h-1.09c-1-13.8-15.47-13.97-22.24-13.97h-4.52v27.51h5.43c2.26,0,11.12,0,11.54-8.45h1.09v17.98h-1.09c-.42-8.36-9.45-8.44-11.54-8.44h-5.43v28.09h3.84c7.44,0,22.25,.42,24-16.3h1.09Z"/><path d="M569.91,324.49h-6.35c-10.7,0-9.45-.09-14.21-18.23-2.34-8.78-10.79-8.78-12.96-8.78h-3.93v18.32c0,5.77,1.84,7.61,5.35,7.61v1.09h-18.73v-1.09c3.6,0,5.18-1.67,5.18-8.7v-41.64c0-5.18-1.5-6.35-5.18-6.35v-1.09h15.97c16.64,0,25.84,2.01,25.84,15.97,0,11.38-6.52,14.72-15.55,15.31,5.52,.25,11.29,.84,15.64,19.15,1.5,6.36,6.77,7.19,8.94,7.36v1.09Zm-34.87-57.78h-2.59v29.69h2.59c9.45,0,16.64,.08,16.64-14.8s-7.69-14.88-16.64-14.88Z"/><path d="M652.68,316.04c-.09,6.11-4.68,8.87-8.53,9.2,0,0-7.19,.67-10.45-4.18l-4.85-7.27c-2.93,9.53-19.74,17.06-28.52,5.85-8.7-11.12,1.76-21.15,8.45-25l4.68-2.84-4.18-6.19c-8.28-11.2-3.84-21.41,5.52-23.08,5.44-.92,9.53,.59,12.04,3.43,3.6,4.1,6.77,14.39-6.11,23.08l11.2,16.56c3.18-7.86,7.78-9.37,9.95-9.87,1.67-.33,3.76-.25,5.18,.92,1.59,1.25,2.17,4.02,.42,5.94-1.51,1.76-4.18,2.01-6.02,.5-1.01-.84-1.34-1.67-1.42-2.84,0-1.84-5.18-.5-7.44,6.27l6.61,9.53c2.68,3.85,6.69,3.93,6.69,3.93,2.59,0,5.27-1,5.69-3.93h1.09Zm-24.67-3.26l-13.88-20.07-4.68,2.93c-4.85,3.34-9.62,12.37-2.42,20.91,5.18,6.19,16.72,6.02,20.99-3.76Zm-13.88-33.36l5.94,8.61c11.12-7.02,9.86-16.22,5.77-21.32-2.42-2.51-6.27-3.68-9.62-2.42-5.1,1.92-6.1,9.2-2.09,15.13Z"/><path d="M699.75,324.49h-17.98v-1.09c3.6,0,5.69-3.18,5.69-8.86v-39.05c0-5.18-2.01-8.78-5.69-8.78v-1.09h17.98c16.64,0,33.19,5.1,33.19,29.6s-16.56,29.27-33.19,29.27Zm0-57.78h-3.68v56.69h3.68c9.03,0,23.16-.42,23.16-28.18s-13.97-28.51-23.16-28.51Z"/><path d="M789.63,324.49h-19.07v-1.09c4.52,0,3.68-4.77,1.76-9.45l-2.93-7.27h-21.66c-2.26,6.69-5.93,17.06,5.69,16.72v1.09h-18.65v-1.09c3.18-.08,5.27-.42,12.54-19.73l13.96-38.05h.92c10.2,24.58,20.57,51.01,20.57,51.01,2.76,6.69,4.52,6.61,6.86,6.77v1.09Zm-20.57-18.9l-10.96-27.76-10.12,27.76h21.07Z"/><path d="M856.69,265.62v1c-12.12,0-11.87,12.04-11.87,19.82v38.05h-2.68l-35.54-45.82v24.92c0,7.36,0,19.82,10.96,19.82v1.09h-24.17v-1.09c12.12,0,12.12-12.29,12.12-19.82v-26.17l-3.43-4.43c-5.35-6.69-7.78-6.19-9.95-6.36v-1h15.47l36.12,46.66v-25.84c0-7.78,.09-19.82-10.96-19.82v-1h23.92Z"/><path d="M910.28,307.18l1.01,12.88c-6.19,4.1-11.21,5.18-20.15,5.18-17.31,0-29.02-11.54-29.02-30.19s11.71-30.19,29.02-30.19c8.61,0,14.88,.84,20.15,5.1l-1.01,12.96h-1.09c-2.34-13.8-11.29-16.98-18.06-16.98-8.7,0-18.32,3.85-18.32,29.1s9.87,29.1,18.32,29.1c6.77,0,16.97-4.26,18.06-16.98h1.09Z"/><path d="M959.52,307.09v17.39h-42.06v-1.09c3.51,0,4.52-3.01,4.52-8.7v-40.14c0-5.18-.84-7.86-4.52-7.86v-1.09h40.98v15.05h-1.09c-1.01-13.8-15.47-13.97-22.24-13.97h-4.52v27.51h5.43c2.26,0,11.12,0,11.54-8.45h1.09v17.98h-1.09c-.42-8.36-9.45-8.44-11.54-8.44h-5.43v28.09h3.84c7.44,0,22.25,.42,24-16.3h1.09Z"/></g></g></g></svg>