<?xml version="1.0" encoding="UTF-8"?><svg id="Layer_2" xmlns="http://www.w3.org/2000/svg" viewBox="0 0 2951.62 1298.93"><g id="Layer_1-2"><path id="Path_10468" d="M371.68,405.31c2.47-2.47,0-6.79-6.19-12.98-1.54-1.85-3.78-2.97-6.19-3.09-3.09,0-4.95,1.85-4.95,5.56,.24,1.09,.66,2.14,1.24,3.1,2.67,5.04,1.38,11.27-3.09,14.83-138.52,195.41-204.69,303-198.5,322.79,1.24,4.34,5.56,7.43,12.99,7.43s11.74-1.85,11.13-6.19c-2.47-21.02,24.11-76.05,82.24-164.48,36.48-55.65,74.21-111.3,111.31-166.96"/><path id="Path_10469" d="M426.71,805.39c-2.3,.22-4.57,.63-6.79,1.24-5.1,2.1-10.56,3.15-16.08,3.09-12.36,0-25.35-6.79-39.58-21.02-12.98-12.99-27.21-37.11-42.67-72.97-11.5-25.14-20.21-51.47-25.97-78.51-.62-4.94,0-8.07,3.1-8.07,35.72-2.23,71.03-8.89,105.12-19.81,28.84-8.11,56.64-19.52,82.86-34.01,55.03-30.91,82.86-71.1,82.86-119.97,0-43.9-22.27-82.24-66.17-116.25-30.91-24.11-72.34-42.67-124.91-56.89-53.02-14.29-107.72-21.36-162.63-21.03-50.47-.74-100.76,6.37-149.05,21.06C22.29,296.47,.03,321.83,.03,359.55c-.57,18.66,6.07,36.82,18.55,50.7,3.71,3.71,5.56,4.95,6.8,4.95,.62,0,1.85,0,1.85-.62,0,0-3.09-6.79-9.27-19.81-5.53-11.6-8.48-24.26-8.66-37.11,0-31.55,20.41-55.03,60.6-66.77,46.01-13.31,93.73-19.77,141.62-19.17,54.38-.28,108.52,7.22,160.78,22.26,51.32,14.85,91.52,34.63,119.96,59.99,35.86,30.92,53.79,67.4,53.79,108.22,0,43.29-21.65,77.92-64.92,104.5-28.78,17.16-59.78,30.27-92.14,38.96-29.84,9.2-60.91,13.79-92.13,13.61-15.46-4.96-16.08-9.28-21.02-9.28-6.2-.67-11.78,3.82-12.44,10.03-.11,.99-.08,1.99,.07,2.97,0,14.21,11.74,45.14,35.22,91.52,23.48,46.37,41.43,74.21,53.18,83.48,17.93,13.6,33.39,20.4,46.37,20.41,8.9,0,17.65-2.34,25.35-6.81,2.47-1.24,4.33-2.47,4.95-4.33,.62-.62,0-1.24-1.86-1.86"/><path id="Path_10470" d="M853.64,681.51c-22.26,21.02-94.46,56.5-125.38,63.91-16.08,3.71-40.2,3.71-19.81-37.72,29.68-61.23-15.46,23.48,68.64-135.43,16.08-30.29-21.02-35.22-24.12-15.45-.65,3.67-9.16,20.66-19.91,42.78-5.89,2.41-12.07,4.03-18.38,4.84-26.59,3.09-76.68,3.09-121.8,3.09,40.81-6.19,75.45-22.87,88.43-45.76,13.6-24.13-6.19-66.77-37.11-55.03-57.51,21.63-155.84,121.8-160.16,212.09-1.23,32.16,37.11,60.61,61.83,56.27,30.3-5.56,65.55-26.58,82.87-38.96,6.8-4.95,1.86-8.07-4.95-4.33-25.74,14.99-54.05,25.06-83.48,29.69-21.02,2.47-43.29-6.19-41.43-42.67,2.47-38.96,27.82-76.06,46.37-100.8,49.47,0,141.62,0,169.44-4.33,4.48-.63,8.88-1.73,13.13-3.26-19,39.55-41.88,90.16-42.25,113.95-.62,30.3,33.75,41.74,49.09,35.88,35.87-16.07,102.89-51.56,122.67-71.34,9.27-9.27,10.51-21.65-3.71-7.42m-210.68-152.53c24.74-13.6,40.81,.62,23.48,27.22-19.81,29.69-71.11,51.32-114.39,51.32,27.82-30.3,60.6-61.21,90.9-78.51"/><path id="Path_10471" d="M777.73,520.94c6.19,1.24,13.61-2.47,22.88-11.13,8.19-5.99,14.26-14.44,17.32-24.12,2.47-7.42-8.07-16.69-16.7-14.84-9.06,3.28-16.99,9.06-22.88,16.69-9.89,9.89-14.23,17.32-14.23,22.89,0,4.95,4.34,8.65,13.61,10.51"/><path id="Path_10472" d="M1138.25,755.81c-4.07-.58-6.98-1.16-9.89-1.75-2.33-2.94-3.49-4.65-3.49-6.4-.58-41.29,17.45-96.55,54.09-167.51,16.88-33.15,34.31-63.38,51.18-93.05,12.8,.58,26.17,.58,40.71,.58,149.48,0,302.43-36.64,457.72-109.33,42.46-19.81,74.45-44.2,95.96-72.12,18.81-23.01,29.27-51.73,29.66-81.45,0-37.8-16.28-70.38-47.69-97.14-35.16-28.36-79.31-43.21-124.46-41.88-30.74,.43-61.19,5.95-90.13,16.31-91.32,31.99-180.87,104.11-269.29,217.52-17.45,22.11-37.22,50.03-59.32,83.18h-1.17c-37.8,8.14-66.3,22.09-85.5,43.04-2.71,2.56-4.19,6.16-4.07,9.88,0,12.21,10.46,26.17,20.93,27.34,5.7,1.59,11.55,2.57,17.45,2.94-13.38,22.09-27.34,46.52-41.88,72.12-10.39-3.23-21.13-5.18-31.98-5.81-8.18-.03-16.28,1.55-23.85,4.65-29.09,11.04-63.98,36.64-105.27,75.58-45.94,43.61-68.63,77.93-68.63,104.09,0,13.38,6.98,19.81,21.51,19.81,1.99-.05,3.96-.44,5.82-1.17,24.42-9.88,56.41-33.15,95.39-68.05,28.88-25.58,55.72-53.39,80.26-83.16,.66-1.34,1.98-2.22,3.47-2.33,4.66,0,5.24,2.94,2.94,9.88-22.69,59.91-33.75,100.04-33.75,122.71-.22,9.39,2.2,18.66,6.98,26.75,2.74,4.27,8.27,5.78,12.8,3.49,2.03-.69,3.7-2.15,4.65-4.07,1.16-2.94,.58-4.07-1.17-4.65M1595.36,109.1c26.32-11.11,54.6-16.85,83.17-16.88,40.71-.57,80.58,11.63,113.99,34.9,32.58,22.67,48.88,50.58,48.88,83.72,0,51.77-40.13,101.21-120.98,147.73-136.63,80.14-292.35,121.93-450.74,120.98-12.8,0-23.85,0-34.32-.58,114.58-193.71,234.39-316.4,360.02-369.91m-400.7,365.24c-8.72-1.17-12.8-5.23-12.8-11.62-.06-3.89,1.4-7.64,4.07-10.46,19.59-21.74,45.37-36.96,73.87-43.61-13.38,20.93-27.34,44.19-43.05,68.63-7.41-.58-14.79-1.56-22.09-2.94m-54.67,123.31c-42.69,50.13-92.22,94-147.15,130.32-2.8,1.76-6,2.77-9.3,2.94-6.4,0-9.89-4.65-9.89-12.79,.14-4.42,1.14-8.76,2.94-12.8,10.47-24.43,29.67-51.77,59.91-82.01,30.24-29.65,54.09-47.69,74.45-52.34,4.96-1.12,10.03-1.71,15.12-1.75,13.94,0,20.93,4.65,20.93,13.38-.53,5.69-2.99,11.03-6.98,15.13"/><path id="Path_10473" d="M1440.07,578.73c-12.63,10.64-27.9,17.67-44.19,20.35-25.01,2.94-72.12,2.94-114.58,2.94,38.39-5.81,70.96-21.51,83.17-43.04,12.8-22.69-5.82-62.82-34.9-51.76-54.09,20.35-146.56,114.58-150.63,199.48-1.17,30.25,34.9,57.01,58.16,52.92,28.5-5.23,61.64-25,77.94-36.64,6.4-4.65,1.75-7.56-4.66-4.07-24.21,14.1-50.84,23.56-78.51,27.92-19.78,2.33-40.71-5.81-38.96-40.13,2.33-36.64,26.17-71.53,43.61-94.8,46.54,0,133.19,0,159.37-4.07,18.49-3.66,35.37-13.01,48.27-26.75,4.07-5.23-.59-7.57-4.08-2.33m-111.66-50.63c23.27-12.79,38.38,.58,22.1,25.59-18.61,27.88-66.88,48.27-107.59,48.27,26.17-28.5,57-57.57,85.49-73.86"/><path id="Path_10474" d="M1984.3,724.83c39.08-16,76-36.82,109.91-61.98-25.6,38.52-38.43,69.17-38.85,91.72,0,12.72,15.75,23.63,27.28,21.81,35.76-4.85,76.99-28.48,124.26-69.11,47.89-41.22,71.53-76.37,73.96-106.67-.4-2.28-1.01-4.51-1.82-6.67-.61-1.15-.61-2.52,0-3.67,3.67-4.85,11.52-7.27,24.21-7.27,6.07,0,9.09-1.82,9.09-3.67,0-1.21-3.03-2.42-9.09-2.42-33.94-1.21-60.62-1.82-78.81-2.42-1.49-.67-2.91-1.48-4.24-2.42-11.51-6.67-20.61-11.52-27.27-10.91-10.2,1.13-19.66,5.85-26.68,13.33-1.99,1.34-4.28,2.17-6.66,2.42-7.68-.33-15.38-.13-23.03,.61-18.79,.61-17.61,6.06-17.61,8.48,0,4.85,9.09,10.32,16.36,14.56,1.82,.61,2.43,3.03,1.22,5.45-9.07,11.11-17.31,21.71-24.85,31.9-38.83,30.94-82.22,55.67-128.63,73.33-58.61,24.8-121.3,38.58-184.91,40.64-52.41,1.17-92.45-8.84-121.31-29.45-23.46-15.82-37.4-42.37-37.1-70.67-.08-9.77,1.31-19.5,4.12-28.86,18.26-59.47,68.31-120.13,150.16-181.97,78.32-58.29,150.17-93.04,216.12-105.4,9.74-1.57,19.58-2.36,29.45-2.36,31.79,0,51.23,7.65,58.3,23.55-19.05,21.08-36.01,43.96-50.63,68.31-22.37,35.33-33.57,64.78-33.57,85.98,0,1.17,3.53,2.94,9.43,4.12,3.3,.67,6.7,.67,10,0,21.82-12.74,41.33-29.06,57.72-48.28,27.68-31.8,36.51-56.5,36.51-87.15,0-15.32-2.36-26.5-8.25-33.57,3.12-3.31,5.7-7.08,7.65-11.18,.23-1.92-1.04-3.7-2.94-4.12-1.77-.59-3.53-.59-4.12,1.77l-7.65,7.65c-12.96-11.78-34.74-17.68-64.2-17.68-10.62,.02-21.24,.61-31.8,1.77-42.4,5.31-94.22,24.74-156.64,58.3-60.59,31.96-116.14,72.65-164.88,120.77-50.63,51.22-75.96,97.76-75.96,141.34,0,35.95,18.84,64.78,56.5,87.74,37.29,21.32,79.53,32.49,122.49,32.4,58.88,1.17,121.31-12.95,186.68-40.04m189.88-124.21c5.45-3.67,9.09-6.06,10.27-5.45,16.27-5.97,33.76-7.84,50.92-5.47,17.61,1.82,26.06,8.5,23.04,21.23-6.06,29.1-29.09,61.83-69.71,98.21-38.79,35.75-71.52,55.16-98.81,59.43-12.73,2.42-19.4-1.21-19.4-10.9,.07-4.69,1.33-9.28,3.67-13.35,22.73-54.46,56.83-103.44,100.02-143.66m-66.77-207.92c.02,12.57-2.59,25.01-7.65,36.51-13.24,31.07-35.63,57.36-64.19,75.38-1.57,1.18-3.73,1.18-5.3,0-1.17-.59-1.76-2.36-1.17-5.3,6.65-24.39,16.14-47.91,28.27-70.08,11.66-22.99,26.53-44.21,44.17-63.02,4.27,8.16,6.3,17.31,5.87,26.5"/><path id="Path_10475" d="M2951.62,634.33l-.58-.58c-62.72,9.87-123.22,30.69-178.73,61.5-8.1-5.59-14.84-12.92-19.73-21.46-6.26-8.88-10.61-18.96-12.78-29.6-2.9-19.16,14.51-41.2,51.07-66.16,29.59-20.88,55.13-33.66,76.61-38.89,4.22-.73,8.49-1.11,12.77-1.16,13.1,.79,26.01,3.52,38.3,8.12,5.22,1.74,20.89-8.7,26.11-16.25,1.74-1.74,1.74-4.06,0-7.54-1.45-2.11-3.82-3.41-6.38-3.49-42.95-.58-92.85,15.66-147.99,48.16-13.06,7.64-25.66,16.04-37.73,25.16-6.68,3.13-13.8,5.21-21.11,6.19-24.76,2.88-71.44,2.88-113.48,2.88,38.02-5.75,70.28-21.28,82.37-42.62,12.68-22.47-5.75-62.22-34.56-51.27-43.51,16.36-112.08,80.99-138.48,149.74-13.69,3.09-34.58,8.31-63,15.68,17.82-24.73,26.42-47.14,26.42-66.69,0-25.3-13.8-37.95-41.39-37.94-25.94,1.13-51.46,6.98-75.31,17.24,29.35-50.01,50.93-85.12,73.93-118.44,4.6-6.91,6.89-5.76,6.89-8.63s-2.3-3.45-7.48-1.72c-7.71,2.15-14.8,6.09-20.69,11.51-39.67,59.79-64.15,98.32-83.13,127.68-18.4,7.47-28.18,14.37-30.47,20.69-1.15,4.59,2.3,10.36,9.78,17.26-16.67,29.89-32.2,60.36-48.87,89.68-17.82,31.05-23.57,45.99-37.94,73.59-66.33,1.43-132.21,11.29-196.05,29.35-93.71,25.3-171.89,66.12-233.99,120.15-61.51,52.9-91.41,113.26-91.41,181.68-1.16,44.11,13.99,87.1,42.56,120.73,24.98,32,63.46,50.51,104.06,50.03,27.63-.34,54.73-7.66,78.77-21.28,98.88-54.03,196.65-196.05,289.18-426.58,6.33-15.53,12.08-31.05,18.4-45.43,12.68-.8,25.4-.22,37.95,1.72,18.98,1.72,25.87,10.36,25.87,24.15,0,16.68-10.93,35.65-33.92,56.93-4.02,2.87-5.75,5.14-5.75,7.47,0,.57,.57,.57,1.15,.57,2.3,0,4.59-1.14,8.62-4.6,19.55-15.53,32.2-28.18,37.37-37.94,1.9-3.95,2.88-8.28,2.88-12.66-.25-21.46-16.12-39.54-37.37-42.56-11.24-1.48-22.58-2.05-33.91-1.72,51.17-108.08,85.12-144.88,113.84-194.32,28.74-14.96,51.17-23,68.97-23,22.99,0,34.49,10.35,34.49,31.05-.91,26.01-11.36,50.77-29.35,69.57-73.02,24.16-114.98,39.1-124.74,45.42-1.58,1.48-2.42,3.59-2.3,5.75,0,8.63,4.02,12.09,12.08,10.93,45.61-3.8,88.67-22.61,122.45-53.48,29.61-10.16,56.13-18.61,79.1-25.38-4.75,13.35-7.59,27.31-8.42,41.46-1.15,29.96,34.56,56.5,57.61,52.41,28.23-5.18,61.07-24.76,77.2-36.29,6.33-4.61,1.72-7.48-4.62-4.03-23.99,13.96-50.36,23.34-77.78,27.66-19.58,2.3-40.36-5.76-38.6-39.75,1.43-16.34,6-32.25,13.46-46.87l.92-.26c1.51-.41,2.9-1.21,4.02-2.3,.48-.36,.57-1.03,.21-1.51-.06-.08-.13-.15-.21-.21-.84-.37-1.78-.46-2.68-.26,7.97-14.9,17.16-29.12,27.47-42.5,46.09,0,131.92,0,157.85-4.03,1.55-.21,3.08-.51,4.61-.84-18.34,17.43-26.73,33.56-24.69,48.49,1.75,11.51,6.56,22.33,13.94,31.34l18.57,24.95c-45.26,31.35-71.38,51.06-78.34,59.77-2.9,4.65-2.32,6.98,3.49,7.56,7.04,.36,14.1-.43,20.89-2.33,3.94,1.27,8.06,1.86,12.2,1.75,18.4-1.31,36.35-6.24,52.83-14.52,25.53-11.01,38.3-21.46,38.3-32.5,0-5.22-4.06-13.94-13.94-27.27,61.51-35.4,118.39-58.62,172.35-69.06m-736.82,214.32c-16.67,37.37-33.92,76.47-50.63,112.68-27.04,61-59.76,119.32-97.74,174.19-44.85,65.55-89.12,109.81-131.66,132.81-21.29,11.78-45.23,17.91-69.56,17.82-37.45,.54-73.46-14.44-99.47-41.39-28.69-26.94-44.75-64.69-44.26-104.05,0-64.97,35.65-125.91,104.63-185.71,62.66-53.47,138.74-93.71,228.24-120.73,57.97-17.87,118.15-27.54,178.8-28.75-7.48,17.26-13.21,31.63-18.4,43.13m449.84-320.61c23.05-12.66,38.02,.57,21.89,25.35-18.43,27.66-66.24,47.81-106.57,47.81,25.92-28.23,56.46-57.02,84.68-73.16m98.39,220.58c-4.06,5.8-14.5,10.44-30.17,16.25-16.25,5.8-28.44,8.12-35.4,6.38-4.06-.58-5.23-2.94-2.32-6.38,3.48-5.8,13.34-13.34,28.43-24.37,13.35-9.88,22.63-16.26,28.44-19.74,8.7,8.12,13.34,15.08,13.34,21.48-.07,2.32-.88,4.55-2.32,6.38"/><path id="Path_10476" d="M305.82,61.31l-20.85,140.15c-.88,6,3.25,11.59,9.25,12.52,58.37,9.37,115.49,25.38,170.23,47.69,87.41,36.42,135.91,79.77,152.7,96.71,2.08,2.11,4.92,3.3,7.88,3.3,.41,0,.82-.03,1.23-.07,3.33-.34,6.33-2.18,8.14-5,26.42-41.82,61.58-91.49,81.15-105.43l.37-.26c12.67,12.16,32.8,11.74,44.96-.93,12.16-12.67,11.74-32.8-.93-44.96s-32.8-11.74-44.96,.93c-8.81,9.18-11.3,22.73-6.33,34.44-14.68,.46-79-1.65-104.4-70.35,16.17,2.42,31.24-8.72,33.66-24.89,2.42-16.17-8.72-31.24-24.89-33.66s-31.24,8.72-33.66,24.89c-1.19,7.93,.89,16.01,5.77,22.38-24.37,1.92-90.17,1.12-123.64-57.17,.37,0,.73,.06,1.12,.06,16.37,.06,29.7-13.16,29.76-29.53,.06-16.37-13.16-29.7-29.53-29.76-16.37-.06-29.7,13.16-29.76,29.53-.03,8.36,3.47,16.35,9.64,21.99-64.3,31.93-104.19-10.87-118.82-31.55,16.97-4.09,27.4-21.17,23.31-38.13-4.09-16.97-21.17-27.4-38.13-23.31-16.97,4.09-27.4,21.17-23.31,38.13,2.5,10.36,10.05,18.76,20.09,22.35m432.28,146.55c11.06,0,20.03,8.97,20.03,20.03s-8.97,20.03-20.03,20.03c-11.06,0-20.03-8.97-20.03-20.03,.01-11.06,8.97-20.02,20.03-20.03m-129.63-84.65c9.69,0,17.54,7.85,17.54,17.54s-7.85,17.54-17.54,17.54c-9.69,0-17.54-7.85-17.54-17.54h0c.01-9.68,7.86-17.53,17.54-17.54M462.57,54.55c9.69,0,17.54,7.85,17.54,17.54s-7.85,17.54-17.54,17.54c-9.69,0-17.54-7.85-17.54-17.54h0c.02-9.68,7.86-17.53,17.54-17.54m-13.46,49.51c38.94,72.86,121.58,68.47,142.42,66.09,14.24,46.69,56.24,79.42,104.99,81.83-25.84,26.2-59.81,78.47-71.68,97.24-18-17.98-67.73-61.85-155.82-98.55-55.34-22.57-113.07-38.8-172.07-48.37l19.3-129.69c47.2,66.38,113,41.24,132.86,31.46M316.43,11.99c10.83-.02,19.62,8.74,19.64,19.57,.02,10.83-8.74,19.62-19.57,19.64-10.83,.02-19.62-8.74-19.64-19.57v-.04c.02-10.82,8.78-19.59,19.61-19.61"/></g></svg>