<?xml version="1.0" encoding="UTF-8"?><svg id="Layer_2" xmlns="http://www.w3.org/2000/svg" viewBox="0 0 1473.13 151.43"><g id="Layer_1-2"><g id="Group_2" transform="translate(0 0.001)"><g id="Group_1" transform="translate(0 -0.001)"><path id="Path_1" d="M147.95,106.44l26.43,42.85H108.72l-20.71-34.97H55.43v34.97H0V.06H117.26c30.2-1.36,55.78,22.03,57.14,52.23,.07,1.64,.07,3.27,0,4.91,.75,19.99-9.36,38.82-26.43,49.24M55.43,67.42h51.17c5.56,0,12.36,0,12.36-10.19s-6.82-10.19-12.36-10.19H55.43v20.38Z"/><path id="Path_2" d="M274.56,151.42c-65.66,0-93.8-24.94-93.8-76.96V.07h55.43V74.46c0,15.99,5.75,30.06,38.38,30.06s38.38-14.29,38.38-30.06V.07h55.39V74.46c0,51.81-28.35,76.96-93.8,76.96"/><path id="Path_3" d="M569.17,.06V149.29h-72.48l-64.38-88.02v88.02h-55.43V.06h72.49l64.38,88.02V.06h55.42Z"/><path id="Path_4" d="M646.11,74.68L575.57,.06h72.48l37.52,42.62L723.09,.06h72.48l-70.56,74.61,70.56,74.61h-72.48l-37.52-42.62-37.52,42.62h-72.48l70.54-74.6Z"/><path id="Path_5" d="M1111.48,.06l-49.04,149.23h-82.29l-24.52-85.91-24.52,85.91h-82.29L799.8,.06h59.48l30.94,105.31L922.6,.06h66.09l32.43,105.31L1052,.06h59.48Z"/><path id="Path_6" d="M1205.68,122.43h-63.53l-10.19,26.87h-60.97L1132.79,.06h82.29l61.83,149.23h-60.97l-10.26-26.86Zm-14.52-38.38l-17.27-45.62-17.27,45.62h34.54Z"/><path id="Path_7" d="M1227.84,.06h63.93l39.65,55.43L1371.1,.06h63.93l-75.9,100.2v49.03h-55.43v-49.03L1227.84,.06Z"/><rect id="Rectangle_1" x="1405.97" y="82.13" width="55.83" height="55.83" transform="translate(449.52 1158.45) rotate(-51.19)"/></g></g></g></svg>