<svg xmlns="http://www.w3.org/2000/svg" viewBox="0 0 90.69 89.18"><defs><style>.cls-1{fill:#fff;}</style></defs><g id="Capa_2" data-name="Capa 2"><g id="Capa_2-2" data-name="Capa 2"><path class="cls-1" d="M18.66,8.64,21,8.56,21,9.67,18.52,10Zm1.81.26,1,.41L20.37,11.4l-1.28-.48Zm.09-2,1,1.9-1.12.69L19.17,7.73Zm-.14,2.59,1.12-.69L22.8,10.5l-1.39.86Zm1.09-.14-1-.41,1.15-2.09,1.27.48Zm1.8.27-2.37.08L21,8.56l2.43-.33Z"/><path class="cls-1" d="M31.2,2.05,35,1.24a5.94,5.94,0,0,1,2.39-.08,3.18,3.18,0,0,1,1.73.9,3.68,3.68,0,0,1,.93,1.87h0A4,4,0,0,1,40,6.06a3.32,3.32,0,0,1-1.2,1.59,5.53,5.53,0,0,1-2.21.93l-3.8.82ZM35.83,7a2.55,2.55,0,0,0,1.05-.46,1.48,1.48,0,0,0,.53-.81,2.58,2.58,0,0,0,0-1.17h0a2.17,2.17,0,0,0-.46-1A1.54,1.54,0,0,0,36.11,3,2.45,2.45,0,0,0,35,3l-.82.18L35,7.12Z"/><path class="cls-1" d="M41.19.19,47.6,0l0,1.75-3.74.11,0,1.19L47.45,3l0,1.62L44,4.68l0,1.19,3.74-.11,0,1.75-6.41.19Z"/><path class="cls-1" d="M50.19,7.61a3,3,0,0,1-1.21-1,2,2,0,0,1-.34-1.32v-.1l2.43.36v0a.69.69,0,0,0,.21.39,1.73,1.73,0,0,0,.48.31,2.7,2.7,0,0,0,.68.19,2.3,2.3,0,0,0,.69,0,1,1,0,0,0,.48-.16.46.46,0,0,0,.2-.3h0a.44.44,0,0,0-.24-.44,5,5,0,0,0-1-.4l-.89-.27a4.38,4.38,0,0,1-1.94-1.05,1.76,1.76,0,0,1-.51-1.52h0a1.9,1.9,0,0,1,.66-1.22A3.14,3.14,0,0,1,51.33.49a5.76,5.76,0,0,1,2,0,6.37,6.37,0,0,1,2,.58A2.79,2.79,0,0,1,56.4,2a2,2,0,0,1,.3,1.28v.11l-2.43-.36V3a.59.59,0,0,0-.14-.38,1.27,1.27,0,0,0-.43-.3,2.61,2.61,0,0,0-.63-.18,2.17,2.17,0,0,0-.62,0,.82.82,0,0,0-.4.16.42.42,0,0,0-.17.29h0a.43.43,0,0,0,.25.43,3.78,3.78,0,0,0,.94.38l.88.27a5.13,5.13,0,0,1,2,1,1.69,1.69,0,0,1,.49,1.52h0a2.1,2.1,0,0,1-.66,1.26,3,3,0,0,1-1.48.67,6.49,6.49,0,0,1-2.16,0A7,7,0,0,1,50.19,7.61Z"/><path class="cls-1" d="M59,1.71l2.53.86L59.66,8,63,9.18l-.57,1.65-5.9-2Z"/><path class="cls-1" d="M66.29,4.45l2.39,1.2L65.3,12.36l-2.38-1.2Z"/><path class="cls-1" d="M66.79,11.42l5.83-1.13,0,0L69.4,7.9l1-1.41,5.77,4.18-.81,1.12-5.82,1.14,0,0,3.39,2.47-1,1.41L66,12.54Z"/><path class="cls-1" d="M79.72,14.29l1.6,1.95-1.38,1.14-.55-.67L73.83,19,72,16.79Zm-3.79,2.42,2.83,3.43-.85,1.42-3.53-4.29Zm3.49,0,1.38-1.14,1,1.27L78,24l-1.79-2.17Z"/><path class="cls-1" d="M84.77,21.05l1.71,3.72A5.81,5.81,0,0,1,87,26.69a2.58,2.58,0,0,1-.28,1.47,2.32,2.32,0,0,1-1.11,1h0a2.21,2.21,0,0,1-1.34.17,2.26,2.26,0,0,1-1.21-.61l-1.82,2.74L80,28.72l1.64-2.34,0-.05,0-.06-.31-.69-2.25,1L78,24.19ZM83.19,26a1.34,1.34,0,0,0,.59.68.78.78,0,0,0,.74,0h0a.81.81,0,0,0,.47-.59,1.38,1.38,0,0,0-.13-.89l-.46-1-1.69.77Z"/><path class="cls-1" d="M89.7,35.14l.37,2.49-1.77.26L88.18,37l-5.93-1-.41-2.78Zm-1.52,1.94L90,36.82l.25,1.63-7,4-.41-2.78Zm-3-1.83.66,4.4-1.46.78-.82-5.5Z"/><path class="cls-1" d="M84.66,44.19l0,2.48a1.86,1.86,0,0,0,.19,1,.71.71,0,0,0,.6.35h0a.67.67,0,0,0,.44-.15.93.93,0,0,0,.29-.45,2.54,2.54,0,0,0,.1-.74l0-2.42,1.33,0,0,2.29a1.64,1.64,0,0,0,.2.91.66.66,0,0,0,.57.32h0a.61.61,0,0,0,.54-.29,1.33,1.33,0,0,0,.21-.8l0-2.41,1.5,0,0,3.13a4.91,4.91,0,0,1-.26,1.6,2.22,2.22,0,0,1-.67,1,1.49,1.49,0,0,1-1,.33h0a1.28,1.28,0,0,1-.78-.26,1.8,1.8,0,0,1-.56-.68,2.67,2.67,0,0,1-.26-1h0a2.76,2.76,0,0,1-.27,1.12,2.08,2.08,0,0,1-.64.81,1.43,1.43,0,0,1-.89.3h0a1.71,1.71,0,0,1-1.13-.41,2.55,2.55,0,0,1-.73-1.13,4.46,4.46,0,0,1-.24-1.7l.06-3.28Zm6-1.22,0,2.67-7.51-.14.05-2.67Z"/><path class="cls-1" d="M87.56,56.44l1.74.44-.4,1.6-8,1.05.68-2.72Zm2.15-1.21-.61,2.44-1.74-.43.21-.85-5.11-3.14.69-2.73Zm-4.19-1.62-1.08,4.32-1.65.16,1.35-5.39Z"/><path class="cls-1" d="M80.37,60.64A2.74,2.74,0,0,1,81.79,60a2.57,2.57,0,0,1,1.53.31h0l-1.19,2.26h0a.92.92,0,0,0-.51-.13.73.73,0,0,0-.44.15,1.24,1.24,0,0,0-.34.4.94.94,0,0,0-.11.71.93.93,0,0,0,.5.52l4.31,2.28L84.3,68.87,80,66.57a2.41,2.41,0,0,1-1.36-1.76,4.21,4.21,0,0,1,.59-2.65A4.92,4.92,0,0,1,80.37,60.64Z"/><path class="cls-1" d="M76.26,67.73a3.62,3.62,0,0,1,2.06-.26,3.73,3.73,0,0,1,1.9,1h0a3.76,3.76,0,0,1,1.15,1.81,3.62,3.62,0,0,1-.08,2.08,5.9,5.9,0,0,1-1.3,2.1,5.61,5.61,0,0,1-2,1.48,3.62,3.62,0,0,1-2.06.27,3.77,3.77,0,0,1-1.9-1h0a3.74,3.74,0,0,1-1.14-1.81A3.58,3.58,0,0,1,73,71.33a5.73,5.73,0,0,1,1.31-2.12A5.58,5.58,0,0,1,76.26,67.73Zm-1.15,3.6a1.68,1.68,0,0,0,.1,1,2.63,2.63,0,0,0,.66.92h0a2.55,2.55,0,0,0,1,.59,1.65,1.65,0,0,0,1,0,2,2,0,0,0,1.33-1.44,1.59,1.59,0,0,0-.09-1,2.46,2.46,0,0,0-.67-.93h0a2.51,2.51,0,0,0-1-.59,1.78,1.78,0,0,0-1,0,2,2,0,0,0-.85.55A1.88,1.88,0,0,0,75.11,71.33Z"/><path class="cls-1" d="M67.37,79.54l2.37-.09-.09,1.11-2.43.34Zm1.8.26,1,.42-1.14,2.09-1.28-.48Zm1.09-.14-1.12.69-1.26-1.72,1.39-.86Zm-.13,2.59-1-1.9,1.12-.69,1.25,1.73Zm.08-2-1-.42,1.14-2.08,1.28.47Zm1.81.25-2.38.09.09-1.11,2.43-.33Z"/><path class="cls-1" d="M62.05,86.25l-3.76,1a5.93,5.93,0,0,1-2.38.21,3.22,3.22,0,0,1-1.78-.81,3.76,3.76,0,0,1-1-1.82h0a4,4,0,0,1,0-2.13,3.38,3.38,0,0,1,1.11-1.65,5.59,5.59,0,0,1,2.16-1l3.75-1Zm-4.9-4.64a2.45,2.45,0,0,0-1,.52,1.44,1.44,0,0,0-.48.83,2.4,2.4,0,0,0,.08,1.17h0a2.09,2.09,0,0,0,.51,1,1.5,1.5,0,0,0,.85.45,2.53,2.53,0,0,0,1.11-.07l.81-.22-1-3.87Z"/><path class="cls-1" d="M52.2,88.65l-6.39.53-.15-1.74,3.73-.32-.1-1.19-3.49.29-.14-1.62,3.5-.29-.1-1.19-3.73.32-.15-1.75,6.4-.53Z"/><path class="cls-1" d="M42.8,81.72a3,3,0,0,1,1.26.91,2,2,0,0,1,.42,1.3V84L42,83.8v0a.62.62,0,0,0-.23-.38,1.59,1.59,0,0,0-.5-.28,2.34,2.34,0,0,0-.68-.15,2.27,2.27,0,0,0-.7,0,1.08,1.08,0,0,0-.46.18.47.47,0,0,0-.19.32h0a.45.45,0,0,0,.27.42,4.68,4.68,0,0,0,1,.35l.9.22a4.34,4.34,0,0,1,2,.94,1.75,1.75,0,0,1,.59,1.49h0a1.87,1.87,0,0,1-.59,1.25,3.12,3.12,0,0,1-1.4.73,5.85,5.85,0,0,1-2,.13,6.61,6.61,0,0,1-2-.47,2.84,2.84,0,0,1-1.19-.91,1.93,1.93,0,0,1-.37-1.26v-.12l2.45.23v.05a.53.53,0,0,0,.17.37,1.24,1.24,0,0,0,.44.28,2.24,2.24,0,0,0,.64.14,2,2,0,0,0,.62,0,.79.79,0,0,0,.39-.18.44.44,0,0,0,.15-.3h0a.42.42,0,0,0-.27-.42,4.11,4.11,0,0,0-1-.33l-.9-.22a4.86,4.86,0,0,1-2.09-.93,1.66,1.66,0,0,1-.57-1.49h0a2,2,0,0,1,.59-1.3,3,3,0,0,1,1.43-.75,6.48,6.48,0,0,1,2.16-.11A6.86,6.86,0,0,1,42.8,81.72Z"/><path class="cls-1" d="M34.38,88.12,31.8,87.4l1.54-5.55L29.9,80.9l.46-1.69,6,1.66Z"/><path class="cls-1" d="M26.92,85.82l-2.46-1,2.94-6.91,2.46,1Z"/><path class="cls-1" d="M26,78.89l-5.74,1.52,0,0,3.4,2.13-.93,1.48-6-3.78.73-1.17,5.73-1.54,0,0-3.55-2.23.93-1.48,6.2,3.89Z"/><path class="cls-1" d="M13,74.47l-1.3,1.23-1.14-1.19L14,67.18l1.94,2Zm-.12,2.47-1.74-1.83,1.29-1.24.6.63,5.39-2.64,1.94,2Zm3.6-2.69L13.44,71l.74-1.47,3.84,4Z"/><path class="cls-1" d="M7.36,70.53l-2-3.59a5.8,5.8,0,0,1-.69-1.88,2.61,2.61,0,0,1,.18-1.49,2.35,2.35,0,0,1,1-1h0a2.23,2.23,0,0,1,1.32-.26,2.35,2.35,0,0,1,1.25.52l1.63-2.85,1.43,2.62L10.09,65l0,0,0,.06.36.66,2.16-1.18L14,66.94Zm1.25-5A1.41,1.41,0,0,0,8,64.9a.8.8,0,0,0-.74,0h0a.77.77,0,0,0-.43.61,1.39,1.39,0,0,0,.19.88l.53,1,1.63-.89Z"/><path class="cls-1" d="M2.91,54.73l-1.75.36L.82,53.47,7.58,49l.57,2.76Zm-1.4,2L1,54.29l1.76-.36.17.85,6,.61.57,2.75ZM6,56.39,5.08,52l1.41-.86,1.13,5.45Z"/><path class="cls-1" d="M6.12,47.41,6,44.93A1.82,1.82,0,0,0,5.78,44a.67.67,0,0,0-.62-.32h0a.72.72,0,0,0-.43.17,1,1,0,0,0-.26.47,2.69,2.69,0,0,0-.07.74l.1,2.42-1.33.05-.09-2.29a1.56,1.56,0,0,0-.24-.9A.66.66,0,0,0,2.24,44h0a.6.6,0,0,0-.52.32,1.4,1.4,0,0,0-.17.81l.09,2.41-1.51.05L0,44.5a5,5,0,0,1,.16-1.61,2.25,2.25,0,0,1,.61-1,1.51,1.51,0,0,1,1-.39h0a1.36,1.36,0,0,1,.79.21,2,2,0,0,1,.6.65,2.87,2.87,0,0,1,.31,1h0a2.85,2.85,0,0,1,.2-1.14,2.21,2.21,0,0,1,.6-.84A1.38,1.38,0,0,1,5.21,41h0a1.73,1.73,0,0,1,1.15.35,2.55,2.55,0,0,1,.8,1.09,4.65,4.65,0,0,1,.33,1.68l.13,3.28ZM.17,49,.07,46.3,7.58,46l.1,2.67Z"/><path class="cls-1" d="M.43,36.73l.45-2.48,1.76.32-.16.85,5.31,2.8L7.29,41Zm2.06-1.36L.73,35.05,1,33.43l7.92-1.58-.5,2.77Zm2.23,2.69.79-4.37,1.63-.27-1,5.47Z"/><path class="cls-1" d="M9.38,30.69A2.75,2.75,0,0,1,8,31.44a2.57,2.57,0,0,1-1.55-.2h0l1-2.34h0A1,1,0,0,0,8,29a.83.83,0,0,0,.43-.18,1.16,1.16,0,0,0,.31-.43.9.9,0,0,0,.06-.71.89.89,0,0,0-.53-.49l-4.47-2,1.08-2.44,4.48,2a2.43,2.43,0,0,1,1.49,1.66,4.23,4.23,0,0,1-.4,2.69A5.08,5.08,0,0,1,9.38,30.69Z"/><path class="cls-1" d="M13,23.35a3.62,3.62,0,0,1-2,.4,3.74,3.74,0,0,1-2-.85h0a3.73,3.73,0,0,1-1.27-1.72,3.67,3.67,0,0,1-.06-2.08A5.78,5.78,0,0,1,8.75,16.9a5.65,5.65,0,0,1,1.89-1.62,3.63,3.63,0,0,1,2-.41,3.71,3.71,0,0,1,2,.85h0a3.75,3.75,0,0,1,1.27,1.73A3.57,3.57,0,0,1,16,19.53a5.77,5.77,0,0,1-1.15,2.2A5.72,5.72,0,0,1,13,23.35Zm.89-3.67a1.71,1.71,0,0,0-.17-1,2.49,2.49,0,0,0-.72-.86h0a2.45,2.45,0,0,0-1-.51,1.73,1.73,0,0,0-1,.06,2.06,2.06,0,0,0-1.22,1.53,1.7,1.7,0,0,0,.15,1,2.57,2.57,0,0,0,.74.87h0a2.45,2.45,0,0,0,1,.51,1.7,1.7,0,0,0,1.77-.67A1.85,1.85,0,0,0,13.85,19.68Z"/></g></g></svg>