<?xml version="1.0" encoding="UTF-8"?><svg id="Layer_2" xmlns="http://www.w3.org/2000/svg" viewBox="0 0 481.21 717.54"><g id="Layer_1-2"><g><path d="M156.83,318.26c-.64-27.3-3.75-54.3-8.1-81.17-5.47-33.86-12.38-67.43-22.52-100.22-5.84-18.9-8.93-38.12-8.58-57.82,.36-20.21,3.06-40.04,12.43-58.36,1.41-2.76,3.04-5.47,4.91-7.94,7.74-10.21,17.32-14.9,30.6-11.8,43.25,10.1,74.41,35.78,96.24,73.69,11.1,19.26,18.57,39.92,23.32,61.63,.8,3.65-.88,5-3.53,5.61-1.96,.45-4.64,.63-6.16-.36-9.43-6.19-19.98-5.94-30.56-6.22-3.14-.08-6.46-1.01-9.28-2.39-1.69-.83-3.36-3.15-3.71-5.04-1.95-10.49-3.02-21.16-5.29-31.58-2.68-12.33-6.71-24.36-13.64-35.01-3.48-5.34-7.98-10.2-12.76-14.45-2.71-2.41-6.79-3.55-10.45-4.55-5.22-1.42-9.75,.47-11.62,5.55-1.99,5.41-3.49,11.24-3.81,16.97-1.08,19.31,1.53,38.44,5.54,57.22,8.77,41.06,18.37,81.94,27.52,122.92,8.13,36.37,8.09,72.53-4.09,108.1-6.73,19.66-17.5,36.66-35.13,48.52-12.22,8.22-25.82,12.04-40.46,12.77-13.51,.68-26.33-1.33-38-8.56-12.41-7.7-20.73-18.93-26.94-31.85-8.41-17.5-13.02-36.18-14.86-55.35-1.74-18.23-2.82-36.59-2.77-54.89,.05-16.29,1.95-32.59,3.22-48.87,.35-4.49,2.96-6.49,7.5-6.63,7.78-.24,11.61,2.25,12.05,10.01,.44,7.76-.66,15.62-1.27,23.42-2.94,37.37-2.05,74.35,11.83,109.86,5.44,13.93,13.39,26.23,26.21,34.66,6.59,4.34,13.64,7.38,21.8,6.23,8.39-1.18,14.34-5.95,18.64-13.03,5.9-9.71,8.33-20.54,9.56-31.61,1.09-9.78,1.46-19.64,2.15-29.46Z"/><path d="M421.09,94.28c-1.23,6.47-2.75,15.18-4.54,23.84-8.37,40.51-16.5,81.07-25.34,121.47-4.58,20.92-10.94,41.45-15.65,62.34-7.84,34.74-15.03,69.63-22.4,104.48-1.59,7.52-9.1,10.53-15.09,5.95-6.23-4.77-12.62-9.32-18.94-13.97-1.51-1.11-3.02-2.2-4.54-3.3-6.01-4.34-8.39-9.74-6.91-17.43,5.8-30.22,10.86-60.58,16.8-90.77,5.7-28.96,11.86-57.84,18.42-86.62,2.4-10.51,6.7-20.58,9.86-30.93,5.81-19.06,11.53-38.14,17.04-57.28,1.89-6.58,5.31-10.92,11.95-13.61,6.28-2.54,11.89-6.71,17.78-10.2,2.57-1.52,5.02-3.27,7.67-4.65,8.57-4.45,13.91-1.18,13.88,10.69Z"/><path d="M388.49,66.87c-5.69-.41-8-3.46-6.68-8.86,2.94-11.97,5.89-23.93,8.67-35.94,1.24-5.36,3.76-9.65,9.08-11.44,9.88-3.32,19.79-6.64,29.85-9.31,4.98-1.32,7.26,1.4,6.27,6.56-2.68,14.07-5.4,28.14-8.35,42.16-1.37,6.52-3.79,7.67-10.26,8.87-7.03,1.3-13.86,3.72-20.78,5.67-2.61,.74-5.21,1.52-7.82,2.29Z"/><path d="M319.82,619.36h-4.73v-17.47l-.66-.14c-.34,.72-.71,1.43-1,2.17-4.03,10.42-11.44,16.34-22.71,17.22-11.96,.93-21.63-2.83-27.82-13.6-5.56-9.68-7.07-20.44-7.63-31.32-.67-13.25-.4-26.48,3.67-39.28,3.55-11.16,9.78-19.88,22.03-22.7,20.66-4.76,38.27,9.82,36.76,30.74h-5.64c-.47-2.85-.76-5.81-1.48-8.66-2.59-10.32-9.1-16.35-18.86-17.68-9.78-1.34-18.32,2.92-23.45,11.95-4.81,8.46-6.04,17.83-6.73,27.35-.88,12.27-.39,24.44,2.55,36.41,.76,3.12,1.98,6.18,3.38,9.08,4.13,8.59,11.14,12.93,20.62,12.9,9.45-.04,16.44-4.4,20.72-12.88,4.89-9.7,5.2-20.1,4.7-31.06h-28.23v-4.63h34.5v51.62Z"/><path d="M55.28,587.6h5.61c.28,3.38,.34,6.62,.85,9.78,1.93,12.16,11.95,19.78,24.72,18.97,12.47-.79,21.99-9.94,22.62-21.75,.6-11.17-3.29-17.71-13.57-22.09-5.03-2.14-10.3-3.74-15.44-5.62-2.34-.85-4.69-1.69-6.97-2.7-13.22-5.89-18.17-15.42-15.6-29.96,2.05-11.59,11.74-19.79,24.7-20.58,3.58-.22,7.28-.15,10.81,.49,13.42,2.43,20.85,12.78,19.63,27.28h-5.57c-.2-1.61-.35-3.32-.62-5-1.93-11.99-7.63-17.18-19.69-17.99-16.49-1.1-27.13,11.8-22.78,27.63,1.89,6.87,6.64,11,12.99,13.44,6.74,2.59,13.64,4.77,20.37,7.38,14.88,5.75,19.87,15.33,17.41,31.79-1.94,12.97-13.52,22.19-27.46,22.46-4.08,.08-8.26-.18-12.24-1.02-10.81-2.28-18.43-10.8-19.7-21.79-.4-3.43-.06-6.94-.06-10.71Z"/><path d="M220.65,619.11q-5.92,.86-7.51-4.36c-2.49-8.1-5.07-16.17-7.43-24.31-.69-2.38-1.6-3.39-4.3-3.35-11.97,.18-23.94,.08-36.1,.08-2.86,9.35-5.67,18.52-8.48,27.69q-1.52,4.94-7.36,4.32c.34-1.42,.59-2.82,1.01-4.17,9.96-32.01,20.01-64,29.83-96.05,.99-3.24,2.57-3.79,5.54-3.86,2.97-.07,4.01,1.08,4.8,3.74,9.56,32.14,19.23,64.24,28.87,96.35,.39,1.29,.74,2.59,1.12,3.91Zm-34.88-96.59c-.29-.02-.57-.03-.86-.05-5.98,19.71-11.96,39.43-17.99,59.28h36.4c-5.92-19.97-11.74-39.6-17.56-59.23Z"/><path d="M360.5,619.32h-6.16c1.96-6.43,3.81-12.58,5.71-18.7,8.51-27.34,17.11-54.66,25.48-82.05,.98-3.22,2.76-3.38,5.43-3.43,2.62-.05,3.89,.61,4.7,3.35,9.68,32.59,19.51,65.13,29.29,97.69,.28,.94,.47,1.92,.7,2.88q-5.78,1.02-7.47-4.49c-2.45-7.97-5.01-15.92-7.29-23.94-.78-2.75-2.05-3.6-4.92-3.55-10.72,.2-21.45,.16-32.17,.02-2.53-.03-3.68,.62-4.42,3.18-2.79,9.68-5.88,19.28-8.89,29.04Zm47.96-37.46c-5.99-20.17-11.84-39.88-17.69-59.59l-.74,.12c-5.99,19.75-11.98,39.49-18.05,59.48h36.48Z"/><path d="M240.87,463.02c78.39,0,156.77,0,235.16,0,1.12,0,2.3-.2,3.35,.09,.71,.19,1.23,1.07,1.83,1.64-.61,.44-1.16,1.11-1.83,1.27-.95,.22-1.98,.08-2.98,.08-157.27,0-314.54,0-471.81-.06-1.6,0-4.62-1-4.59-1.28,.33-3.21,3-1.66,4.59-1.66,78.76-.09,157.52-.08,236.28-.08Z"/><path d="M114.27,656.22c8.06,0,15.78-.34,23.45,.1,6.56,.37,11.12,4.75,12.37,10.67,1.49,7.02-.68,12.41-6.45,16.11-.51,.33-.98,.7-1.55,1.11,9.43,4.27,12.91,12.55,9.41,22.17-1.83,5.01-5.58,8.31-10.67,8.85-8.72,.93-17.52,1.05-26.56,1.53v-60.55Zm8,53.9c4.29,0,8.39,.21,12.45-.05,5.49-.36,8.84-3.87,9.42-9.36,.62-5.83-1.98-10.98-7.1-12.08-4.73-1.02-9.72-.87-14.77-1.25v22.74Zm-.22-47.96c0,3.59,0,6.8,0,10.01,0,11.25,.06,11.3,11.34,9.63,6.09-.9,8.86-4.25,8.66-10.48-.18-5.46-3.41-8.75-9.29-9.13-3.34-.22-6.7-.04-10.7-.04Z"/><path d="M217.82,656.18c8.27,0,16.24-.3,24.18,.09,6.77,.34,11.4,4.8,12.8,11.19,1.64,7.48-1.05,14.5-6.84,17.93-.52,.31-1.02,.67-1.7,1.11,5.93,1.88,7.89,6.12,8.18,11.76,.3,5.9,1.04,11.77,1.64,18.15,.62-.43,.44-.2,.25-.19-8.79,.64-8.84,.64-9.8-8.05-.42-3.83-.35-7.73-.93-11.53-.76-4.96-3.18-6.88-8.12-6.97-3.72-.07-7.45-.01-11.78-.01v26.42h-7.88v-59.9Zm8.08,26.92c4.31,0,8.18,.29,12-.07,5.45-.52,8.5-4.28,8.88-10.23,.34-5.23-2.43-9.24-7.83-10.15-4.21-.71-8.57-.51-13.05-.73v21.18Z"/><path d="M375.37,656.08c5.78,20.08,11.49,39.88,17.35,60.25-2.62,0-4.74,.23-6.77-.11-.87-.15-1.93-1.34-2.24-2.28-1.25-3.78-2.36-7.61-3.28-11.48-.46-1.95-1.33-2.66-3.31-2.62-5.11,.1-10.22,.12-15.33,0-2.18-.06-3.06,.8-3.54,2.85-.76,3.27-2.04,6.42-2.72,9.7-.64,3.09-2.07,4.52-5.3,4-1.19-.19-2.43-.03-4.13-.03,.47-1.85,.76-3.26,1.18-4.63,5.37-17.36,10.84-34.68,16.07-52.08,.83-2.78,1.94-3.93,4.84-3.61,2.32,.25,4.7,.05,7.16,.05Zm-5.19,9.85c-.3,.02-.6,.05-.9,.07-2.78,9.09-5.55,18.18-8.37,27.4h17.05c-2.65-9.36-5.21-18.42-7.77-27.47Z"/><path d="M168.48,716.08v-59.75h33.11v6.3h-24.91v18.78h23.42v6.58h-23.43v21.7h25.95v6.39h-34.13Z"/><path d="M336.68,673.4h-8.09c-.24-1.24-.47-2.33-.67-3.41-1.06-5.62-3.81-8.38-8.97-8.99-5.31-.63-9.8,1.65-11.41,6.94-1.39,4.58-2.23,9.5-2.23,14.28,0,6.93,.29,14,1.7,20.75,1.49,7.14,7.85,10.08,14.39,7.88,4.7-1.58,6.13-5.51,6.97-9.81,.31-1.56,.34-3.18,.52-5.01h8.43c-.35,2.19-.53,4.17-.99,6.09-2.35,9.9-8.47,15.25-17.53,15.41-11.31,.21-17.71-4.17-20.3-14.76-2.71-11.05-2.78-22.31,.17-33.31,3.55-13.26,17.75-19.02,29.82-12.38,6.31,3.47,7.87,9.44,8.2,16.32Z"/><path d="M96.03,716.16h-7.45v-59.77h7.45v59.77Z"/><path d="M279.61,716.11h-7.61v-59.76h7.61v59.76Z"/><path d="M415.4,385.31c-1.82,7.35-3.74,15.13-5.76,23.32-4.16-.05-8.04-2.37-11.71-5.15-6.1-4.6-6.5-6.64-3.5-13.83,1.42-3.41,2.24-7.07,3.6-10.51,.36-.91,1.91-2.16,2.61-1.99,2.36,.57,4.71,1.47,6.82,2.68,2.66,1.52,5.07,3.47,7.94,5.48Z"/><path d="M231.01,377.39c7.46-2.15,10.85,6.03,17.2,7.3-2.04,8-4.02,15.79-6.1,23.97-6.53-.45-11.68-4.73-16.41-9.43-.92-.91-.55-3.64-.07-5.33,.8-2.85,2.3-5.5,3.25-8.32,.86-2.57,1.38-5.25,2.12-8.18Z"/><path d="M196.03,640.6c-3.45,4.23-6.1,7.96-9.3,11.14-1.08,1.08-3.53,.79-6.24,1.29,2.25-4.33,3.84-7.81,5.87-11,.58-.91,2.44-1.18,3.76-1.38,1.57-.23,3.2-.05,5.9-.05Z"/></g></g></svg>