<?xml version="1.0" encoding="UTF-8"?><svg id="Layer_2" xmlns="http://www.w3.org/2000/svg" viewBox="0 0 1191.55 1581.32"><defs><style>.cls-1,.cls-2{stroke:#000;stroke-miterlimit:10;}.cls-2{stroke-width:.25px;}</style></defs><g id="Layer_1-2"><g><g><path class="cls-1" d="M300.84,1397.16c0,20.27-7.49,37.72-22.46,52.35-14.98,14.63-32.95,21.94-53.91,21.94s-38.94-7.26-53.91-21.77c-14.98-14.51-22.46-32.02-22.46-52.52,0-15.43,4.55-29.49,13.65-42.15,9.1-12.67,20.9-21.77,35.42-27.3l1.38,3.11c-14.05,5.06-25.52,13.64-34.38,25.74-8.87,12.09-13.3,25.63-13.3,40.6,0,19.35,7.43,36.05,22.29,50.11,14.86,14.05,31.97,21.08,51.32,21.08,16.59,0,30.87-6.97,42.85-20.9,11.98-13.94,17.97-30.7,17.97-50.28s-5.36-34.96-16.07-47.52c-10.71-12.55-24.48-19.75-41.29-21.6-11.75-1.38-21.08-5.53-27.99-12.43-6.91-6.91-10.14-15.43-9.68-25.57,.46-9.45,3.92-17.5,10.37-24.19,6.44-6.69,14.39-10.02,23.84-10.02s17.51,3.34,24.19,10.02,10.02,14.74,10.02,24.19c0,5.53-1.38,10.83-4.15,15.9l-1.73-.69c2.53-4.61,3.8-9.56,3.8-14.86,0-8.76-3.11-16.3-9.33-22.64-6.22-6.33-13.71-9.5-22.46-9.5-5.76,0-10.66,2.54-14.69,7.61-4.03,5.07-6.05,11.98-6.05,20.73,0,17.05,8.41,26.38,25.23,27.99,20.5,2.07,37.55,11.17,51.14,27.3,13.59,16.12,20.39,34.56,20.39,55.29Z"/><path class="cls-1" d="M372.03,1468.35h-59.44v-210.44h52.87v3.11h-38.01v69.11h44.58v3.11h-44.58v132h44.58v3.11Z"/><path class="cls-1" d="M458.06,1468.35h-15.2l-12.78-72.91h-36.29l-12.79,72.91h-3.11l40.43-227.03,39.74,227.03Zm-28.33-76.02l-17.63-100.22-17.62,100.22h35.25Z"/><path class="cls-1" d="M695.8,1326.67c0,17.97-7.14,33.75-21.42,47.34-15.44,14.74-35.13,22.11-59.09,22.11h-24.53v72.22h-14.86v-210.1h39.39c22.12,0,41.06,6.74,56.85,20.22,15.77,13.47,23.67,29.54,23.67,48.2Zm-15.55,0c0-17.74-6.34-32.94-19.01-45.61-12.67-12.67-27.99-19.01-45.96-19.01h-24.53v130.28h24.53c17.97,0,33.29-6.39,45.96-19.18,12.67-12.79,19.01-28.27,19.01-46.48Z"/><path class="cls-1" d="M770.78,1468.35h-59.43v-210.44h52.87v3.11h-38.01v69.11h44.57v3.11h-44.57v132h44.57v3.11Z"/><path class="cls-1" d="M856.82,1468.35h-15.2l-12.79-72.91h-36.28l-12.79,72.91h-3.11l40.43-227.03,39.74,227.03Zm-28.34-76.02l-17.62-100.22-17.62,100.22h35.24Z"/><path class="cls-1" d="M1079.01,1502.21c0,20.27-10.49,30.41-31.45,30.41-35.93,0-63.47-19.47-82.59-58.4-5.31-15.66-10.6-31.33-15.9-47-9.22-20.73-22.69-31.1-40.43-31.1h-24.53v72.22h-14.86v-210.44h39.39c22.35,0,41.41,6.74,57.19,20.22,15.78,13.47,23.68,29.66,23.68,48.55,0,14.75-5.31,28.46-15.9,41.12-11.29,13.82-25.8,22.69-43.54,26.6,11.28,4.61,21.42,15.67,30.41,33.17,5.75,13.36,11.63,26.73,17.62,40.08,9.45,18.89,20.97,33.64,34.56,44.23,12.67,10.13,25.46,15.2,38.36,15.2,6.45,0,11.98-1.85,16.58-5.53,5.54-4.61,8.3-11.06,8.3-19.35,0-6.69-3-12.16-8.98-16.42-5.99-4.26-12.79-6.39-20.39-6.39v-3.11c8.06,0,15.5,2.48,22.29,7.43,6.79,4.95,10.2,11.11,10.2,18.49Zm-104.36-175.54c0-17.97-6.42-33.29-19.25-45.96-12.84-12.67-28.39-19.01-46.66-19.01h-24.63v130.62h24.63c18.27,0,33.82-6.39,46.66-19.18,12.83-12.79,19.25-28.27,19.25-46.48Z"/><path class="cls-1" d="M1064.84,1468.35h-59.43v-210.44h14.86v207.33h44.57v3.11Z"/></g><line class="cls-2" x1="224.48" y1="1548.54" x2="434.24" y2="1548.54"/><g><path class="cls-1" d="M491.66,1548.58c0,4.23-3.47,7.7-7.7,7.7-3,0-5.62-1.73-6.89-4.27v4.27h-.81v-28.91h.81v17.79c1.27-2.54,3.89-4.27,6.89-4.27,4.23,0,7.7,3.46,7.7,7.7Zm-.81-.04c0-3.81-3.08-6.89-6.89-6.89s-6.89,3.08-6.89,6.89,3.08,6.89,6.89,6.89,6.89-3.08,6.89-6.89Z"/><path class="cls-1" d="M502.33,1568.41c2.35,0,6.97-1.46,6.97-7.51v-8.12c-1.16,2.12-3.35,3.5-5.97,3.5-3.85,0-6.66-3.16-6.66-6.93v-8.08h.81v8.08c0,3.5,2.66,6.12,5.93,6.12s5.89-2.46,5.89-5.62v-8.58h.81v19.29c0,6.74-4.77,8.58-7.78,8.58v-.73Z"/><path class="cls-1" d="M545.9,1528.73c0-15.21,12.42-27.55,27.63-27.55,7.57,0,14.4,3.01,19.4,7.94l-1.03,.96c-4.7-4.63-11.17-7.42-18.37-7.42-14.48,0-26.08,11.61-26.08,26.08s11.61,26.08,26.08,26.08c6.91,0,13.81-2.87,18.52-7.64l1.03,1.03c-5.07,5.07-12.34,8.08-19.55,8.08-15.21,0-27.63-12.34-27.63-27.55Z"/><path class="cls-1" d="M630.55,1527.62v28.66h-1.54v-8.16c-2.42,4.85-7.42,8.16-13.15,8.16-8.08,0-14.7-6.61-14.7-14.7s6.61-14.7,14.7-14.7c5.73,0,10.73,3.31,13.15,8.16v-7.42h1.54Zm-1.54,13.89c0-7.27-5.88-13.15-13.15-13.15s-13.15,5.88-13.15,13.15,5.88,13.15,13.15,13.15,13.15-5.88,13.15-13.15Z"/><path class="cls-1" d="M637.54,1527.62h1.62l12.56,26.75,12.49-26.75h1.62l-13.37,28.66h-1.54l-13.37-28.66Z"/><path class="cls-1" d="M672.74,1519.25c0-.81,.66-1.47,1.47-1.47s1.47,.66,1.47,1.47-.66,1.47-1.47,1.47-1.47-.66-1.47-1.47Zm.81,8.38h1.54v28.66h-1.54v-28.66Z"/><path class="cls-1" d="M714.77,1527.62v28.66h-1.54v-8.16c-2.42,4.85-7.42,8.16-13.15,8.16-8.08,0-14.7-6.61-14.7-14.7s6.61-14.7,14.7-14.7c5.73,0,10.73,3.31,13.15,8.16v-7.42h1.54Zm-1.54,13.89c0-7.27-5.88-13.15-13.15-13.15s-13.15,5.88-13.15,13.15,5.88,13.15,13.15,13.15,13.15-5.88,13.15-13.15Z"/><path class="cls-1" d="M727.27,1527.62h1.54v7.42c2.5-5,7.64-8.16,13.3-8.16v1.54c-6.76,0-13.3,5.22-13.3,13.01v14.84h-1.54v-28.66Z"/><path class="cls-1" d="M772.98,1501.17h1.62l25.13,53.42,24.91-53.42h1.62l-25.72,55.11h-1.62l-25.94-55.11Z"/><path class="cls-1" d="M828.47,1541.58c0-8.08,6.61-14.7,14.7-14.7s14.7,6.61,14.7,14.7-6.61,14.7-14.7,14.7-14.7-6.61-14.7-14.7Zm27.85-.07c0-7.27-5.88-13.15-13.15-13.15s-13.15,5.88-13.15,13.15,5.88,13.15,13.15,13.15,13.15-5.88,13.15-13.15Z"/><path class="cls-1" d="M868.15,1501.1h1.54v55.18h-1.54v-55.18Z"/><path class="cls-1" d="M909.38,1527.62v36.81c0,12.86-9.11,16.39-14.84,16.39v-1.4c4.48,0,13.3-2.79,13.3-14.33v-16.97c-2.42,4.85-7.42,8.16-13.15,8.16-8.08,0-14.7-6.61-14.7-14.7s6.61-14.7,14.7-14.7c5.73,0,10.73,3.31,13.15,8.16v-7.42h1.54Zm-1.54,13.89c0-7.27-5.88-13.15-13.15-13.15s-13.15,5.88-13.15,13.15,5.88,13.15,13.15,13.15,13.15-5.88,13.15-13.15Z"/><path class="cls-1" d="M949.06,1527.62v28.66h-1.54v-8.16c-2.42,4.85-7.42,8.16-13.15,8.16-8.08,0-14.7-6.61-14.7-14.7s6.61-14.7,14.7-14.7c5.73,0,10.73,3.31,13.15,8.16v-7.42h1.54Zm-1.54,13.89c0-7.27-5.88-13.15-13.15-13.15s-13.15,5.88-13.15,13.15,5.88,13.15,13.15,13.15,13.15-5.88,13.15-13.15Z"/></g><g><path class="cls-1" d="M597.16,760.54c-90.09,0-163.39-73.3-163.39-163.39s73.3-163.39,163.39-163.39,163.39,73.3,163.39,163.39-73.29,163.39-163.39,163.39Zm0-323.83c-88.47,0-160.44,71.97-160.44,160.44s71.97,160.44,160.44,160.44,160.44-71.97,160.44-160.44-71.97-160.44-160.44-160.44Z"/><g><rect class="cls-1" x="595.68" y="12.91" width="2.95" height="1168.5"/><rect class="cls-1" x="12.91" y="595.68" width="1168.5" height="2.95"/><g><path class="cls-1" d="M1181.41,595.68l-593.67,1.55,212.67-80.08,.42,.09,380.59,78.44Zm-577.58-1.36l562.96,1.33-366.14-75.43-196.82,74.11Z"/><path class="cls-1" d="M800.39,674.4l-212.76-80.11,593.78,1.4,7.56,1.47-388.57,77.24Zm-196.47-77.12l196.72,74.07,365.96-72.75-562.68-1.32Z"/></g><g><path class="cls-1" d="M10.15,595.68l593.67,1.55-212.67-80.08-.42,.09L10.15,595.68Zm577.58-1.36l-562.96,1.33,366.14-75.43,196.82,74.11Z"/><path class="cls-1" d="M391.16,674.4l212.76-80.11-593.78,1.4-7.56,1.47,388.57,77.24Zm196.47-77.12l-196.72,74.07L24.95,598.6l562.68-1.32Z"/></g><g><path class="cls-1" d="M595.68,10.15l1.55,593.67-80.08-212.67,.09-.42L595.68,10.15Zm-1.36,577.58l1.33-562.96-75.43,366.14,74.11,196.82Z"/><path class="cls-1" d="M674.4,391.16l-80.11,212.76,1.4-593.78,1.47-7.56,77.24,388.57Zm-77.12,196.47l74.07-196.72L598.59,24.95l-1.32,562.68Z"/></g><g><path class="cls-1" d="M595.68,1181.41l1.55-593.67-80.08,212.67,.09,.42,78.44,380.59Zm-1.36-577.58l1.33,562.96-75.43-366.14,74.11-196.82Z"/><path class="cls-1" d="M674.4,800.39l-80.11-212.76,1.4,593.78,1.47,7.56,77.24-388.57Zm-77.12-196.47l74.07,196.72-72.75,365.96-1.32-562.68Z"/></g></g><g><polygon class="cls-1" points="418.43 774.62 417.02 773.21 775.88 417.02 777.29 418.43 418.43 774.62"/><polygon class="cls-1" points="775.26 773.91 417.02 418.43 418.43 417.02 776.67 772.51 775.26 773.91"/></g><path class="cls-1" d="M777.91,775.15l-124.44-28.34-55.8-148.21-.52,1.38-.52-1.38-55.8,148.21-124.44,28.34,28.35-122.65,.5-.19,148.49-55.91,.63-.63-.63-.63-148.99-56.1-.12-.52-28.23-122.13,124.44,28.34,55.51,147.44,.81,.81,.81-.81,55.51-147.44,124.44-28.34-28.35,122.65-.5,.19-148.49,55.91-.63,.63,.63,.63,148.99,56.1,.12,.52,28.23,122.13Zm-331.47-121.16l-27.39,118.51,120.29-27.4,55.32-146.92h-.03l-148.2,55.81Zm208.52,91.11l120.29,27.4-27.39-118.51-148.22-55.81,55.32,146.92Zm-208.52-207.55l148.22,55.81-55.32-146.92-120.29-27.4,27.39,118.51Zm208.52-91.11l-55.32,146.92h.02l148.2-55.81,27.39-118.51-120.29,27.4Z"/><circle class="cls-1" cx="597.16" cy="597.16" r="53.11"/><g><path class="cls-1" d="M652.59,193.71l27.02,123.99c95.1,28.11,170.09,103.53,197.57,198.9l123.68,26.95c-23.93-181.15-167.37-325.11-348.27-349.84Z"/><path class="cls-1" d="M676.79,877.45l-26.92,123.53c182.85-23.74,328.02-169.22,351.27-352.23l-123.37,26.88c-27.25,97.29-103.84,174.18-200.98,201.81Z"/><path class="cls-1" d="M316.25,674.54l-123.2-26.84c22.82,183.5,168.18,329.51,351.39,353.29l-26.92-123.53c-97.5-27.74-174.3-105.1-201.27-202.92Z"/><path class="cls-1" d="M514.7,317.7l27.02-123.99c-180.54,24.69-323.77,168.13-348.12,348.78l123.86-26.99c27.74-94.84,102.51-169.79,197.24-197.8Z"/><path class="cls-1" d="M872.74,515.63l4.44,.97c-27.48-95.37-102.47-170.79-197.57-198.9l.97,4.44c92.12,28,164.78,101.1,192.16,193.49Z"/><path class="cls-1" d="M677.76,873.01l-.97,4.44c97.13-27.63,173.73-104.52,200.98-201.81l-4.41,.96c-27.17,94.31-101.45,168.86-195.6,196.41Z"/><path class="cls-1" d="M513.73,322.14l.97-4.44c-94.73,28-169.5,102.95-197.24,197.8l4.44-.97c27.63-91.86,100.07-164.5,191.82-192.38Z"/><path class="cls-1" d="M320.63,675.49l-4.39-.96c26.98,97.81,103.78,175.18,201.27,202.92l-.97-4.44c-94.52-27.66-169.02-102.68-195.92-197.52Z"/><path class="cls-1" d="M541.72,193.71l.9-4.15c-183.47,24.42-329.09,170.25-353.17,353.83l4.15-.9c24.35-180.65,167.58-324.09,348.12-348.78Z"/><path class="cls-1" d="M193.05,647.69l-4.11-.9c22.53,186.42,170.28,334.82,356.4,358.32l-.9-4.14c-183.2-23.78-328.57-169.79-351.39-353.29Z"/><path class="cls-1" d="M1000.86,543.55l4.15,.9c-23.65-184.08-169.49-330.43-353.32-354.9l.9,4.15c180.9,24.73,324.34,168.69,348.27,349.84Z"/><path class="cls-1" d="M649.87,1000.99l-.9,4.14c185.77-23.46,333.31-171.34,356.28-357.26l-4.11,.9c-23.24,183-168.42,328.49-351.27,352.23Z"/></g><g><path class="cls-1" d="M597.16,380.42c47.23,0,90.98,15.2,126.62,40.95l5-1.28c-36.78-27.41-82.34-43.65-131.62-43.65s-95.03,16.3-131.84,43.81l5,1.28c35.69-25.84,79.51-41.11,126.84-41.11Z"/><path class="cls-1" d="M773.67,464.78l-1.07,5.26c25.96,35.73,41.3,79.66,41.3,127.11s-15.16,90.87-40.85,126.49l1.08,5.28c27.47-36.8,43.75-82.42,43.75-131.77s-16.46-95.47-44.21-132.37Z"/><path class="cls-1" d="M380.42,597.16c0-47.05,15.08-90.64,40.64-126.21l-1.08-5.28c-27.35,36.75-43.55,82.26-43.55,131.49s16.03,94.22,43.1,130.87l1.08-5.28c-25.29-35.45-40.19-78.81-40.19-125.59Z"/><path class="cls-1" d="M597.16,813.89c-48.61,0-93.53-16.09-129.72-43.21l-4.9,1.26c37.29,28.79,83.99,45.94,134.63,45.94s97.17-17.09,134.42-45.78l-4.91-1.26c-36.16,27.03-81,43.05-129.51,43.05Z"/></g></g><g><path class="cls-1" d="M729.5,920c-.84-2.17,.05-4.39,2.17-5.2,2.12-.82,4.1,.22,5.03,2.44,.84,2.17,.01,4.36-2.16,5.2-2.12,.82-4.26-.24-5.03-2.44Z"/><path class="cls-1" d="M759.54,871.7l3.34-1.86,23.58,42.47-3.34,1.86-23.58-42.47Z"/><path class="cls-1" d="M831.27,852.33l1.81,28.91-3.63,2.94-1.45-22.14c-.69,.88-1.52,1.73-2.43,2.45-6.65,5.36-16.36,4.27-21.68-2.34-5.31-6.6-4.32-16.31,2.34-21.68,6.6-5.33,16.31-4.24,21.63,2.38,2.23,2.77,3.34,6.12,3.4,9.49Zm-8.17,9.08c4.89-3.95,5.71-11.09,1.73-16.04-3.98-4.95-11.22-5.78-16.11-1.83-5,4.02-5.79,11.31-1.8,16.25,3.99,4.96,11.19,5.64,16.19,1.62Z"/><path class="cls-1" d="M869.6,802.72c-.76-2.83-1.66-4.08-2.96-5.16-3.97-3.32-9.96-2.83-13.28,1.16-3.32,3.97-2.58,9.66,1.31,12.98l-2.33,2.79c-5.33-4.53-6.09-12.43-1.56-17.85,4.87-5.82,12.65-6.24,18.01-1.75,1.94,1.61,3.33,3.7,4.34,7.32l7.7,28.29,12.67-15.17,2.93,2.45-17.22,20.64-9.61-35.71Z"/><path class="cls-1" d="M879.61,755.87l1.91-3.3,41.97,24.39-1.92,3.3-41.96-24.39Z"/><path class="cls-1" d="M927.82,730.05c-2.16-.87-3.18-3.03-2.32-5.12,.84-2.1,2.97-2.84,5.2-2,2.16,.88,3.19,2.98,2.32,5.13-.86,2.1-3.08,2.94-5.2,2Z"/></g><g><path class="cls-1" d="M268.68,720.88c2.17-.84,4.39,.05,5.2,2.17,.82,2.12-.22,4.1-2.44,5.03-2.17,.84-4.36,.01-5.2-2.16-.82-2.12,.24-4.26,2.44-5.03Z"/><path class="cls-1" d="M316.99,750.93l1.86,3.34-42.47,23.58-1.86-3.34,42.47-23.58Z"/><path class="cls-1" d="M336.36,822.66l-28.91,1.81-2.94-3.63,22.14-1.45c-.88-.69-1.73-1.52-2.45-2.43-5.36-6.65-4.27-16.36,2.34-21.68,6.6-5.31,16.31-4.32,21.68,2.34,5.33,6.6,4.24,16.31-2.38,21.63-2.77,2.23-6.12,3.34-9.49,3.4Zm-9.08-8.17c3.95,4.89,11.09,5.71,16.04,1.73,4.95-3.98,5.78-11.22,1.83-16.11-4.02-5-11.31-5.79-16.25-1.8-4.96,3.99-5.64,11.19-1.62,16.19Z"/><path class="cls-1" d="M385.96,860.98c2.83-.76,4.08-1.66,5.16-2.96,3.32-3.97,2.83-9.96-1.16-13.28-3.97-3.32-9.66-2.58-12.98,1.31l-2.79-2.33c4.53-5.33,12.43-6.09,17.85-1.56,5.82,4.87,6.24,12.65,1.75,18.01-1.61,1.94-3.7,3.33-7.32,4.34l-28.29,7.7,15.17,12.67-2.45,2.93-20.64-17.22,35.71-9.61Z"/><path class="cls-1" d="M432.81,871l3.3,1.91-24.39,41.97-3.3-1.92,24.39-41.96Z"/><path class="cls-1" d="M458.64,919.21c.87-2.16,3.03-3.18,5.12-2.32,2.1,.84,2.84,2.97,2,5.2-.88,2.16-2.98,3.19-5.13,2.32-2.1-.86-2.94-3.08-2-5.2Z"/></g></g></g></svg>