<svg xmlns="http://www.w3.org/2000/svg" viewBox="0 0 386.96 486.83"><defs><style>.cls-1{fill:#fff;}</style></defs><g id="Capa_2" data-name="Capa 2"><g id="Capa_2-2" data-name="Capa 2"><path class="cls-1" d="M372,121.23q-15-40.37-41.65-67.32A170.23,170.23,0,0,0,267.25,13.5Q230.82,0,188.57,0H0V437.19H83.51a126.45,126.45,0,0,1-5.09-34.09c0-18.09,15-39.62,15-39.62-10.29-7.63-3-18.88,0-22.13s10.3-3.43,14.5-9.91,13-9.92,16.21-12.4,4.19-6.87,9.53-15.45,6.68-3.62,13.73-4.57a36.36,36.36,0,0,1,9.24.13,19.25,19.25,0,0,0,3.84-13.38c-.6-10.53-7.61-24.09-23.16-30.76a34,34,0,0,1-5.95-3.41h0s-4.77-1.91-4.77-1.11a15.05,15.05,0,0,1-.23,2.08c-.46-2.77-2.3-5.53-2-3.8a7.45,7.45,0,0,1,0,3.14s-.83-1.5-2.1-3.51a54.31,54.31,0,0,0-5.74-7.83c-3.78-4.06-8.64-10.81-9.45-15.95s-1.71-4.76-7.66-17.67,3.71-36.81,3.71-36.81c-.29-8.77,1.51-3.9,3.21-16.09s4.37-4.85,8.49-16.15,6.52-14.23,10.24-15.56.67-2.53,3.06-4.52,1.44-5.85,1.44-5.85c1.58,5.45.29,3,0,5.71s2,2.8,1.87,0,3.59-5.05,3.59-5.05a3.63,3.63,0,0,0-1.47,3.86c.54,2.66,5.19-2.8,5.19-2.8,1.45-5.4,7.53-6.82,10.12-7.19-3.41.71-7.86,4.53-7.86,5.6s6.38-2.53,8.11-4,6.12-4.39,9.71-3.19,4.39-3.86,4.52-2.4a2.46,2.46,0,0,0,1.33,2s4-1.61,5.43-.67a1.39,1.39,0,0,0,2.35-.87c-.08-.62.86-2.27,2.12-1.88s2.82-1.06,2.82-1.06c-1,2.15-4.11,1.17-3.13,3.52s7-.93,7-.93A8.26,8.26,0,0,1,186,99.89a8.6,8.6,0,0,0-3.9,2.93,7.13,7.13,0,0,1,3.58-2s2.87-.13,3.89.45a1.67,1.67,0,0,0,1.92-.38c.25-.64,1.47-.58,1.47-.58-1.34.19-.9.64-.9.64,1,.32,2.24-.83,2.24-.83,0,.53-.92.9-1.77,1.13a24.82,24.82,0,0,1,2.73-.17,3.07,3.07,0,0,0,3.2-2.16,3.37,3.37,0,0,1-1.26,1.94c1.86-1.06,4.79-.44,6.4-1s3.75,1.11,6.57.79,2.32.55,5.51,1.43,3.31,1.39,4,2l1.21,1a1,1,0,0,1-.36-.93c0,1,3,1.77,3,1.77,0-.82-1.68-1.53-1.68-1.53,1.81,0,2.36,2,4.17,2.54s2.44,1.81,4.8,3.35,6.34,9,5,6.15a14.61,14.61,0,0,0-2.39-3.8,14.56,14.56,0,0,1,4,5.62c1.44,3.61.8,13.38.8,13.38,2.3-2.34-.14-10.45-.14-10.45,4.29,11.38,0,14.37,0,17a4.1,4.1,0,0,1-1.22,2.84,50.81,50.81,0,0,1,8.18,7.79,22.13,22.13,0,0,0,5.31,4.86c2.59,1.71,5.77,4.21,6.83,6.7l.73,1.32S195.4,173,188.17,176.05c-6,2.5-10,8.85-11.18,11a.73.73,0,0,0,.35,1l.35.15a2.27,2.27,0,0,0,3-1.26c1.78-4.5,6.42-7.21,6.42-7.21,9.64-4.95,30.07-7.29,30.07-7.29l43.73-6.54.45.72a24,24,0,0,1,.78,3.07c2.19,16,1.51,26.37,1.51,26.37s-.12.93,1.61.35,1.26-9.45,1.09-12.61c0-.44-.06-.85-.08-1.28a8.49,8.49,0,0,0,2.37,3.17l4.5,3.71c1.09.88,7.41,5.49,8.11,6s4.08,2.22,2,6.07-6.4,5.76-6.68,6.73.49,3.26,1.25,4.3,2.82,4.07,4.6,4.28,3.35,6.07-1.67,9.31c0,0-1.48,1.2-2.14,1.69s3.75.08,4.81,2.28,2.36,4.26.71,5.92-7.87,6.22-5.43,11.88,3.33,10.32-1.45,14.43-21.75,8.77-23.52,10.87-5.44,13.44-8.53,16.36c0,0,2.15,12.69-.53,20.73s-3.83,11.86-4.72,15.18-2.3,4.08-2.56,9.95.26,17.87.26,17.87a65.44,65.44,0,0,1,16.6,33.11A377.19,377.19,0,0,1,258.65,427a166,166,0,0,0,17.17-6.64q37-16.82,61.84-46.24t37-69.76Q387,263.91,387,216.15,387,161.67,372,121.23Z"/><path class="cls-1" d="M24.66,457.48a12.55,12.55,0,0,0-4.71-3,16.79,16.79,0,0,0-5.87-1H0v32.64H14.08a15.72,15.72,0,0,0,6.51-1.25,12.84,12.84,0,0,0,4.62-3.46,14.43,14.43,0,0,0,2.77-5.2,22.67,22.67,0,0,0,.91-6.59,20.33,20.33,0,0,0-1.12-7.09A13.75,13.75,0,0,0,24.66,457.48ZM21,474.85a8.47,8.47,0,0,1-1.83,3,6.78,6.78,0,0,1-2.6,1.67,9.42,9.42,0,0,1-3,.5H7.18V459.49H12.3a11.68,11.68,0,0,1,4.46.75,7,7,0,0,1,2.9,2.17,8.93,8.93,0,0,1,1.57,3.41,19.06,19.06,0,0,1,.48,4.46A13.3,13.3,0,0,1,21,474.85Z"/><polygon class="cls-1" points="41.05 472.06 56.87 472.06 56.87 466.48 41.05 466.48 41.05 459.49 58.29 459.49 58.29 453.45 33.88 453.45 33.88 486.1 58.66 486.1 58.66 480.06 41.05 480.06 41.05 472.06"/><path class="cls-1" d="M85,469.09a12.15,12.15,0,0,0-3.23-1.53c-1.08-.32-1.92-.54-2.53-.67q-3.08-.76-5-1.28a18.06,18.06,0,0,1-3-1,3.23,3.23,0,0,1-1.44-1.1,2.87,2.87,0,0,1-.37-1.55,3,3,0,0,1,.46-1.74,3.82,3.82,0,0,1,1.16-1.14,4.5,4.5,0,0,1,1.58-.64,7.93,7.93,0,0,1,1.74-.19,12.34,12.34,0,0,1,2.44.23,5.75,5.75,0,0,1,2,.78,4.08,4.08,0,0,1,1.4,1.51,5.77,5.77,0,0,1,.61,2.42h6.95a10.07,10.07,0,0,0-1.07-4.82,9.35,9.35,0,0,0-2.91-3.27,12,12,0,0,0-4.18-1.85,20.82,20.82,0,0,0-4.91-.58,16.53,16.53,0,0,0-4.39.6,12.34,12.34,0,0,0-3.93,1.83,9.78,9.78,0,0,0-2.82,3.08,8.63,8.63,0,0,0-1.07,4.37,7.93,7.93,0,0,0,.85,3.82A8.07,8.07,0,0,0,65.6,469a12.29,12.29,0,0,0,3.11,1.71,30.82,30.82,0,0,0,3.57,1.12c1.19.34,2.36.64,3.52.92a21.22,21.22,0,0,1,3.11,1,6.56,6.56,0,0,1,2.21,1.37,2.83,2.83,0,0,1,.85,2.14,3.13,3.13,0,0,1-.64,2,4.62,4.62,0,0,1-1.6,1.26,7.36,7.36,0,0,1-2.06.62,15.34,15.34,0,0,1-2.06.16,10.89,10.89,0,0,1-2.74-.35,7,7,0,0,1-2.31-1.05A5.16,5.16,0,0,1,69,478.05a5.93,5.93,0,0,1-.6-2.79h-7a10.8,10.8,0,0,0,1.1,5.21,10.2,10.2,0,0,0,3.09,3.61,13,13,0,0,0,4.48,2.08,20.66,20.66,0,0,0,5.23.67,20,20,0,0,0,5.88-.78,12.52,12.52,0,0,0,4.25-2.17,9.09,9.09,0,0,0,2.58-3.32,10,10,0,0,0,.87-4.16,8,8,0,0,0-1.17-4.5A9.74,9.74,0,0,0,85,469.09Z"/><rect class="cls-1" x="93.17" y="453.45" width="7.18" height="32.64"/><path class="cls-1" d="M121.84,473.8h7.22a7,7,0,0,1-7.77,7,8.45,8.45,0,0,1-4.12-.94,7.91,7.91,0,0,1-2.74-2.49,10.83,10.83,0,0,1-1.53-3.5,16.59,16.59,0,0,1-.48-4,17.87,17.87,0,0,1,.48-4.16,11,11,0,0,1,1.53-3.59,7.77,7.77,0,0,1,2.74-2.51,8.34,8.34,0,0,1,4.12-.94,7.21,7.21,0,0,1,4.43,1.37,6.91,6.91,0,0,1,2.47,4.12h6.86a12,12,0,0,0-4.64-8.55,13.68,13.68,0,0,0-4.25-2.22,16,16,0,0,0-4.87-.76,16.59,16.59,0,0,0-6.75,1.33,14.47,14.47,0,0,0-5.05,3.66,16.22,16.22,0,0,0-3.15,5.46,20.44,20.44,0,0,0-1.1,6.79,19.7,19.7,0,0,0,1.1,6.65,15.81,15.81,0,0,0,3.15,5.37,14.43,14.43,0,0,0,5.05,3.59,16.76,16.76,0,0,0,6.75,1.31,12,12,0,0,0,4.71-1,10.7,10.7,0,0,0,4.25-3.45l.73,3.7h4.57V468.45H121.84Z"/><polygon class="cls-1" points="162.2 475.35 162.11 475.35 148.49 453.45 141.36 453.45 141.36 486.1 148.08 486.1 148.08 464.24 148.17 464.24 161.75 486.1 168.92 486.1 168.92 453.45 162.2 453.45 162.2 475.35"/></g></g></svg>