<?xml version="1.0" encoding="UTF-8"?><svg id="Layer_2" xmlns="http://www.w3.org/2000/svg" viewBox="0 0 1494.09 1037.79"><g id="Layer_1-2"><g><g><circle cx="1124.35" cy="33.05" r="33.05"/><g><path d="M718.44,422.57c-75.03-19.19-211.12-8.72-211.12-8.72,12.21-3.49,50.6-34.9,50.6-34.9,73.28-55.83,101.2-54.09,141.33-57.58,10.21-.89,20.3,.29,29.67,2.52-5.83-62.38,17.77-154.49,28.34-191.67-5-2.5-9.73-5.51-14.15-8.95-44.73-34.9-165.05-51.63-265.46,77.71-102.94,132.61-198.91,249.51-198.91,249.51,94.27,165.92,309.87,212.31,423.07,225.28,3.09-64.04,16.9-178.07,26.25-250.54-5.82-1.52-9.62-2.66-9.62-2.66Z"/><path d="M1269.21,450.49s-95.96-116.9-198.91-249.51c-95.71-123.29-209.53-113.85-258.7-82.47-4.52,2.89-8.62,6.38-12.51,10.08-3.78,3.59-11.56,9.58-21.33,9.58-4.46,0-9.27-1.25-13.75-2.95l7.46,77.14,14.08,3.95c23.77,19.52,34.91,69.46,40.03,106.39,7.21-1.41,14.98-2.04,23.13-1.33,40.13,3.49,68.05,1.74,141.33,57.58,0,0,38.39,31.41,50.6,34.9,0,0-129.58-9.96-205.56,7.39,5.51,79.59,9.82,210.1,11.19,254.52,113.24-12.99,328.7-59.41,422.94-225.26Z"/></g></g><g><path d="M1494.09,815.05v-4.37h-102.92v4.37h28.77v102.61h-90.38v-102.61h28.77v-4.37h-195.27v4.37h28.81v102.61h-90.42v-102.61h28.77v-4.37h-194.23v4.37h28.77v102.61h-90.39v-102.61h28.78v-4.37h-102.92v4.37h28.77v213.99h-28.77v4.37h102.92v-4.37h-28.78v-106.98h90.39v106.98h-28.77v4.37h194.23v-4.37h-28.77v-106.98h90.42v106.98h-28.81v4.37h195.27v-4.37h-28.77v-106.98h90.38v106.98h-28.77v4.37h102.92v-4.37h-28.78v-213.99h28.78Zm-438,213.99h-45.95v-213.99h45.95v213.99Zm228.11,0h-46.99v-213.99h46.99v213.99Z"/><path d="M794.44,935.8c-3.87-7.08-8.93-13.11-15.16-18.14-6.27-4.99-13.42-9.13-21.43-12.34-8.04-3.25-16.28-6.23-24.71-8.93-8.47-2.71-16.71-5.3-24.71-7.81-8.04-2.51-15.2-5.45-21.43-8.9-6.26-3.44-11.33-7.58-15.2-12.38-3.87-4.8-5.76-10.83-5.76-18.14,0-4.8,1.12-9.48,3.44-14.08,2.28-4.6,5.61-8.74,10.02-12.53,4.37-3.75,9.75-6.77,16.09-9.05,6.34-2.28,13.73-3.44,22.05-3.44,10.21,0,18.68,1.78,25.37,5.3,6.65,3.56,12.18,8.2,16.55,13.92,4.37,5.76,7.97,12.14,10.79,19.26,2.82,7.08,5.49,14.27,7.97,21.58h4.1v-59.45h-5.03c-1.04,2.51-2.01,4.22-2.98,5.14-.93,.97-2.86,1.43-5.76,1.43-2.51,0-5.3-.62-8.32-1.9-3.02-1.24-6.5-2.55-10.48-3.91-3.95-1.35-8.55-2.67-13.77-3.91-5.18-1.24-11.25-1.86-18.14-1.86-10.83,0-20.88,1.82-30.17,5.45-9.28,3.67-17.25,8.47-23.94,14.39-6.69,5.96-11.87,12.8-15.63,20.5-3.75,7.74-5.65,15.74-5.65,24.1,0,11.25,1.82,20.65,5.49,28.16,3.64,7.5,8.47,13.81,14.54,18.91,6.03,5.1,12.92,9.28,20.65,12.53,7.7,3.21,15.63,6.03,23.75,8.43,8.16,2.4,16.05,4.76,23.79,7.04,7.7,2.28,14.58,5.11,20.65,8.43,6.03,3.37,10.87,7.54,14.54,12.53,3.64,4.99,5.49,11.37,5.49,19.07,0,4.18-.85,9.05-2.51,14.58-1.66,5.49-4.56,10.79-8.63,15.78-4.06,4.99-9.63,9.24-16.71,12.69-7.12,3.44-16.17,5.14-27.23,5.14-3.13,0-6.54-.04-10.17-.15-3.64-.12-7.5-.74-11.56-1.9-4.06-1.12-8.35-2.94-12.84-5.45-4.49-2.51-9.13-6.15-13.92-10.95-4.37-4.18-8.08-8.7-11.1-13.61-3.02-4.91-5.53-9.71-7.5-14.39-1.97-4.68-3.48-9.09-4.52-13.15s-1.78-7.35-2.2-9.86h-4.68v64.78h-21.89v-213.99h28.78v-4.37h-151.26v4.37h28.81v144.53h-.66l-104.15-148.9h-73.83v4.37h28.78v210.05l-96.81-223.2h-8.47l-93.21,227.14h-26.26v4.37h59.1v-4.37h-27.85l34.73-83.85h75.07l36.32,83.85h-29.12v4.37h110.3v-4.37h-28.78v-196.16h.62l140.78,200.53h8.43v-218.36h43.36v213.99h-28.81v4.37h96.03v.31l6.88-.31c1.04-2.94,1.66-4.76,2.78-6.42,.93-1.28,2.55-1.97,5.14-1.86,2.09,.08,5.14,2.01,9.44,3.25,4.25,1.28,9.17,2.59,14.7,3.95,5.53,1.35,11.45,2.63,17.83,3.91,6.34,1.24,12.76,1.86,19.22,1.86,12.92,0,24.68-2.01,35.2-6.07,10.52-4.1,19.61-9.55,27.23-16.44,7.62-6.88,13.5-14.93,17.67-24.09,4.18-9.17,6.27-18.87,6.27-29.08s-1.93-19.18-5.8-26.3Zm-579.17,4.72l35-85.4,36.94,85.4h-71.94Z"/><polygon points="209.89 806 121.67 1032.8 112.62 1032.8 26.26 806 0 806 0 801.59 104.46 801.59 104.46 806 74.45 806 139.19 975.56 205.21 806 177.06 806 177.06 801.59 236.81 801.59 236.81 806 209.89 806"/></g></g></g></svg>