<?xml version="1.0" encoding="UTF-8"?><svg id="Layer_2" xmlns="http://www.w3.org/2000/svg" viewBox="0 0 1012.43 967.06"><defs><style>.cls-1{font-family:Poppins-ExtraBold, 'Poppins ExtraBold';font-size:143.77px;}.cls-1,.cls-2,.cls-3{isolation:isolate;}.cls-3{opacity:.85;}</style></defs><g id="Layer_1-2"><g id="Group_1" transform="translate(-94.155 -231)"><path id="Union" class="cls-3" d="M468.56,671.5l8.35-9.07,31.88,29.53,27.91-29.24,8.88,8.5-36.22,37.99-40.79-37.7Zm-28.64-20.76l4.09-4.1-242.59-243.5c-2.12-1.85-3.97-3.57-5.69-5.22-2.54-2.34-5.07-4.89-7.45-7.43-29.94-31.3-50.48-70.4-59.26-112.82l-6.22,.85-3-23.06,22.96-3,2.99,23.08-5.07,.66c8.43,39.89,27.84,76.63,56.04,106.08,2.29,2.43,4.67,4.8,7.04,7.02,1.69,1.65,3.52,3.28,5.56,5.13l.25,.2,242.72,243.62,4.03-3.95,16.37,16.42-16.37,16.43-16.39-16.41Zm104.95-.13l16.37-16.42,4.18,4.03,242.72-243.62,.25-.2c1.95-1.61,3.8-3.32,5.56-5.13,2.38-2.22,4.75-4.6,7.04-7.02,28.19-29.44,47.61-66.16,56.07-106.04l-5.07-.66,2.94-23.08,22.96,3-2.94,23.04-6.27-.85c-8.85,42.39-29.44,81.44-59.43,112.69-2.41,2.54-4.91,5.07-7.45,7.43-1.69,1.64-3.56,3.38-5.69,5.22l-242.58,243.51,4.09,4.1-16.37,16.43-16.39-16.43Zm-36.1-6.77h-.17c-7.73-.06-15.11-3.18-20.55-8.67l-117.49-117.88-4.09,4.11-16.35-16.43,16.37-16.42,16.37,16.42-4.09,4.11,117.45,117.91c3.27,3.3,7.72,5.17,12.36,5.21v-.08l.26,.08,.26-.08v.08c2.26-.02,4.49-.48,6.58-1.34,2.16-.9,4.13-2.21,5.78-3.86l117.47-117.88-4.09-4.11,16.37-16.42,16.37,16.42-16.37,16.43-4.09-4.11-117.46,117.88c-5.45,5.48-12.83,8.59-20.55,8.67h-.36v-.03Zm.08-43.01h0l-.12-.12-.05-.04h0l-44.04-44.19-4.05,4.07-16.37-16.43,16.37-16.39,16.37,16.42-4.05,4.07,35.76,35.92v-.07l.19,.23,.19-.23v.07l35.8-35.92-4.05-4.07,16.37-16.42,16.38,16.43-16.37,16.43-4.05-4.07-44.06,44.18h0l-.05,.04-.12,.12-.03-.03Zm-15.99-67.12l15.78-17.9,16.8,14.91-15.78,17.9-16.8-14.91Zm82.75-24.53l16.37-16.42,4.02,4.07,79.97-80.21-4.05-4.07,16.37-16.42,16.33,16.45-16.37,16.42-4.05-4.07-79.9,80.22,4.05,4.07-16.37,16.42-16.36-16.46Zm-166.25,0l4.05-4.07-79.93-80.21-4.09,4.07-16.33-16.4,16.37-16.42,16.42,16.42-4.09,4.07,79.97,80.21,4.05-4.07,16.37,16.42-16.37,16.42-16.42-16.45Zm120.89-9.78l16.37-16.43,4.09,4.11,177.42-178.04,2.13-1.93,3.06-2.75,.53-.53c.9-.85,1.69-1.69,2.54-2.54l.45-.45c1.84-1.93,3.56-3.91,5.24-5.92l-3.88-2.31,11.5-20.17,20.09,11.59-11.54,20.17-5.92-3.38c-2.25,2.83-4.58,5.58-7.09,8.21l-.41,.41-2.99,3-.46,.47-3.38,3.08-1.76,1.52-177.09,177.85,4.09,4.11-16.64,16.41-16.37-16.48Zm-75.32,.08l4.09-4.11-177.34-177.92-1.76-1.51c-1.31-1.15-2.41-2.18-3.38-3.08l-.49-.46c-1.06-.98-2.05-2.01-3.03-3l-.37-.41c-2.54-2.63-4.87-5.38-7.12-8.21l-5.92,3.38-11.54-20.17,20.05-11.59,11.6,20.2-4.09,2.26c1.69,2.05,3.44,4.03,5.24,5.92l.45,.49,2.54,2.54,.52,.53,3.07,2.75,2.17,1.93,177.42,178.1,4.09-4.11,16.37,16.43-16.37,16.43-16.21-16.4Zm53.91-9.3h0l-62.25-62.46-4.05,4.07-16.37-16.43,16.37-16.42,16.37,16.42-4.05,4.07,53.83,54.02v-.05l.18,.18,.18-.18v.05l53.8-53.97-4.05-4.07,16.43-16.39,16.37,16.42-16.37,16.43-4.05-4.07-62.29,62.46-.05-.08Zm160.2-19.46l16.37-16.42,4.05,4.07,75.6-75.85-4.05-4.07,16.34-16.43,16.37,16.43-16.37,16.42-4.05-4.07-75.6,75.85,4.05,4.07-16.34,16.41-16.37-16.41Zm-353.17,0l4.05-4.07-75.59-75.85-4.05,4.07-16.36-16.42,16.41-16.43,16.37,16.43-4.05,4.07,75.55,75.86,4.05-4.07,16.33,16.42-16.33,16.41-16.37-16.41Zm186.17-43.87l-87.82-197.08h26.09l68.73,165.42,71.95-165.42h22.83l-79.5,181.94-15.28,31.57-7.01-16.43Zm-110.7-46.29l4.09-4.1-87.58-87.63-2.7-2.34c-.85-.74-1.56-1.4-2.17-1.97l-.69-.69c-.62-.53-1.06-1.02-1.51-1.48l-.58-.62c-11.24-11.62-18.24-26.67-19.89-42.75-.22-1.27-.32-2.56-.29-3.86v-3.38c0-5.13,.53-10.25,1.6-15.27l.28-1.4c.25-1.07,.53-2.1,.85-3.16,2.47-8.84,6.65-17.11,12.28-24.36l1.43-1.81c1.94-2.44,4.06-4.73,6.34-6.86l.66-.62,3.48,3.65-3.38-3.78,1.84-1.65c1.6-1.35,3.15-2.58,4.75-3.74l1.51-1.07c1.23-.85,2.41-1.65,3.52-2.3l1.92-1.11,2.62-1.44c2.77-1.39,5.62-2.6,8.55-3.62l2.09-.69,1.44-.45,2.05-.58c1.15-.33,2.33-.58,3.38-.85l2.33-.41,1.27-.25,2.41-.33h1.43l3.07-.25c2.24-.13,4.48-.13,6.71,0h2l5.16,.45,2.38,.37c1.43,.2,2.94,.53,4.09,.78l2,.46,2.78,.78,3.03,.98c.9,.3,2.01,.71,3.32,1.23l1.4,.58c2.09,.9,3.52,1.64,4.41,2.09l2.17,1.15c1.11,.62,2.26,1.27,3.38,2.01l1.15,.74,.66,.45c2.5,1.69,4.89,3.53,7.16,5.51l1.56,1.4,1.05,.99,4.8-4.23,15.78,17.9-16.8,14.91-15.79-17.9,3.28-2.91-.21-.25-1.27-1.15c-1.92-1.67-3.94-3.22-6.06-4.63l-1.56-1.03c-.94-.62-1.84-1.15-2.66-1.6l-2.09-1.11c-.66-.33-1.8-.9-3.52-1.65l-1.27-.53-2.55-.98-4.87-1.48-1.8-.41c-.95-.25-2.21-.45-3.38-.66l-2-.29c-1.42-.21-2.86-.33-4.3-.37h-10.93l-2.38,.33h-.74l-2.09,.41c-.85,.16-1.76,.41-2.7,.66l-1.92,.53-.85,.25-2.05,.7c-2.39,.82-4.72,1.82-6.96,2.99l-4.09,2.22c-.85,.49-1.84,1.15-2.87,1.85l-1.35,.95c-1.31,.94-2.62,1.97-3.85,3.04l-2.33,2.1c-1.87,1.8-3.63,3.7-5.28,5.71l-1.23,1.56c-4.72,6.11-8.19,13.09-10.23,20.53-.33,.81-.55,1.67-.66,2.54l-.29,1.31c-.82,4.22-1.2,8.51-1.14,12.81v3.04c.22,1.04,.3,2.1,.25,3.16,1.41,13.45,7.27,26.04,16.66,35.77l.62,.62c.33,.38,.68,.73,1.06,1.07l.74,.69c.58,.54,1.15,1.07,1.88,1.69l3.07,2.75,87.38,87.86,4.09-4.03,16.36,16.46-16.37,16.42-16.36-16.42Zm202.56-.16l16.37-16.42,3.81,4.23,87.38-87.92,3.11-2.75c.69-.62,1.31-1.15,1.84-1.69l.74-.69,1.07-1.07,.62-.62c9.39-9.73,15.25-22.33,16.66-35.77,0-1.27,.2-2.3,.25-3.16v-3.04c0-4.31-.45-8.6-1.35-12.81l-.31-1.34c-.11-.87-.33-1.72-.66-2.54-2.04-7.45-5.52-14.42-10.23-20.53l-1.23-1.56c-1.63-2.02-3.4-3.92-5.29-5.71l-2.29-2.1c-1.27-1.07-2.54-2.1-3.88-3.04l-1.35-.95c-1.02-.69-2-1.36-2.87-1.85l-4.09-2.22c-2.24-1.17-4.56-2.17-6.95-2.99l-2.09-.7-.85-.25-1.96-.53c-.94-.25-1.8-.49-2.66-.66l-2.13-.41h-.69l-2.42-.33h-10.83l-4.3,.37-1.97,.29c-1.23,.2-2.54,.41-3.38,.66l-1.8,.41-4.91,1.48-2.54,.95-1.27,.53c-1.69,.74-2.87,1.32-3.52,1.65l-2.05,1.11c-.92,.48-1.81,1.01-2.66,1.6l-1.59,1.03c-2.11,1.42-4.13,2.97-6.06,4.63l-1.27,1.15-.13,.12,3.49,3.1-15.78,17.9-16.85-14.9,15.78-17.9,4.59,4.08,.9-.85,1.56-1.4c2.28-1.97,4.68-3.8,7.16-5.51l.66-.45,1.18-.74c1.15-.74,2.26-1.4,3.38-2.01l2.21-1.15c.85-.45,2.33-1.19,4.38-2.09l1.39-.58c1.31-.53,2.42-.94,3.38-1.23l2.99-.98,2.78-.78,2.01-.46c1.14-.25,2.7-.58,4.09-.78l2.38-.37,5.16-.45h1.76c2.23-.13,4.47-.13,6.71,0l3.07,.25h1.44l2.45,.33,1.23,.25,2.33,.41c1.06,.25,2.25,.49,3.44,.85l2,.58,1.47,.45,2.09,.69c2.92,1.04,5.78,2.26,8.55,3.65l2.62,1.44,1.92,1.11c1.11,.66,2.33,1.44,3.52,2.3l1.56,1.07c1.56,1.15,3.15,2.38,4.75,3.74l1.84,1.65-3.11,3.57,3.44-3.65,.66,.62c2.28,2.14,4.41,4.43,6.38,6.86l1.4,1.81c5.65,7.23,9.82,15.51,12.28,24.36,.32,1.07,.57,2.09,.85,3.16l.29,1.4c1.07,5.02,1.6,10.14,1.6,15.27v3.54c.03,1.29-.07,2.58-.29,3.86-1.65,16.09-8.67,31.16-19.93,42.77l-.58,.62-1.51,1.48-.52,.58-2.22,1.97-2.66,2.33-87.23,87.57,4.09,4.1-16.37,16.42-16.41-16.39Zm115.09-4.73l16.37-16.42,4.09,4.1,25.62-25.75,1.23-1.07c1.63-1.48,3.03-2.71,4.09-3.9l.29-.3c1.4-1.31,2.78-2.66,4.09-4.1l.25-.25c21.58-22.43,35.01-51.45,38.14-82.42,.29-2.79,.49-5.45,.58-7.97v-5.92c0-2.75,0-5.46-.25-8.21l-4.74,.9-4.09-22.88,22.83-4.1,4.09,22.83-6.43,1.19c.25,3.38,.37,6.82,.37,10.27v6.37c0,2.75-.29,5.67-.58,8.67-3.42,33.59-17.98,65.06-41.37,89.41l-.2,.2c-1.48,1.56-3.03,3.08-4.58,4.56l-.25,.2c-1.27,1.23-2.78,2.63-4.58,4.11l-26.35,26.32,4.09,4.1-16.37,16.43-16.34-16.39Zm-433.17,0l4.09-4.1-26.27-26.36c-1.8-1.48-3.32-2.88-4.58-4.11l-.28-.2c-1.56-1.48-3.11-3-4.54-4.56v-.2c-23.41-24.33-37.97-55.81-41.35-89.41-.36-2.88-.57-5.77-.63-8.67v-6.34c0-3.45,.16-6.86,.37-10.27l-6.43-1.19,4.09-22.83,22.83,4.1-4.09,22.88-4.8-.9c-.24,2.75-.24,5.46-.24,8.21v5.92c.13,2.54,.28,5.18,.57,7.97,3.13,30.98,16.58,60,38.18,82.42v.25c1.34,1.44,2.7,2.79,4.09,4.1l.28,.3c1.07,1.19,2.46,2.42,4.09,3.9l1.23,1.07,25.66,25.75,4.09-4.1,16.37,16.42-16.37,16.43-16.39-16.46Zm-79.47-26.14l4.66-4.11c-20.74-27.64-33.47-60.46-36.8-94.86-.37-3.81-.78-7.56-.78-11.09v-7.8c0-13.25,1.38-26.46,4.09-39.43v-.41c.78-3.65,1.69-7.51,2.82-11.42,4.83-17.48,12.16-34.16,21.77-49.54l-5.07-3.86,14.12-18.61,18.46,14.05-13.98,18.52-4.09-3.04c-8.78,14.14-15.51,29.46-19.98,45.5-.98,3.54-1.8,6.86-2.54,10.15v.62c-2.68,12.28-4.05,24.81-4.09,37.37v7.35c.13,3.32,.37,6.77,.69,10.39,3.15,31.96,14.95,62.46,34.13,88.22l3.85-3.49,15.38,17.37-17.24,15.43-15.42-17.33Zm592,1.96l15.38-17.37,3.89,3.49c19.17-25.76,30.96-56.26,34.09-88.22,.37-3.61,.62-7.06,.74-10.39v-7.35c0-12.56-1.3-25.08-3.89-37.37v-.63c-.69-3.28-1.51-6.61-2.45-10.15-4.48-16.03-11.21-31.35-19.98-45.51l-4.1,3.05-14-18.52,18.46-14.05,14.14,18.53-5.07,3.86c9.63,15.38,17,32.05,21.9,49.53,1.07,3.9,2,7.76,2.78,11.42v.41c2.71,12.97,4.07,26.19,4.08,39.44v7.8c0,3.54-.41,7.27-.78,11.09-3.33,34.4-16.08,67.22-36.83,94.86l4.66,4.11-15.43,17.33-17.59-15.35Zm-29.72-109.57l1.06-23.24h4.14c-.33-2.75-.78-5.46-1.35-8.21l-.34-1.59c-.33-1.48-.69-2.96-1.14-4.56-3.42-12.25-9.17-23.74-16.91-33.83l-.37-.49-.85-1.11-.58-.66c-2.77-3.44-5.78-6.68-9-9.7l-.58-.53-.95-.85-1.69-1.51c-2.22-1.93-4.55-3.74-6.88-5.46l-1.8-1.23c-1.8-1.27-3.52-2.38-5.16-3.38l-1.44-.85-1.96-1.07-2.54-1.36c-3.96-2.04-8.07-3.8-12.28-5.25l-2.25-.79-2.66-.85-2.22-.62c-1.84-.49-3.64-.95-5.45-1.32l-2.54-.45-2.74-.49-3.07-.41h-1.56l.29,4.43-22.96,1.56-1.52-23.11,23.08-1.56,.45,6.9h1.11l2.7,.33,3.15,.41c1.14,.09,2.27,.29,3.38,.58l2.74,.53c2.05,.37,4.09,.9,6.18,1.48l2.33,.62,3.2,.99,2.38,.85c4.73,1.65,9.34,3.63,13.79,5.92l2.54,1.4,2.45,1.4,1.47,.85c1.89,1.11,3.85,2.38,5.81,3.74l2.01,1.4c2.71,1.88,5.29,3.93,7.73,6.16l1.76,1.56,1.23,1.12,.53,.49c3.63,3.46,7.03,7.16,10.15,11.09l.53,.66c.41,.45,.78,.95,1.15,1.44l.32,.45c8.69,11.26,15.13,24.08,18.95,37.78,.49,1.81,.94,3.49,1.31,5.22l.37,1.65c.77,3.65,1.36,7.34,1.76,11.05l6.88,.33-1.02,23.21-23.14-1.07Zm-523.58-22.42l6.88-.33c.42-3.71,1.02-7.39,1.8-11.05l.33-1.64c.41-1.69,.85-3.38,1.31-5.22,3.83-13.69,10.26-26.52,18.94-37.78l.37-.45,1.11-1.44,.52-.66c3.11-3.84,6.47-7.46,10.07-10.84l.53-.49,1.18-1.12,1.76-1.56c2.54-2.06,5.16-4.27,7.77-6.16l2-1.4c1.97-1.35,3.93-2.63,5.81-3.74l1.44-.85c.94-.58,1.69-.99,2.54-1.4l2.54-1.4c4.45-2.3,9.06-4.28,13.79-5.92l2.38-.85,3.15-.99,2.38-.62c2.05-.58,4.14-1.11,6.14-1.48l2.74-.53,3.38-.58,3.15-.41,2.7-.33h1.11l.45-6.9,23.12,1.56-1.56,23.16-23.12-1.27,.29-4.44h-1.6l-3.03,.41-2.78,.49-2.54,.46c-1.76,.37-3.59,.85-5.45,1.31l-2.17,.62-2.7,.85-2.17,.5c-4.21,1.46-8.31,3.22-12.28,5.25l-2.54,1.36c-.69,.33-1.31,.69-1.96,1.07l-1.44,.85c-1.69,.99-3.38,2.1-5.16,3.38l-1.8,1.23c-2.38,1.69-4.67,3.54-6.88,5.46l-1.69,1.51-.94,.85-.58,.53c-3.23,3.04-6.24,6.29-9.02,9.74l-.53,.66-.9,1.11-.33,.49c-7.78,10.07-13.53,21.56-16.91,33.83-.45,1.61-.85,3.08-1.19,4.56l-.33,1.6c-.57,2.75-.98,5.46-1.34,8.21l4.38-.2,1.02,23.2-23.13,.97-1.05-23.21Zm640.27-10.76h5.07c-.66-6.16-1.51-12.32-2.7-18.36l-.85-4.1c-.85-4.11-1.96-8.67-3.2-13.18-7.41-26.78-19.91-51.88-36.83-73.92-1.27-1.65-2.45-3.21-3.69-4.69-3.48-4.1-7.12-8.46-10.88-12.32l-1.63-1.69v-.7l-10.99-9.89c-5.78-5.2-11.83-10.08-18.13-14.62-1.15-.85-2.33-1.64-3.52-2.54-4.09-2.71-7.94-5.3-11.84-7.61l-3.03-1.8c-2.13-1.23-4.09-2.3-5.98-3.28l-2.71-1.48c-3.23-1.69-6.55-3.28-9.87-4.8l-1.88,5.07-21.69-8.21,8.19-21.77,21.73,8.21-2.12,5.71c3.76,1.69,7.48,3.49,11.13,5.38l2.91,1.56c2,1.03,4.09,2.18,6.3,3.49l3.23,1.89c4.09,2.46,8.19,5.18,12.28,8.21,1.31,.85,2.54,1.76,3.81,2.66,6.63,4.77,12.99,9.9,19.07,15.36l14.83,13.46v1.23c3.38,3.65,6.71,7.52,9.86,11.37,1.31,1.56,2.54,3.21,4.09,4.96,17.88,23.26,31.09,49.76,38.9,78.03,1.31,4.72,2.45,9.4,3.38,13.88l.85,4.1v.74c1.22,6.49,2.17,13.06,2.82,19.71l6.34-.2,.62,23.24-23.12,.62-.75-23.72ZM118.55,231.87l.65-23.24,6.3,.2c.65-6.65,1.6-13.22,2.82-19.71v-.74l.85-4.1c.94-4.47,2.09-9.16,3.38-13.88,7.83-28.27,21.04-54.77,38.9-78.03,1.47-1.76,2.78-3.38,4.09-4.96,3.11-3.86,6.43-7.73,9.81-11.38v-1.23l14.92-13.43c6.07-5.47,12.43-10.6,19.07-15.36,1.19-.9,2.45-1.8,3.76-2.66,4.09-3.04,8.19-5.75,12.27-8.21l3.23-1.89c2.22-1.31,4.34-2.46,6.3-3.49l2.91-1.56c3.65-1.89,7.37-3.7,11.13-5.38l-2.09-5.71,21.69-8.21,8.19,21.77-21.69,8.21-1.88-5.07c-3.32,1.51-6.63,3.12-9.83,4.8l-2.82,1.48c-1.84,.98-3.85,2.05-5.92,3.28l-3.07,1.8c-3.92,2.34-7.73,4.93-11.84,7.61-1.23,.85-2.41,1.64-3.56,2.54-6.29,4.54-12.33,9.42-18.09,14.62l-10.99,9.89v.66l-1.59,1.69c-3.76,3.86-7.45,8.21-10.89,12.32-1.27,1.48-2.45,3.04-3.72,4.69-16.9,22.05-29.41,47.14-36.83,73.92-1.23,4.51-2.29,8.91-3.2,13.18l-.85,4.1c-1.13,6.08-2.03,12.2-2.7,18.36h5.07l-.63,23.75-23.16-.62Zm447.27-62.01l13.26-19.01,5.61,4.1c1.76-1.89,3.56-3.7,5.45-5.46l.29-.25,1.56-1.4,.45-.41c3.46-2.96,7.09-5.71,10.89-8.21,.61-.45,1.27-.9,1.88-1.27l.78-.5c1.96-1.27,4.09-2.46,5.92-3.49l2.54-1.35c1.27-.66,2.66-1.36,4.09-2.01l-1.92-6.69,22.26-6.77,6.34,22.34-22.26,6.37-1.19-4.1-1.88,.95-2.33,1.27c-1.69,.9-3.44,1.93-5.2,3.08l-.85,.5-1.6,1.07c-3.41,2.29-6.66,4.79-9.73,7.51l-.49,.41-1.27,1.15-.29,.29c-1.27,1.15-2.54,2.38-3.72,3.57l3.72,2.63-13.3,19.01-18.99-13.33Zm-145.95-5.67l3.69-2.63c-1.23-1.19-2.45-2.43-3.69-3.57l-.33-.29-1.23-1.15-.49-.41c-3.1-2.71-6.37-5.21-9.78-7.51l-1.59-1.07-.85-.5c-1.68-1.12-3.41-2.14-5.19-3.08l-2.33-1.27-1.88-.95-1.19,4.1-22.23-6.33,6.34-22.34,22.23,6.77-1.89,6.69,4.09,2.01,2.54,1.35c1.84,1.03,3.93,2.22,5.92,3.49l.74,.5,1.92,1.27c3.78,2.52,7.4,5.26,10.84,8.21l.45,.41,1.56,1.4,.28,.25c1.89,1.77,3.69,3.57,5.49,5.46l5.56-4.1,13.3,19.01-18.98,13.29-13.29-19.01Zm113.2-14.01l12.97-19.26,4.95,3c4-4.72,8.28-9.21,12.8-13.43,.95-.85,1.89-1.69,2.87-2.54l.2-.21c4.64-4.05,9.52-7.8,14.61-11.25l3.11-2.06,.37-.25c2.78-1.8,5.65-3.49,8.46-5.02l.43-.25,1.59-.85,.74-.37c3.23-1.69,6.71-3.38,10.35-4.93l.53-.25,1.69-.69h.37c2.91-1.15,5.56-2.14,8.19-3h.37c.65-.2,1.27-.45,1.92-.62l.95-.33,3.19-.98,4.91-1.32,2.82-.66h.45c3.06-.74,6.38-1.4,9.9-1.93l5.07-.74c3.52-.41,7.04-.69,10.68-.9h2.75c5.08-.16,10.16-.05,15.22,.33h3.44l4.54,.49h.62l1.89,.25h.94c1.69,.22,3.49,.5,5.4,.85h.69l1.84,.37h.62c2.94,.58,5.92,1.32,8.92,2.14l.78,.2,1.76,.49h.29l4.79,1.48,.69,.25,1.07,.37,.85,.29c6.55,2.27,12.93,5.01,19.08,8.21l1.76,.95,.74,.41,4.09,2.18,1.76,1.02h.25c2.62,1.56,5.36,3.32,8.19,5.26l.49,.33c.52,.37,1.06,.69,1.51,1.07l.45,.33c3.77,2.81,7.4,5.82,10.85,9.02l1.8,1.61,2.29,2.1,.25,.25,.65,.62,5-4.1,14.89,17.76-17.68,14.99-14.94-17.76,3.73-3.16-1.97-1.8-1.76-1.56c-3.15-2.75-6.51-5.38-9.95-7.84l-.52-.41-1.15-.85-.58-.37c-2.54-1.76-5.07-3.38-7.45-4.85h-.29l-1.56-.9c-1.23-.69-2.33-1.35-3.52-1.97l-.9-.49-1.59-.85c-5.63-2.93-11.47-5.44-17.47-7.51l-1.15-.41h-.53l-.85-.29-4.09-1.36h-.29l-1.47-.37-.9-.25c-2.74-.78-5.48-1.44-8.19-1.97h-.69l-1.43-.25h-.78c-1.8-.33-3.38-.62-4.87-.78l-1.27-.2h-2.05c-1.56,0-2.87-.37-4.09-.45h-3.26c-4.67-.35-9.36-.45-14.04-.29h-2.78c-3.23,.2-6.51,.49-9.73,.85-1.57,.11-3.13,.33-4.67,.66-3.23,.53-6.3,1.12-9.13,1.77h-.52l-2.54,.58-4.58,1.23c-.9,.3-1.8,.54-2.7,.85l-1.27,.41c-.52,.13-1.02,.29-1.51,.49h-.45c-2.33,.78-4.74,1.69-7.41,2.75h-.33l-1.44,.62-.61,.25c-3.38,1.48-6.58,3-9.58,4.56l-.85,.45-1.23,.66-.49,.29c-2.54,1.4-5.16,2.92-7.73,4.6l-.41,.25-2.82,1.89c-4.71,3.17-9.2,6.64-13.46,10.39h-.28c-.85,.74-1.69,1.52-2.54,2.33-3.88,3.58-7.55,7.37-10.99,11.37l4.09,2.71-12.99,19.34-19.16-13.03Zm-80.17-6.69l4.09-2.71c-3.45-3.99-7.12-7.79-10.99-11.37-.87-.82-1.72-1.6-2.54-2.34h-.25c-4.29-3.73-8.8-7.19-13.51-10.36l-2.82-1.89-.45-.25c-2.54-1.69-5.16-3.21-7.73-4.6l-.49-.29-1.23-.66-.85-.46c-2.97-1.56-6.16-3.08-9.57-4.56l-.62-.25-1.43-.62h-.36c-2.62-1.07-5.07-1.97-7.41-2.75h-.41c-.51-.2-1.03-.37-1.56-.49l-1.27-.41c-.85-.33-1.8-.58-2.7-.85l-4.54-1.23-2.54-.58h-.47c-2.87-.66-5.92-1.23-9.13-1.77-1.55-.33-3.12-.55-4.7-.66-3.2-.37-6.51-.66-9.74-.85h-2.74c-4.7-.16-9.4-.06-14.08,.29h-3.27c-1.18,.08-2.54,.45-4.09,.45h-2.01l-1.31,.2c-1.44,.16-3.03,.45-4.83,.78h-.78l-1.48,.25h-.69c-2.66,.53-5.4,1.19-8.19,1.97l-.9,.25-1.48,.37h-.25l-4.34,1.36-.85,.29h-.53l-1.14,.41c-6,2.08-11.84,4.59-17.47,7.51l-1.56,.85-.9,.5c-1.23,.62-2.33,1.27-3.56,1.97l-1.51,.9h-.29c-2.45,1.44-4.96,3.08-7.49,4.85l-.52,.37-1.19,.85-.53,.41c-3.44,2.46-6.77,5.07-9.95,7.84l-1.76,1.56-1.96,1.8,3.73,3.16-14.9,17.76-17.76-14.99,14.9-17.76,5.07,4.11,.62-.62,.25-.25,2.29-2.09,1.8-1.61c3.52-3.08,7.16-5.92,10.85-8.58l.45-.33,1.51-1.07,.49-.33c2.78-1.93,5.52-3.7,8.19-5.26h.25l1.69-1.02,4.09-2.18,.78-.41,1.69-.95c6.15-3.19,12.53-5.93,19.07-8.21l.85-.29,1.02-.37,.74-.25,4.75-1.48h.28l1.76-.49,.85-.2c2.94-.85,5.97-1.56,8.88-2.14h.62l1.84-.37h.69c1.97-.37,3.73-.66,5.4-.85h.98l1.84-.25h.63l4.55-.49h3.43c5.06-.38,10.15-.49,15.22-.33h2.74c3.65,.2,7.16,.49,10.68,.9l5.07,.74c3.52,.53,6.83,1.19,9.9,1.93h.45l2.92,.55,4.87,1.31,3.2,.99,.95,.33,1.96,.62h.37c2.62,.85,5.28,1.85,8.19,3h.37l1.69,.69,.53,.25c3.65,1.56,7.16,3.21,10.35,4.93l.74,.37,1.64,.85,.41,.25c2.79,1.52,5.65,3.21,8.46,5.02l.32,.25,3.15,2.06c5.09,3.43,9.96,7.19,14.57,11.25l.25,.2,2.82,2.54c4.55,4.21,8.85,8.7,12.85,13.43l5.23-3.45,12.97,19.26-19.19,13.02-13.01-19.22Zm33.83-20.95l4.09-2.75c-5.54-6.92-11.59-13.42-18.09-19.45-1.18-1.12-2.38-2.18-3.59-3.21-5.47-4.8-11.22-9.26-17.23-13.35l-4.09-2.58c-3.48-2.26-6.92-4.31-10.35-6.16l-2.82-1.52c-4.02-2.14-8.23-4.1-12.69-6l-2.78-1.19c-3.56-1.44-6.77-2.63-9.95-3.7l-3.12-.97c-1.56-.53-2.99-.94-4.47-1.4l-5.61-1.52-3.76-.85c-3.76-.9-7.87-1.69-11.95-2.34l-6.1-.85c-4.3-.49-8.39-.85-12.48-1.07h-3.38c-6.1-.21-12.21-.08-18.29,.37l-3.38,.29c-1.88,.13-3.76,.33-5.98,.62l-3.38,.45c-2.38,.33-4.63,.7-7.16,1.19-1.15,.2-2.21,.37-3.23,.62-3.65,.74-7.32,1.6-10.99,2.63l-3.2,.85-5.85,1.85c-.94,.33-1.76,.58-2.54,.9-7.85,2.73-15.49,6.01-22.88,9.82l-2.38,1.27c-1.76,.9-3.38,1.81-4.99,2.75l-2.38,1.4c-3.11,1.97-6.27,3.9-9.41,6.08l3.23,3.86-17.76,14.91-14.86-17.83,17.76-14.91,4.09,4.93,.64-.38c3.48-2.43,7-4.69,10.44-6.77l2.54-1.52c2-1.15,3.72-2.1,5.32-2.92l2.54-1.35c7.83-4.05,15.94-7.53,24.26-10.44l2.91-.98c1.8-.63,3.89-1.29,6.27-1.97l3.44-.95c3.81-1.07,7.77-2.01,11.62-2.79,1.16-.35,2.35-.57,3.56-.66,2.62-.53,5.07-.95,7.48-1.23,1.22-.3,2.47-.48,3.73-.54,2.08-.35,4.19-.57,6.3-.66l3.57-.26c6.46-.48,12.93-.6,19.4-.37h3.56c4.42,.25,8.88,.62,13.3,1.15,2.21,.25,4.34,.58,6.5,.9,4.55,.69,8.63,1.56,12.73,2.46l4.09,.95,5.92,1.6,4.8,1.48,3.31,1.11c3.38,1.11,6.77,2.38,10.48,3.86l3.2,1.36c4.63,1.97,9.2,4.1,13.3,6.33l3.11,1.69c3.65,1.93,7.37,4.15,10.99,6.53,1.23,.85,2.66,1.81,4.09,2.79,6.4,4.35,12.52,9.08,18.34,14.17,1.31,1.11,2.54,2.26,3.89,3.45,7.19,6.66,13.87,13.86,19.98,21.52l5.32-3.54,3.38,4.65,2.99-4.65,5.32,3.54c6.09-7.68,12.77-14.87,19.98-21.52,1.27-1.19,2.54-2.33,3.85-3.45,5.82-5.09,11.94-9.82,18.34-14.17,1.43-.99,2.87-1.93,4.09-2.79,3.69-2.38,7.41-4.6,10.99-6.53l3.11-1.69c4.09-2.22,8.67-4.36,13.34-6.33l3.15-1.35c3.68-1.48,7.16-2.75,10.48-3.86l3.56-1.27,4.79-1.48,5.92-1.61,4.09-.95c4.09-.9,8.19-1.77,12.69-2.46,2.17-.33,4.3-.66,6.51-.9,4.41-.54,8.88-.9,13.34-1.15h3.52c6.47-.23,12.95-.11,19.4,.37l3.65,.29c2.13,.09,4.24,.31,6.34,.66l3.72,.53c2.37,.27,4.87,.68,7.49,1.23,1.21,.09,2.4,.31,3.56,.66,3.81,.79,7.78,1.69,11.59,2.79l3.44,.95c2.37,.68,4.46,1.34,6.27,1.97l2.91,.99c8.23,2.91,16.24,6.39,23.98,10.43l2.54,1.35,5.32,2.92,2.54,1.52c3.44,2.06,6.91,4.31,10.39,6.77l.53,.37,4.09-4.92,17.72,14.9-14.49,17.87-17.76-14.91,3.3-3.92c-3.15-2.18-6.3-4.1-9.41-6.08l-2.33-1.4c-1.64-.95-3.27-1.85-5.07-2.75l-2.38-1.28c-7.38-3.81-15.03-7.09-22.88-9.81l-2.54-.9-5.92-1.85-3.2-.85c-3.68-1.02-7.32-1.89-10.99-2.63-1.02-.25-2.09-.41-3.23-.62-2.54-.49-4.79-.85-7.12-1.19l-3.38-.46c-2.21-.29-4.09-.49-5.98-.62l-3.38-.29c-6.09-.46-12.19-.58-18.29-.37h-3.38c-4.09,.25-8.19,.58-12.28,1.07l-6.1,.85c-4.09,.66-8.19,1.44-11.98,2.33l-3.76,.85-5.61,1.51-4.46,1.4-3.11,.98c-3.15,1.07-6.34,2.26-9.95,3.7l-2.78,1.19c-4.38,1.89-8.59,3.86-12.61,5.99-.94,.46-1.84,.99-2.82,1.52-3.43,1.85-6.91,3.9-10.35,6.16-1.34,.85-2.7,1.69-4.09,2.59-6.01,4.09-11.76,8.55-17.23,13.35-1.23,1.02-2.42,2.1-3.6,3.21-6.5,6.03-12.55,12.53-18.09,19.45l4.09,2.75-12.81,19.38-9.47-6.33-9.69,6.46-12.73-19.32Zm21.99-40.94l-4.09-4.1c-1.69-1.93-3.88-3.78-5.81-5.59l-4.5-4.1c-6.62-5.8-13.59-11.19-20.87-16.14-1.63-1.12-3.32-2.18-4.99-3.25-4.3-2.67-8.39-5.18-12.48-7.43l-3.76-2.01c-4.75-2.54-9.74-4.89-14.98-7.11l-3.56-1.51h-.29c-4.13-1.65-8.02-3.08-11.91-4.4l-3.88-1.27-5.19-1.61-7.23-1.95-4.5-1.07c-4.58-1.07-9.46-2.01-14.53-2.83l-7.53-1.03c-4.96-.62-10.03-1.02-14.98-1.31h-4.23c-7.35-.28-14.72-.15-22.06,.41l-4.09,.33-7.12,.74c-1.56,.2-3.03,.37-4.5,.62l-3.23,.5,1.18,5.07-22.51,5.38-5.36-22.56,22.51-5.38,1.44,6.04,4.09-.62c1.59-.34,3.2-.56,4.82-.65,2.47-.41,4.95-.68,7.45-.79,1.5-.25,3.02-.37,4.54-.37,7.71-.54,15.44-.69,23.16-.45h4.55c5.23,.29,10.55,.74,15.8,1.35,2.74,.33,5.32,.7,7.94,1.12,5.36,.85,10.52,1.84,15.31,2.96l4.79,1.15,7.53,2.01c1.93,.58,4.23,1.35,5.53,1.69s2.66,.85,4.09,1.36c4.05,1.31,8.14,2.88,12.57,4.63h.29l3.76,1.61c5.48,2.3,10.77,4.85,15.72,7.48,1.4,.64,2.77,1.35,4.09,2.14,4.38,2.38,8.84,5.01,13.18,7.8l5.23,3.45c7.67,5.2,15.01,10.86,21.99,16.96,1.65,1.28,3.24,2.65,4.74,4.1l2.05,1.89h.05l2-1.89c1.53-1.45,3.13-2.82,4.8-4.1,6.96-6.11,14.31-11.78,21.99-16.96,1.69-1.19,3.48-2.34,5.23-3.45,4.34-2.79,8.76-5.42,13.14-7.8,1.33-.79,2.69-1.5,4.09-2.14,4.95-2.63,10.28-5.17,15.72-7.48l3.76-1.61h.29c4.42-1.76,8.55-3.32,12.57-4.63,1.43-.49,2.82-.99,4.09-1.36s3.65-1.15,5.52-1.69l7.54-2.01,4.79-1.15c4.74-1.12,9.94-2.11,15.3-2.97,2.54-.41,5.16-.78,7.9-1.12,5.22-.61,10.55-1.06,15.79-1.34h4.58c7.72-.25,15.46-.1,23.16,.45,1.52-.06,3.05,.06,4.54,.37,2.51,.11,5.01,.37,7.48,.79,1.61,.09,3.22,.31,4.8,.66l4.06,.61,1.47-6.04,22.55,5.38-5.41,22.59-22.5-5.38,1.23-5.07-3.26-.52-4.5-.62-7.12-.74-4.09-.33c-7.34-.55-14.7-.69-22.06-.41h-4.23c-4.99,.29-10.02,.69-15.02,1.31l-7.48,1.03c-5.07,.85-9.95,1.76-14.57,2.83l-4.5,1.07-7.16,1.93-5.23,1.61-4.23,.98c-3.85,1.32-7.78,2.75-11.91,4.4h-.25l-3.6,1.51c-5.2,2.22-10.23,4.6-14.98,7.1l-3.72,2.01c-4.09,2.26-8.39,4.77-12.53,7.43l-4.95,3.25c-7.29,4.94-14.26,10.33-20.87,16.14l-4.5,4.1c-1.93,1.81-3.89,3.65-5.85,5.59l-3.9,3.91v.48h-.22Z"/><g id="Vsoul" class="cls-2" transform="translate(155.155 334.859)"><text class="cls-1" transform="translate(0 878.35)"><tspan x="0" y="0">VIRTUAL SOUL</tspan></text></g></g></g></svg>