<?xml version="1.0" encoding="UTF-8"?><svg id="Layer_2" xmlns="http://www.w3.org/2000/svg" viewBox="0 0 2010.9 591.53"><g id="Layer_1-2"><g><path d="M554.04,183.33l-5.73-.28c-.33-3.09-.82-6.17-1.47-9.21l-.31-1.38c-.31-1.44-.68-2.84-1.09-4.35-3.19-11.42-8.56-22.12-15.81-31.51l-.27-.37c-.31-.41-.62-.83-.96-1.2l-.44-.55c-2.61-3.27-5.43-6.36-8.46-9.25l-.44-.41-1.02-.93-1.47-1.3c-2.03-1.86-4.18-3.57-6.45-5.14l-1.68-1.16c-1.64-1.13-3.27-2.19-4.85-3.12l-1.23-.71-2.05-1.16-2.12-1.16c-3.72-1.91-7.56-3.56-11.51-4.94l-1.98-.71-2.67-.83-1.95-.51c-1.74-.48-3.45-.92-5.16-1.23l-2.29-.44c-.92-.24-1.87-.4-2.82-.48l-2.63-.34-2.25-.28h-.92l-.37-5.76-19.25,1.3,1.27,19.28,19.15-1.3-.24-3.7h1.3l2.56,.34,2.29,.41,2.12,.37c1.51,.31,3,.69,4.54,1.1l1.85,.51,2.22,.71,1.88,.66c3.51,1.21,6.94,2.68,10.24,4.38l2.12,1.14,1.64,.89,1.2,.71c1.37,.84,2.8,1.76,4.3,2.82l1.5,1.03c1.94,1.44,3.89,2.95,5.73,4.56l1.41,1.26,.79,.71,.48,.44c2.68,2.52,5.19,5.23,7.51,8.09l.48,.55,.71,.92,.31,.41c6.46,8.42,11.25,18,14.11,28.22,.37,1.33,.68,2.57,.95,3.8l.28,1.33c.48,2.29,.85,4.56,1.13,6.85h-3.45l-.88,19.38,19.3,.9,.85-19.36Z"/><polygon points="312.21 445.16 326.22 457.59 339.38 442.66 325.37 430.22 312.21 445.16"/><polygon points="270.24 332.74 256.58 346.44 270.24 360.15 273.62 356.76 325.54 408.86 325.58 408.93 377.54 356.83 380.92 360.22 394.57 346.51 380.92 332.81 367.21 346.49 370.59 349.88 325.71 394.89 325.71 394.85 325.56 395 325.42 394.85 325.42 394.89 280.52 349.84 283.9 346.44 270.24 332.74"/><polygon points="288.67 464.15 325.41 501.01 325.45 501.05 325.55 501.14 325.58 501.17 325.68 501.07 325.72 501.04 362.47 464.19 365.85 467.58 379.51 453.88 365.84 440.17 352.18 453.87 355.56 457.26 325.7 487.22 325.7 487.16 325.55 487.35 325.39 487.16 325.39 487.22 295.57 457.26 298.95 453.87 285.29 440.17 271.64 453.84 285.29 467.55 288.67 464.15"/><path d="M122.6,250.88c1.88,2.36,3.82,4.66,5.94,6.85l.31,.34c.82,.83,1.64,1.69,2.53,2.5l.41,.38c.81,.75,1.73,1.61,2.82,2.57l1.47,1.26,147.92,148.4-3.41,3.43,13.52,13.68,13.66-13.71-13.66-13.71-3.41,3.43-147.99-148.55-1.81-1.61-2.56-2.29-.44-.44-2.12-2.12-.37-.41c-1.5-1.58-2.96-3.23-4.37-4.94l3.41-1.88-9.68-16.85-16.73,9.66,9.63,16.82,4.94-2.82Z"/><path d="M516.69,263.57l2.82-2.57,.38-.4,2.49-2.5,.34-.34c2.09-2.19,4.03-4.49,5.91-6.85l4.94,2.82,9.63-16.82-16.76-9.66-9.59,16.82,3.24,1.93c-1.4,1.68-2.83,3.33-4.37,4.94l-.37,.37c-.71,.71-1.36,1.41-2.12,2.12l-.44,.44-2.55,2.29-1.78,1.61-147.99,148.5-3.41-3.43-13.66,13.71,13.66,13.75,13.88-13.68-3.41-3.43,147.71-148.35,1.47-1.27Z"/><path d="M411.49,111.74c-1.52,.86-3.3,1.86-4.94,2.91l-.65,.42c-.51,.3-1.06,.68-1.57,1.06-3.17,2.09-6.2,4.38-9.09,6.85l-.37,.34-1.3,1.16-.24,.2c-1.57,1.47-3.08,2.98-4.54,4.56l-4.68-3.42-11.06,15.86,15.84,11.12,11.1-15.86-3.1-2.19c.99-.99,2.05-2.02,3.1-2.98l.24-.24,1.06-.96,.41-.35c2.56-2.27,5.28-4.36,8.12-6.26l1.33-.89,.71-.42c1.47-.96,2.93-1.81,4.34-2.57l1.95-1.06,1.57-.79,.99,3.42,18.57-5.31-5.29-18.64-18.57,5.64,1.6,5.58c-1.19,.54-2.36,1.13-3.41,1.68l-2.12,1.13Z"/><path d="M506.25,198.27c-1.18,11.22-6.07,21.72-13.9,29.84l-.52,.51-.89,.89-.61,.58c-.44,.45-.96,.9-1.54,1.41l-2.6,2.29-72.88,73.33-3.17-3.53-13.66,13.7,13.68,13.67,13.66-13.7-3.41-3.42,72.76-73.04,2.22-1.95,1.85-1.64,.44-.48,1.26-1.23,.48-.51c9.39-9.68,15.25-22.25,16.63-35.67,.18-1.06,.26-2.14,.24-3.22v-2.95c0-4.28-.44-8.55-1.33-12.74l-.24-1.16c-.23-.9-.44-1.75-.71-2.64-2.05-7.38-5.53-14.28-10.24-20.32l-1.16-1.51c-1.64-2.03-3.42-3.94-5.32-5.72l-.55-.51-2.87,3.05,2.6-2.98-1.54-1.38c-1.33-1.13-2.67-2.16-3.96-3.12l-1.3-.89c-.99-.72-2.01-1.37-2.93-1.92l-1.6-.92-2.19-1.2c-2.31-1.16-4.69-2.18-7.13-3.05l-1.74-.58-1.23-.37-1.67-.48c-.99-.3-1.99-.5-2.87-.71l-1.95-.34-1.02-.2-2.05-.28h-1.2l-2.56-.2c-1.86-.11-3.73-.11-5.59,0h-1.47l-4.3,.37-1.98,.31c-1.16,.17-2.46,.44-3.41,.65l-1.68,.38-2.32,.65-2.49,.82c-.8,.24-1.73,.58-2.82,1.02l-1.16,.48c-1.71,.75-2.95,1.37-3.65,1.74l-1.84,.96c-.94,.51-1.86,1.07-2.82,1.68l-.99,.62-.55,.37c-2.07,1.42-4.07,2.95-5.97,4.59l-1.3,1.16-.75,.71-3.83-3.4-13.16,14.93,14.05,12.43,13.16-14.93-2.91-2.58,.11-.1,1.06-.96c1.6-1.39,3.29-2.68,5.05-3.87l1.33-.86c.71-.49,1.46-.93,2.22-1.33l1.71-.92c.54-.28,1.52-.76,2.93-1.38l1.06-.44,2.12-.79,4.1-1.23,1.5-.34c.71-.21,1.8-.38,2.82-.55l1.64-.24,3.58-.31h9.04l2.02,.28h.58l1.78,.34c.72,.14,1.44,.35,2.22,.55l1.64,.44,.71,.2,1.74,.59c1.99,.68,3.93,1.52,5.8,2.5l3.41,1.85c.72,.41,1.54,.97,2.39,1.54l1.13,.79c1.12,.78,2.18,1.64,3.24,2.53l1.91,1.75c1.57,1.49,3.05,3.08,4.41,4.76l1.02,1.3c3.93,5.1,6.83,10.92,8.54,17.13,.27,.68,.46,1.39,.55,2.12l.26,1.12c.76,3.51,1.13,7.09,1.13,10.69v2.53c-.04,.72-.2,1.58-.2,2.64Z"/><path d="M325.78,537.05c6.44-.07,12.6-2.66,17.14-7.23l97.97-98.32,3.41,3.43,13.66-13.71-13.66-13.7-13.66,13.7,3.41,3.43-97.98,98.32c-1.38,1.38-3.02,2.47-4.82,3.22-1.74,.72-3.6,1.1-5.49,1.12v-.07l-.22,.06-.22-.06v.07c-3.88-.03-7.58-1.59-10.31-4.35l-97.97-98.35,3.41-3.43-13.66-13.7-13.66,13.7,13.64,13.71,3.41-3.43,97.99,98.32c4.54,4.58,10.7,7.18,17.14,7.23h.14v.03h.3Z"/><polygon points="178.25 406.31 191.87 392.63 178.25 378.93 174.87 382.33 111.85 319.05 115.23 315.66 101.58 301.95 87.89 315.66 101.54 329.36 104.92 325.97 167.97 389.23 164.59 392.63 178.25 406.31"/><path d="M546.55,98.52l-4.17,3.42-.54-.51-.2-.2-1.91-1.75-1.5-1.34c-2.88-2.66-5.9-5.17-9.05-7.52l-.37-.28c-.38-.31-.83-.58-1.26-.89l-.41-.28c-2.36-1.62-4.64-3.08-6.83-4.39h-.2l-1.47-.85-3.41-1.82-.61-.34-1.47-.79c-5.13-2.67-10.45-4.96-15.91-6.85l-.71-.24-.89-.31-.58-.2-3.99-1.23h-.24l-1.47-.41-.65-.17c-2.5-.68-4.99-1.3-7.44-1.78h-.51l-1.54-.31h-.58c-1.59-.29-3.1-.52-4.51-.71h-.78l-1.57-.2h-.52l-3.79-.41h-2.87c-4.22-.32-8.46-.41-12.7-.28h-2.29c-3.03,.18-5.97,.42-8.91,.75l-4.23,.61c-2.94,.44-5.71,.99-8.26,1.61h-.37l-2.36,.55-4.1,1.1-2.66,.82-.79,.28c-.54,.14-1.06,.35-1.6,.51h-.31c-2.19,.72-4.4,1.54-6.83,2.5h-.31l-1.41,.58-.44,.2c-3.03,1.29-5.94,2.7-8.63,4.11l-.61,.31-1.33,.71-.36,.2c-2.34,1.27-4.73,2.68-7.05,4.18l-.31,.2-2.6,1.71c-4.25,2.87-8.32,6.01-12.19,9.38l-.17,.18c-.82,.71-1.6,1.41-2.39,2.12-3.78,3.52-7.34,7.26-10.68,11.2l-4.13-2.5-10.82,16.06,15.98,10.87,10.83-16.13-3.41-2.26c2.87-3.34,5.93-6.5,9.17-9.49,.71-.68,1.41-1.33,2.12-1.95h.23c3.55-3.13,7.3-6.02,11.23-8.67l2.36-1.57,.34-.2c2.14-1.4,4.33-2.67,6.45-3.84l.41-.24,1.02-.55,.71-.37c2.51-1.3,5.17-2.57,7.99-3.8l.51-.2,1.2-.51h.28c2.22-.88,4.23-1.64,6.18-2.29h.37c.41-.17,.83-.3,1.26-.41l1.06-.34c.75-.25,1.5-.46,2.25-.71l3.82-1.02,2.12-.48h.44c2.36-.54,4.92-1.03,7.61-1.47,1.28-.28,2.58-.46,3.89-.55,2.69-.3,5.42-.54,8.12-.71h2.32c3.9-.13,7.81-.05,11.71,.24h2.72c1.02,.06,2.12,.37,3.41,.37h1.71l1.06,.17c1.24,.13,2.56,.37,4.06,.65h.65l1.19,.2h.58c2.26,.44,4.54,.99,6.83,1.64l.75,.2,1.23,.31h.24l3.41,1.14,.71,.24h.44l.96,.34c5,1.73,9.88,3.82,14.57,6.26l1.33,.71,.75,.41c.99,.51,1.91,1.07,2.93,1.64l1.3,.75h.24c1.98,1.22,4.1,2.57,6.21,4.04l.48,.31,.96,.71,.44,.34c2.86,2.05,5.66,4.25,8.3,6.54l1.47,1.3,1.64,1.5-3.11,2.64,12.46,14.81,14.74-12.51-12.42-14.81Z"/><polygon points="549.51 329.36 563.16 315.66 549.51 301.95 535.88 315.66 539.26 319.05 476.2 382.32 472.82 378.93 459.17 392.63 472.82 406.31 486.45 392.63 483.07 389.23 546.13 325.97 549.51 329.36"/><path d="M77.76,306l14.38-12.87-12.83-14.49-3.21,2.91c-16-21.48-25.84-46.92-28.47-73.58-.27-3.03-.47-5.9-.58-8.67v-6.13c.04-10.48,1.18-20.93,3.41-31.17v-.51c.61-2.74,1.3-5.52,2.12-8.46,3.73-13.38,9.34-26.15,16.66-37.95l3.41,2.53,11.66-15.45-15.4-11.72-11.78,15.52,4.23,3.22c-8.01,12.83-14.13,26.74-18.16,41.32-.95,3.26-1.71,6.48-2.36,9.52v.34c-2.27,10.82-3.41,21.84-3.41,32.89v6.5c0,2.94,.34,6.07,.65,9.25,2.77,28.69,13.39,56.07,30.69,79.12l-3.89,3.43,12.86,14.45Z"/><path d="M208.15,134.32c-.96-.2-2.22-.48-3.41-.65l-1.98-.31-4.3-.37h-1.67c-1.87-.11-3.74-.11-5.6,0l-2.56,.2h-1.19l-2.01,.28-1.06,.2-1.95,.34c-.87,.23-1.86,.43-2.82,.71l-1.71,.48-1.2,.37-1.74,.58c-2.44,.85-4.82,1.86-7.13,3.02l-2.19,1.2-1.6,.92c-.92,.54-1.91,1.21-2.93,1.92l-1.26,.89c-1.33,.97-2.63,1.99-3.96,3.12l-1.54,1.38,2.82,3.15-2.9-3.05-.55,.51c-1.9,1.77-3.67,3.69-5.29,5.72l-1.19,1.51c-4.7,6.04-8.18,12.94-10.24,20.32-.26,.89-.5,1.74-.71,2.64l-.23,1.16c-.89,4.19-1.34,8.46-1.33,12.74v2.82c-.02,1.08,.06,2.15,.24,3.22,1.38,13.41,7.22,25.97,16.59,35.66l.48,.51c.38,.38,.75,.79,1.26,1.23l.58,.58c.51,.48,1.1,1.03,1.81,1.64l2.25,1.95,73.05,73.09-3.41,3.42,13.65,13.7,13.66-13.7-13.65-13.73-3.41,3.36-72.88-73.28-2.56-2.29c-.61-.51-1.09-.96-1.57-1.41l-.61-.58c-.31-.28-.61-.58-.88-.89l-.52-.51c-7.83-8.12-12.72-18.62-13.9-29.84,.05-.88-.02-1.77-.2-2.64v-2.53c-.05-3.59,.27-7.17,.95-10.69l.24-1.09c.09-.73,.28-1.44,.55-2.12,1.7-6.21,4.6-12.03,8.54-17.13l1.02-1.3c1.37-1.67,2.84-3.26,4.4-4.76l1.95-1.75c1.02-.89,2.12-1.75,3.21-2.53l1.13-.79c.85-.59,1.69-1.14,2.39-1.54l3.41-1.85c1.87-.98,3.81-1.81,5.81-2.5l1.71-.59,.71-.2,1.6-.44c.78-.21,1.54-.42,2.25-.55l1.74-.34h.61l1.98-.28h9.11c1.2,.03,2.4,.14,3.58,.31l1.67,.24c.98,.18,2.03,.35,2.82,.55l1.5,.34,4.06,1.23,2.13,.82,1.06,.44c1.43,.62,2.38,1.1,2.93,1.38l1.74,.92c.68,.37,1.44,.82,2.22,1.33l1.3,.86c1.77,1.18,3.45,2.47,5.05,3.87l1.06,.96,.18,.21-2.74,2.43,13.17,14.93,14.01-12.44-13.16-14.93-4.01,3.53-.87-.83-1.3-1.16c-1.9-1.65-3.89-3.18-5.97-4.59l-.55-.37-.96-.62c-.94-.62-1.9-1.16-2.82-1.68l-1.81-.96c-.75-.37-1.94-.99-3.68-1.74l-1.16-.48c-1.09-.43-2.01-.77-2.77-1.02l-2.53-.82-2.32-.65-1.67-.38Z"/><path d="M187.12,100.36h-.92l-2.25,.28-2.63,.34-2.82,.48-2.29,.44c-1.67,.31-3.41,.75-5.12,1.23l-1.98,.51-2.63,.83-1.98,.71c-3.95,1.37-7.79,3.02-11.51,4.94l-2.12,1.16c-.71,.34-1.33,.68-2.12,1.16l-1.2,.71c-1.57,.92-3.2,1.99-4.85,3.12l-1.67,1.16c-2.18,1.57-4.37,3.42-6.48,5.14l-1.47,1.3-.99,.93-.44,.41c-3,2.82-5.81,5.84-8.4,9.04l-.44,.55-.92,1.2-.31,.37c-7.24,9.39-12.61,20.09-15.8,31.51-.39,1.53-.75,2.94-1.09,4.35l-.28,1.37c-.65,3.05-1.15,6.13-1.5,9.22l-5.73,.28,.87,19.36,19.29-.81-.85-19.35-3.65,.17c.3-2.29,.65-4.56,1.12-6.85l.28-1.33c.29-1.23,.62-2.46,.99-3.8,2.83-10.23,7.62-19.82,14.11-28.22l.28-.41,.75-.92,.44-.55c2.32-2.88,4.83-5.59,7.53-8.13l.48-.44,.78-.71,1.41-1.26c1.84-1.61,3.75-3.15,5.73-4.56l1.5-1.03c1.48-1.07,2.89-2,4.3-2.82l1.2-.71c.54-.31,1.06-.61,1.64-.89l2.12-1.14c3.31-1.7,6.73-3.16,10.24-4.38l1.81-.42,2.25-.71,1.81-.51c1.54-.39,3.08-.78,4.54-1.09l2.12-.38,2.32-.41,2.53-.34h1.33l-.24,3.7,19.29,1.06,1.3-19.32-19.29-1.3-.37,5.76Z"/><path d="M79.83,186.42l4,.75,3.41-19.08-19.05-3.42-3.41,19.05,5.36,.99c-.18,2.84-.31,5.69-.31,8.56v5.29c.05,2.42,.22,4.83,.52,7.23,2.81,28.02,14.96,54.28,34.49,74.57v.17c1.19,1.3,2.49,2.57,3.79,3.8l.23,.17c1.06,1.03,2.32,2.19,3.82,3.43l21.91,21.99-3.41,3.42,13.67,13.73,13.66-13.71-13.66-13.7-3.41,3.42-21.4-21.48-1.02-.89c-1.36-1.23-2.53-2.26-3.41-3.25l-.23-.25c-1.16-1.09-2.29-2.22-3.41-3.42v-.2c-18.02-18.7-29.24-42.91-31.85-68.75-.24-2.33-.37-4.53-.47-6.64v-4.94c0-2.29,0-4.56,.2-6.85Z"/><path d="M217.33,97.75l-5.29,18.64,18.54,5.28,.99-3.42,1.57,.79,1.95,1.06c1.49,.78,2.93,1.64,4.33,2.57l.71,.42,1.33,.89c2.85,1.91,5.58,4.01,8.16,6.26l.41,.35,1.02,.96,.28,.24c1.03,.95,2.05,1.98,3.08,2.98l-3.08,2.19,11.09,15.86,15.83-11.09-11.1-15.86-4.64,3.42c-1.5-1.58-3.01-3.08-4.58-4.56l-.23-.2-1.3-1.16-.37-.34c-2.87-2.46-5.89-4.75-9.04-6.85l-1.6-1.06-.61-.42c-1.66-1.07-3.4-2.05-4.94-2.91l-2.12-1.13-3.41-1.68,1.57-5.58-18.54-5.64Z"/><polygon points="242.57 424.7 256.26 438.42 269.91 424.72 256.26 411.02 252.88 414.42 186.18 347.52 189.59 344.12 175.9 330.42 162.24 344.12 175.86 357.8 179.28 354.41 245.94 421.31 242.57 424.7"/><path d="M645.33,174.18c-.55-5.55-1.34-11.03-2.36-16.44v-.62l-.71-3.42c-.78-3.73-1.73-7.64-2.82-11.58-6.52-23.58-17.54-45.69-32.45-65.09-1.3-1.47-2.32-2.84-3.41-4.14-2.63-3.22-5.4-6.44-8.23-9.49v-1.02l-12.37-11.22c-5.07-4.55-10.38-8.83-15.91-12.81-1.06-.75-2.08-1.52-3.17-2.22-3.41-2.53-6.83-4.8-10.24-6.85l-2.69-1.58c-1.84-1.09-3.58-2.05-5.26-2.91l-2.43-1.3c-3.04-1.57-6.14-3.08-9.28-4.49l1.77-4.76-18.13-6.85-6.83,18.16,18.09,6.85,1.57-4.23c2.77,1.27,5.54,2.6,8.23,4.01l2.26,1.23c1.57,.82,3.21,1.71,4.99,2.74l2.53,1.5c3.25,1.93,6.46,4.08,9.88,6.35,.99,.75,1.98,1.41,2.93,2.12,5.26,3.79,10.31,7.86,15.12,12.2l9.17,8.25v.59l1.36,1.41c3.14,3.22,6.18,6.86,9.08,10.28,1.03,1.23,2.02,2.53,3.08,3.91,14.11,18.38,24.54,39.32,30.72,61.65,1.03,3.77,1.96,7.57,2.67,11l.71,3.42c.99,5.04,1.7,10.18,2.25,15.31h-4.23l.63,19.79,19.29-.51-.51-19.38-5.29,.17Z"/><polygon points="325.49 577.15 298.9 552.52 291.94 560.09 325.96 591.53 356.17 559.85 348.76 552.76 325.49 577.15"/><path d="M571.03,204.83c-2.61,25.83-13.81,50.04-31.81,68.75l-.2,.2c-1.09,1.2-2.25,2.33-3.41,3.42l-.24,.25c-.89,.99-2.05,2.02-3.41,3.25l-1.02,.89-21.37,21.48-3.41-3.42-13.66,13.7,13.63,13.67,13.66-13.71-3.41-3.42,21.98-21.95c1.5-1.23,2.77-2.4,3.82-3.43l.2-.17c1.3-1.23,2.59-2.5,3.82-3.8l.17-.17c19.51-20.31,31.66-46.56,34.51-74.57,.24-2.5,.48-4.94,.48-7.23v-5.31c0-2.88-.11-5.74-.31-8.56l5.36-.99-3.41-19.05-19.05,3.42,3.41,19.08,3.96-.75c.2,2.29,.2,4.56,.2,6.85v4.94c-.07,2.1-.24,4.32-.48,6.64Z"/><path d="M628.44,229.83l4.23,.55c-7.06,33.26-23.26,63.89-46.77,88.44-1.91,2.02-3.89,4.01-5.88,5.85-1.47,1.51-3.02,2.94-4.64,4.28l-.2,.17-202.45,203.2-3.48-3.36-13.66,13.7,13.67,13.71,13.66-13.71-3.41-3.42,202.33-203.11c1.78-1.53,3.34-2.98,4.75-4.35,2.12-1.97,4.2-4.08,6.21-6.2,25.01-26.06,42.19-58.63,49.57-93.99l5.23,.71,2.45-19.22-19.15-2.5-2.45,19.25Z"/><path d="M167.67,18.81l-.99-4.23,2.69-.42c1.23-.2,2.45-.35,3.75-.51l5.94-.61,3.41-.28c6.12-.46,12.26-.57,18.4-.34h3.53c4.13,.24,8.36,.58,12.49,1.09l6.28,.86c4.23,.68,8.3,1.47,12.12,2.36l3.75,.9,6.03,1.62,4.33,1.34,3.24,1.06c3.24,1.1,6.49,2.29,9.93,3.67h.24l2.97,1.26c4.37,1.86,8.53,3.82,12.49,5.93l3.14,1.68c3.41,1.88,6.83,3.97,10.41,6.2,1.4,.89,2.8,1.78,4.16,2.71,6.07,4.13,11.89,8.62,17.41,13.46l3.75,3.42c1.61,1.51,3.44,3.05,4.85,4.66l3.41,3.42h.18v-.41l3.25-3.26c1.64-1.62,3.27-3.15,4.88-4.66l3.75-3.42c5.52-4.85,11.33-9.34,17.41-13.46l4.13-2.71c3.45-2.22,7.03-4.32,10.45-6.2l3.1-1.68c3.96-2.09,8.15-4.08,12.49-5.93l3-1.26h.2c3.44-1.38,6.72-2.57,9.93-3.67l3.53-.82,4.37-1.34,5.97-1.61,3.75-.9c3.86-.9,7.92-1.66,12.15-2.36l6.24-.86c4.17-.51,8.37-.85,12.53-1.09h3.53c6.13-.24,12.28-.12,18.4,.34l3.41,.28,5.94,.61,3.75,.51,2.72,.43-1.02,4.23,18.76,4.49,4.51-18.84-18.81-4.49-1.23,5.04-3.39-.51c-1.32-.29-2.65-.47-4-.55-2.07-.35-4.15-.56-6.24-.66-1.25-.26-2.52-.36-3.79-.31-6.43-.45-12.88-.58-19.32-.37h-3.82c-4.37,.24-8.82,.61-13.17,1.12-2.29,.28-4.47,.59-6.59,.93-4.47,.72-8.81,1.54-12.76,2.48l-3.99,.96-6.29,1.68c-1.57,.45-3.55,1.1-4.61,1.41s-2.22,.73-3.41,1.14c-3.35,1.09-6.79,2.4-10.48,3.87h-.24l-3.14,1.34c-4.54,1.93-8.99,4.04-13.11,6.24-1.17,.53-2.31,1.13-3.41,1.78-3.65,1.98-7.34,4.18-10.96,6.5-1.47,.92-2.96,1.88-4.37,2.88-6.41,4.32-12.53,9.04-18.34,14.14-1.39,1.07-2.73,2.21-4,3.42l-1.67,1.58h-.04l-1.71-1.58c-1.26-1.21-2.58-2.35-3.96-3.42-5.82-5.08-11.94-9.81-18.34-14.14l-4.37-2.88c-3.63-2.33-7.34-4.51-11-6.5-1.11-.66-2.25-1.25-3.41-1.78-4.13-2.19-8.54-4.32-13.11-6.24l-3.14-1.34h-.24c-3.69-1.47-7.1-2.77-10.48-3.87-1.19-.43-2.33-.85-3.41-1.14-1.09-.28-3-.93-4.61-1.41l-6.28-1.68-3.99-.96c-3.99-.93-8.3-1.76-12.77-2.47-2.19-.35-4.34-.66-6.62-.93-4.37-.51-8.81-.89-13.18-1.13h-3.8c-6.44-.2-12.89-.08-19.32,.37-1.27,0-2.54,.1-3.79,.31-2.08,.09-4.16,.31-6.21,.66-1.35,.08-2.7,.26-4.02,.54l-3.41,.51-1.2-5.04-18.78,4.49,4.47,18.81,18.78-4.49Z"/><polygon points="268.38 191.66 246.62 191.66 319.87 356.04 325.72 369.74 338.46 343.41 404.77 191.66 385.73 191.66 325.71 329.63 268.38 191.66"/><path d="M121.07,53.48c-1.33,.68-2.77,1.47-4.44,2.43l-2.12,1.27c-2.86,1.74-5.81,3.62-8.7,5.64l-.54,.32-3.41-4.11-14.81,12.44,12.39,14.87,14.81-12.44-2.69-3.22c2.62-1.82,5.25-3.43,7.85-5.07l1.98-1.16c1.34-.78,2.69-1.54,4.16-2.29l1.98-1.06c6.16-3.17,12.54-5.91,19.08-8.19,.65-.28,1.33-.48,2.12-.75l4.88-1.54,2.67-.71c3.06-.86,6.13-1.58,9.17-2.19,.85-.2,1.74-.35,2.69-.51,2.12-.41,3.99-.72,5.97-.99l2.82-.37c1.85-.24,3.42-.41,4.99-.51l2.82-.24c5.08-.38,10.17-.48,15.26-.31h2.82c3.41,.18,6.83,.48,10.41,.89l5.09,.71c3.41,.54,6.83,1.2,9.97,1.95l3.14,.71,4.68,1.27c1.23,.38,2.43,.72,3.72,1.16l2.6,.81c2.65,.89,5.33,1.88,8.3,3.08l2.32,.99c3.72,1.58,7.23,3.22,10.58,5l2.36,1.27c2.86,1.54,5.73,3.25,8.63,5.14l3.41,2.15c5.01,3.42,9.81,7.14,14.37,11.14,1.02,.85,2.01,1.74,3,2.67,5.42,5.03,10.47,10.45,15.09,16.22l-3.41,2.29,10.62,16.11,8.08-5.39,7.9,5.28,10.69-16.17-3.41-2.29c4.62-5.77,9.67-11.19,15.09-16.22,.99-.92,1.98-1.82,3-2.67,4.56-4,9.36-7.72,14.37-11.13,1.16-.75,2.29-1.45,3.41-2.16,2.87-1.88,5.77-3.59,8.63-5.14,.82-.44,1.57-.89,2.36-1.27,3.35-1.78,6.86-3.42,10.52-4.99l2.32-.99c3.01-1.2,5.66-2.19,8.3-3.08l2.6-.82,3.72-1.16,4.68-1.26,3.14-.71c3.17-.75,6.58-1.4,10-1.95l5.09-.71c3.41-.41,6.83-.68,10.24-.89h2.82c5.09-.17,10.18-.07,15.26,.31l2.82,.24c1.57,.11,3.15,.28,4.99,.51l2.82,.38c1.95,.29,3.82,.59,5.94,.99,.95,.18,1.84,.31,2.69,.51,3.06,.61,6.1,1.34,9.17,2.19l2.67,.71,4.94,1.54,2.12,.75c6.55,2.27,12.92,5,19.08,8.18l1.98,1.07c1.5,.75,2.86,1.5,4.23,2.29l1.95,1.16c2.6,1.65,5.22,3.25,7.85,5.07l-2.75,3.27,14.81,12.44,12.08-14.91-14.78-12.43-3.41,4.11-.44-.31c-2.91-2.05-5.8-3.93-8.67-5.64l-2.12-1.27-4.44-2.43-2.12-1.13c-6.45-3.37-13.14-6.27-20-8.7l-2.43-.83c-1.5-.53-3.25-1.07-5.23-1.64l-2.87-.79c-3.17-.92-6.49-1.67-9.66-2.33-.97-.29-1.96-.48-2.97-.55-2.19-.46-4.27-.8-6.25-1.02l-3.1-.44c-1.75-.29-3.52-.47-5.29-.55l-3.04-.24c-5.38-.4-10.79-.5-16.18-.31h-2.93c-3.72,.2-7.44,.51-11.12,.96-1.85,.2-3.63,.48-5.43,.75-3.75,.58-7.17,1.3-10.58,2.05l-3.41,.79-4.94,1.34-3.99,1.23-2.97,1.06c-2.77,.93-5.67,1.99-8.74,3.22l-2.63,1.13c-3.89,1.64-7.71,3.43-11.12,5.28l-2.6,1.41c-2.99,1.61-6.09,3.46-9.17,5.45-1.02,.72-2.22,1.5-3.41,2.33-5.33,3.62-10.44,7.57-15.29,11.82-1.09,.93-2.15,1.88-3.21,2.88-6.01,5.55-11.58,11.55-16.66,17.95l-4.44-2.95-2.49,3.88-2.82-3.88-4.44,2.95c-5.09-6.39-10.66-12.4-16.66-17.95-1.13-.99-2.15-1.95-3.24-2.88-4.85-4.25-9.96-8.2-15.29-11.82-1.19-.82-2.39-1.62-3.41-2.33-3.03-1.98-6.13-3.84-9.17-5.45l-2.6-1.41c-3.42-1.86-7.24-3.63-11.1-5.28l-2.67-1.14c-3.1-1.23-5.92-2.29-8.74-3.22l-2.76-.92-4-1.23-4.94-1.33-3.41-.79c-3.41-.75-6.82-1.47-10.62-2.05-1.81-.28-3.58-.55-5.42-.75-3.69-.44-7.41-.75-11.1-.96h-2.97c-5.4-.19-10.8-.09-16.18,.31l-2.98,.22c-1.76,.08-3.52,.26-5.26,.55-1.05,.05-2.09,.2-3.11,.45-2.01,.23-4.06,.58-6.24,1.02-1.01,.07-2,.26-2.97,.55-3.21,.65-6.52,1.44-9.69,2.33l-2.87,.79c-1.98,.57-3.72,1.12-5.23,1.64l-2.43,.82c-6.94,2.42-13.71,5.33-20.24,8.7l-2.12,1.13Z"/><path d="M281.72,529.05l-3.36,3.29L75.92,329.15l-.2-.17c-1.71-1.54-3.23-2.91-4.64-4.28-1.98-1.85-3.96-3.83-5.88-5.85-23.52-24.56-39.71-55.21-46.74-88.48l4.23-.55-2.49-19.25-19.15,2.5,2.5,19.24,5.19-.71c7.32,35.38,24.45,67.99,49.43,94.1,1.98,2.12,4.1,4.25,6.21,6.2,1.43,1.38,2.98,2.81,4.75,4.35l202.34,203.1-3.41,3.42,13.67,13.68,13.66-13.71-13.66-13.7Z"/><path d="M582.15,90.5l-15.4,11.72,11.67,15.45,3.42-2.55c7.31,11.81,12.92,24.58,16.66,37.96,.78,2.95,1.47,5.73,2.05,8.46v.53c2.16,10.25,3.25,20.7,3.24,31.17v6.13c-.1,2.77-.3,5.65-.61,8.66-2.61,26.66-12.44,52.09-28.43,73.58l-3.24-2.91-12.83,14.49,14.67,12.8,12.87-14.45-3.89-3.43c17.31-23.05,27.94-50.43,30.72-79.12,.31-3.18,.65-6.3,.65-9.25v-6.5c0-11.05-1.14-22.07-3.4-32.89v-.34c-.65-3.05-1.43-6.27-2.32-9.52-4.08-14.57-10.23-28.48-18.26-41.31l4.23-3.22-11.79-15.46Z"/><path d="M290.53,111.69c-3.34-3.95-6.92-7.69-10.72-11.2l-2.36-2.12-.2-.17c-3.85-3.38-7.91-6.52-12.15-9.38l-2.63-1.71-.27-.2c-2.34-1.51-4.73-2.91-7.05-4.18l-.34-.2-1.37-.71-.61-.31c-2.66-1.44-5.59-2.81-8.63-4.11l-.44-.2-1.41-.58h-.31c-2.43-.96-4.64-1.8-6.83-2.5h-.31l-1.64-.51-.79-.28-2.67-.83-4.06-1.09-2.43-.46h-.37c-2.56-.61-5.33-1.16-8.26-1.61l-4.23-.61c-2.93-.35-5.87-.59-8.91-.75h-2.29c-4.23-.14-8.47-.05-12.7,.28h-2.86l-3.79,.41h-.53l-1.54,.2h-.82c-1.4,.16-2.86,.4-4.51,.71h-.58l-1.54,.31h-.52c-2.43,.49-4.95,1.08-7.41,1.78l-.71,.17-1.47,.41h-.23l-3.96,1.23-.61,.2-.85,.31-.71,.24c-5.46,1.9-10.77,4.19-15.91,6.85l-1.41,.79-.65,.34-3.41,1.82-1.41,.85h-.2c-2.22,1.3-4.51,2.78-6.83,4.39l-.41,.28-1.26,.89-.37,.28c-3.08,2.22-6.12,4.59-9.05,7.16l-1.5,1.34-1.91,1.74-.2,.21-.52,.51-4.23-3.43-12.43,14.81,14.81,12.51,12.43-14.81-3.11-2.64,1.64-1.5,1.47-1.3c2.65-2.31,5.42-4.49,8.3-6.54l.44-.35,.99-.71,.44-.31c2.12-1.47,4.2-2.84,6.25-4.04h.24l1.26-.75c1.02-.59,1.95-1.13,2.97-1.64l.75-.42,1.3-.71c4.7-2.44,9.57-4.53,14.57-6.26l.95-.34h.44l.71-.24,3.62-1.14h.21l1.23-.31,.75-.2c2.32-.65,4.61-1.2,6.83-1.64h.58l1.23-.2h.65c1.5-.28,2.83-.51,4.03-.65l1.09-.17h1.68c1.3,0,2.43-.3,3.41-.37h2.73c3.91-.29,7.83-.37,11.75-.24h2.29c2.69,.16,5.46,.4,8.13,.71,1.32,.09,2.63,.27,3.92,.55,2.67,.44,5.22,.92,7.61,1.47h.4l2.12,.48,3.79,1.02c.75,.23,1.54,.43,2.25,.71l1.06,.34c.44,.1,.88,.24,1.3,.41h.34c1.95,.65,3.99,1.4,6.18,2.29h.3l1.19,.51,.51,.2c2.85,1.24,5.51,2.5,7.99,3.8l.71,.38,1.02,.55,.41,.24c2.14,1.16,4.33,2.43,6.45,3.84l.37,.2,2.36,1.58c3.93,2.65,7.7,5.53,11.27,8.64h.2c.68,.62,1.39,1.27,2.12,1.95,3.23,2.99,6.29,6.16,9.17,9.49l-3.41,2.26,10.85,16.03,16.01-10.86-10.82-16.06-4.37,2.88Z"/><polygon points="475.19 357.82 488.84 344.12 475.22 330.4 461.56 344.1 464.94 347.49 398.24 414.39 394.89 411 381.23 424.7 394.88 438.43 408.54 424.73 405.16 421.34 471.81 354.43 475.19 357.82"/><path d="M19.85,174.11h-4.23c.56-5.14,1.31-10.24,2.25-15.31l.71-3.42c.75-3.57,1.64-7.24,2.67-11,6.19-22.33,16.62-43.26,30.72-61.65,1.06-1.38,2.05-2.67,3.1-3.91,2.87-3.43,5.95-7.06,9.09-10.28l1.33-1.41v-.55l9.17-8.25c4.8-4.34,9.84-8.41,15.09-12.2,.96-.75,1.95-1.41,2.97-2.12,3.43-2.24,6.6-4.39,9.88-6.35l2.56-1.5c1.73-1.03,3.4-1.92,4.94-2.74l2.36-1.23c2.67-1.4,5.43-2.74,8.2-4.01l1.57,4.23,18.09-6.85-6.83-18.16-18.09,6.85,1.74,4.76c-3.14,1.4-6.24,2.91-9.28,4.49l-2.43,1.3c-1.64,.86-3.41,1.82-5.26,2.91l-2.69,1.58c-3.41,2.05-6.82,4.32-10.24,6.85-1.09,.72-2.14,1.47-3.14,2.22-5.54,3.97-10.85,8.25-15.91,12.81l-12.44,11.2v1.02c-2.82,3.05-5.59,6.27-8.18,9.49-1.09,1.32-2.19,2.67-3.41,4.14-14.9,19.41-25.92,41.51-32.45,65.09-1.08,3.94-2.04,7.84-2.82,11.58l-.71,3.42v.62c-1.03,5.41-1.81,10.89-2.36,16.44l-5.26-.17-.54,19.38,19.32,.51,.53-19.81Z"/><polygon points="896.55 285.52 968.75 74.28 906.4 74.28 858.96 226.44 811.22 74.28 748.87 74.28 821.07 285.52 896.55 285.52"/><rect x="986.06" y="74.28" width="58.78" height="211.23"/><path d="M1136.13,207.65h5.97l42.67,77.87h64.74l-48.04-82.05c15.31-4.37,27.05-11.98,35.21-22.83,8.15-10.84,12.23-23.62,12.23-38.34,0-12.93-2.98-24.56-8.95-34.91-5.97-10.34-14.87-18.45-26.7-24.31-11.84-5.86-26.21-8.8-43.11-8.8h-92.79v211.23h58.78v-77.87Zm0-83.84h28.94c8.15,0,14.27,1.99,18.35,5.97,4.08,3.98,6.12,9.45,6.12,16.41,0,14.72-8.16,22.08-24.47,22.08h-28.94v-44.45Z"/><polygon points="1431.2 74.28 1259.35 74.28 1259.35 121.12 1315.74 121.12 1315.74 285.52 1374.22 285.52 1374.22 121.12 1431.2 121.12 1431.2 74.28"/><path d="M1572.32,194.82c0,11.74-2.74,20.89-8.21,27.45-5.47,6.56-13.58,9.85-24.32,9.85s-18.75-3.23-24.02-9.7c-5.27-6.46-7.91-15.67-7.91-27.6V74.28h-58.48v120.53c0,20.09,3.78,37.1,11.34,51.02,7.56,13.93,18.05,24.37,31.47,31.33,13.43,6.96,28.89,10.44,46.4,10.44s33.22-3.53,47.14-10.59c13.92-7.06,24.91-17.55,32.97-31.48,8.06-13.92,12.08-30.83,12.08-50.72V74.28h-58.48v120.53Z"/><path d="M1724.18,75.18l-77.27,210.34h61.76l11.64-35.21h74.89l11.64,35.21h62.06l-76.98-210.34h-67.73Zm10.74,130.98l22.98-68.62,22.67,68.62h-45.65Z"/><polygon points="1944.97 241.06 1944.97 74.28 1886.19 74.28 1886.19 285.52 2010.9 285.52 2010.9 241.06 1944.97 241.06"/><path d="M887.16,468.55c-8.75-4.57-19.79-9.25-33.12-14.02-12.14-4.18-21.04-7.95-26.7-11.34-5.67-3.38-8.5-8.06-8.5-14.02,0-4.77,1.29-8.35,3.88-10.74,2.58-2.39,6.16-3.58,10.74-3.58,5.37,0,9.7,1.59,12.98,4.77,3.28,3.18,5.32,8.06,6.12,14.62h62.95c-1.39-20.69-9.3-36.74-23.72-48.18-14.42-11.44-33.76-17.16-58.03-17.16-14.92,0-28.25,2.44-39.98,7.31-11.74,4.88-20.99,12.04-27.75,21.48-6.76,9.45-10.14,20.74-10.14,33.86s3.13,24.96,9.4,33.71c6.27,8.75,13.72,15.32,22.38,19.69,8.65,4.38,19.64,8.85,32.97,13.43,12.53,4.18,21.68,8.01,27.45,11.49,5.77,3.48,8.65,8.4,8.65,14.77,0,4.77-1.44,8.46-4.33,11.04-2.89,2.59-6.91,3.88-12.08,3.88-5.77,0-10.64-1.79-14.62-5.37-3.98-3.58-6.27-9.05-6.86-16.41h-62.36c1.39,21.68,10,38.39,25.81,50.12,15.81,11.74,35.95,17.6,60.42,17.6,16.11,0,29.93-2.78,41.47-8.36,11.53-5.56,20.29-13.13,26.26-22.68,5.97-9.55,8.95-20.18,8.95-31.92,0-13.92-3.18-25.26-9.55-34.01-6.37-8.75-13.92-15.41-22.68-19.99Z"/><path d="M1101.23,382.77c-16.41-9.25-34.56-13.87-54.45-13.87s-37.79,4.62-54.3,13.87c-16.51,9.25-29.54,22.13-39.08,38.64-9.55,16.51-14.32,35.11-14.32,55.79s4.77,39.28,14.32,55.79c9.55,16.51,22.57,29.39,39.08,38.64,16.51,9.25,34.61,13.87,54.3,13.87s37.74-4.62,54.15-13.87c16.41-9.25,29.39-22.13,38.93-38.64,9.55-16.51,14.32-35.1,14.32-55.79s-4.73-39.28-14.17-55.79c-9.45-16.51-22.38-29.39-38.79-38.64Zm-19.54,133.51c-8.55,9.75-20.19,14.62-34.91,14.62s-26.66-4.87-35.21-14.62c-8.56-9.74-12.83-22.77-12.83-39.08s4.27-29.88,12.83-39.53c8.55-9.64,20.29-14.47,35.21-14.47s26.6,4.83,35.06,14.47c8.45,9.65,12.68,22.82,12.68,39.53s-4.28,29.34-12.83,39.08Z"/><path d="M1302.16,492.72c0,11.74-2.74,20.89-8.21,27.45-5.47,6.56-13.58,9.84-24.32,9.84s-18.75-3.23-24.02-9.7c-5.27-6.46-7.91-15.67-7.91-27.6v-120.53h-58.48v120.53c0,20.09,3.78,37.1,11.34,51.02,7.56,13.93,18.05,24.37,31.47,31.33,13.43,6.96,28.89,10.44,46.4,10.44s33.22-3.53,47.14-10.59c13.92-7.06,24.91-17.55,32.97-31.48,8.06-13.92,12.08-30.83,12.08-50.72v-120.53h-58.48v120.53Z"/><polygon points="1450.44 372.18 1391.67 372.18 1391.67 583.42 1516.38 583.42 1516.38 538.96 1450.44 538.96 1450.44 372.18"/></g></g></svg>