<?xml version="1.0" encoding="utf-8"?>
<!-- Generator: Adobe Illustrator 25.0.0, SVG Export Plug-In . SVG Version: 6.00 Build 0)  -->
<svg version="1.1" id="Capa_1" xmlns="http://www.w3.org/2000/svg" xmlns:xlink="http://www.w3.org/1999/xlink" x="0px" y="0px"
	 viewBox="0 0 90.5 90.4" style="enable-background:new 0 0 90.5 90.4;" xml:space="preserve">
<style type="text/css">
	.st0{fill-rule:evenodd;clip-rule:evenodd;fill:#FFFFFF;}
	.st1{fill:#FFFFFF;}
</style>
<path id="_PLEASE_WAIT_Please_wait_copy_2" class="st0" d="M37.5,0.8l-4.9,1l1.4,7l2.5-0.5l-0.4-2l2.4-0.5c1.9-0.4,2.8-1.6,2.5-3.2
	C40.8,1,39.4,0.4,37.5,0.8z M37.6,4.2l-1.7,0.4l-0.4-1.7l1.7-0.4c0.4-0.2,1,0,1.2,0.4c0,0.1,0.1,0.1,0.1,0.2c0.1,0.5-0.2,1-0.7,1.1
	C37.7,4.2,37.6,4.2,37.6,4.2L37.6,4.2z M44.1,7.1l7,0.4l0.1-2l-4.5-0.2l0.3-5.1L44.5,0L44.1,7.1z M56.4,7l0.3-1l4.5,1.4L61.6,6
	l-4.5-1.4l0.3-1l4.6,1.5l0.5-1.6l-7.1-2.3l-2.2,6.8l7.1,2.3L61,8.6L56.4,7z M68.2,14.8l2.3,1.5l1.2-7.7l-2.8-1.8l-6.7,4.1l2.3,1.5
	l1.2-0.8l2.8,1.8L68.2,14.8z M67.1,10.6l1.1-0.7c0.5-0.3,0.9-0.6,1.3-1l0,0c-0.2,0.5-0.3,1-0.4,1.6l-0.3,1.3L67.1,10.6z M74.1,20.8
	c1.7,2,3.5,2.7,4.7,1.6c1-0.9,1-1.9-0.2-3.6l-1-1.5c-0.4-0.6-0.4-0.8-0.2-1c0.2-0.2,0.7,0,1.2,0.7c0.7,0.8,1.1,1.7,1.2,2.7l2.1,0.1
	C81.6,18.4,81,17.1,80,16c-1.6-1.9-3.2-2.5-4.3-1.5c-1.1,0.9-1,2,0,3.5l1.2,1.8c0.3,0.5,0.4,0.7,0.2,0.9c-0.3,0.2-0.8,0-1.4-0.8
	c-0.7-0.9-1.1-1.9-1.1-3.1l-2.2-0.3C72.4,18.1,73,19.6,74.1,20.8L74.1,20.8z M80.8,27.4l1-0.5l2,4.2l1.4-0.7l-2-4.2l0.9-0.4l2.1,4.4
	l1.6-0.7l-3.1-6.7l-6.4,3l3.2,6.8l1.6-0.7L80.8,27.4z M83.3,41.2l0,2.9l4,1.4c0.2,0.1,0.4,0.1,0.7,0.2v0c-0.2,0-0.5,0.1-0.7,0.1
	l-4,1.3l0,2.9l7.1,2.5l0-2.6l-4-1.2c-0.2-0.1-0.5-0.1-0.8-0.1v0c0.3,0,0.5-0.1,0.8-0.2l4-1.3l0-2.7l-4-1.4c-0.2-0.1-0.5-0.2-0.8-0.2
	v0c0.3,0,0.5-0.1,0.8-0.1l4-1.1l0-2.6L83.3,41.2z M80.5,59.5l-0.9,2.6l7.8-0.8l1.1-3.1l-5.6-5.4L82,55.4l1.1,1L82,59.5L80.5,59.5z
	 M84.3,57.4l1,0.9c0.4,0.4,0.8,0.7,1.3,1l0,0c-0.5-0.1-1.1-0.1-1.6,0l-1.3,0.1L84.3,57.4z M77.1,66l6.1,3.7l1.3-2.2l-6.1-3.7
	L77.1,66z M75.9,78.6l5.4-5.9l-1.4-1.3l-1.8,2l-3.8-3.5l-1.7,1.9l3.8,3.5l-1.9,2L75.9,78.6z M65,83.6l1.2,1.1l0.7-1.4l0.3,1.4
	l1.6-0.9l-1.1-0.9l1.6,0.1l-0.4-1.6l-1.4,0.7l0.7-1.5l-1.7-0.1l0.2,1.6l-1.3-1l-0.8,1.5l1.6,0.1L65,83.6z M52.3,89.8l4.9-0.9l-1.3-7
	l-2.5,0.5l0.4,2l-2.4,0.5c-1.9,0.3-2.9,1.6-2.6,3.1C49.1,89.5,50.4,90.1,52.3,89.8L52.3,89.8z M52.4,86.3l1.7-0.3l0.3,1.7L52.7,88
	c-0.5,0.2-1,0-1.2-0.5c0-0.1,0-0.1-0.1-0.2c-0.1-0.5,0.2-1,0.7-1.1C52.2,86.3,52.3,86.3,52.4,86.3L52.4,86.3z M45.8,83.4l-7-0.5
	l-0.1,2l4.5,0.3l-0.4,5.1l2.6,0.2L45.8,83.4z M33.6,83.2l-0.3,1l-4.4-1.5l-0.5,1.5l4.4,1.5l-0.3,1l-4.6-1.6l-0.6,1.6l7,2.4l2.3-6.7
	L29.5,80l-0.6,1.6L33.6,83.2z M21.9,75.2l-2.2-1.6l-1.3,7.7l2.7,1.9l6.8-4l-2.3-1.6l-1.2,0.8l-2.7-1.9L21.9,75.2z M22.9,79.5
	l-1.1,0.7c-0.5,0.3-0.9,0.6-1.3,1l0,0c0.2-0.5,0.3-1,0.4-1.6l0.3-1.3L22.9,79.5z M16.1,69.1c-1.7-2.1-3.4-2.7-4.7-1.7
	c-1.1,0.9-1,1.9,0.1,3.6l1,1.5c0.4,0.6,0.4,0.8,0.2,1c-0.3,0.2-0.7,0-1.2-0.7c-0.7-0.8-1.1-1.7-1.1-2.8L8.4,70
	c0.2,1.4,0.8,2.8,1.8,3.9c1.6,2,3.2,2.5,4.3,1.6c1.1-0.9,1-2,0.1-3.5l-1.1-1.8c-0.3-0.5-0.4-0.7-0.1-0.9c0.3-0.2,0.8,0,1.4,0.8
	c0.7,0.9,1.1,2,1,3.1l2.2,0.4C17.8,71.9,17.2,70.4,16.1,69.1L16.1,69.1z M9.5,62.4l-1,0.4l-1.9-4.3l-1.4,0.6l1.9,4.3l-0.9,0.4
	l-2-4.4l-1.6,0.7l3,6.8l6.5-2.9L9,57.2l-1.6,0.7L9.5,62.4z M7.2,48.6l0.1-2.9l-4-1.5c-0.2-0.1-0.4-0.1-0.7-0.2v0
	c0.2,0,0.5-0.1,0.7-0.1l4-1.3l0.1-2.9l-7-2.6l-0.1,2.6l4,1.2c0.2,0.1,0.5,0.1,0.8,0.2l0,0c-0.3,0-0.5,0.1-0.8,0.2l-4,1.3l-0.1,2.7
	l3.9,1.5C4.3,47,4.6,47,4.9,47.1v0c-0.3,0-0.5,0-0.8,0.1l-4,1L0,50.8L7.2,48.6z M10.2,30.3l0.9-2.6l-7.8,0.7l-1.1,3.1l5.6,5.5
	l0.9-2.6l-1.1-1l1.1-3.1L10.2,30.3z M6.4,32.4l-1-0.9c-0.4-0.4-0.8-0.7-1.3-1l0,0c0.5,0.1,1.1,0.1,1.6,0l1.3-0.1L6.4,32.4z
	 M13.8,23.9l-6-3.8l-1.4,2.2l6,3.8L13.8,23.9z M15.2,11.4l-5.5,5.8l1.4,1.3l1.9-2l3.8,3.5l1.8-1.9l-3.8-3.5l1.9-2L15.2,11.4z
	 M26.1,6.6l-1.2-1.1l-0.7,1.4L24,5.4l-1.6,0.9l1.1,1l-1.6-0.1l0.3,1.6L23.6,8l-0.7,1.5l1.7,0.1L24.4,8l1.3,1l0.8-1.5l-1.6-0.2
	L26.1,6.6z"/>
<path class="st1" d="M43.1,34.1c0.7,0,1.4-0.1,2.2-0.1c10.7,0,19.5,4.5,20.4,10.2c-0.5-10.8-9.4-19.4-20.4-19.4
	c-0.7,0-1.4,0-2.2,0.1c-9.9,1-17.7,9.2-18.2,19.3C25.7,38.9,33.4,34.7,43.1,34.1"/>
<path class="st1" d="M45.2,56.4c-0.7,0-1.5,0-2.2-0.1c-9.7-0.6-17.4-4.8-18.2-10.1c0.5,10.1,8.3,18.3,18.2,19.3
	c0.7,0.1,1.4,0.1,2.2,0.1c10.9,0,19.9-8.6,20.4-19.4C64.7,51.9,55.9,56.4,45.2,56.4"/>
<path class="st1" d="M45.2,37.3c-0.3,0-0.6,0-0.8,0c-4,0.4-7.1,3.8-7.1,7.9c0,4.1,3.1,7.5,7.1,7.9c0.3,0,0.6,0,0.8,0
	c4.4,0,8-3.6,8-8C53.2,40.8,49.6,37.3,45.2,37.3 M45.2,49.5c-0.2,0-0.3,0-0.5,0c-2.2-0.2-3.8-2.1-3.8-4.3c0-2.2,1.7-4,3.8-4.3
	c0.1,0,0.3,0,0.5,0c2.4,0,4.3,1.9,4.3,4.3C49.5,47.6,47.6,49.5,45.2,49.5"/>
</svg>
