<svg id="Capa_1" data-name="Capa 1" xmlns="http://www.w3.org/2000/svg" viewBox="0 0 90.7 90.7"><defs><style>.cls-1{fill:#fff;}</style></defs><g id="Capa_2" data-name="Capa 2"><g id="Capa_2-2" data-name="Capa 2-2"><path class="cls-1" d="M18.7,8.8h2.4v1l-2.5.4Zm1.8.3,1,.4-1.1,2.1-1.3-.5ZM20.6,7l1,1.9-1.2.7L19.2,7.9Zm-.2,2.6,1.2-.7,1.2,1.8-1.4.9Zm1.1-.1-1-.4,1.1-2.2,1.3.5Zm1.8.3H20.9V8.7l2.5-.3Z"/><path class="cls-1" d="M31.2,2.1,35,1.3a4.8,4.8,0,0,1,2.4-.1,3.2,3.2,0,0,1,1.7.9,4.4,4.4,0,0,1,1,1.9h0A8.1,8.1,0,0,1,40,6.2a4.8,4.8,0,0,1-1.2,1.6,10.2,10.2,0,0,1-2.2.9l-3.8.9Zm4.7,5,1-.5a2.2,2.2,0,0,0,.5-.8,2.4,2.4,0,0,0,0-1.2h0a3.1,3.1,0,0,0-.5-1,1,1,0,0,0-.8-.5,2,2,0,0,0-1.1,0l-.8.2L35,7.2Z"/><path class="cls-1" d="M41.2.2,47.5,0V1.8H43.9V3.1h3.4V4.7H44V6h3.7V7.6l-6.3.2Z"/><path class="cls-1" d="M50.1,7.7a3.8,3.8,0,0,1-1.2-1,1.6,1.6,0,0,1-.3-1.3h0l2.4.4h0a.5.5,0,0,0,.2.4l.5.3.7.2h1.1c.2-.1.2-.2.2-.3h0a.4.4,0,0,0-.2-.5l-1-.4L51.6,5a3.9,3.9,0,0,1-1.9-1,2.3,2.3,0,0,1-.6-1.6h.1a1.7,1.7,0,0,1,.6-1.2A3.4,3.4,0,0,1,51.3.5h1.9a6.6,6.6,0,0,1,2,.6,1.8,1.8,0,0,1,1.1,1,1.5,1.5,0,0,1,.3,1.3h0L54.2,3h0c0-.2,0-.3-.2-.4l-.4-.3L53,2.1c-.3,0-.5-.1-.6,0H52c-.1.1-.2.2-.2.3h0a.8.8,0,0,0,.2.5l1,.4.9.2a4.3,4.3,0,0,1,2,1.1,1.6,1.6,0,0,1,.5,1.6h0a1.5,1.5,0,0,1-.7,1.2,2.1,2.1,0,0,1-1.4.7H52.1A7.9,7.9,0,0,1,50.1,7.7Z"/><path class="cls-1" d="M58.9,1.7l2.6.9L59.6,8.2,63,9.3,62.4,11,56.5,9Z"/><path class="cls-1" d="M66.2,4.5l2.4,1.2-3.4,6.9-2.4-1.2Z"/><path class="cls-1" d="M66.7,11.6l5.9-1.1h0L69.3,8l1.1-1.4,5.7,4.3L75.3,12l-5.8,1.2h0l3.4,2.5-1.1,1.4-5.9-4.3Z"/><path class="cls-1" d="M79.7,14.5l1.6,2-1.4,1.2-.6-.7-5.5,2.3L72,17.1ZM75.9,17l2.8,3.5-.8,1.4-3.6-4.3Zm3.5,0,1.3-1.1,1.1,1.3-3.9,7.2-1.8-2.2Z"/><path class="cls-1" d="M84.7,21.4l1.7,3.8a6.6,6.6,0,0,1,.6,2,4,4,0,0,1-.3,1.5,2,2,0,0,1-1.1.9h0a2.7,2.7,0,0,1-1.3.2,3.1,3.1,0,0,1-1.3-.6L81.2,32,80,29.2l1.6-2.4h0l-.4-.7L79,27.2l-1.1-2.6Zm-1.6,5,.6.7h.8a.8.8,0,0,0,.4-.6.9.9,0,0,0-.1-.9l-.4-1-1.7.8Z"/><path class="cls-1" d="M89.6,35.8l.4,2.5-1.8.3v-.9l-5.9-1-.4-2.8Zm-1.5,1.9,1.8-.2.2,1.6-7,4-.4-2.7Zm-2.9-1.8.6,4.4-1.5.8-.8-5.6Z"/><path class="cls-1" d="M84.6,44.9v2.5a1.6,1.6,0,0,0,.2,1,.4.4,0,0,0,.6.3h.4l.3-.5a1.5,1.5,0,0,0,.1-.7V44.9h1.4v2.4a2,2,0,0,0,.2.9.7.7,0,0,0,.6.3h0c.2.1.4-.1.5-.3a1.1,1.1,0,0,0,.3-.8V44.9h1.5v3.2a4.1,4.1,0,0,1-.3,1.6,2.6,2.6,0,0,1-.7,1,1.3,1.3,0,0,1-1,.4h0c-.3-.1-.6-.1-.8-.3a1.8,1.8,0,0,1-.5-.7,1.7,1.7,0,0,1-.3-1h0l-.3,1.2a2.7,2.7,0,0,1-.7.8,1.1,1.1,0,0,1-.8.3h-.1a1.5,1.5,0,0,1-1.1-.4,2.4,2.4,0,0,1-.7-1.2,4.7,4.7,0,0,1-.3-1.7V44.8Zm6-1.3v2.7H83.1V43.5Z"/><path class="cls-1" d="M87.5,57.3l1.7.5-.4,1.6-8,1.1.7-2.8Zm2.2-1.2L89,58.6l-1.7-.5.2-.8-5.1-3.2.7-2.8Zm-4.2-1.7-1.1,4.4-1.7.2,1.4-5.5Z"/><path class="cls-1" d="M80.3,61.6a3.7,3.7,0,0,1,1.4-.7,4.2,4.2,0,0,1,1.6.4h0l-1.2,2.3h0l-.5-.2-.5.2-.3.4a.6.6,0,0,0-.1.7c0,.2.2.4.5.5l4.3,2.4L84.2,70l-4.3-2.4a2.6,2.6,0,0,1-1.4-1.8,6.3,6.3,0,0,1,.6-2.7Z"/><path class="cls-1" d="M76.2,68.8a3.9,3.9,0,0,1,2.1-.3,4.5,4.5,0,0,1,1.9,1.1h0a3.4,3.4,0,0,1,1.1,1.8,3,3,0,0,1-.1,2.1,5,5,0,0,1-1.3,2.2,4.3,4.3,0,0,1-2,1.5,2.7,2.7,0,0,1-2,.2,3.5,3.5,0,0,1-1.9-1h0a3.6,3.6,0,0,1-1.2-1.8,5,5,0,0,1,.1-2.1A7,7,0,0,1,76.2,68.8ZM75,72.5a3.4,3.4,0,0,0,.1,1l.7.9h0a2.1,2.1,0,0,0,1,.6h1a1.6,1.6,0,0,0,.8-.6,1.6,1.6,0,0,0,.5-.9,1.7,1.7,0,0,0-.1-1,1.6,1.6,0,0,0-.7-.9h0a2.1,2.1,0,0,0-1-.6h-.9l-.9.6A4.1,4.1,0,0,0,75,72.5Z"/><path class="cls-1" d="M67.3,80.8h2.4v1.1l-2.4.3Zm1.8.3,1,.4L69,83.6l-1.3-.4Zm1.1-.1-1.1.7-1.3-1.8,1.4-.9Zm-.1,2.6-1-1.9,1.1-.7,1.2,1.7Zm0-2.1-1-.4L70.2,79l1.3.5Zm1.9.3H69.6V80.7l2.4-.3Z"/><path class="cls-1" d="M62,87.7l-3.8,1a6.3,6.3,0,0,1-2.4.2,3.8,3.8,0,0,1-1.7-.8A4.5,4.5,0,0,1,53,86.2h0a3.7,3.7,0,0,1,0-2.1,3.4,3.4,0,0,1,1.1-1.7,6.5,6.5,0,0,1,2.2-1.1l3.7-1Zm-4.9-4.8c-.5.2-.8.3-1,.6a1.4,1.4,0,0,0-.5.8,2.5,2.5,0,0,0,.1,1.2h0a3.1,3.1,0,0,0,.5,1,1.2,1.2,0,0,0,.8.4h1.1l.8-.3-1-3.9Z"/><path class="cls-1" d="M52.1,90.1l-6.4.5V88.9l3.7-.4V87.3l-3.5.3V86l3.5-.3V84.5l-3.7.3L45.5,83l6.4-.5Z"/><path class="cls-1" d="M42.8,83a4.1,4.1,0,0,1,1.3,1,2.8,2.8,0,0,1,.4,1.3H42l-.2-.4-.5-.3H39.9l-.4.2-.2.3h0c-.1.2.1.4.3.5l1,.3.9.2a5.4,5.4,0,0,1,2,1,2,2,0,0,1,.6,1.5h0a3.1,3.1,0,0,1-.6,1.3,3.7,3.7,0,0,1-1.4.7,7.1,7.1,0,0,1-2,.2l-2-.5a2.7,2.7,0,0,1-1.2-.9,1.6,1.6,0,0,1-.3-1.3H39l.2.3.4.3.7.2h.6l.4-.2c.1,0,.1-.1.1-.3h0l-.2-.4-1-.3-.9-.3a4,4,0,0,1-2.1-.9,1.7,1.7,0,0,1-.6-1.5h0a1.8,1.8,0,0,1,.6-1.3,2.8,2.8,0,0,1,1.5-.8,4.9,4.9,0,0,1,2.1-.1Z"/><path class="cls-1" d="M34.4,89.6l-2.6-.8,1.6-5.6-3.5-1,.5-1.7,6,1.7Z"/><path class="cls-1" d="M26.9,87.2l-2.4-1,2.9-7.1,2.5,1.1Z"/><path class="cls-1" d="M26,80.2l-5.7,1.5h-.1l3.4,2.2-.9,1.5-6-3.8.7-1.2,5.7-1.6h.1l-3.6-2.3.9-1.5,6.2,4Z"/><path class="cls-1" d="M13,75.7l-1.3,1.2-1.1-1.2L14,68.3l1.9,2Zm-.1,2.5-1.7-1.9,1.3-1.2.6.6L18.5,73l1.9,2.1Zm3.6-2.8-3.1-3.2.8-1.5L18,74.8Z"/><path class="cls-1" d="M7.4,71.7,5.4,68a4.4,4.4,0,0,1-.7-1.9,2.6,2.6,0,0,1,.2-1.5,3.5,3.5,0,0,1,1-1.1h0a2.2,2.2,0,0,1,1.4-.2,2.6,2.6,0,0,1,1.2.5l1.6-2.9,1.5,2.7L10.1,66h.1l.3.7,2.2-1.2L14,68Zm1.2-5.1L8,65.9a.8.8,0,0,0-.8.1h0a.8.8,0,0,0-.4.6,1,1,0,0,0,.2.9l.5,1,1.6-.9Z"/><path class="cls-1" d="M2.9,55.6,1.2,56,.8,54.3l6.8-4.5.6,2.8Zm-1.4,2L1,55.1l1.7-.3.2.8,6,.7.6,2.8ZM6,57.3l-.9-4.5L6.5,52l1.1,5.5Z"/><path class="cls-1" d="M6.1,48.1V45.6a2.9,2.9,0,0,0-.2-.9.9.9,0,0,0-.6-.4h0l-.5.2a1.7,1.7,0,0,0-.2.5,2,2,0,0,0-.1.7v2.5H3.2V45.9a1.6,1.6,0,0,0-.3-.9.7.7,0,0,0-.6-.3h0a.5.5,0,0,0-.5.3,2.9,2.9,0,0,0-.2.9v2.4H.1V45.2a5.2,5.2,0,0,1,.2-1.7,2.7,2.7,0,0,1,.6-1,1.8,1.8,0,0,1,1-.4h0l.8.2.6.7a1.6,1.6,0,0,1,.3.9h0a5.2,5.2,0,0,1,.2-1.1,4.7,4.7,0,0,1,.6-.9l.9-.3h0a2.7,2.7,0,0,1,1.2.3A7.6,7.6,0,0,1,7.3,43a5.5,5.5,0,0,1,.3,1.7v3.4ZM.2,49.7V47l7.5-.3v2.7Z"/><path class="cls-1" d="M.4,37.4l.5-2.6,1.7.4V36l5.3,2.9-.5,2.7ZM2.5,36,.7,35.7,1,34l7.9-1.6-.5,2.8Zm2.2,2.7.8-4.4L7.1,34l-.9,5.6Z"/><path class="cls-1" d="M9.4,31.2A3.9,3.9,0,0,1,8,32a3.9,3.9,0,0,1-1.5-.2h0l1-2.4H8l.4-.2c.2-.1.3-.2.3-.4a.8.8,0,0,0,.1-.8.7.7,0,0,0-.5-.4l-4.5-2,1.1-2.5,4.5,2a2.2,2.2,0,0,1,1.5,1.7,6.3,6.3,0,0,1-.4,2.7A6.2,6.2,0,0,1,9.4,31.2Z"/><path class="cls-1" d="M13,23.8a7.8,7.8,0,0,1-2.1.4A4.2,4.2,0,0,1,9,23.3H8.9a3.6,3.6,0,0,1-1.2-1.8,3.8,3.8,0,0,1-.1-2.1,4.8,4.8,0,0,1,1.2-2.2,5.8,5.8,0,0,1,1.8-1.7,5.2,5.2,0,0,1,2.1-.4,3.4,3.4,0,0,1,1.9.9h.1a3.2,3.2,0,0,1,1.2,1.8,3,3,0,0,1,.1,2.1,9.4,9.4,0,0,1-1.2,2.2A7.3,7.3,0,0,1,13,23.8Zm.9-3.8a2.9,2.9,0,0,0-.2-.9,2.2,2.2,0,0,0-.7-.9h0a2.4,2.4,0,0,0-1.1-.6H11a1.6,1.6,0,0,0-.8.6,1.2,1.2,0,0,0-.4,1,1.4,1.4,0,0,0,.1.9l.7.9h0a3.9,3.9,0,0,0,1.1.6h.9a1.6,1.6,0,0,0,.8-.6A4.7,4.7,0,0,0,13.9,20Z"/></g></g></svg>